<svg width="100" height="100" viewBox="0 0 100 100" fill="none" xmlns="http://www.w3.org/2000/svg">
<path fill-rule="evenodd" clip-rule="evenodd" d="M50 0C77.6144 0 100 22.3856 100 50C100 56.3512 98.8144 62.4248 96.654 68.0136H85.2016C84.5712 68.0136 84.0556 68.5292 84.0556 69.1596C84.0556 69.79 84.5712 70.3056 85.2016 70.3056H95.7016C95.5124 70.7308 95.3172 71.1528 95.1164 71.572H78.9516C78.3212 71.572 77.8056 72.0876 77.8056 72.718C77.8056 73.3484 78.3212 73.864 78.9516 73.864H93.944C93.712 74.2896 93.4748 74.712 93.2308 75.1304H72.7016C72.0712 75.1304 71.5556 75.646 71.5556 76.2764C71.5556 76.9068 72.0712 77.4224 72.7016 77.4224H91.8108C91.5304 77.8488 91.244 78.2712 90.9508 78.6888H66.4516C65.8212 78.6888 65.3056 79.2044 65.3056 79.8348C65.3056 80.4652 65.8212 80.9808 66.4516 80.9808H89.2432C88.9048 81.4084 88.56 81.8308 88.2084 82.2472H60.2016C59.5712 82.2472 59.0556 82.7628 59.0556 83.3928V83.3932C59.0556 84.0236 59.5712 84.5392 60.2016 84.5392H86.1524C77.0488 94.066 64.2176 100 50 100C22.3856 100 0 77.6144 0 50C0 42.7044 1.5636 35.7744 4.3724 29.5252H24.106C24.736 29.5252 25.2516 29.0096 25.2516 28.3792C25.2516 27.7488 24.736 27.2332 24.106 27.2332H5.4724C5.6904 26.8072 5.9156 26.3852 6.146 25.9668H30.356C30.986 25.9668 31.5016 25.4512 31.5016 24.8208C31.5016 24.1904 30.986 23.6748 30.356 23.6748H7.4848C7.7492 23.248 8.0204 22.826 8.2976 22.4084H36.606C37.236 22.4084 37.7516 21.8928 37.7516 21.2624C37.7516 20.632 37.236 20.1164 36.606 20.1164H9.9124C10.2316 19.6888 10.5584 19.2668 10.8912 18.85H42.856C43.486 18.85 44.0016 18.3344 44.0016 17.704C44.0016 17.0736 43.486 16.558 42.856 16.558H12.834C13.2204 16.1288 13.6144 15.7072 14.0152 15.2916H49.106C49.736 15.2916 50.2516 14.776 50.2516 14.1456C50.2516 13.5152 49.736 12.9996 49.106 12.9996H16.3752C25.2548 4.924 37.0516 0 50 0ZM61.2176 44.7004C61.4792 44.9036 61.86 44.8568 62.0636 44.5952C62.2672 44.3336 62.2196 43.9528 61.9584 43.7492C61.6968 43.5452 61.316 43.5932 61.1124 43.8544C60.9088 44.116 60.956 44.4968 61.2176 44.7004ZM65.2352 39.54C65.4964 39.7436 65.8772 39.6964 66.0808 39.4348C66.2844 39.1732 66.2368 38.7924 65.9752 38.5892C65.7136 38.3852 65.3332 38.4328 65.1296 38.6944C64.926 38.956 64.9732 39.3364 65.2352 39.54ZM69.234 34.4036C69.4952 34.6072 69.8756 34.56 70.0796 34.2984C70.2836 34.0364 70.2356 33.656 69.9744 33.4524C69.7128 33.2488 69.3324 33.296 69.1284 33.5576C68.9248 33.8196 68.9724 34.2 69.234 34.4036ZM57.6964 46.084C57.8444 46.2372 58.2592 46.6364 59.0412 47.0544C59.9372 47.5228 62.3128 48.1504 62.7756 48.2428C62.7992 48.2616 62.8416 48.256 62.86 48.2324C62.8788 48.2088 62.8972 48.1848 62.892 48.1424C62.8732 47.8228 62.8052 46.9296 63.0804 46.7232C63.3972 46.512 66.906 43.1332 69.1836 40.208C71.4792 37.2592 72.8584 32.986 75.326 33.4948C77.2004 33.8836 76.5468 30.0144 74.4932 28.874C71.3836 27.178 68.2748 33.4276 66.7672 35.4624C63.6308 39.5896 60.182 43.9704 57.6804 45.9568C57.6804 45.9568 57.662 45.9808 57.6676 46.0228C57.6488 46.0468 57.6724 46.0652 57.6964 46.084ZM38.828 77.8748C42.0772 76.2032 54.8048 69.078 63.8368 56.9368C63.8552 56.9128 63.916 56.884 63.9636 56.9208C63.9872 56.9396 64.0168 57 63.9796 57.0476C61.9952 60.7736 54.0444 73.8328 38.8912 78.0388C38.8304 78.068 38.8072 78.0496 38.7776 77.988C38.7724 77.9464 38.7676 77.904 38.828 77.8748ZM31.2472 79.0768L57.088 47.4052C57.088 47.4052 59.8516 48.9076 61.4404 49.0752C61.4828 49.0696 61.5064 49.088 61.4876 49.112C61.8236 49.564 64.9824 54.2388 68.148 56.2064C68.148 56.2064 68.172 56.2248 68.1768 56.2672C68.1768 56.2672 68.1824 56.3096 68.164 56.3336C67.0372 57.9768 48.2056 85.0608 31.2864 79.222C31.2444 79.2276 31.2392 79.1848 31.2392 79.1848C31.234 79.1428 31.2284 79.1004 31.2472 79.0768ZM40.3836 57.7744C40.0984 57.5524 39.694 57.5812 39.4476 57.848C39.2256 58.1332 39.2784 58.5564 39.5636 58.7784C39.8308 59.0248 40.2532 58.9716 40.4756 58.6864C40.6976 58.4008 40.6688 57.9968 40.3836 57.7744ZM35.9192 63.3124C35.634 63.0904 35.2112 63.1432 34.9888 63.4284C34.7672 63.7136 34.7956 64.118 35.0812 64.3404C35.3664 64.5624 35.7892 64.5096 36.0112 64.2244C36.2572 63.9576 36.2048 63.5344 35.9192 63.3124ZM31.4368 68.8744C31.17 68.6284 30.7472 68.6808 30.5248 68.9664C30.3028 69.2516 30.3552 69.6744 30.6408 69.8968C30.926 70.1188 31.3304 70.09 31.5528 69.8044C31.7748 69.5192 31.722 69.0964 31.4368 68.8744ZM44.2616 56.3252C44.09 56.1532 43.628 55.7168 42.7928 55.2196C41.8252 54.6956 39.246 53.986 38.736 53.8568C38.6936 53.8616 38.6936 53.8616 38.6332 53.8908C38.6144 53.9148 38.596 53.9384 38.6196 53.9568C38.6436 54.3188 38.704 55.3208 38.4048 55.5084C38.0508 55.7672 34.1396 59.368 31.6112 62.5176C29.0648 65.6908 27.4792 70.3764 24.802 69.7432C22.7484 69.2904 23.4072 73.5464 25.6456 74.7924C28.9988 76.7152 32.4908 69.924 34.1756 67.76C37.656 63.2896 41.5144 58.5784 44.2352 56.4576C44.254 56.4336 44.2724 56.41 44.2912 56.386C44.2856 56.3436 44.2856 56.3436 44.2616 56.3252ZM62.5168 29.4424C62.1792 29.1404 61.6292 29.2092 61.3516 29.5656C61.0736 29.9224 61.1184 30.4536 61.4752 30.7316C61.8316 31.0092 62.3628 30.9648 62.6408 30.6076C62.9608 30.246 62.8736 29.7196 62.5168 29.4424ZM55.4476 22.3336C52.8956 24.7776 42.8944 34.8276 36.5476 47.8372C36.5108 47.8848 36.492 47.9084 36.45 47.914C36.4024 47.8768 36.3784 47.858 36.4152 47.8104C37.7072 44.042 43.0604 30.6408 55.3888 22.2128C55.4316 22.2072 55.4732 22.202 55.4792 22.244C55.5028 22.2624 55.4896 22.3288 55.4476 22.3336ZM45.0712 54.8928C44.0832 53.8564 41.2792 52.8956 39.1224 52.8208C39.1224 52.8208 37.06 49.1908 33.5828 46.4456C33.5828 46.4456 40.3384 29.4768 54.8932 19.9552C54.8932 19.9552 66.9628 28.5876 64.1448 31.1288C61.3496 33.6892 45.0712 54.8928 45.0712 54.8928Z" fill="white"/>
</svg>
