<svg width="100" height="100" viewBox="0 0 100 100" fill="none" xmlns="http://www.w3.org/2000/svg">
<path fill-rule="evenodd" clip-rule="evenodd" d="M50 0C77.6144 0 100 22.3856 100 50C100 56.3512 98.8144 62.4252 96.654 68.0136H85.2016C84.5712 68.0136 84.0556 68.5292 84.0556 69.1596C84.0556 69.79 84.5712 70.3056 85.2016 70.3056H95.7016C95.5124 70.7308 95.3172 71.1532 95.1164 71.572H78.9516C78.3212 71.572 77.8056 72.0876 77.8056 72.718C77.8056 73.3484 78.3212 73.864 78.9516 73.864H93.944C93.712 74.2896 93.4748 74.712 93.2308 75.1304H72.7016C72.0712 75.1304 71.5556 75.646 71.5556 76.2764C71.5556 76.9068 72.0712 77.4224 72.7016 77.4224H91.8108C91.5304 77.8492 91.244 78.2712 90.9508 78.6888H66.4516C65.8212 78.6888 65.3056 79.2044 65.3056 79.8348C65.3056 80.4652 65.8212 80.9808 66.4516 80.9808H89.2432C88.9052 81.4084 88.56 81.8308 88.2084 82.2472H60.2016C59.5712 82.2472 59.0556 82.7628 59.0556 83.3932C59.0556 84.0236 59.5712 84.5392 60.2016 84.5392H86.1524C77.0488 94.066 64.2176 100 50 100C22.3856 100 0 77.6144 0 50C0 42.7044 1.5636 35.7744 4.3724 29.5252H24.106C24.736 29.5252 25.2516 29.0096 25.2516 28.3792V28.3788C25.2516 27.7488 24.736 27.2332 24.106 27.2332H5.4724C5.6904 26.8072 5.9156 26.3852 6.146 25.9668H30.356C30.986 25.9668 31.5016 25.4512 31.5016 24.8208C31.5016 24.1904 30.986 23.6748 30.356 23.6748H7.4848C7.7492 23.248 8.0204 22.826 8.2976 22.4084H36.606C37.236 22.4084 37.7516 21.8928 37.7516 21.2624C37.7516 20.632 37.236 20.1164 36.606 20.1164H9.9124C10.2316 19.6888 10.5584 19.2668 10.8908 18.85H42.856C43.486 18.85 44.0016 18.3344 44.0016 17.704C44.0016 17.0736 43.486 16.558 42.856 16.558H12.834C13.2204 16.1288 13.6144 15.7068 14.0152 15.2916H49.106C49.736 15.2916 50.2516 14.776 50.2516 14.1456C50.2516 13.5152 49.736 12.9996 49.106 12.9996H16.3752C25.2548 4.924 37.0516 0 50 0ZM34.9672 68.5996C34.4932 68.5996 34.1088 68.2152 34.1088 67.7412V66.9248C34.1088 66.4504 34.4932 66.0672 34.9672 66.0672C35.4412 66.0672 35.8252 66.4504 35.8252 66.9248V67.7412C35.8252 68.2152 35.4412 68.5996 34.9672 68.5996ZM38.4404 71.0516C37.9664 71.0516 37.582 70.6672 37.582 70.1928V69.4576C37.582 68.9832 37.9664 68.5996 38.4404 68.5996C38.914 68.5996 39.298 68.9832 39.298 69.4576V70.1928C39.298 70.6672 38.914 71.0516 38.4404 71.0516ZM42.3624 70.6012C41.888 70.6012 41.5044 70.2168 41.5044 69.7432V68.3544C41.5044 67.8812 41.888 67.4972 42.3624 67.4972C42.8364 67.4972 43.22 67.8812 43.22 68.3544V69.7432C43.22 70.2168 42.8364 70.6012 42.3624 70.6012ZM39.87 67.5776C39.396 67.5776 39.0124 67.194 39.0124 66.7208V65.76C39.0124 65.2868 39.396 64.9016 39.87 64.9016C40.3444 64.9016 40.7276 65.2868 40.7276 65.76V66.7208C40.7276 67.194 40.3444 67.5776 39.87 67.5776ZM36.9188 66.1476C36.4444 66.1476 36.0608 65.7644 36.0608 65.29V64.2688C36.0608 63.7956 36.4444 63.41 36.9188 63.41C37.3928 63.41 37.776 63.7956 37.776 64.2688V65.29C37.776 65.7644 37.3928 66.1476 36.9188 66.1476ZM48.7368 49.792C47.5608 49.792 46.3976 50.3164 45.6264 51.3172C44.3056 53.0296 44.624 55.4976 46.336 56.8192C48.05 58.1396 50.5172 57.8204 51.838 56.1076C53.1592 54.3952 52.84 51.9272 51.128 50.6056C50.4164 50.0572 49.5736 49.792 48.7368 49.792ZM48.7252 59.3484C47.5228 59.3484 46.3124 58.9668 45.2884 58.1776C42.8268 56.2788 42.3684 52.73 44.268 50.2696C46.1664 47.8072 49.7144 47.348 52.1756 49.2472C54.6372 51.1464 55.0956 54.6948 53.1972 57.1564C52.0872 58.5944 50.4156 59.3484 48.7252 59.3484ZM35.384 57.8136L48.1552 67.6648L49.0044 66.564L36.2324 56.7136L35.384 57.8136ZM53.6192 43.1624L54.6944 43.992L57.6956 46.3068L60.6152 42.5216L60.0016 42.0484L56.5392 39.3776L53.6192 43.1624ZM55.3924 46.6976L51.8916 43.998L51.8692 43.98L50.2536 42.734C49.598 42.2288 48.6532 42.3504 48.1472 43.0068L38.122 56.0036L41.2268 58.3984L49.2108 64.5564L59.2364 51.5592C59.7424 50.9028 59.62 49.9584 58.9648 49.4528L55.3924 46.6976ZM52.2612 42.1148L55.2976 38.1764C54.8724 37.4 54.918 36.412 55.4924 35.6676C55.8664 35.1808 56.408 34.8708 57.0168 34.7912C57.3072 34.7536 57.596 34.7712 57.8716 34.8404L61.5196 30.1108C61.0552 29.4 61.0644 28.442 61.612 27.7324L63.072 25.84C63.4064 25.406 63.8904 25.1276 64.4348 25.0572C64.9776 24.988 65.5176 25.1328 65.9516 25.4688L71.678 29.886C72.1124 30.2204 72.3896 30.7032 72.46 31.248C72.53 31.7924 72.384 32.3308 72.05 32.7648L70.5896 34.6572C70.186 35.1808 69.5768 35.4568 68.962 35.4568C68.7436 35.4568 68.5244 35.422 68.3132 35.3516L64.6652 40.0808C64.8016 40.3296 64.892 40.6044 64.9292 40.8944C65.0076 41.5032 64.844 42.1068 64.4692 42.5924C64.0944 43.0776 63.5536 43.3892 62.9436 43.4676C62.8444 43.4804 62.744 43.4876 62.6456 43.4876C62.4568 43.4876 62.2708 43.4644 62.09 43.4192L59.0552 47.3556L60.0124 48.094C61.4172 49.1772 61.6788 51.2024 60.5956 52.6076L50.518 65.6716C50.6488 65.8692 50.7336 66.0956 50.7648 66.3372C50.8184 66.754 50.7064 67.1676 50.4496 67.5L49.4272 68.8252C49.1708 69.1576 48.7992 69.3712 48.3832 69.4248C48.3144 69.4348 48.246 69.4388 48.1784 69.4388C47.8324 69.4388 47.4984 69.3256 47.2204 69.1112L34.2232 59.0844C33.8904 58.8284 33.6776 58.4572 33.624 58.0412C33.5704 57.6244 33.682 57.2104 33.938 56.8784L34.9608 55.5524C35.218 55.2196 35.5884 55.006 36.0052 54.9532C36.2468 54.9216 36.4872 54.946 36.712 55.0224L46.7888 41.9576C47.8732 40.5528 49.8972 40.2916 51.3024 41.3752L52.2612 42.1148ZM61.6572 41.158L62.3004 41.654C62.4224 41.7452 62.5724 41.786 62.7244 41.766C62.8788 41.746 63.0156 41.6672 63.1108 41.5444C63.206 41.4204 63.2472 41.268 63.2276 41.1132C63.2088 40.9676 63.136 40.8356 63.0232 40.7416L60.606 38.8768L57.6672 36.61C57.5644 36.53 57.44 36.4888 57.3128 36.4888C57.288 36.4888 57.2624 36.4892 57.2368 36.4928C57.0832 36.5128 56.9456 36.5924 56.8504 36.7148C56.6544 36.9688 56.702 37.3356 56.9564 37.532L61.6572 41.158ZM64.6972 26.7568C64.6028 26.7664 64.5052 26.792 64.4304 26.888L62.9708 28.7812C62.8576 28.928 62.8848 29.1404 63.0316 29.2532L65.8948 31.462L68.6128 33.558L68.6372 33.578L68.758 33.6708C68.9056 33.784 69.1176 33.756 69.2304 33.6092L70.6904 31.7168C70.7648 31.6204 70.7648 31.52 70.7584 31.468C70.7512 31.416 70.726 31.3192 70.63 31.2452C70.63 31.244 64.904 26.8272 64.904 26.8272C64.8292 26.7708 64.7524 26.7568 64.6972 26.7568ZM66.8848 34.3932L62.808 31.2484L59.3468 35.7376L63.4228 38.8816L66.8848 34.3932Z" fill="white"/>
</svg>
