<svg width="100" height="100" viewBox="0 0 100 100" fill="none" xmlns="http://www.w3.org/2000/svg">
<path fill-rule="evenodd" clip-rule="evenodd" d="M50 0C77.6144 0 100 22.3856 100 50C100 56.3512 98.8144 62.4248 96.654 68.0136H85.2016C84.5712 68.0136 84.0556 68.5292 84.0556 69.1596C84.0556 69.79 84.5712 70.3056 85.2016 70.3056H95.7016C95.5124 70.7308 95.3172 71.1528 95.1164 71.572H78.9516C78.3212 71.572 77.8056 72.0876 77.8056 72.718C77.8056 73.3484 78.3212 73.864 78.9516 73.864H93.944C93.712 74.2896 93.4748 74.712 93.2308 75.1304H72.7016C72.0712 75.1304 71.5556 75.646 71.5556 76.2764C71.5556 76.9068 72.0712 77.4224 72.7016 77.4224H91.8108C91.5304 77.8488 91.244 78.2712 90.9508 78.6888H66.4516C65.8212 78.6888 65.3056 79.2044 65.3056 79.8348C65.3056 80.4652 65.8212 80.9808 66.4516 80.9808H89.2432C88.9048 81.4084 88.56 81.8308 88.2084 82.2472H60.2016C59.5712 82.2472 59.0556 82.7628 59.0556 83.3928V83.3932C59.0556 84.0236 59.5712 84.5392 60.2016 84.5392H86.1524C77.0488 94.066 64.2176 100 50 100C22.3856 100 0 77.6144 0 50C0 42.7044 1.5636 35.7744 4.3724 29.5252H24.106C24.736 29.5252 25.2516 29.0096 25.2516 28.3792V28.3788C25.2516 27.7488 24.736 27.2332 24.106 27.2332H5.4724C5.6904 26.8072 5.9156 26.3852 6.146 25.9668H30.356C30.986 25.9668 31.5016 25.4512 31.5016 24.8208C31.5016 24.1904 30.986 23.6748 30.356 23.6748H7.4848C7.7492 23.248 8.0204 22.826 8.2976 22.4084H36.606C37.236 22.4084 37.7516 21.8928 37.7516 21.2624C37.7516 20.632 37.236 20.1164 36.606 20.1164H9.9124C10.2316 19.6888 10.5584 19.2668 10.8908 18.85H42.856C43.486 18.85 44.0016 18.3344 44.0016 17.704C44.0016 17.0736 43.486 16.558 42.856 16.558H12.834C13.2204 16.1288 13.6144 15.7068 14.0152 15.2916H49.106C49.736 15.2916 50.2516 14.776 50.2516 14.1456C50.2516 13.5152 49.736 12.9996 49.106 12.9996H16.3752C25.2548 4.92401 37.0516 0 50 0ZM33.1304 34.5364H55.6228V30.7876H33.1304V34.5364ZM32.1932 68.2756H28.4444L28.4836 44.5764L31.256 35.3352V28.9132H57.4976V35.3352L59.7884 42.9712H61.0836L63.4404 36.6888C63.714 35.962 64.4188 35.4736 65.1956 35.4736H70.6184V37.348H65.1956L63.0856 42.9712H71.5556V48.5944H69.7284L69.1892 54.2176H71.5556V62.6524V63.5896V71.0872H32.1932V68.2756ZM67.3052 54.2176L67.8452 48.5944H52.7748L53.3176 54.2176H67.3052ZM51.434 54.2176L50.8916 48.5944H49.0628V42.9712H57.8312L55.8632 36.4108H32.8908L30.3188 44.9824V66.4008H32.1932V63.5896V62.6524V54.2176H51.434ZM34.0676 63.5896V69.2128H69.6812V63.5896H34.0676ZM50.9372 46.72H69.6812V44.8452H50.9372V46.72ZM51.8744 59.8408C49.5056 59.8408 47.5236 58.228 47.068 56.092H34.0676V61.7148H69.6812V56.092H56.6808C56.2252 58.228 54.2432 59.8408 51.8744 59.8408ZM49.0168 56.092C49.434 57.1828 50.5576 57.9664 51.8744 57.9664C53.1912 57.9664 54.3148 57.1828 54.732 56.092H49.0168Z" fill="white"/>
</svg>
