<svg width="500" height="470" viewBox="0 0 500 470" fill="none" xmlns="http://www.w3.org/2000/svg">
<path d="M250 469.977C388.071 469.977 500 405.355 500 325.639C500 245.923 388.071 181.3 250 181.3C111.929 181.3 0 245.923 0 325.639C0 405.355 111.929 469.977 250 469.977Z" fill="#F5F5F5"/>
<path d="M430.224 351.259C430.179 351.164 430.126 351.072 430.066 350.986C430.02 350.928 429.971 350.872 429.919 350.818C429.876 350.745 429.823 350.678 429.762 350.619L429.573 350.44C429.364 350.262 429.139 350.104 428.901 349.968L195.17 215.034C194 214.447 192.71 214.141 191.402 214.141C190.093 214.141 188.803 214.447 187.634 215.034L66.0081 285.062C65.8544 285.145 65.7071 285.24 65.5673 285.345C65.5673 285.345 65.4519 285.419 65.4099 285.461C65.1636 285.664 64.951 285.905 64.7801 286.174C64.7394 286.23 64.7042 286.29 64.6752 286.353C64.6219 286.446 64.5796 286.544 64.5492 286.647C64.5279 286.723 64.5104 286.8 64.4967 286.878C64.4819 287.003 64.4819 287.13 64.4967 287.256C64.4913 287.343 64.4913 287.431 64.4967 287.518C64.515 287.617 64.5396 287.715 64.5702 287.812C64.6038 287.91 64.646 288.005 64.6962 288.095C64.999 288.646 65.4546 289.098 66.0081 289.397L299.75 424.32C300.447 424.699 301.203 424.957 301.986 425.087C302.493 425.166 303.005 425.208 303.518 425.213C304.024 425.211 304.529 425.173 305.03 425.097C305.196 425.077 305.361 425.045 305.523 425.003C305.989 424.895 306.442 424.74 306.877 424.541C307.024 424.478 307.15 424.394 307.286 424.32L428.901 354.303C430.329 353.484 430.728 352.309 430.224 351.259Z" fill="#E0E0E0"/>
<path d="M415.309 315.143C444.02 315.143 467.295 301.703 467.295 285.125C467.295 268.546 444.02 255.107 415.309 255.107C386.598 255.107 363.323 268.546 363.323 285.125C363.323 301.703 386.598 315.143 415.309 315.143Z" fill="#E0E0E0"/>
<path d="M420.085 335.788C420.04 335.691 419.984 335.599 419.917 335.515C419.875 335.457 419.829 335.401 419.78 335.347C419.734 335.273 419.677 335.206 419.612 335.148L419.434 334.98C419.225 334.795 418.996 334.633 418.752 334.497L191.423 203.226C190.254 202.639 188.963 202.333 187.655 202.333C186.346 202.333 185.056 202.639 183.887 203.226L72.3792 267.576L71.9279 267.859L71.781 267.985C71.5324 268.182 71.3194 268.42 71.1512 268.688C71.0467 268.835 70.9686 268.998 70.9203 269.171C70.9143 269.248 70.9143 269.325 70.9203 269.402C70.9048 269.528 70.9048 269.654 70.9203 269.78C70.9151 269.867 70.9151 269.955 70.9203 270.042C70.9398 270.141 70.9644 270.24 70.9938 270.336C71.0259 270.433 71.0645 270.528 71.1092 270.62C71.4215 271.174 71.8882 271.627 72.4527 271.921L299.75 403.203C300.446 403.582 301.203 403.838 301.986 403.959C302.492 404.047 303.005 404.092 303.518 404.095C304.025 404.095 304.53 404.053 305.03 403.969C305.196 403.949 305.361 403.917 305.523 403.875C305.99 403.771 306.444 403.617 306.877 403.413C307.024 403.35 307.15 403.276 307.286 403.203L418.752 338.842C420.232 338.013 420.631 336.838 420.085 335.788ZM395.598 331.128L388.471 335.253L293.495 390.041C293.249 390.186 292.993 390.312 292.729 390.419C291.953 390.741 291.122 390.907 290.283 390.907C289.444 390.907 288.613 390.741 287.837 390.419C287.573 390.312 287.317 390.186 287.071 390.041L106.743 285.933L98.01 280.906C97.7046 280.733 97.4283 280.513 97.1913 280.255C96.2887 279.268 96.5721 278.009 98.01 277.169L200.071 218.245C201.234 217.455 202.624 217.068 204.028 217.143C204.364 217.185 204.693 217.273 205.004 217.406C205.179 217.471 205.348 217.552 205.508 217.647L395.598 327.392C395.925 327.582 396.196 327.855 396.384 328.182C396.573 328.51 396.672 328.882 396.672 329.26C396.672 329.638 396.573 330.009 396.384 330.337C396.196 330.665 395.925 330.938 395.598 331.128Z" fill="#455A64"/>
<path d="M71.9384 267.87C70.9672 268.609 70.1679 269.551 69.5953 270.629C69.0228 271.707 68.6906 272.896 68.6217 274.115V279.09C68.6902 280.399 69.0672 281.674 69.722 282.811C70.3768 283.947 71.2909 284.913 72.3897 285.629L299.719 416.889C300.575 417.359 301.518 417.648 302.49 417.74C302.826 417.74 303.151 417.792 303.539 417.803V404.095C303.026 404.085 302.514 404.043 302.007 403.969C301.219 403.841 300.459 403.579 299.761 403.192L72.3792 271.921C70.4585 270.819 70.301 269.066 71.9384 267.87Z" fill="#37474F"/>
<path d="M359.87 362.521C357.779 361.486 355.476 360.947 353.142 360.947C350.809 360.947 348.506 361.486 346.415 362.521C345.597 362.952 344.904 363.584 344.399 364.358C343.192 366.457 345.449 368.031 346.415 368.619C348.506 369.654 350.809 370.193 353.142 370.193C355.476 370.193 357.779 369.654 359.87 368.619C360.681 368.179 361.373 367.549 361.885 366.782C363.092 364.683 360.867 363.109 359.87 362.521Z" fill="#B6D4C8"/>
<path d="M137.233 241.305C137.446 241.224 137.629 241.08 137.758 240.893C137.887 240.705 137.956 240.483 137.956 240.255C137.956 240.028 137.887 239.805 137.758 239.618C137.629 239.43 137.446 239.287 137.233 239.206C136.662 238.916 136.031 238.765 135.391 238.765C134.751 238.765 134.12 238.916 133.549 239.206C133.336 239.287 133.153 239.43 133.024 239.618C132.895 239.805 132.825 240.028 132.825 240.255C132.825 240.483 132.895 240.705 133.024 240.893C133.153 241.08 133.336 241.224 133.549 241.305C134.12 241.594 134.751 241.745 135.391 241.745C136.031 241.745 136.662 241.594 137.233 241.305Z" fill="#263238"/>
<path d="M131.45 251.381C131.627 251.295 131.777 251.161 131.881 250.994C131.986 250.827 132.042 250.633 132.042 250.436C132.042 250.239 131.986 250.046 131.881 249.879C131.777 249.712 131.627 249.578 131.45 249.492C130.941 249.238 130.381 249.105 129.812 249.105C129.244 249.105 128.683 249.238 128.175 249.492C127.998 249.578 127.848 249.712 127.743 249.879C127.638 250.046 127.583 250.239 127.583 250.436C127.583 250.633 127.638 250.827 127.743 250.994C127.848 251.161 127.998 251.295 128.175 251.381C128.682 251.64 129.243 251.775 129.812 251.775C130.382 251.775 130.943 251.64 131.45 251.381Z" fill="#263238"/>
<path d="M136.981 248.264L155.286 237.694C156.335 237.117 156.335 236.204 155.391 235.658C154.84 235.393 154.235 235.261 153.624 235.274C153.013 235.287 152.414 235.443 151.875 235.732L133.57 246.29C132.573 246.878 132.52 247.781 133.465 248.326C134.015 248.593 134.62 248.727 135.231 248.716C135.841 248.705 136.441 248.55 136.981 248.264Z" fill="#263238"/>
<path d="M419.256 334.833C420.809 336.04 420.641 337.751 418.752 338.842L307.276 403.203C306.118 403.822 304.82 404.129 303.508 404.095V417.792C304.817 417.818 306.111 417.507 307.265 416.889L418.741 352.54C419.84 351.826 420.754 350.862 421.409 349.728C422.064 348.593 422.441 347.319 422.509 346.011V341.026C422.441 339.821 422.115 338.645 421.553 337.577C420.992 336.509 420.209 335.573 419.256 334.833Z" fill="#263238"/>
<path d="M125.551 306.473C126.106 306.822 126.572 307.296 126.911 307.858C127.25 308.419 127.453 309.052 127.503 309.706C127.527 309.927 127.488 310.15 127.391 310.35C127.295 310.551 127.145 310.72 126.957 310.84C126.727 310.976 125.845 311.501 125.593 311.637C125.365 311.735 125.116 311.771 124.869 311.744C124.623 311.716 124.388 311.625 124.187 311.48L98.8392 296.786C98.2859 296.436 97.8221 295.961 97.4849 295.4C97.1478 294.838 96.9466 294.206 96.8975 293.553C96.879 293.341 96.9145 293.128 97.0008 292.933C97.0871 292.739 97.2212 292.569 97.3908 292.44L98.7972 291.622C99.0253 291.525 99.2747 291.488 99.5211 291.515C99.7676 291.543 100.003 291.634 100.204 291.779L125.551 306.473Z" fill="#455A64"/>
<path d="M124.187 307.24L98.8392 292.608C97.7896 291.989 96.8975 292.43 96.8975 293.595C96.9466 294.248 97.1478 294.88 97.4849 295.442C97.8221 296.003 98.2859 296.478 98.8392 296.828L124.187 311.522C125.236 312.141 126.139 311.7 126.139 310.535C126.098 309.87 125.9 309.225 125.56 308.652C125.221 308.079 124.75 307.595 124.187 307.24Z" fill="#263238"/>
<path d="M91.618 286.878C92.1746 287.228 92.6413 287.703 92.9804 288.267C93.3194 288.83 93.5215 289.465 93.5702 290.121C93.591 290.34 93.5523 290.562 93.4581 290.761C93.3639 290.961 93.2177 291.131 93.0349 291.254C92.7935 291.38 91.9119 291.916 91.6705 292.052C91.4415 292.148 91.1916 292.183 90.9451 292.153C90.6987 292.124 90.464 292.031 90.264 291.884L78.3093 284.988C77.7559 284.638 77.2922 284.164 76.955 283.602C76.6179 283.041 76.4167 282.409 76.3675 281.756C76.3438 281.543 76.377 281.328 76.4637 281.133C76.5504 280.937 76.6874 280.768 76.8608 280.643C77.0918 280.486 78.0154 279.961 78.2673 279.824C78.4947 279.724 78.7447 279.686 78.9918 279.713C79.2388 279.741 79.4741 279.834 79.6737 279.982L91.618 286.878Z" fill="#455A64"/>
<path d="M90.2642 287.665L78.3094 280.769C77.2598 280.15 76.3677 280.591 76.3677 281.756C76.4168 282.409 76.618 283.041 76.9552 283.602C77.2923 284.164 77.7561 284.638 78.3094 284.988L90.2642 291.884C91.3137 292.503 92.2059 292.063 92.2059 290.898C92.1567 290.245 91.9555 289.612 91.6184 289.051C91.2812 288.49 90.8175 288.015 90.2642 287.665Z" fill="#263238"/>
<path d="M395.598 331.076L388.471 335.19L293.495 389.989C293.247 390.129 292.991 390.255 292.728 390.366C291.953 390.689 291.122 390.855 290.283 390.855C289.444 390.855 288.612 390.689 287.837 390.366C287.575 390.255 287.319 390.129 287.071 389.989L106.742 285.881L98.0205 280.843C97.7133 280.677 97.4365 280.46 97.2018 280.202C96.2991 279.216 96.5825 277.946 98.0205 277.106L200.082 218.193C201.251 217.421 202.641 217.052 204.039 217.143C204.375 217.185 204.703 217.273 205.015 217.406C205.19 217.471 205.358 217.552 205.519 217.647L395.598 327.392C395.913 327.585 396.173 327.856 396.353 328.178C396.533 328.501 396.628 328.864 396.628 329.234C396.628 329.603 396.533 329.966 396.353 330.289C396.173 330.611 395.913 330.882 395.598 331.076Z" fill="#B6D4C8"/>
<path opacity="0.8" d="M395.598 331.076L388.471 335.19L293.495 389.989C293.247 390.129 292.991 390.255 292.728 390.366C291.953 390.689 291.122 390.855 290.283 390.855C289.444 390.855 288.612 390.689 287.837 390.366C287.575 390.255 287.319 390.129 287.071 389.989L106.742 285.881L98.0205 280.843C97.7133 280.677 97.4365 280.46 97.2018 280.202C96.2991 279.216 96.5825 277.946 98.0205 277.106L200.082 218.193C201.251 217.421 202.641 217.052 204.039 217.143C204.375 217.185 204.703 217.273 205.015 217.406C205.19 217.471 205.358 217.552 205.519 217.647L395.598 327.392C395.913 327.585 396.173 327.856 396.353 328.178C396.533 328.501 396.628 328.864 396.628 329.234C396.628 329.603 396.533 329.966 396.353 330.289C396.173 330.611 395.913 330.882 395.598 331.076Z" fill="white"/>
<path d="M119.568 273.139C119.517 273.129 119.467 273.111 119.421 273.086L118.928 272.792L117.721 273.496C117.69 273.516 117.654 273.527 117.616 273.527C117.579 273.527 117.542 273.516 117.511 273.496L117.333 273.401L117.249 273.338C117.247 273.314 117.247 273.289 117.249 273.265L116.745 271.491C116.741 271.466 116.741 271.442 116.745 271.417C116.76 271.391 116.782 271.37 116.808 271.354L116.976 271.26C117.027 271.246 117.082 271.246 117.133 271.26C117.189 271.266 117.243 271.284 117.291 271.312L119.033 272.362L119.306 272.215C119.35 272.198 119.399 272.198 119.442 272.215C119.499 272.218 119.553 272.236 119.6 272.268L119.715 272.33C119.768 272.33 119.799 272.393 119.799 272.414C119.799 272.435 119.799 272.467 119.726 272.498L119.463 272.656L119.967 272.939C120.003 272.958 120.032 272.987 120.051 273.023C120.051 273.023 120.051 273.076 119.967 273.107L119.768 273.233C119.694 273.222 119.624 273.189 119.568 273.139ZM118.519 272.509L117.28 271.785L117.648 273.013L118.519 272.509Z" fill="#455A64"/>
<path d="M120.702 272.131C120.169 272.1 119.65 271.941 119.191 271.669C118.697 271.375 118.424 271.092 118.393 270.798C118.361 270.504 118.561 270.231 118.981 269.979C119.156 269.884 119.338 269.803 119.526 269.738C119.708 269.682 119.894 269.643 120.083 269.623C120.083 269.623 120.146 269.623 120.167 269.623C120.188 269.623 120.167 269.623 120.167 269.623L120.272 269.822H120.198C119.921 269.851 119.653 269.937 119.411 270.074C119.128 270.242 118.991 270.431 119.012 270.641C119.033 270.851 119.243 271.05 119.631 271.27C119.948 271.472 120.308 271.598 120.681 271.638C121.007 271.654 121.331 271.577 121.615 271.417L121.888 271.228C121.949 271.178 122.003 271.117 122.045 271.05L121.227 270.578L120.723 270.861C120.676 270.88 120.623 270.88 120.576 270.861C120.523 270.856 120.473 270.838 120.429 270.809L120.314 270.746C120.314 270.746 120.23 270.683 120.23 270.662C120.23 270.641 120.23 270.609 120.303 270.578L121.101 270.116C121.156 270.103 121.214 270.103 121.269 270.116C121.333 270.117 121.396 270.139 121.447 270.179L122.612 270.851C122.646 270.863 122.675 270.885 122.696 270.914C122.696 270.914 122.696 270.914 122.696 270.977C122.56 271.286 122.313 271.533 122.003 271.669C121.621 271.941 121.17 272.101 120.702 272.131Z" fill="#455A64"/>
<path d="M130.684 266.148C131.072 266.379 131.072 266.736 130.684 266.957C130.469 267.071 130.229 267.13 129.986 267.13C129.742 267.13 129.503 267.071 129.288 266.957C128.899 266.736 128.899 266.379 129.288 266.148C129.504 266.04 129.743 265.983 129.986 265.983C130.228 265.983 130.467 266.04 130.684 266.148Z" fill="#455A64"/>
<path d="M128.143 265.487C127.44 265.897 127.22 266.484 127.493 266.999C127.543 267.059 127.608 267.106 127.682 267.133C127.755 267.161 127.835 267.169 127.913 267.156C128.143 267.156 128.311 266.999 128.238 266.873C128.039 266.505 128.238 266.096 128.689 265.823C129.253 265.528 129.902 265.435 130.526 265.561C130.757 265.561 130.988 265.561 131.019 265.372C131.019 265.256 130.925 265.162 130.746 265.12C129.862 264.961 128.949 265.089 128.143 265.487Z" fill="#455A64"/>
<path d="M127.02 264.847C125.971 265.445 125.593 266.295 125.897 267.083C125.897 267.198 126.118 267.272 126.317 267.261C126.548 267.261 126.695 267.114 126.643 266.988C126.401 266.348 126.706 265.655 127.556 265.162C128.526 264.666 129.625 264.479 130.704 264.627C130.935 264.627 131.156 264.627 131.177 264.438C131.177 264.322 131.061 264.217 130.862 264.196C129.545 264.007 128.202 264.235 127.02 264.847Z" fill="#455A64"/>
<path d="M147.666 254.855C147.628 254.865 147.588 254.865 147.55 254.855C147.55 254.855 147.55 254.855 147.55 254.781L147.76 253.732C147.76 253.732 147.76 253.679 147.76 253.658L147.823 253.595L148.19 253.386C148.228 253.375 148.268 253.375 148.306 253.386C148.347 253.373 148.391 253.373 148.432 253.386L151.434 255.117C151.439 255.127 151.442 255.138 151.442 255.149C151.442 255.16 151.439 255.171 151.434 255.18C151.44 255.191 151.443 255.204 151.443 255.217C151.443 255.23 151.44 255.243 151.434 255.254L151.056 255.474C151.014 255.485 150.971 255.485 150.93 255.474C150.889 255.486 150.845 255.486 150.804 255.474L148.516 254.152L148.39 254.76C148.39 254.76 148.39 254.76 148.327 254.823C148.282 254.835 148.235 254.835 148.19 254.823L147.666 254.855Z" fill="#455A64"/>
<path d="M150.017 253.501C149.976 253.513 149.932 253.513 149.891 253.501C149.886 253.489 149.883 253.477 149.883 253.464C149.883 253.452 149.886 253.439 149.891 253.428L150.111 252.378C150.107 252.354 150.107 252.329 150.111 252.304L150.164 252.241L150.531 252.032C150.572 252.019 150.616 252.019 150.657 252.032C150.698 252.021 150.742 252.021 150.783 252.032L153.774 253.763C153.774 253.763 153.774 253.763 153.774 253.837C153.779 253.847 153.781 253.857 153.781 253.868C153.781 253.879 153.779 253.89 153.774 253.9L153.396 254.12C153.355 254.132 153.312 254.132 153.271 254.12H153.145L150.856 252.798L150.72 253.48C150.703 253.509 150.677 253.531 150.647 253.543C150.605 253.555 150.562 253.555 150.521 253.543L150.017 253.501Z" fill="#455A64"/>
<path d="M152.956 251.612C152.997 251.602 153.04 251.602 153.082 251.612C153.123 251.599 153.166 251.599 153.208 251.612L153.669 251.874C153.675 251.884 153.678 251.895 153.678 251.906C153.678 251.917 153.675 251.928 153.669 251.937C153.675 251.949 153.678 251.961 153.678 251.974C153.678 251.987 153.675 251.999 153.669 252.011L153.239 252.262H153.113C153.072 252.275 153.028 252.275 152.987 252.262L152.525 252C152.52 251.989 152.517 251.976 152.517 251.963C152.517 251.951 152.52 251.938 152.525 251.927C152.52 251.915 152.518 251.903 152.518 251.89C152.518 251.877 152.52 251.865 152.525 251.853L152.956 251.612ZM154.582 252.546C154.621 252.526 154.665 252.515 154.708 252.515C154.752 252.515 154.795 252.526 154.834 252.546L155.286 252.808C155.286 252.808 155.338 252.808 155.338 252.882C155.335 252.897 155.329 252.912 155.32 252.924C155.311 252.937 155.299 252.948 155.286 252.955L154.855 253.197C154.817 253.218 154.773 253.229 154.729 253.229C154.685 253.229 154.642 253.218 154.603 253.197L154.152 252.934C154.152 252.934 154.1 252.934 154.1 252.861C154.101 252.846 154.107 252.832 154.116 252.821C154.126 252.81 154.138 252.802 154.152 252.798L154.582 252.546Z" fill="#455A64"/>
<path d="M157.763 251.612C157.724 251.632 157.681 251.643 157.637 251.643C157.593 251.643 157.55 251.632 157.511 251.612L156.954 251.297L155.517 252.126H155.391C155.349 252.138 155.306 252.138 155.265 252.126L154.939 251.937C154.887 251.937 154.866 251.885 154.855 251.853C154.845 251.819 154.845 251.782 154.855 251.748L154.498 249.911C154.489 249.878 154.491 249.842 154.505 249.81C154.518 249.777 154.542 249.75 154.572 249.733L154.929 249.523H155.055H155.17L157.028 250.573L157.427 250.342H157.553H157.679L158.004 250.541C158.018 250.545 158.031 250.553 158.04 250.565C158.049 250.576 158.055 250.59 158.057 250.604C158.057 250.604 158.057 250.657 158.004 250.678L157.605 250.909L158.172 251.234C158.172 251.234 158.224 251.234 158.172 251.307C158.178 251.319 158.18 251.331 158.18 251.344C158.18 251.357 158.178 251.369 158.172 251.381L157.763 251.612ZM156.367 250.961L155.38 250.384L155.58 251.433L156.367 250.961Z" fill="#455A64"/>
<path d="M156.503 248.694C156.494 248.67 156.494 248.644 156.503 248.62C156.503 248.62 156.503 248.62 156.503 248.547L158.246 247.497C158.284 247.476 158.327 247.465 158.371 247.465C158.415 247.465 158.459 247.476 158.497 247.497L158.823 247.686C158.823 247.686 158.875 247.686 158.875 247.76C158.875 247.833 158.875 247.812 158.823 247.833L157.521 248.578L158.067 248.956C158.119 248.887 158.183 248.826 158.256 248.778L158.445 248.652C158.621 248.554 158.807 248.476 159.001 248.421C159.192 248.36 159.389 248.325 159.589 248.316C159.784 248.29 159.982 248.29 160.177 248.316C160.371 248.359 160.559 248.43 160.733 248.526C160.898 248.607 161.04 248.73 161.142 248.883C161.215 248.983 161.245 249.107 161.226 249.229C161.208 249.359 161.145 249.478 161.048 249.565C160.92 249.686 160.78 249.791 160.628 249.88C160.431 249.991 160.224 250.082 160.009 250.153C159.82 250.206 159.627 250.241 159.432 250.258C159.257 250.274 159.081 250.274 158.907 250.258C158.757 250.228 158.613 250.179 158.476 250.111C158.476 250.111 158.424 250.111 158.424 250.037C158.424 249.964 158.424 249.985 158.476 249.964L158.854 249.743H158.97H159.096C159.181 249.77 159.269 249.788 159.358 249.796H159.61L159.841 249.723L160.051 249.618C160.229 249.513 160.324 249.408 160.334 249.282C160.345 249.156 160.271 249.061 160.103 248.967C159.95 248.881 159.774 248.844 159.599 248.862C159.397 248.865 159.199 248.92 159.022 249.019C158.952 249.059 158.886 249.105 158.823 249.156C158.791 249.188 158.763 249.223 158.739 249.261C158.744 249.288 158.744 249.317 158.739 249.345C158.718 249.377 158.689 249.402 158.655 249.418L158.225 249.67H158.099H157.983L156.503 248.694Z" fill="#455A64"/>
<path d="M106.616 281.042L105.651 280.486L106.931 279.741L107.897 280.297L106.616 281.042Z" fill="#455A64"/>
<path d="M108.548 279.929L106.616 278.817L107.897 278.072L109.828 279.184L108.548 279.929Z" fill="#455A64"/>
<path d="M110.479 278.817L107.582 277.138L108.863 276.403L111.77 278.072L110.479 278.817Z" fill="#455A64"/>
<path d="M112.41 277.704L108.548 275.469L109.839 274.724L113.691 276.959L112.41 277.704Z" fill="#455A64"/>
<path d="M199.715 223.672C199.457 223.641 199.196 223.681 198.959 223.787L194.141 226.558C193.826 226.737 193.91 227.073 194.32 227.314L196.083 228.364C196.345 228.507 196.635 228.593 196.933 228.615C197.059 228.631 197.186 228.631 197.311 228.615C197.442 228.604 197.571 228.569 197.689 228.51L202.506 225.74C202.811 225.551 202.737 225.225 202.318 224.984L200.565 223.934C200.303 223.787 200.013 223.698 199.715 223.672ZM196.881 228.395C196.754 228.381 196.631 228.338 196.524 228.269L194.761 227.219C194.456 227.041 194.393 226.779 194.624 226.642L199.442 223.871C199.504 223.838 199.571 223.817 199.641 223.808H199.757C199.887 223.821 200.013 223.865 200.124 223.934L201.877 224.984C202.181 225.162 202.244 225.425 202.024 225.551L197.206 228.332C197.105 228.38 196.993 228.402 196.881 228.395Z" fill="#455A64"/>
<path d="M195.842 226.338L197.941 227.534L197.185 227.975C197.099 228.001 197.008 228.001 196.923 227.975L195.38 227.083C195.159 226.957 195.107 226.758 195.275 226.653L195.842 226.338Z" fill="#455A64"/>
<path d="M196.198 226.138L197.101 225.614L199.179 226.81L198.266 227.335L196.198 226.138Z" fill="#455A64"/>
<path d="M197.458 225.414L198.35 224.889L200.439 226.096L199.536 226.621L197.458 225.414Z" fill="#455A64"/>
<path d="M199.746 224.249L201.247 225.12C201.52 225.278 201.467 225.509 201.089 225.719L200.785 225.897L198.686 224.69L199.41 224.281C199.461 224.253 199.517 224.236 199.575 224.231C199.633 224.225 199.691 224.232 199.746 224.249Z" fill="#455A64"/>
<path d="M200.754 223.819C201.071 223.786 201.388 223.872 201.646 224.06L201.971 224.249C202.328 224.459 202.527 224.69 202.391 224.774L202.171 224.921L200.512 223.966L200.754 223.819Z" fill="#455A64"/>
<path d="M187.445 231.775L191.181 228.531L193.155 231.334L190.573 230.631L187.445 231.775Z" fill="#455A64"/>
<path d="M300.789 295.306C300.673 292.853 299.979 290.463 298.765 288.329C297.55 286.195 295.849 284.378 293.799 283.026C291.763 281.829 289.926 281.777 288.625 282.627L283.849 285.314L293.872 302.6L298.606 299.914C299.929 299.189 300.768 297.604 300.789 295.306Z" fill="#37474F"/>
<path d="M288.835 285.839C290.881 287.194 292.58 289.012 293.795 291.145C295.009 293.278 295.704 295.667 295.825 298.119C295.825 302.632 292.613 304.416 288.73 302.16C286.683 300.804 284.984 298.987 283.77 296.853C282.555 294.72 281.86 292.331 281.739 289.879C281.771 285.366 284.951 283.561 288.835 285.839Z" fill="#455A64"/>
<path d="M286.4 292.608C286.4 290.845 287.449 290.037 288.803 290.814C289.53 291.339 290.122 292.028 290.533 292.824C290.943 293.621 291.159 294.504 291.165 295.4C291.165 297.164 290.115 297.961 288.761 297.195C288.038 296.667 287.447 295.978 287.037 295.181C286.627 294.385 286.409 293.504 286.4 292.608Z" fill="#263238"/>
<path opacity="0.15" d="M295.825 298.119C295.801 296.498 295.473 294.896 294.859 293.396L282.736 286.353C282.052 287.399 281.708 288.63 281.75 289.879C281.75 289.932 281.75 289.984 281.75 290.047L295.814 298.213C295.814 298.213 295.825 298.15 295.825 298.119Z" fill="black"/>
<path d="M250.535 333.71C247.97 333.905 245.398 333.443 243.062 332.367L176.938 294.256C172.94 292.241 168.447 287.014 168.164 282.06L166.138 234.923L169.822 234.713L171.859 281.861C172.047 285.219 175.564 289.439 178.586 290.95L244.763 329.071C246.541 329.813 248.465 330.141 250.389 330.03C252.312 329.919 254.186 329.372 255.867 328.431L299.95 303.01C300.999 302.317 301.618 301.488 301.576 300.785C301.534 300.081 300.873 299.389 299.75 298.822L228.914 257.699C224.925 255.695 220.454 250.457 220.171 245.503L219.184 219.358L222.868 219.159L223.855 245.293C224.044 248.673 227.56 252.882 230.572 254.393L301.408 295.526C303.77 296.712 305.134 298.507 305.26 300.575C305.386 302.642 304.211 304.647 301.975 306.096L257.893 331.516C255.667 332.861 253.134 333.616 250.535 333.71Z" fill="#455A64"/>
<path d="M238.654 332.65C238.538 330.197 237.844 327.807 236.629 325.673C235.415 323.539 233.713 321.722 231.664 320.37C229.628 319.173 227.791 319.11 226.5 319.971L221.714 322.658L231.737 339.945L236.471 337.258C237.772 336.533 238.654 334.949 238.654 332.65Z" fill="#37474F"/>
<path d="M226.678 323.183C228.729 324.536 230.431 326.355 231.646 328.49C232.861 330.626 233.554 333.019 233.669 335.473C233.669 339.976 230.467 341.771 226.573 339.504C224.527 338.149 222.829 336.331 221.616 334.198C220.403 332.064 219.71 329.675 219.594 327.224C219.625 322.721 222.795 320.884 226.678 323.183Z" fill="#455A64"/>
<path d="M224.243 329.953C224.243 328.189 225.293 327.381 226.647 328.158C227.375 328.682 227.968 329.37 228.379 330.167C228.789 330.965 229.005 331.848 229.008 332.744C229.008 334.497 227.959 335.305 226.615 334.529C225.889 334.005 225.296 333.319 224.884 332.524C224.471 331.729 224.252 330.848 224.243 329.953Z" fill="#263238"/>
<path d="M189.764 304.469C189.653 302.017 188.965 299.626 187.756 297.491C186.547 295.355 184.851 293.535 182.806 292.178C180.759 290.982 178.933 290.919 177.631 291.769L172.845 294.445L182.837 311.753L187.581 309.066C188.904 308.352 189.743 306.767 189.764 304.469Z" fill="#37474F"/>
<path d="M177.831 294.991C179.871 296.344 181.565 298.157 182.775 300.285C183.986 302.412 184.679 304.795 184.8 307.24C184.8 311.742 181.578 313.537 177.694 311.26C175.649 309.903 173.953 308.083 172.744 305.947C171.535 303.811 170.847 301.421 170.735 298.969C170.767 294.498 173.947 292.703 177.831 294.991Z" fill="#455A64"/>
<path d="M175.385 301.74C175.385 299.987 176.435 299.179 177.789 299.955C178.514 300.482 179.106 301.171 179.516 301.967C179.926 302.764 180.143 303.646 180.15 304.542C180.15 306.305 179.101 307.103 177.736 306.337C177.014 305.806 176.425 305.114 176.017 304.316C175.609 303.518 175.392 302.636 175.385 301.74Z" fill="#263238"/>
<path d="M158.235 177.805C157.609 175.404 157.724 172.87 158.565 170.536C159.406 168.202 160.934 166.177 162.948 164.727L206.936 139.863C210.935 137.239 215.332 139.065 216.718 143.631L219.772 153.528L216.749 155.292L213.464 145.289C213.33 144.754 213.066 144.261 212.694 143.854C212.323 143.446 211.856 143.138 211.335 142.956C210.815 142.773 210.258 142.724 209.713 142.81C209.169 142.897 208.654 143.117 208.216 143.452L165.383 167.645C164.1 168.586 163.123 169.885 162.576 171.379C162.029 172.873 161.935 174.495 162.307 176.042L164.889 185.54L161.289 187.64L158.235 177.805Z" fill="#455A64"/>
<path d="M226.248 225.498L167.156 259.62L253.516 309.475L312.608 275.353L226.248 225.498Z" fill="#B6D4C8"/>
<path opacity="0.5" d="M226.248 225.498L167.156 259.62L253.516 309.475L312.608 275.353L226.248 225.498Z" fill="black"/>
<path d="M161.289 187.703L219.772 153.539L226.248 225.498L167.156 259.62L161.289 187.703Z" fill="#B6D4C8"/>
<path opacity="0.35" d="M161.289 187.703L219.772 153.539L226.248 225.498L167.156 259.62L161.289 187.703Z" fill="black"/>
<path d="M219.761 153.539L226.237 225.498L312.597 275.353L326.242 214.992L219.761 153.539ZM249.958 222.727C248.711 223.114 247.362 222.993 246.203 222.392C245.043 221.791 244.168 220.758 243.765 219.516L229.491 182.476C229.177 181.892 228.991 181.248 228.946 180.586C228.901 179.925 228.997 179.261 229.229 178.64C229.461 178.019 229.822 177.454 230.29 176.984C230.757 176.514 231.319 176.149 231.939 175.913C232.559 175.677 233.221 175.576 233.883 175.617C234.545 175.658 235.19 175.84 235.776 176.15C236.362 176.46 236.875 176.892 237.281 177.416C237.687 177.941 237.976 178.546 238.129 179.191L252.403 216.23C252.929 217.416 252.969 218.761 252.513 219.976C252.058 221.191 251.144 222.179 249.968 222.727H249.958ZM276.922 235.406C275.676 235.799 274.325 235.683 273.165 235.083C272.005 234.483 271.129 233.448 270.729 232.205L256.497 195.165C256.184 194.583 255.998 193.941 255.952 193.281C255.906 192.621 256.001 191.959 256.23 191.339C256.46 190.719 256.819 190.155 257.283 189.684C257.748 189.213 258.307 188.847 258.924 188.609C259.541 188.371 260.201 188.267 260.862 188.304C261.522 188.341 262.167 188.518 262.753 188.824C263.34 189.129 263.854 189.556 264.263 190.076C264.672 190.595 264.966 191.196 265.124 191.838L279.399 228.878C279.935 230.071 279.976 231.428 279.514 232.652C279.052 233.875 278.123 234.866 276.932 235.406H276.922ZM303.885 248.096C302.647 248.491 301.302 248.382 300.143 247.792C298.984 247.203 298.104 246.181 297.693 244.947L283.429 207.907C283.124 207.327 282.945 206.688 282.904 206.034C282.863 205.379 282.961 204.723 283.191 204.109C283.422 203.495 283.779 202.936 284.241 202.47C284.703 202.004 285.258 201.641 285.869 201.405C286.481 201.169 287.136 201.065 287.791 201.1C288.446 201.134 289.086 201.308 289.67 201.607C290.253 201.907 290.767 202.327 291.176 202.839C291.586 203.352 291.882 203.945 292.046 204.58L306.321 241.62C306.843 242.802 306.882 244.142 306.429 245.352C305.976 246.563 305.066 247.547 303.896 248.096H303.885Z" fill="#B6D4C8"/>
<path opacity="0.23" d="M219.761 153.539L226.237 225.498L312.597 275.353L326.242 214.992L219.761 153.539ZM249.958 222.727C248.711 223.114 247.362 222.993 246.203 222.392C245.043 221.791 244.168 220.758 243.765 219.516L229.491 182.476C229.177 181.892 228.991 181.248 228.946 180.586C228.901 179.925 228.997 179.261 229.229 178.64C229.461 178.019 229.822 177.454 230.29 176.984C230.757 176.514 231.319 176.149 231.939 175.913C232.559 175.677 233.221 175.576 233.883 175.617C234.545 175.658 235.19 175.84 235.776 176.15C236.362 176.46 236.875 176.892 237.281 177.416C237.687 177.941 237.976 178.546 238.129 179.191L252.403 216.23C252.929 217.416 252.969 218.761 252.513 219.976C252.058 221.191 251.144 222.179 249.968 222.727H249.958ZM276.922 235.406C275.676 235.799 274.325 235.683 273.165 235.083C272.005 234.483 271.129 233.448 270.729 232.205L256.497 195.165C256.184 194.583 255.998 193.941 255.952 193.281C255.906 192.621 256.001 191.959 256.23 191.339C256.46 190.719 256.819 190.155 257.283 189.684C257.748 189.213 258.307 188.847 258.924 188.609C259.541 188.371 260.201 188.267 260.862 188.304C261.522 188.341 262.167 188.518 262.753 188.824C263.34 189.129 263.854 189.556 264.263 190.076C264.672 190.595 264.966 191.196 265.124 191.838L279.399 228.878C279.935 230.071 279.976 231.428 279.514 232.652C279.052 233.875 278.123 234.866 276.932 235.406H276.922ZM303.885 248.096C302.647 248.491 301.302 248.382 300.143 247.792C298.984 247.203 298.104 246.181 297.693 244.947L283.429 207.907C283.124 207.327 282.945 206.688 282.904 206.034C282.863 205.379 282.961 204.723 283.191 204.109C283.422 203.495 283.779 202.936 284.241 202.47C284.703 202.004 285.258 201.641 285.869 201.405C286.481 201.169 287.136 201.065 287.791 201.1C288.446 201.134 289.086 201.308 289.67 201.607C290.253 201.907 290.767 202.327 291.176 202.839C291.586 203.352 291.882 203.945 292.046 204.58L306.321 241.62C306.843 242.802 306.882 244.142 306.429 245.352C305.976 246.563 305.066 247.547 303.896 248.096H303.885Z" fill="black"/>
<path d="M161.289 187.703L167.156 259.62L253.516 309.475L267.161 249.124L161.289 187.703ZM195.38 258.497C194.133 258.884 192.783 258.763 191.624 258.162C190.465 257.561 189.59 256.527 189.187 255.285L174.923 218.246C174.616 217.665 174.435 217.025 174.393 216.369C174.351 215.713 174.449 215.056 174.679 214.44C174.91 213.825 175.268 213.265 175.731 212.798C176.193 212.331 176.75 211.968 177.363 211.732C177.977 211.496 178.633 211.392 179.289 211.429C179.946 211.465 180.587 211.64 181.17 211.942C181.754 212.244 182.267 212.666 182.676 213.181C183.084 213.696 183.379 214.292 183.54 214.929L197.815 251.958C198.353 253.149 198.4 254.504 197.944 255.729C197.488 256.954 196.566 257.949 195.38 258.497ZM222.344 271.176C221.098 271.569 219.747 271.452 218.587 270.853C217.427 270.253 216.551 269.218 216.151 267.975L201.919 230.935C201.605 230.353 201.419 229.71 201.374 229.051C201.328 228.391 201.423 227.729 201.652 227.109C201.882 226.489 202.241 225.925 202.705 225.454C203.169 224.983 203.729 224.617 204.346 224.379C204.963 224.141 205.623 224.037 206.283 224.074C206.944 224.111 207.588 224.288 208.175 224.594C208.761 224.899 209.276 225.326 209.685 225.845C210.094 226.365 210.387 226.966 210.546 227.608L224.81 264.648C225.346 265.841 225.388 267.198 224.925 268.421C224.463 269.645 223.535 270.636 222.344 271.176ZM249.307 283.865C248.063 284.258 246.714 284.141 245.555 283.541C244.397 282.941 243.523 281.907 243.125 280.664L228.851 243.624C228.538 243.042 228.352 242.4 228.306 241.74C228.26 241.08 228.355 240.419 228.584 239.798C228.814 239.178 229.173 238.614 229.637 238.143C230.102 237.673 230.661 237.306 231.278 237.068C231.895 236.83 232.555 236.726 233.216 236.763C233.876 236.8 234.521 236.978 235.107 237.283C235.694 237.588 236.208 238.015 236.617 238.535C237.026 239.055 237.32 239.655 237.478 240.297L251.742 277.337C252.281 278.526 252.327 279.88 251.87 281.103C251.414 282.326 250.493 283.319 249.307 283.865Z" fill="#B6D4C8"/>
<g opacity="0.15">
<path opacity="0.15" d="M161.289 187.703L167.156 259.62L253.516 309.475L267.161 249.124L161.289 187.703ZM195.38 258.497C194.133 258.884 192.783 258.763 191.624 258.162C190.465 257.561 189.59 256.527 189.187 255.285L174.923 218.246C174.616 217.665 174.435 217.025 174.393 216.369C174.351 215.713 174.449 215.056 174.679 214.44C174.91 213.825 175.268 213.265 175.731 212.798C176.193 212.331 176.75 211.968 177.363 211.732C177.977 211.496 178.633 211.392 179.289 211.429C179.946 211.465 180.587 211.64 181.17 211.942C181.754 212.244 182.267 212.666 182.676 213.181C183.084 213.696 183.379 214.292 183.54 214.929L197.815 251.958C198.353 253.149 198.4 254.504 197.944 255.729C197.488 256.954 196.566 257.949 195.38 258.497ZM222.344 271.176C221.098 271.569 219.747 271.452 218.587 270.853C217.427 270.253 216.551 269.218 216.151 267.975L201.919 230.935C201.605 230.353 201.419 229.71 201.374 229.051C201.328 228.391 201.423 227.729 201.652 227.109C201.882 226.489 202.241 225.925 202.705 225.454C203.169 224.983 203.729 224.617 204.346 224.379C204.963 224.141 205.623 224.037 206.283 224.074C206.944 224.111 207.588 224.288 208.175 224.594C208.761 224.899 209.276 225.326 209.685 225.845C210.094 226.365 210.387 226.966 210.546 227.608L224.81 264.648C225.346 265.841 225.388 267.198 224.925 268.421C224.463 269.645 223.535 270.636 222.344 271.176ZM249.307 283.865C248.063 284.258 246.714 284.141 245.555 283.541C244.397 282.941 243.523 281.907 243.125 280.664L228.851 243.624C228.538 243.042 228.352 242.4 228.306 241.74C228.26 241.08 228.355 240.419 228.584 239.798C228.814 239.178 229.173 238.614 229.637 238.143C230.102 237.673 230.661 237.306 231.278 237.068C231.895 236.83 232.555 236.726 233.216 236.763C233.876 236.8 234.521 236.978 235.107 237.283C235.694 237.588 236.208 238.015 236.617 238.535C237.026 239.055 237.32 239.655 237.478 240.297L251.742 277.337C252.281 278.526 252.327 279.88 251.87 281.103C251.414 282.326 250.493 283.319 249.307 283.865Z" fill="black"/>
</g>
<path d="M267.15 249.124L326.242 215.002L312.608 275.364L253.516 309.475L267.15 249.124Z" fill="#B6D4C8"/>
<path opacity="0.4" d="M267.15 249.124L326.242 215.002L312.608 275.364L253.516 309.475L267.15 249.124Z" fill="black"/>
<path d="M394.244 99.5273C391.19 106.098 385.963 116.971 383.097 122.996L371.888 109.792H362.442C362.442 109.792 373.777 133.933 380.536 139.579C381.065 140.076 381.69 140.459 382.372 140.706C383.054 140.953 383.78 141.058 384.504 141.015C385.228 140.971 385.935 140.781 386.583 140.455C387.231 140.128 387.806 139.673 388.272 139.118C391.026 135.787 393.561 132.281 395.86 128.622C401.213 120.351 403.606 116.782 403.606 116.782L410.345 88.4437C404.488 88.0029 398.484 90.4064 394.244 99.5273Z" fill="#FFA8A7"/>
<path d="M411.468 88.4122C407.868 88.2758 403.953 87.8244 400.521 90.8262C397.238 93.692 394.671 97.2865 393.027 101.322C390.707 106.78 387.117 113.697 387.117 113.697C388.963 116.381 391.232 118.749 393.835 120.708C396.183 122.523 398.966 123.691 401.906 124.098L411.468 88.4122Z" fill="#B6D4C8"/>
<path opacity="0.45" d="M411.468 88.4122C407.868 88.2758 403.953 87.8244 400.521 90.8262C397.238 93.692 394.671 97.2865 393.027 101.322C390.707 106.78 387.117 113.697 387.117 113.697C388.963 116.381 391.232 118.749 393.835 120.708C396.183 122.523 398.966 123.691 401.906 124.098L411.468 88.4122Z" fill="black"/>
<path d="M383.098 122.996C384.361 124.477 385.515 126.049 386.551 127.698C386.551 127.698 385.344 123.248 383.706 121.726L383.098 122.996Z" fill="#F28F8F"/>
<path d="M359.639 92.2537L360.532 91.3196C360.669 91.2084 360.832 91.1315 361.005 91.095C361.178 91.0585 361.358 91.0635 361.529 91.1096L372.381 92.9569C372.931 93.0802 373.448 93.3215 373.895 93.664C374.343 94.0065 374.711 94.4421 374.974 94.9406L384.735 116.153C384.846 116.323 384.904 116.522 384.904 116.725C384.904 116.928 384.846 117.126 384.735 117.297L383.811 118.262C383.668 118.383 383.497 118.465 383.313 118.502C383.13 118.539 382.94 118.528 382.762 118.472L371.951 116.635C371.4 116.51 370.883 116.267 370.436 115.923C369.988 115.579 369.621 115.141 369.358 114.641L359.597 93.4292C359.356 92.9044 359.356 92.4846 359.639 92.2537Z" fill="#455A64"/>
<path d="M383.811 117.108L374.05 95.8852C373.786 95.3875 373.418 94.9526 372.971 94.6103C372.523 94.2679 372.007 94.0262 371.458 93.9015L360.605 92.0752C359.555 91.9073 359.136 92.5161 359.555 93.4502L369.317 114.662C369.579 115.162 369.946 115.6 370.394 115.944C370.841 116.288 371.358 116.531 371.909 116.656L382.762 118.493C383.769 118.651 384.242 118.031 383.811 117.108Z" fill="#263238"/>
<path d="M372.675 94.3948C373.264 94.7609 373.743 95.2796 374.061 95.8957L383.822 117.097C383.926 117.264 383.981 117.457 383.981 117.654C383.981 117.85 383.926 118.043 383.822 118.21L384.693 117.307C384.801 117.138 384.859 116.941 384.859 116.74C384.859 116.54 384.801 116.343 384.693 116.174L374.932 94.9616C374.639 94.3835 374.197 93.8943 373.651 93.5447L372.675 94.3948Z" fill="#37474F"/>
<path d="M364.772 113.235C360.28 108.081 360.406 101.626 362.473 99.7582L363.838 102.739C363.838 102.739 370.712 104.271 374.019 104.019C377.325 103.768 380.022 102.97 380.925 103.621C382.846 104.975 383.402 110.726 377.902 112.825C373.231 114.599 364.772 113.235 364.772 113.235Z" fill="#FFA8A7"/>
<path d="M443.753 282.585C440.846 284.149 437.308 284.023 433.866 282.585L432.428 263.776L443.753 265.256V282.585Z" fill="#FFA8A7"/>
<path d="M409.043 271.344C406.598 276.644 402.168 275.175 397.183 271.785L398.065 252.892H410.082L409.043 271.344Z" fill="#FFA8A7"/>
<path d="M422.572 300.386C422.276 301.34 422.321 302.368 422.698 303.293C423.076 303.881 425.238 305.739 429.164 306.012C432.911 306.284 436.259 305.781 438.452 304.385C440.646 302.989 441.717 301.446 441.927 299.315C442.137 297.185 441.927 295.117 442.913 293.469C443.9 291.821 445.348 290.247 445.674 289.428C446.061 288.006 446.061 286.505 445.674 285.083L422.572 300.386Z" fill="#263238"/>
<path d="M432.827 281.756C432.769 282.561 432.617 283.357 432.375 284.128C431.797 285.78 431.026 287.359 430.077 288.83C429.602 289.597 429.08 290.333 428.513 291.034C427.379 292.377 425.973 293.48 424.776 294.781C423.492 295.997 422.672 297.623 422.457 299.378C422.299 302.317 425.49 303.314 427.946 303.755C430.602 304.217 433.327 304.08 435.923 303.356C437.286 302.998 438.517 302.256 439.47 301.217C440.423 300.179 441.057 298.888 441.297 297.499C441.433 296.681 441.381 295.841 441.486 295.022C441.813 293.148 442.595 291.382 443.763 289.879C444.448 289.016 445.036 288.08 445.516 287.088C446.282 285.261 445.674 283.215 445.18 281.409C444.76 279.845 444.278 278.072 443.732 278.261C443.766 278.582 443.719 278.907 443.595 279.205C443.415 279.495 443.27 279.805 443.165 280.129C443.054 280.544 442.907 280.947 442.724 281.336C442.45 281.942 441.99 282.445 441.412 282.774C441.412 281.724 441.339 280.559 441.307 279.447C441.334 279.102 441.246 278.759 441.055 278.471C440.795 278.233 440.462 278.089 440.111 278.061C438.051 277.566 435.926 277.392 433.813 277.547C433.655 277.541 433.497 277.57 433.351 277.634C433.206 277.698 433.077 277.793 432.974 277.914C432.846 278.141 432.795 278.402 432.827 278.659C432.883 279.691 432.883 280.724 432.827 281.756Z" fill="#37474F"/>
<path d="M429.678 289.397C430.728 288.578 433.226 288.567 434.569 288.714C435.931 288.832 437.241 289.291 438.379 290.047C438.546 290.169 438.75 290.227 438.956 290.211C439.162 290.196 439.355 290.108 439.502 289.963C439.586 289.88 439.651 289.779 439.693 289.668C439.735 289.557 439.753 289.438 439.745 289.32C439.737 289.201 439.704 289.086 439.647 288.982C439.591 288.877 439.513 288.786 439.418 288.714C438.166 287.789 436.678 287.236 435.125 287.119C431.83 286.888 430.864 287.455 430.864 287.455C430.864 287.455 429.374 288.463 429.678 289.397Z" fill="#F5F5F5"/>
<path d="M427.18 292.451C428.566 291.643 431.252 291.758 432.596 291.895C433.933 292.036 435.211 292.524 436.301 293.312C436.468 293.434 436.674 293.491 436.88 293.474C437.086 293.456 437.279 293.365 437.424 293.217C437.511 293.135 437.58 293.035 437.624 292.924C437.668 292.812 437.686 292.692 437.678 292.573C437.67 292.453 437.636 292.337 437.577 292.232C437.519 292.128 437.438 292.038 437.34 291.968C436.068 291.002 434.553 290.41 432.963 290.257C429.668 290.026 428.765 290.698 428.765 290.698C428.386 290.853 428.047 291.091 427.773 291.394C427.499 291.698 427.296 292.059 427.18 292.451Z" fill="#F5F5F5"/>
<path d="M436.458 284.012C435.07 283.761 433.64 283.881 432.312 284.359C431.735 284.684 431.347 285.597 431.725 285.828C432.89 285.364 434.151 285.191 435.398 285.324C436.635 285.449 437.842 285.782 438.967 286.311C439.25 286.437 439.586 286.605 439.88 286.773C439.971 286.82 440.07 286.849 440.172 286.857C440.274 286.866 440.377 286.854 440.475 286.823C440.572 286.792 440.663 286.742 440.741 286.675C440.819 286.609 440.883 286.528 440.929 286.437C441.01 286.273 441.026 286.084 440.973 285.909C440.921 285.734 440.804 285.585 440.646 285.492C439.371 284.707 437.943 284.203 436.458 284.012Z" fill="#F5F5F5"/>
<path d="M377.493 283.435C377.208 284.293 377.26 285.228 377.64 286.048C378.007 286.815 382.006 289.071 387.401 288.704C391.398 288.428 395.248 287.083 398.547 284.81C400.646 283.446 402.746 283.194 405.412 283.036C408.078 282.879 411.594 281.556 412.171 280.307C412.477 279.19 412.448 278.007 412.087 276.907L377.493 283.435Z" fill="#263238"/>
<path d="M399.167 266.852L397.771 266.306C397.524 266.181 397.24 266.151 396.973 266.222C396.627 266.348 396.49 266.757 396.396 267.114C396.271 267.91 396.074 268.694 395.808 269.455C395.411 270.075 394.898 270.613 394.297 271.039C392.96 272.115 391.514 273.047 389.983 273.821C388.22 274.765 386.498 275.5 384.672 276.319C382.846 277.138 380.358 277.662 378.91 278.649C376.811 280.076 376.517 283.655 378.91 285.072C381.009 286.29 386.456 287.612 392.197 285.986C395.346 285.104 398.789 281.787 402.893 281.441C405.506 281.241 410.439 280.507 412.119 278.523C412.738 277.641 411.909 274.86 411.237 272.456C410.492 269.822 410.187 265.718 409.337 265.949C409.274 266.82 408.518 267.334 408.057 268.048C407.696 268.725 407.384 269.426 407.123 270.147C406.862 270.871 406.385 271.497 405.758 271.942C405.444 272.156 405.068 272.26 404.689 272.239C404.31 272.218 403.948 272.073 403.659 271.827C402.893 271.029 403.344 269.633 402.788 268.678C402.335 268.074 401.685 267.647 400.951 267.471L399.167 266.852Z" fill="#37474F"/>
<path d="M392.418 272.435C392.607 272.077 392.883 271.771 393.22 271.546C393.557 271.321 393.945 271.183 394.349 271.144C395.535 270.924 397.634 271.795 398.936 272.876C399.061 272.976 399.159 273.105 399.221 273.252C399.284 273.399 399.309 273.56 399.295 273.719C399.28 273.878 399.226 274.031 399.138 274.164C399.05 274.297 398.93 274.407 398.789 274.482C398.613 274.579 398.412 274.619 398.212 274.597C398.013 274.574 397.826 274.49 397.676 274.356C396.24 273.056 394.354 272.367 392.418 272.435Z" fill="#F5F5F5"/>
<path d="M388.744 274.493C389.003 274.128 389.346 273.83 389.745 273.626C390.143 273.421 390.585 273.315 391.032 273.317C392.86 273.401 394.615 274.059 396.049 275.196C396.168 275.293 396.262 275.417 396.323 275.558C396.383 275.699 396.408 275.853 396.396 276.006C396.383 276.159 396.334 276.306 396.251 276.436C396.169 276.565 396.056 276.673 395.923 276.749C395.758 276.841 395.568 276.879 395.38 276.859C395.192 276.838 395.015 276.759 394.874 276.634C394.079 275.838 393.115 275.232 392.054 274.862C390.993 274.491 389.861 274.365 388.744 274.493Z" fill="#F5F5F5"/>
<path d="M384.672 276.35C384.97 276.017 385.336 275.751 385.745 275.57C386.154 275.389 386.597 275.297 387.044 275.301C388.807 275.407 390.491 276.073 391.851 277.2C391.97 277.297 392.064 277.421 392.124 277.563C392.185 277.704 392.21 277.857 392.197 278.01C392.185 278.163 392.135 278.311 392.053 278.441C391.971 278.57 391.858 278.678 391.725 278.754C391.558 278.841 391.368 278.876 391.181 278.854C390.993 278.831 390.817 278.752 390.675 278.628C389.921 277.807 388.986 277.174 387.943 276.778C386.901 276.383 385.781 276.236 384.672 276.35Z" fill="#F5F5F5"/>
<path d="M442.273 141.007C442.945 161.589 442.892 211.329 442.892 211.329C443.113 213.89 444.152 219.148 444.991 229.392C446.104 242.732 443.7 272.047 443.7 272.047C442.006 272.785 440.18 273.171 438.333 273.181C436.485 273.192 434.655 272.828 432.953 272.11C432.953 272.11 426.529 230.368 424.535 217.185C422.74 205.64 419.224 179.568 419.224 179.568L415.162 213.407C415.719 219.042 415.582 224.724 414.753 230.326C413.808 236.393 409.61 261.331 409.61 261.331C405.674 262.321 401.537 262.165 397.687 260.88C397.687 260.88 397.298 217.668 397.183 212.053C397.067 205.64 400.027 135.927 400.027 135.927L442.273 141.007Z" fill="#37474F"/>
<path d="M419.182 179.568L416.138 162.702C416.138 162.702 407.742 161.967 403.04 157.265C403.04 157.265 403.869 161.872 414.48 164.612L417.513 181.678L415.12 213.375L419.182 179.568Z" fill="#263238"/>
<path d="M401.066 104.261C401.969 97.6695 402.84 88.811 413.053 88.4017L426.235 89.0315C429.479 89.8816 442.095 91.372 442.095 91.372L442.336 119.963C442.336 119.963 443.134 140.576 442.892 151.608C433.446 157.59 412.927 159.532 400.027 149.739C399.639 140.639 400.164 110.789 401.066 104.261Z" fill="#FAFAFA"/>
<path d="M402.756 54.4897C401.871 56.051 401.317 57.7782 401.129 59.5634C400.942 61.3485 401.125 63.1531 401.667 64.8643C402.208 66.5755 403.098 68.1565 404.278 69.5083C405.459 70.8602 406.906 71.9539 408.529 72.721L406.157 74.3583L429.856 76.4575L429.552 82.1672C430.609 81.8794 431.515 81.1953 432.082 80.257C432.932 78.7351 435.23 69.3938 435.23 69.3938C437.455 64.2928 438.547 59.0449 436.952 57.3026C436.327 56.6118 435.501 56.1346 434.59 55.9381L437.739 54.3533C437.601 54.041 437.402 53.7599 437.153 53.5267C436.904 53.2936 436.61 53.1132 436.289 52.9965C435.969 52.8798 435.628 52.8292 435.287 52.8478C434.946 52.8663 434.613 52.9535 434.307 53.1043C434.04 53.2403 433.798 53.4214 433.593 53.6396C433.673 53.2945 433.726 52.9435 433.75 52.59C433.856 51.549 433.608 50.5027 433.047 49.6197C432.594 49.0263 432.027 48.5302 431.378 48.1607C428.712 46.4919 425.553 45.8727 422.583 44.8231C420.903 44.2248 419.277 43.4901 417.618 42.8184C416.541 42.2795 415.332 42.0609 414.134 42.1886C413.53 42.2889 412.99 42.625 412.634 43.123C412.278 43.6209 412.134 44.24 412.234 44.8441C411.583 44.2523 410.771 43.8659 409.901 43.7333C409.031 43.6008 408.141 43.7279 407.343 44.0989C406.59 44.4112 405.954 44.9519 405.525 45.6449C405.095 46.3378 404.894 47.148 404.95 47.9613C403.875 47.6939 402.741 47.8051 401.738 48.2762C401.242 48.515 400.828 48.896 400.55 49.3709C400.271 49.8457 400.141 50.3927 400.174 50.9421C400.588 52.3931 401.503 53.6502 402.756 54.4897Z" fill="#37474F"/>
<path d="M419.445 57.8274C421.628 57.565 423.79 57.2081 425.952 56.8722C426.048 56.8439 426.149 56.8358 426.248 56.8484C426.348 56.8611 426.443 56.8942 426.529 56.9457C426.622 57.0321 426.685 57.1462 426.708 57.2711C428.135 61.4694 428.093 65.9301 429.227 70.16C429.332 70.5483 429.573 71.2095 430.035 71.2095C430.874 71.304 431.452 70.5588 431.809 69.9081L432.617 68.4491C432.784 68.1765 432.985 67.9262 433.215 67.7039C434.265 66.7698 437.235 65.6048 438.631 68.8165C440.027 72.0282 437.035 76.3525 434.621 77.0242C430.423 78.1893 429.909 75.5128 429.909 75.5128L429.111 90.4169C425.417 94.2794 413.273 92.9359 415.677 89.5772L415.834 85.043C413.982 85.2802 412.11 85.3154 410.25 85.148C407.227 84.5812 405.401 82.1252 404.582 78.8505C403.27 73.5186 403.417 67.0007 404.446 58.9084C404.572 57.9493 404.822 57.0107 405.191 56.1165C409.442 58.4886 414.616 58.4046 419.445 57.8274Z" fill="#FFA8A7"/>
<path d="M415.834 85.0955C415.834 85.0955 422.667 83.9515 425.081 82.7655C426.499 82.0807 427.677 80.9831 428.46 79.6167C428.057 80.9922 427.382 82.2733 426.477 83.3847C424.672 85.5469 415.782 86.8903 415.782 86.8903L415.834 85.0955Z" fill="#F28F8F"/>
<path d="M416.81 68.2812C416.812 68.5675 416.899 68.8468 417.059 69.0843C417.218 69.3219 417.444 69.5072 417.709 69.6171C417.973 69.7271 418.264 69.7568 418.545 69.7027C418.826 69.6485 419.085 69.5129 419.29 69.3126C419.494 69.1123 419.635 68.8563 419.695 68.5764C419.756 68.2965 419.732 68.0051 419.628 67.7385C419.523 67.4719 419.343 67.2419 419.109 67.0771C418.875 66.9123 418.597 66.82 418.311 66.8118C417.918 66.809 417.539 66.9619 417.258 67.2372C416.977 67.5124 416.816 67.8878 416.81 68.2812Z" fill="#263238"/>
<path d="M418.836 62.2146L421.89 63.5266C422.057 63.1108 422.058 62.6464 421.892 62.23C421.726 61.8136 421.406 61.4773 420.998 61.291C420.796 61.2047 420.578 61.1601 420.359 61.1601C420.139 61.1601 419.922 61.2046 419.719 61.2909C419.517 61.3772 419.335 61.5036 419.183 61.6623C419.031 61.8211 418.913 62.009 418.836 62.2146Z" fill="#263238"/>
<path d="M418.573 76.2056L413.787 77.8324C413.879 78.152 414.035 78.4497 414.244 78.7079C414.454 78.9661 414.714 79.1794 415.007 79.3351C415.301 79.4909 415.623 79.5859 415.955 79.6144C416.286 79.6429 416.62 79.6045 416.936 79.5013C417.583 79.272 418.116 78.7999 418.422 78.1849C418.727 77.5698 418.782 76.86 418.573 76.2056Z" fill="#B16668"/>
<path d="M416.946 79.4802C417.354 79.3392 417.719 79.0981 418.009 78.779C418.299 78.4598 418.504 78.073 418.605 77.654C418.286 77.5022 417.934 77.4332 417.582 77.4534C417.229 77.4737 416.888 77.5825 416.588 77.7697C416.289 77.957 416.042 78.2168 415.87 78.5249C415.698 78.8331 415.606 79.1797 415.603 79.5327C416.046 79.6464 416.513 79.6281 416.946 79.4802Z" fill="#F28F8F"/>
<path d="M404.677 63.4427L407.721 62.2776C407.649 62.0751 407.537 61.8894 407.39 61.732C407.244 61.5746 407.067 61.4487 406.871 61.3622C406.674 61.2757 406.462 61.2303 406.247 61.2289C406.032 61.2275 405.819 61.2701 405.622 61.354C405.227 61.5156 404.909 61.8221 404.734 62.2105C404.558 62.5989 404.538 63.0397 404.677 63.4427Z" fill="#263238"/>
<path d="M405.748 68.2812C405.75 68.5696 405.837 68.8509 405.998 69.0902C406.159 69.3295 406.386 69.5161 406.653 69.6268C406.919 69.7376 407.212 69.7676 407.495 69.713C407.778 69.6584 408.039 69.5218 408.245 69.32C408.451 69.1183 408.593 68.8604 408.654 68.5784C408.714 68.2965 408.69 68.003 408.585 67.7345C408.48 67.4659 408.298 67.2343 408.062 67.0684C407.827 66.9024 407.547 66.8096 407.259 66.8013C406.863 66.7985 406.481 66.9525 406.198 67.2298C405.915 67.507 405.753 67.885 405.748 68.2812Z" fill="#263238"/>
<path d="M412.885 67.8299L412.664 75.8907L408.172 74.5892L412.37 67.7669C412.544 67.7504 412.72 67.7719 412.885 67.8299Z" fill="#F28F8F"/>
<path d="M399.46 112.458C399.807 104.114 400.51 96.7144 403.575 92.8205C406.64 88.9265 408.35 88.1603 415.718 88.2758V88.7796C415.299 88.8057 414.892 88.9281 414.528 89.1375C414.164 89.3469 413.853 89.6374 413.619 89.9866C411.071 93.8559 409.157 98.1079 407.952 102.582C405.852 110.695 405.443 128.821 405.328 138.572C405.212 148.322 405.328 156.194 405.328 156.194C405.328 156.194 400.395 155.04 398.873 152.573C398.873 152.573 399.104 120.813 399.46 112.458Z" fill="#B6D4C8"/>
<path opacity="0.35" d="M399.46 112.458C399.807 104.114 400.51 96.7144 403.575 92.8205C406.64 88.9265 408.35 88.1603 415.718 88.2758V88.7796C415.299 88.8057 414.892 88.9281 414.528 89.1375C414.164 89.3469 413.853 89.6374 413.619 89.9866C411.071 93.8559 409.157 98.1079 407.952 102.582C405.852 110.695 405.443 128.821 405.328 138.572C405.212 148.322 405.328 156.194 405.328 156.194C405.328 156.194 400.395 155.04 398.873 152.573C398.873 152.573 399.104 120.813 399.46 112.458Z" fill="black"/>
<path d="M424.934 99.1704C425.983 94.7202 428.156 91.8234 429.132 89.5248L438.348 90.8262C441.738 92.3901 446.146 96.0742 445.821 99.8527L443.406 127.205L444.078 153.108C438.83 161.285 423.087 159.773 423.087 159.773C423.087 159.773 422.635 148.123 423.139 125.62C423.454 113.004 423.601 104.838 424.934 99.1704Z" fill="#B6D4C8"/>
<path opacity="0.35" d="M424.934 99.1704C425.983 94.7202 428.156 91.8234 429.132 89.5248L438.348 90.8262C441.738 92.3901 446.146 96.0742 445.821 99.8527L443.406 127.205L444.078 153.108C438.83 161.285 423.087 159.773 423.087 159.773C423.087 159.773 422.635 148.123 423.139 125.62C423.454 113.004 423.601 104.838 424.934 99.1704Z" fill="black"/>
<path d="M424.503 101.364C425.112 98.5092 425.438 93.1983 425.941 92.1277C426.445 91.0572 429.185 88.979 429.29 87.4991V86.5649C430.156 86.7325 430.957 87.1439 431.599 87.751C432.459 88.5172 434.999 90.291 434.999 90.291C434.748 92.0531 434.094 93.7338 433.089 95.203C431.578 97.3756 429.478 98.7926 429.153 98.2573C428.828 97.722 428.88 96.9033 428.324 95.6438C427.631 94.059 427.463 93.3872 426.729 94.9511C426.183 96.2001 424.503 101.364 424.503 101.364Z" fill="#37474F"/>
<path d="M408.791 99.8002C408.046 102.214 410.009 91.4665 411.289 89.5773C412.57 87.688 415.824 86.9428 415.824 86.9428L415.687 89.2624C414.831 89.4655 414.082 89.9823 413.588 90.7108C411.599 93.5179 409.986 96.5737 408.791 99.8002Z" fill="#37474F"/>
<path d="M424.168 103.621C431.218 104.342 438.226 105.438 445.159 106.906L445.086 107.683C438.135 106.207 431.111 105.107 424.042 104.387C424.115 104.156 424.136 103.894 424.168 103.621Z" fill="#B6D4C8"/>
<path d="M400.111 103.474C402.41 103.201 405.023 102.959 407.889 102.823L407.7 103.61C404.866 103.747 402.284 103.988 400.027 104.261C400.048 103.999 400.08 103.726 400.111 103.474Z" fill="#B6D4C8"/>
<path d="M463.013 127.698C453.168 102.697 451.016 94.9196 444.068 92.0123C442.237 91.3087 440.306 90.8978 438.348 90.7948C436.637 93.9435 434.149 106.035 442.357 114.452C442.357 114.452 448.319 129.146 451.32 136.095C451.226 143.085 451.73 148.91 449.599 158.356C449.166 159.633 448.334 160.736 447.227 161.505C444.729 162.88 444.309 164.433 442.462 166.207C441.024 167.593 439.764 167.918 439.974 168.38C440.299 168.891 440.786 169.278 441.357 169.479C441.928 169.681 442.549 169.686 443.123 169.492C444.474 168.939 445.771 168.261 446.996 167.467C447.237 167.75 444.897 171.476 442.472 174.195C438.872 178.193 438.001 181.08 445.191 181.363C449.693 181.542 454.553 177.847 457.607 168.873C458.206 167.099 458.835 164.538 459.476 162.04C459.937 160.991 463.233 144.135 463.926 138.95C464.849 132.547 464.619 131.76 463.013 127.698Z" fill="#FFA8A7"/>
<path d="M437.12 90.8262C440.116 90.3995 443.17 90.9361 445.842 92.3586C449.736 94.7097 451.089 96.7669 455.781 107.704C460.473 118.64 461.396 120.75 461.396 120.75C461.396 120.75 459.297 126.984 446.765 127.698L441.15 114.893C441.15 114.893 436.49 109.089 436.059 101.92C435.629 94.7517 437.12 90.8262 437.12 90.8262Z" fill="#B6D4C8"/>
<path opacity="0.45" d="M437.12 90.8262C440.116 90.3995 443.17 90.9361 445.842 92.3586C449.736 94.7097 451.089 96.7669 455.781 107.704C460.473 118.64 461.396 120.75 461.396 120.75C461.396 120.75 459.297 126.984 446.765 127.698L441.15 114.893C441.15 114.893 436.49 109.089 436.059 101.92C435.629 94.7517 437.12 90.8262 437.12 90.8262Z" fill="black"/>
<path d="M279.299 96.0032C277.865 95.1829 271.826 91.6906 269.773 90.503C269.365 90.2715 269.109 90.1205 269.089 90.1054C268.068 89.5364 266.875 89.3575 265.732 89.6022C264.751 89.8013 263.811 90.1673 262.954 90.6841C262.813 90.7646 262.672 90.8603 262.537 90.9508C260.217 92.4152 258.224 94.72 256.563 97.8903C254.872 100.978 253.965 104.434 253.921 107.955C253.921 111.289 254.81 113.629 256.588 114.975C256.768 115.109 256.957 115.231 257.152 115.342C258.818 116.288 267.171 121.129 267.357 121.235H267.403C267.197 121.122 267 120.994 266.814 120.852C265.033 119.51 264.144 117.172 264.147 113.837C264.191 110.317 265.098 106.861 266.789 103.773C268.543 100.418 270.672 98.0144 273.175 96.5618C275.557 95.1863 277.613 95.0068 279.344 96.0233L279.299 96.0032Z" fill="#B2CFC3"/>
<path opacity="0.4" d="M279.344 96.0334C277.613 95.0269 275.557 95.2047 273.175 96.5668C270.85 97.9087 268.845 100.089 267.161 103.109L256.936 97.1858C258.516 94.3627 260.383 92.2844 262.531 90.9307C262.667 90.8452 262.808 90.7445 262.949 90.664C263.806 90.1464 264.746 89.782 265.727 89.5871C266.87 89.3396 268.064 89.5186 269.083 90.0903L269.768 90.4879C271.821 91.6704 277.86 95.1628 279.294 95.9831L279.344 96.0334Z" fill="black"/>
<path opacity="0.3" d="M267.403 121.22H267.357C267.171 121.114 258.803 116.273 257.152 115.327C256.957 115.216 256.768 115.094 256.588 114.96C254.81 113.618 253.921 111.279 253.921 107.945C253.964 104.424 254.871 100.968 256.563 97.8802C256.684 97.6437 256.81 97.4122 256.941 97.1908L267.161 103.094C267.035 103.315 266.91 103.546 266.789 103.778C265.098 106.866 264.191 110.322 264.147 113.842C264.147 117.177 265.036 119.515 266.814 120.857C267.001 120.992 267.198 121.114 267.403 121.22Z" fill="black"/>
<path d="M274.84 9.65021C279.802 6.78185 284.026 5.56237 287.511 5.99179C288.93 6.16126 290.3 6.61662 291.537 7.33036C291.503 7.31209 291.469 7.29193 291.437 7.26997C290.239 6.59565 283.023 2.43401 281.372 1.46279C280.113 0.726897 278.715 0.260781 277.266 0.0940211C273.777 -0.332041 269.551 0.885758 264.59 3.74742C256.874 8.19926 250.667 14.7411 245.97 23.3731C241.274 32.005 238.95 40.8165 239.001 49.8074L249.221 55.7102C249.151 46.7125 251.474 37.8994 256.191 29.2709C260.908 20.6423 267.124 14.1021 274.84 9.65021Z" fill="#B2CFC3"/>
<path opacity="0.2" d="M291.457 7.27501C290.237 6.59572 288.897 6.1599 287.512 5.99179C284.029 5.56237 279.805 6.78185 274.84 9.65022C267.124 14.0987 260.918 20.6406 256.221 29.2759C256.025 29.6332 255.834 29.9955 255.647 30.3528L245.402 24.4399C245.588 24.0826 245.779 23.7203 245.976 23.363C250.692 14.7378 256.899 8.1959 264.595 3.73735C269.563 0.87234 273.789 -0.345457 277.271 0.0839593C278.72 0.252412 280.118 0.720238 281.377 1.45776C283.043 2.43904 290.259 6.60572 291.457 7.27501Z" fill="black"/>
<path opacity="0.3" d="M255.622 30.3427C251.291 38.6258 249.159 47.0782 249.226 55.7001L239.006 49.7973C238.942 41.1721 241.074 32.7196 245.402 24.4399L255.622 30.3427Z" fill="black"/>
<path d="M281.785 26.3773C279.93 25.391 277.452 25.7768 274.352 27.5347C274.247 29.3791 273.867 31.1973 273.225 32.9293C272.45 35.016 270.196 39.3202 266.462 45.842C262.594 52.5851 259.796 59.0247 258.068 65.1607C256.354 71.2188 255.484 77.4841 255.481 83.7799L255.532 86.915L262.506 90.9408L265.757 92.8178L265.702 89.6777V89.6374C265.713 83.3621 266.583 77.1178 268.288 71.0786C270.016 64.9426 272.816 58.5047 276.687 51.7649C280.418 45.2431 282.67 40.9372 283.445 38.8472C284.219 36.7809 284.615 34.5922 284.613 32.3858C284.613 29.3832 283.67 27.3804 281.785 26.3773Z" fill="#B2CFC3"/>
<path opacity="0.3" d="M282.444 41.1067C281.29 43.5087 279.371 47.0547 276.687 51.7448C272.812 58.488 270.013 64.9275 268.288 71.0635C266.581 77.1075 265.711 83.357 265.702 89.6374V89.7179L265.757 92.858L262.506 90.9861L255.532 86.9603L255.481 83.8202C255.484 77.5244 256.355 71.2591 258.068 65.2009C259.796 59.065 262.594 52.6254 266.462 45.8822C269.145 41.1855 271.068 37.6411 272.229 35.2491L282.444 41.1067Z" fill="black"/>
<path opacity="0.4" d="M284.613 32.3858C284.614 34.5851 284.22 36.7668 283.45 38.827C283.234 39.4158 282.897 40.1757 282.444 41.1066L272.229 35.2089C272.675 34.2762 273.01 33.5164 273.235 32.9293C273.878 31.1973 274.258 29.3791 274.362 27.5347C277.462 25.7768 279.94 25.391 281.795 26.3773C283.65 27.3636 284.589 29.3665 284.613 32.3858Z" fill="black"/>
<path d="M263.06 47.7089L249.226 55.7001C249.156 46.7025 251.479 37.8894 256.196 29.2608C260.913 20.6322 267.119 14.0903 274.815 9.63512C279.777 6.76676 284.001 5.54728 287.486 5.9767C290.972 6.40611 293.761 8.31668 295.855 11.7084C297.952 15.1001 299 19.3305 299 24.3997C298.979 27.3427 298.642 30.2749 297.994 33.1457C297.209 36.5798 296.151 39.9454 294.828 43.2101C293.983 45.3438 291.958 49.2823 288.754 55.0258C285.691 60.5008 283.773 64.2264 282.998 66.2024C282.137 68.5479 281.499 70.9689 281.09 73.4337C280.481 77.1176 280.145 80.8415 280.084 84.575L265.777 92.8379L265.722 89.6978C265.725 83.4021 266.595 77.1367 268.308 71.0786C270.036 64.9426 272.836 58.5047 276.707 51.7649C280.438 45.2431 282.691 40.9372 283.466 38.8472C284.233 36.7797 284.621 34.591 284.613 32.3858C284.613 29.3665 283.672 27.3636 281.79 26.3773C279.908 25.391 277.382 25.8037 274.211 27.6153C270.971 29.4872 268.312 32.2952 266.235 36.0392C264.204 39.5969 263.112 43.6127 263.06 47.7089Z" fill="#B2CFC3"/>
<path d="M273.149 96.597C275.716 95.1108 277.907 95.0185 279.722 96.3202C281.536 97.6219 282.444 99.9384 282.444 103.27C282.389 106.809 281.464 110.281 279.752 113.379C277.96 116.785 275.795 119.22 273.255 120.686C270.715 122.152 268.558 122.213 266.784 120.867C265.006 119.525 264.117 117.185 264.117 113.847C264.16 110.327 265.068 106.871 266.758 103.783C268.52 100.435 270.65 98.0396 273.149 96.597Z" fill="#B2CFC3"/>
</svg>
