<svg width="100" height="100" viewBox="0 0 100 100" fill="none" xmlns="http://www.w3.org/2000/svg">
<path fill-rule="evenodd" clip-rule="evenodd" d="M50 0C77.6144 0 100 22.3856 100 50C100 56.3512 98.8144 62.4248 96.654 68.0136H85.2016C84.5712 68.0136 84.0556 68.5292 84.0556 69.1596C84.0556 69.79 84.5712 70.3056 85.2016 70.3056H95.7016C95.5124 70.7308 95.3172 71.1528 95.1164 71.572H78.9516C78.3212 71.572 77.8056 72.0876 77.8056 72.718C77.8056 73.3484 78.3212 73.864 78.9516 73.864H93.944C93.712 74.2896 93.4748 74.712 93.2308 75.1304H72.7016C72.0712 75.1304 71.5556 75.646 71.5556 76.2764C71.5556 76.9068 72.0712 77.4224 72.7016 77.4224H91.8108C91.5304 77.8488 91.244 78.2712 90.9508 78.6888H66.4516C65.8212 78.6888 65.3056 79.2044 65.3056 79.8348C65.3056 80.4652 65.8212 80.9808 66.4516 80.9808H89.2432C88.9048 81.4084 88.56 81.8308 88.2084 82.2472H60.2016C59.5712 82.2472 59.0556 82.7628 59.0556 83.3928V83.3932C59.0556 84.0236 59.5712 84.5392 60.2016 84.5392H86.1524C77.0488 94.066 64.2176 100 50 100C22.3856 100 0 77.6144 0 50C0 42.7044 1.5636 35.7744 4.3724 29.5252H24.106C24.736 29.5252 25.2516 29.0096 25.2516 28.3792V28.3788C25.2516 27.7488 24.736 27.2332 24.106 27.2332H5.4724C5.6904 26.8072 5.9156 26.3852 6.146 25.9668H30.356C30.986 25.9668 31.5016 25.4512 31.5016 24.8208C31.5016 24.1904 30.986 23.6748 30.356 23.6748H7.4848C7.7492 23.248 8.0204 22.826 8.2976 22.4084H36.606C37.236 22.4084 37.7516 21.8928 37.7516 21.2624C37.7516 20.632 37.236 20.1164 36.606 20.1164H9.9124C10.2316 19.6888 10.5584 19.2668 10.8908 18.85H42.856C43.486 18.85 44.0016 18.3344 44.0016 17.704C44.0016 17.0736 43.486 16.558 42.856 16.558H12.834C13.2204 16.1288 13.6144 15.7068 14.0152 15.2916H49.106C49.736 15.2916 50.2516 14.776 50.2516 14.1456C50.2516 13.5152 49.736 12.9996 49.106 12.9996H16.3752C25.2548 4.924 37.0516 0 50 0ZM18.054 48.0628C16.6928 48.3568 16.0148 50.5656 16.5396 52.9968C17.0644 55.428 18.5932 57.1604 19.9544 56.8668C21.3152 56.5728 21.9932 54.364 21.4688 51.9328C20.944 49.502 19.4152 47.7692 18.054 48.0628ZM21.7112 56.4876C21.6864 56.4928 21.6668 56.4972 21.6492 56.5008C21.8524 56.1948 22.0228 55.8372 22.1488 55.4256C22.4728 54.3708 22.4964 53.0732 22.2152 51.772C21.8112 49.8996 20.862 48.3996 19.7412 47.6988C19.7608 47.6948 19.7824 47.69 19.8112 47.6836C21.1724 47.39 22.7008 49.1228 23.2256 51.5536C23.7504 53.9848 23.0724 56.1936 21.7112 56.4876ZM75.1916 53.3132C74.4444 54.0924 73.5468 54.6112 72.5316 54.8304L27.2992 65.4644C35.9068 67.7724 38.946 71.3596 44.3548 71.2144C66.5444 62.0768 90.3308 58.3236 90.7972 57.914C83.9104 58.5952 79.5408 54.5848 75.1916 53.3132ZM75.2804 42.696C74.3196 38.2452 71.742 34.9204 69.2076 34.6008L69.1872 34.4736L23.4652 39.144C26.354 41.1824 28.7756 45.1904 29.8408 50.126C30.6196 53.7348 30.5552 57.33 29.6596 60.2484C29.3024 61.4124 28.8248 62.426 28.2476 63.2792L72.1288 52.9636C74.9612 52.3524 76.3724 47.7552 75.2804 42.696ZM22.1144 58.3544L20.5744 58.6788C20.5028 58.6996 20.4304 58.718 20.3572 58.7336C20.2736 58.7516 20.1896 58.7664 20.1048 58.778L18.074 58.4372C16.4968 57.678 15.194 55.8152 14.6728 53.3996C14.1468 50.962 14.5752 48.7464 15.6844 47.4148L17.3964 46.2616C17.4796 46.2364 17.5648 46.2148 17.6512 46.1964C17.7244 46.1804 17.7984 46.1668 17.8728 46.156L19.4056 45.8176C19.6404 45.7668 19.8788 45.7416 20.1168 45.7416C22.3592 45.7416 24.4052 47.966 25.0928 51.1508C25.864 54.7244 24.5836 57.8216 22.1144 58.3544ZM27.9736 50.5288C26.5472 43.9188 22.4712 39.1516 18.7464 39.626L18.7452 39.6264L18.74 39.6268C18.628 39.6412 18.5164 39.66 18.4052 39.684C14.5908 40.5072 12.6908 46.6976 14.1616 53.51C15.632 60.3228 19.916 65.178 23.73 64.3548C27.5444 63.5316 29.4444 57.3416 27.9736 50.5288Z" fill="white"/>
</svg>
