<svg width="100" height="100" viewBox="0 0 100 100" fill="none" xmlns="http://www.w3.org/2000/svg">
<path fill-rule="evenodd" clip-rule="evenodd" d="M50 0C77.6144 0 100 22.3856 100 50C100 56.3512 98.8144 62.4248 96.654 68.0136H85.2016C84.5712 68.0136 84.0556 68.5292 84.0556 69.1596C84.0556 69.79 84.5712 70.3056 85.2016 70.3056H95.7016C95.5124 70.7308 95.3172 71.1528 95.1164 71.572H78.9516C78.3212 71.572 77.8056 72.0876 77.8056 72.718C77.8056 73.3484 78.3212 73.864 78.9516 73.864H93.944C93.712 74.2896 93.4748 74.712 93.2308 75.1304H72.7016C72.0712 75.1304 71.5556 75.646 71.5556 76.2764C71.5556 76.9068 72.0712 77.4224 72.7016 77.4224H91.8108C91.5304 77.8488 91.244 78.2712 90.9508 78.6888H66.4516C65.8212 78.6888 65.3056 79.2044 65.3056 79.8348C65.3056 80.4652 65.8212 80.9808 66.4516 80.9808H89.2432C88.9048 81.4084 88.56 81.8308 88.2084 82.2472H60.2016C59.5712 82.2472 59.0556 82.7628 59.0556 83.3928C59.0556 84.0232 59.5712 84.5392 60.2016 84.5392H86.1524C77.0488 94.066 64.2176 100 50 100C22.3856 100 0 77.6144 0 50C0 42.7044 1.5636 35.7744 4.3724 29.5252H24.106C24.736 29.5252 25.2516 29.0096 25.2516 28.3792C25.2516 27.7492 24.736 27.2332 24.106 27.2332H5.4724C5.6904 26.8072 5.9156 26.3852 6.146 25.9668H30.356C30.986 25.9668 31.5016 25.4512 31.5016 24.8208C31.5016 24.1904 30.986 23.6748 30.356 23.6748H7.4848C7.7492 23.248 8.0204 22.826 8.2976 22.4084H36.606C37.236 22.4084 37.7516 21.8928 37.7516 21.2624C37.7516 20.632 37.236 20.1164 36.606 20.1164H9.9124C10.2316 19.6888 10.5584 19.2668 10.8908 18.85H42.856C43.486 18.85 44.0016 18.3344 44.0016 17.704C44.0016 17.0736 43.486 16.558 42.856 16.558H12.834C13.2204 16.1288 13.6144 15.7068 14.0152 15.2916H49.106C49.736 15.2916 50.2516 14.776 50.2516 14.1456C50.2516 13.5152 49.736 12.9996 49.106 12.9996H16.3752C25.2548 4.924 37.0516 0 50 0ZM54.2104 48.8904C50.3292 48.8904 47.0508 46.8604 47.0508 44.458C47.0508 42.0556 50.3292 40.026 54.2104 40.026C58.0912 40.026 61.37 42.0556 61.37 44.458C61.37 46.8604 58.0912 48.8904 54.2104 48.8904ZM60.2724 40.0968C58.6416 39.0248 56.4888 38.4348 54.2104 38.4348C51.932 38.4348 49.7792 39.0248 48.1484 40.0968C46.4144 41.236 45.4596 42.7848 45.4596 44.458C45.4596 46.1312 46.4144 47.68 48.1484 48.8196C49.7792 49.8912 51.932 50.4812 54.2104 50.4812C56.4888 50.4812 58.6416 49.8912 60.2724 48.8196C62.006 47.68 62.9608 46.1312 62.9608 44.458C62.9608 42.7848 62.0064 41.236 60.2724 40.0968ZM66.8988 52.4188C63.5212 54.6384 59.0148 55.8608 54.2104 55.8608C54.1816 55.8608 54.1532 55.86 54.1244 55.86C50.3992 55.8484 46.9404 55.094 44.0868 53.8176C43.1768 53.4084 42.3176 52.9416 41.5216 52.4188C39.9924 51.4136 38.784 50.2612 37.9304 49.0148C37.9236 49.0048 37.3664 48.08 37.3388 48.0264C37.32 47.9904 36.8968 47.0164 36.8804 46.9704C36.8648 46.9256 36.7224 46.4704 36.7096 46.4248C36.6972 46.3784 36.5628 45.7736 36.5544 45.7248C36.5468 45.6804 36.4688 45.0684 36.466 45.028C36.4612 44.9672 36.4436 44.5536 36.4436 44.458C36.4436 41.4768 38.2468 38.6496 41.5216 36.4976C44.8996 34.278 49.4056 33.0556 54.2104 33.0556C59.0148 33.0556 63.5212 34.278 66.8988 36.4976C70.1736 38.6496 71.9768 41.4768 71.9768 44.458C71.9768 47.4396 70.1736 50.2668 66.8988 52.4188ZM71.9768 55.4892C71.9768 58.4708 70.1736 61.298 66.8988 63.45C63.5212 65.6696 59.0148 66.892 54.2104 66.892L54.09 66.8908L28.9372 66.9868L30.9992 65.4132L28.3892 63.4212L30.9992 61.4288L28.3892 59.4368L30.9904 57.4516H36.4436L54.12 57.4508C54.1504 57.4508 54.1804 57.4516 54.2104 57.4516C59.322 57.4516 64.1384 56.1364 67.7728 53.7484C67.8876 53.6728 68.854 52.9772 68.8988 52.942C68.958 52.8964 69.7556 52.2264 69.7996 52.1868C69.8496 52.1412 70.4368 51.574 70.4812 51.5276C70.5224 51.4852 71.0492 50.9008 71.0868 50.8564C71.1264 50.8092 71.6004 50.2028 71.6356 50.1544C71.6684 50.1088 71.9612 49.6816 71.9768 49.6572V55.4892ZM36.4436 49.6572C36.4592 49.6816 36.554 49.8228 36.5852 49.8692C36.6188 49.9184 37.2948 50.8096 37.3348 50.8572C37.3716 50.9012 38.03 51.62 38.076 51.6664C38.1172 51.708 38.8576 52.3968 38.9104 52.442C38.9548 52.4808 39.9324 53.2528 39.978 53.2856C40.0452 53.3348 40.4916 53.644 40.5844 53.7056L40.6016 53.7168L40.6176 53.728C40.6272 53.7344 41.1284 54.0524 41.1528 54.0672C41.2908 54.152 41.954 54.5332 42.1192 54.622C42.128 54.6268 42.4576 54.7996 42.6156 54.8788C42.6392 54.8908 43.7624 55.412 43.7828 55.4208C44.1412 55.5744 44.506 55.72 44.8776 55.8568L44.8868 55.8604L36.4436 55.8608V49.6572ZM67.7728 35.168C64.1384 32.7796 59.322 31.4644 54.2104 31.4644C49.0988 31.4644 44.282 32.7796 40.648 35.168C36.9108 37.6236 34.8524 40.9232 34.8524 44.458V55.8608H28.9232L26.9644 55.8604L29.0416 57.4464L26.432 59.4388L29.0416 61.4308L26.432 63.4228L29.0416 65.4152L26.432 67.4068L27.9108 68.5356L54.0872 68.482L54.2104 68.4828C59.322 68.4828 64.1384 67.1676 67.7728 64.7796C71.51 62.3236 73.568 59.0244 73.568 55.4892V44.458C73.568 40.9232 71.51 37.6236 67.7728 35.168Z" fill="white"/>
</svg>
