<svg width="250" height="154" viewBox="0 0 250 154" fill="none" xmlns="http://www.w3.org/2000/svg">
<path fill-rule="evenodd" clip-rule="evenodd" d="M36.1933 117.709C38.5389 117.793 42.8508 117.709 45.1974 117.645C47.5432 117.583 47.9236 117.539 48.2835 117.434C48.6424 117.328 48.98 117.16 49.805 116.061C50.6291 114.961 51.9397 112.933 52.8066 111.538C53.6723 110.143 54.0956 109.381 54.3731 108.716C54.6504 108.051 54.784 107.482 54.6984 107.001C54.6116 106.521 54.3078 106.129 53.4756 105.999C52.6433 105.869 51.2829 105.999 45.2351 106.031C39.1864 106.064 28.4494 105.999 22.8689 106.195C17.2884 106.39 16.8641 106.848 13.8677 111.459C10.8704 116.071 5.30001 124.838 2.5555 129.359C-0.188792 133.881 -0.108198 134.159 0.0794486 134.294C0.267022 134.427 0.561871 134.417 1.12263 134.413C1.6836 134.408 2.50975 134.408 4.65859 134.403C6.80729 134.397 10.2769 134.386 12.4085 134.408C14.5398 134.43 15.3312 134.484 15.7646 134.483C16.1972 134.481 16.2705 134.423 16.752 133.675C17.2323 132.928 18.1194 131.49 20.6141 127.516C23.1085 123.543 27.2083 117.033 29.3856 113.651C31.5632 110.269 31.816 110.015 32.1332 109.952C32.4503 109.888 32.8317 110.015 33.1919 110.121C33.5508 110.227 33.8883 110.311 34.2483 110.438C34.6074 110.564 34.9878 110.734 35.199 111.157C35.41 111.579 35.4527 112.255 35.2835 112.805C35.1142 113.355 34.7338 113.777 34.332 114.2C33.9302 114.623 33.508 115.046 33.254 115.384C33.0002 115.722 32.9164 115.976 32.9164 116.251C32.9164 116.526 33.0002 116.821 33.2325 117.097C33.4651 117.371 33.8465 117.624 36.1933 117.708V117.709Z" fill="white"/>
<path fill-rule="evenodd" clip-rule="evenodd" d="M91.3435 106.162C85.0173 105.934 72.4303 105.934 65.884 106.17C59.3375 106.407 58.8298 106.879 56.6951 110.35C54.5607 113.82 50.7975 120.288 48.1977 124.558C45.5982 128.827 44.1601 130.899 43.3157 132.138C42.4715 133.379 42.2185 133.788 42.1859 134.046C42.1521 134.303 42.3379 134.408 48.7293 134.444C55.1207 134.481 67.7176 134.448 74.2345 134.442C80.7503 134.433 81.1867 134.451 81.6223 134.147C82.0568 133.842 82.4921 133.216 83.1531 132.142C83.8139 131.068 84.7023 129.546 85.2519 128.49C85.8005 127.433 86.0127 126.841 86.1189 126.291C86.2238 125.741 86.2238 125.235 86.0974 124.98C85.97 124.726 85.717 124.726 83.2867 124.748C80.8554 124.769 76.2468 124.811 73.7736 124.917C71.3004 125.023 70.9629 125.191 70.6456 125.636C70.3285 126.08 70.0326 126.798 69.4412 127.643C68.8497 128.489 67.9615 129.462 67.3282 130.286C66.6938 131.11 66.3124 131.787 65.8902 132.167C65.4669 132.548 65.0018 132.632 64.347 132.632C63.6914 132.632 62.8459 132.548 62.2962 132.337C61.7464 132.125 61.4936 131.787 61.4304 131.491C61.366 131.194 61.4936 130.941 62.2973 129.61C63.0999 128.278 64.5795 125.869 65.6157 124.432C66.6509 122.994 67.2435 122.529 67.7086 122.296C68.1735 122.064 68.5112 122.064 71.851 122.043C75.1912 122.022 81.5314 121.979 84.8082 121.959C88.084 121.937 88.2961 121.937 88.6347 121.768C88.9724 121.599 89.4363 121.261 90.599 119.549C91.7616 117.836 93.6219 114.75 94.9384 112.481C96.254 110.211 97.0271 108.758 97.3809 107.803C97.7339 106.848 97.6685 106.39 91.3435 106.162V106.162ZM77.0015 110.165C78.0711 110.845 78.3899 112.274 77.7106 113.343L74.4177 118.526C73.7383 119.596 72.3088 119.915 71.2394 119.236C70.1699 118.556 69.851 117.127 70.5303 116.057L73.8232 110.874C74.5025 109.805 75.9321 109.486 77.0015 110.165Z" fill="white"/>
<path fill-rule="evenodd" clip-rule="evenodd" d="M133.513 106.046C126.88 105.958 114.228 105.958 107.864 106.01C101.5 106.061 101.425 106.165 98.0633 111.597C94.7008 117.029 88.0525 127.79 84.6441 133.382C81.2358 138.974 81.0665 139.396 81.1939 139.925C81.3203 140.453 81.7426 141.087 83.0327 143.307C84.3219 145.526 86.4778 149.33 87.6832 151.318C88.8877 153.304 89.1406 153.473 89.4158 153.537C89.6902 153.6 89.9871 153.557 92.0379 150.451C94.0878 147.343 97.892 141.171 99.9978 137.969C102.103 134.767 102.509 134.534 106.044 134.422C109.577 134.309 116.24 134.315 119.699 134.331C123.159 134.348 123.415 134.374 123.687 134.357C123.959 134.34 124.247 134.28 126.504 130.977C128.76 127.674 132.983 121.127 135.538 117.179C138.094 113.229 138.983 111.875 139.638 110.861C140.293 109.847 140.715 109.169 140.966 108.496C141.217 107.823 141.297 107.152 141.028 106.729C140.76 106.306 140.146 106.132 133.513 106.046ZM119.834 110.165L119.836 110.166C120.906 110.845 121.224 112.273 120.545 113.343L117.251 118.528C114.802 122.386 112.088 126.144 109.633 130.01C108.953 131.079 107.525 131.398 106.456 130.719L106.454 130.718C105.385 130.037 105.066 128.609 105.745 127.539C108.22 123.644 110.921 119.897 113.363 116.057L116.657 110.872C117.336 109.803 118.765 109.484 119.834 110.165L119.834 110.165Z" fill="white"/>
<path fill-rule="evenodd" clip-rule="evenodd" d="M178.009 106.019C171.478 105.935 158.844 106.009 152.465 106.047C146.085 106.083 145.957 106.083 145.768 106.189C145.577 106.294 145.324 106.507 142.513 110.966C139.702 115.426 134.332 124.135 131.669 128.679C129.006 133.224 129.048 133.604 129.196 133.88C129.344 134.154 129.597 134.323 130.907 134.386C132.218 134.449 134.586 134.407 140.804 134.39C147.021 134.371 157.089 134.377 162.466 134.419C167.842 134.46 168.528 134.536 169.159 134.216C169.789 133.896 170.365 133.179 172.662 129.566C174.958 125.952 178.974 119.443 181.278 115.596C183.582 111.748 184.174 110.565 184.618 109.678C185.061 108.789 185.358 108.197 185.464 107.733C185.569 107.268 185.484 106.929 185.228 106.638C184.971 106.348 184.54 106.104 178.009 106.02V106.019ZM164.707 110.165L164.709 110.166C165.779 110.845 166.097 112.273 165.418 113.342L162.124 118.528C159.675 122.386 156.962 126.144 154.506 130.01C153.827 131.079 152.398 131.398 151.329 130.719L151.327 130.717C150.258 130.037 149.939 128.609 150.618 127.539C153.093 123.644 155.794 119.897 158.236 116.057L161.53 110.872C162.21 109.803 163.639 109.484 164.707 110.164L164.707 110.165Z" fill="white"/>
<path fill-rule="evenodd" clip-rule="evenodd" d="M211.695 116.695C214.442 116.737 219.516 116.609 222.328 116.335C225.138 116.06 225.687 115.637 226.532 114.813C227.378 113.989 228.52 112.762 229.302 111.432C230.085 110.1 230.507 108.662 230.664 107.741C230.82 106.82 230.711 106.414 230.472 106.213C230.233 106.011 229.865 106.013 223.112 105.998C216.357 105.982 203.216 105.95 196.649 106.004C190.081 106.057 190.086 106.198 189.455 107.177C188.824 108.155 187.556 109.974 185.146 113.926C182.736 117.878 179.186 123.966 177.221 127.412C175.254 130.857 174.873 131.66 174.662 132.357C174.451 133.055 174.408 133.647 174.606 133.972C174.803 134.298 175.238 134.357 177.902 134.379C180.565 134.399 185.456 134.383 188.007 134.374C190.557 134.365 190.769 134.365 191.15 134.154C191.53 133.943 192.079 133.52 194.573 129.546C197.068 125.573 201.506 118.048 204.064 113.99C206.622 109.932 207.298 109.339 207.869 108.98C208.439 108.621 208.904 108.494 209.349 108.515C209.793 108.536 210.215 108.705 210.553 108.98C210.892 109.254 211.145 109.635 210.849 110.269C210.553 110.904 209.708 111.791 209.138 112.595C208.567 113.398 208.27 114.116 208.143 114.709C208.017 115.3 208.059 115.765 208.291 116.104C208.524 116.441 208.947 116.652 211.695 116.695Z" fill="white"/>
<path fill-rule="evenodd" clip-rule="evenodd" d="M25.3654 134.424C24.518 132.881 23.7123 131.599 22.873 130.052C24.7576 127.132 26.9993 123.579 29.4662 120.391C31.7578 122.807 38.6236 131.327 40.7438 134.441C34.8705 134.505 30.4984 134.468 25.3654 134.424Z" fill="white"/>
<path fill-rule="evenodd" clip-rule="evenodd" d="M113.562 0C129.613 0 143.891 7.42599 153.011 18.959C152.875 18.7872 152.739 18.6167 152.601 18.447C151.207 18.4633 149.625 18.4776 147.822 18.4872C136.382 18.5495 116.074 18.426 105.518 18.7963C94.9642 19.1661 94.1614 20.0304 88.495 28.754C82.8251 37.4756 72.29 54.056 67.0989 62.6082C66.7767 63.1393 66.4751 63.639 66.1928 64.1101C66.2751 64.3542 66.359 64.5975 66.445 64.8399C64.6656 59.8218 63.6956 54.4333 63.6956 48.822C63.6956 21.8582 86.0219 0 113.562 0ZM160.306 31.7864C162.323 37.0905 163.428 42.8295 163.428 48.822C163.428 75.7857 141.102 97.644 113.562 97.644C94.6519 97.644 78.2008 87.3384 69.7466 72.1502L71.0774 72.1473C75.1411 72.1354 81.7032 72.1161 85.7286 72.1263C89.7538 72.1354 91.2407 72.1768 92.061 72.1747C92.8791 72.1711 93.0281 72.1223 93.944 70.7412C94.8585 69.358 96.5359 66.6381 101.254 59.1229C105.972 51.6088 113.727 39.2948 117.845 32.8979C121.963 26.5018 122.442 26.0216 123.041 25.9026C123.641 25.7829 124.363 26.0216 125.044 26.222C125.723 26.4237 126.361 26.5813 127.041 26.8221C127.72 27.0611 128.44 27.3813 128.84 28.1822C129.239 28.9811 129.32 30.2591 129 31.299C128.68 32.3387 127.96 33.1379 127.199 33.9374C126.44 34.7365 125.641 35.537 125.161 36.1768C124.681 36.8159 124.523 37.296 124.523 37.8174C124.523 38.3359 124.681 38.8945 125.121 39.4158C125.56 39.9345 126.282 40.4131 130.72 40.573C135.157 40.7335 143.312 40.573 147.75 40.4535C152.187 40.3346 152.906 40.2527 153.587 40.0546C154.266 39.8537 154.905 39.5354 156.465 37.4562C157.509 36.0626 158.968 33.879 160.309 31.7959L160.306 31.7864ZM118.635 45.8491C117.968 45.2757 117.498 44.8879 116.749 44.4177C115.364 46.0464 113.123 49.9774 111.871 51.9798C110.972 53.4203 105.922 61.1901 105.697 62.0831C105.581 62.542 105.726 62.4785 106.277 62.9292C107.427 63.8474 118.586 71.7831 119.171 71.9739C120.595 72.2517 127.452 72.1296 129.193 72.1346C130.911 72.1397 148.591 72.3194 148.934 72.0106C149.149 71.8158 146.546 69.7376 146.267 69.5007C137.023 61.6811 127.821 53.7417 118.635 45.8491Z" fill="white"/>
<path d="M104.536 147L102.04 140.558H102.962L104.637 145.238C104.771 145.613 104.884 145.964 104.975 146.292C105.075 145.941 105.19 145.589 105.322 145.238L107.062 140.558H107.933L105.41 147H104.536ZM108.715 147V140.558H113.373V141.318H109.567V143.291H113.131V144.047H109.567V146.24H113.522V147H108.715ZM114.691 147V140.558H115.566L118.95 145.616V140.558H119.767V147H118.893L115.509 141.938V147H114.691ZM121.204 147V140.558H123.423C123.924 140.558 124.307 140.588 124.57 140.65C124.939 140.735 125.254 140.889 125.515 141.111C125.855 141.398 126.108 141.766 126.275 142.214C126.445 142.66 126.53 143.169 126.53 143.744C126.53 144.233 126.473 144.667 126.359 145.044C126.245 145.422 126.098 145.736 125.919 145.985C125.741 146.231 125.544 146.426 125.331 146.569C125.12 146.71 124.863 146.817 124.562 146.89C124.263 146.963 123.918 147 123.529 147H121.204ZM122.057 146.24H123.432C123.857 146.24 124.189 146.2 124.43 146.121C124.673 146.042 124.866 145.931 125.01 145.787C125.212 145.585 125.369 145.314 125.48 144.974C125.594 144.631 125.651 144.217 125.651 143.73C125.651 143.057 125.54 142.54 125.317 142.179C125.098 141.816 124.83 141.573 124.513 141.45C124.285 141.362 123.917 141.318 123.41 141.318H122.057V146.24ZM127 147L129.475 140.558H130.393L133.03 147H132.059L131.307 145.049H128.613L127.906 147H127ZM128.859 144.354H131.043L130.371 142.57C130.166 142.028 130.014 141.583 129.914 141.234C129.832 141.647 129.716 142.058 129.567 142.465L128.859 144.354ZM133.421 144.93L134.225 144.86C134.263 145.182 134.351 145.447 134.489 145.655C134.629 145.86 134.846 146.027 135.139 146.156C135.432 146.282 135.762 146.345 136.128 146.345C136.453 146.345 136.74 146.297 136.989 146.2C137.238 146.104 137.423 145.972 137.543 145.805C137.666 145.635 137.728 145.45 137.728 145.251C137.728 145.049 137.669 144.873 137.552 144.724C137.435 144.571 137.241 144.444 136.972 144.341C136.799 144.274 136.417 144.17 135.825 144.029C135.233 143.886 134.818 143.751 134.581 143.625C134.273 143.464 134.043 143.265 133.891 143.027C133.742 142.787 133.667 142.519 133.667 142.223C133.667 141.898 133.759 141.595 133.944 141.313C134.128 141.029 134.398 140.814 134.752 140.667C135.107 140.521 135.501 140.448 135.935 140.448C136.412 140.448 136.833 140.525 137.196 140.681C137.562 140.833 137.843 141.059 138.04 141.357C138.236 141.656 138.341 141.995 138.356 142.373L137.539 142.434C137.495 142.027 137.345 141.719 137.09 141.511C136.838 141.303 136.465 141.199 135.97 141.199C135.454 141.199 135.078 141.294 134.84 141.485C134.606 141.672 134.489 141.899 134.489 142.166C134.489 142.397 134.572 142.588 134.739 142.737C134.903 142.887 135.331 143.041 136.022 143.199C136.717 143.354 137.193 143.49 137.451 143.607C137.826 143.78 138.103 144 138.281 144.267C138.46 144.53 138.549 144.835 138.549 145.181C138.549 145.523 138.451 145.847 138.255 146.152C138.059 146.454 137.776 146.689 137.407 146.859C137.041 147.026 136.627 147.11 136.167 147.11C135.584 147.11 135.095 147.025 134.7 146.855C134.307 146.685 133.998 146.43 133.772 146.09C133.55 145.748 133.433 145.361 133.421 144.93ZM142.236 147V140.558H146.895V141.318H143.089V143.291H146.653V144.047H143.089V146.24H147.044V147H142.236ZM150.74 147V140.558H153.596C154.17 140.558 154.607 140.616 154.906 140.733C155.205 140.848 155.443 141.051 155.622 141.344C155.801 141.637 155.89 141.961 155.89 142.315C155.89 142.772 155.742 143.158 155.446 143.471C155.15 143.785 154.693 143.984 154.075 144.069C154.301 144.177 154.472 144.284 154.589 144.39C154.838 144.618 155.074 144.904 155.297 145.247L156.417 147H155.345L154.493 145.66C154.244 145.273 154.039 144.977 153.877 144.772C153.716 144.567 153.571 144.423 153.442 144.341C153.316 144.259 153.188 144.202 153.056 144.17C152.959 144.149 152.801 144.139 152.581 144.139H151.592V147H150.74ZM151.592 143.401H153.425C153.814 143.401 154.119 143.361 154.339 143.282C154.559 143.2 154.726 143.071 154.84 142.896C154.954 142.717 155.011 142.523 155.011 142.315C155.011 142.011 154.9 141.76 154.677 141.564C154.458 141.368 154.109 141.27 153.631 141.27H151.592V143.401ZM157.248 147V140.558H161.906V141.318H158.101V143.291H161.665V144.047H158.101V146.24H162.056V147H157.248ZM163.233 147V140.558H165.664C166.091 140.558 166.418 140.578 166.644 140.619C166.96 140.672 167.225 140.773 167.439 140.922C167.653 141.069 167.824 141.275 167.953 141.542C168.085 141.809 168.151 142.102 168.151 142.421C168.151 142.969 167.977 143.433 167.628 143.814C167.279 144.192 166.649 144.381 165.738 144.381H164.086V147H163.233ZM164.086 143.621H165.751C166.302 143.621 166.693 143.518 166.925 143.313C167.156 143.108 167.272 142.819 167.272 142.447C167.272 142.178 167.203 141.948 167.065 141.757C166.931 141.564 166.752 141.437 166.529 141.375C166.386 141.337 166.121 141.318 165.734 141.318H164.086V143.621ZM169.25 147V140.558H172.106C172.68 140.558 173.117 140.616 173.416 140.733C173.714 140.848 173.953 141.051 174.132 141.344C174.311 141.637 174.4 141.961 174.4 142.315C174.4 142.772 174.252 143.158 173.956 143.471C173.66 143.785 173.203 143.984 172.585 144.069C172.811 144.177 172.982 144.284 173.099 144.39C173.348 144.618 173.584 144.904 173.807 145.247L174.927 147H173.855L173.002 145.66C172.753 145.273 172.548 144.977 172.387 144.772C172.226 144.567 172.081 144.423 171.952 144.341C171.826 144.259 171.697 144.202 171.565 144.17C171.469 144.149 171.311 144.139 171.091 144.139H170.102V147H169.25ZM170.102 143.401H171.935C172.324 143.401 172.629 143.361 172.849 143.282C173.068 143.2 173.235 143.071 173.35 142.896C173.464 142.717 173.521 142.523 173.521 142.315C173.521 142.011 173.41 141.76 173.187 141.564C172.967 141.368 172.619 141.27 172.141 141.27H170.102V143.401ZM175.758 147V140.558H180.416V141.318H176.61V143.291H180.174V144.047H176.61V146.24H180.565V147H175.758ZM181.734 147V140.558H182.609L185.993 145.616V140.558H186.81V147H185.936L182.552 141.938V147H181.734ZM189.886 147V141.318H187.764V140.558H192.87V141.318H190.739V147H189.886ZM192.374 147L194.848 140.558H195.766L198.403 147H197.432L196.68 145.049H193.986L193.279 147H192.374ZM194.232 144.354H196.417L195.744 142.57C195.539 142.028 195.387 141.583 195.287 141.234C195.205 141.647 195.089 142.058 194.94 142.465L194.232 144.354ZM203.681 144.741L204.533 144.957C204.354 145.657 204.032 146.191 203.566 146.561C203.104 146.927 202.537 147.11 201.866 147.11C201.171 147.11 200.606 146.969 200.169 146.688C199.736 146.404 199.405 145.994 199.176 145.458C198.951 144.921 198.838 144.346 198.838 143.73C198.838 143.06 198.965 142.475 199.22 141.977C199.478 141.476 199.843 141.097 200.314 140.839C200.789 140.578 201.311 140.448 201.879 140.448C202.523 140.448 203.065 140.612 203.505 140.94C203.944 141.268 204.25 141.729 204.423 142.324L203.584 142.522C203.435 142.053 203.218 141.712 202.934 141.498C202.649 141.284 202.292 141.177 201.861 141.177C201.366 141.177 200.952 141.296 200.618 141.533C200.287 141.771 200.054 142.09 199.919 142.491C199.784 142.89 199.717 143.301 199.717 143.726C199.717 144.274 199.796 144.753 199.954 145.163C200.115 145.57 200.364 145.875 200.701 146.077C201.038 146.279 201.403 146.38 201.795 146.38C202.273 146.38 202.677 146.243 203.008 145.967C203.339 145.692 203.563 145.283 203.681 144.741ZM201.114 147.677L201.343 146.899H201.932L201.787 147.369C202.036 147.398 202.223 147.475 202.349 147.598C202.475 147.724 202.538 147.863 202.538 148.015C202.538 148.235 202.433 148.428 202.222 148.595C202.011 148.765 201.693 148.85 201.268 148.85C201.028 148.85 200.817 148.833 200.635 148.797L200.684 148.283C200.871 148.295 201.009 148.301 201.097 148.301C201.372 148.301 201.565 148.263 201.677 148.187C201.762 148.128 201.804 148.056 201.804 147.971C201.804 147.918 201.787 147.872 201.751 147.831C201.719 147.79 201.658 147.754 201.567 147.725C201.476 147.696 201.325 147.68 201.114 147.677ZM205.329 143.862C205.329 142.793 205.616 141.957 206.19 141.353C206.764 140.747 207.505 140.443 208.414 140.443C209.008 140.443 209.544 140.585 210.022 140.87C210.5 141.154 210.863 141.551 211.112 142.061C211.364 142.567 211.49 143.143 211.49 143.788C211.49 144.441 211.358 145.025 211.094 145.541C210.831 146.057 210.457 146.448 209.974 146.714C209.49 146.978 208.969 147.11 208.409 147.11C207.803 147.11 207.261 146.963 206.783 146.67C206.306 146.377 205.944 145.978 205.698 145.471C205.452 144.964 205.329 144.428 205.329 143.862ZM206.208 143.875C206.208 144.652 206.416 145.264 206.832 145.712C207.25 146.158 207.775 146.38 208.405 146.38C209.046 146.38 209.574 146.155 209.987 145.704C210.403 145.252 210.611 144.612 210.611 143.783C210.611 143.259 210.521 142.802 210.343 142.412C210.167 142.02 209.908 141.716 209.565 141.502C209.225 141.286 208.843 141.177 208.418 141.177C207.814 141.177 207.294 141.385 206.858 141.801C206.424 142.214 206.208 142.906 206.208 143.875ZM206.941 140.162C206.938 139.857 207.022 139.614 207.192 139.433C207.359 139.251 207.573 139.16 207.833 139.16C208.015 139.16 208.263 139.239 208.576 139.397C208.749 139.485 208.887 139.529 208.989 139.529C209.083 139.529 209.155 139.504 209.205 139.455C209.254 139.402 209.29 139.299 209.31 139.147H209.881C209.873 139.481 209.788 139.731 209.626 139.898C209.468 140.065 209.266 140.149 209.02 140.149C208.835 140.149 208.592 140.067 208.291 139.903C208.094 139.797 207.951 139.745 207.86 139.745C207.76 139.745 207.68 139.78 207.618 139.85C207.554 139.92 207.523 140.024 207.526 140.162H206.941ZM212.61 147V140.558H217.269V141.318H213.463V143.291H217.027V144.047H213.463V146.24H217.418V147H212.61ZM218.306 144.93L219.11 144.86C219.148 145.182 219.236 145.447 219.374 145.655C219.514 145.86 219.731 146.027 220.024 146.156C220.317 146.282 220.646 146.345 221.013 146.345C221.338 146.345 221.625 146.297 221.874 146.2C222.123 146.104 222.308 145.972 222.428 145.805C222.551 145.635 222.612 145.45 222.612 145.251C222.612 145.049 222.554 144.873 222.437 144.724C222.319 144.571 222.126 144.444 221.856 144.341C221.684 144.274 221.301 144.17 220.709 144.029C220.118 143.886 219.703 143.751 219.466 143.625C219.158 143.464 218.928 143.265 218.776 143.027C218.626 142.787 218.552 142.519 218.552 142.223C218.552 141.898 218.644 141.595 218.829 141.313C219.013 141.029 219.283 140.814 219.637 140.667C219.992 140.521 220.386 140.448 220.819 140.448C221.297 140.448 221.717 140.525 222.081 140.681C222.447 140.833 222.728 141.059 222.924 141.357C223.121 141.656 223.226 141.995 223.241 142.373L222.423 142.434C222.379 142.027 222.23 141.719 221.975 141.511C221.723 141.303 221.35 141.199 220.854 141.199C220.339 141.199 219.962 141.294 219.725 141.485C219.491 141.672 219.374 141.899 219.374 142.166C219.374 142.397 219.457 142.588 219.624 142.737C219.788 142.887 220.216 143.041 220.907 143.199C221.602 143.354 222.078 143.49 222.335 143.607C222.71 143.78 222.987 144 223.166 144.267C223.345 144.53 223.434 144.835 223.434 145.181C223.434 145.523 223.336 145.847 223.14 146.152C222.943 146.454 222.661 146.689 222.292 146.859C221.925 147.026 221.512 147.11 221.052 147.11C220.469 147.11 219.98 147.025 219.584 146.855C219.192 146.685 218.883 146.43 218.657 146.09C218.435 145.748 218.317 145.361 218.306 144.93ZM227.068 147V140.558H227.921V146.24H231.094V147H227.068ZM233.084 147V141.318H230.962V140.558H236.068V141.318H233.937V147H233.084ZM236.947 147V140.558H239.167C239.667 140.558 240.05 140.588 240.313 140.65C240.683 140.735 240.998 140.889 241.258 141.111C241.598 141.398 241.852 141.766 242.019 142.214C242.188 142.66 242.273 143.169 242.273 143.744C242.273 144.233 242.216 144.667 242.102 145.044C241.988 145.422 241.841 145.736 241.663 145.985C241.484 146.231 241.288 146.426 241.074 146.569C240.863 146.71 240.606 146.817 240.305 146.89C240.006 146.963 239.662 147 239.272 147H236.947ZM237.8 146.24H239.175C239.6 146.24 239.933 146.2 240.173 146.121C240.416 146.042 240.609 145.931 240.753 145.787C240.955 145.585 241.112 145.314 241.223 144.974C241.337 144.631 241.395 144.217 241.395 143.73C241.395 143.057 241.283 142.54 241.061 142.179C240.841 141.816 240.573 141.573 240.256 141.45C240.028 141.362 239.66 141.318 239.153 141.318H237.8V146.24ZM242.744 147L245.218 140.558H246.136L248.773 147H247.802L247.05 145.049H244.356L243.649 147H242.744ZM244.603 144.354H246.787L246.114 142.57C245.909 142.028 245.757 141.583 245.657 141.234C245.575 141.647 245.459 142.058 245.31 142.465L244.603 144.354Z" fill="white"/>
</svg>
