<svg width="100" height="100" viewBox="0 0 100 100" fill="none" xmlns="http://www.w3.org/2000/svg">
<path fill-rule="evenodd" clip-rule="evenodd" d="M50 0C77.6144 0 100 22.3856 100 50C100 56.3512 98.8144 62.4248 96.654 68.0136H85.2016C84.5712 68.0136 84.0556 68.5292 84.0556 69.1596C84.0556 69.79 84.5712 70.3056 85.2016 70.3056H95.7016C95.5124 70.7308 95.3172 71.1528 95.1164 71.572H78.9516C78.3212 71.572 77.8056 72.0876 77.8056 72.718C77.8056 73.3484 78.3212 73.864 78.9516 73.864H93.944C93.712 74.2896 93.4748 74.712 93.2308 75.1304H72.7016C72.0712 75.1304 71.5556 75.646 71.5556 76.2764C71.5556 76.9068 72.0712 77.4224 72.7016 77.4224H91.8108C91.5304 77.8488 91.244 78.2712 90.9508 78.6888H66.4516C65.8212 78.6888 65.3056 79.2044 65.3056 79.8348C65.3056 80.4652 65.8212 80.9808 66.4516 80.9808H89.2432C88.9048 81.4084 88.56 81.8308 88.2084 82.2472H60.2016C59.5712 82.2472 59.0556 82.7628 59.0556 83.3928V83.3932C59.0556 84.0236 59.5712 84.5392 60.2016 84.5392H86.1524C77.0488 94.066 64.2176 100 50 100C22.3856 100 0 77.6144 0 50C0 42.7044 1.5636 35.7744 4.3724 29.5252H24.106C24.736 29.5252 25.2516 29.0096 25.2516 28.3792V28.3788C25.2516 27.7488 24.736 27.2332 24.106 27.2332H5.4724C5.6904 26.8072 5.9156 26.3852 6.146 25.9668H30.356C30.986 25.9668 31.5016 25.4512 31.5016 24.8208C31.5016 24.1904 30.986 23.6748 30.356 23.6748H7.4848C7.7492 23.248 8.0204 22.826 8.2976 22.4084H36.606C37.236 22.4084 37.7516 21.8928 37.7516 21.2624C37.7516 20.632 37.236 20.1164 36.606 20.1164H9.9124C10.2316 19.6888 10.5584 19.2668 10.8908 18.85H42.856C43.486 18.85 44.0016 18.3344 44.0016 17.704C44.0016 17.0736 43.486 16.558 42.856 16.558H12.834C13.2204 16.1288 13.6144 15.7068 14.0152 15.2916H49.106C49.736 15.2916 50.2516 14.776 50.2516 14.1456C50.2516 13.5152 49.736 12.9996 49.106 12.9996H16.3752C25.2548 4.924 37.0516 0 50 0ZM52.4776 35.456H49.11L49.2352 34.3748C49.2688 34.2364 49.2548 34.1488 49.4112 34.1488H52.6788C52.6788 34.6592 52.5732 35.046 52.4776 35.456ZM37.2468 35.9584C37.2468 37.5756 37.8656 39.5652 38.9684 40.7212C39.5164 41.296 39.6484 41.5012 40.4732 42.0312C41.6708 42.8 43.302 43.2828 44.8392 43.1496C46.1484 43.0368 46.5636 43.0472 47.918 42.5076C49.6128 41.8324 51.0536 40.7156 52.1548 39.3052C52.508 38.8528 52.996 38.118 53.2492 37.5848C53.3072 37.4628 53.334 37.3756 53.3832 37.2664C53.444 37.1328 53.4956 37.076 53.5332 36.9136C54.1028 36.9136 54.6728 36.9136 55.2424 36.9136C56.1844 36.9136 56.2528 37.0304 56.3176 36.6816C56.5888 35.2168 56.5888 35.4552 55.7448 35.456C55.1584 35.4564 54.572 35.456 53.9856 35.456C54.3372 33.9468 54.1364 33.7912 54.1364 32.7416H49.8132C49.9028 32.3568 50.7196 31.2248 50.962 30.9244C51.0852 30.7712 51.1996 30.6896 51.3216 30.5296C51.518 30.272 52.2404 29.6904 52.528 29.474C54.4252 28.0472 57.2792 27.3884 59.6304 28.4036C60.8828 28.9448 61.9804 29.9904 62.5172 31.2472C63.9192 34.5288 62.2124 38.3472 59.5756 40.1408C59.4648 40.2164 59.408 40.2676 59.3116 40.3292C57.7192 41.3432 56.1656 41.8612 54.1364 41.6388C53.0372 41.5184 53.7948 41.338 52.4036 42.57C52.2864 42.674 52.3212 42.5776 52.2764 42.7444C52.9768 42.9076 53.2688 43.0768 54.1392 43.144C56.6764 43.3408 59.0144 42.4736 60.884 40.9464C61.3168 40.5928 61.6468 40.2352 62.0416 39.8424C62.3004 39.5848 62.8344 38.858 63.024 38.5628C63.3444 38.0644 63.5652 37.6188 63.8212 37.0476C65.3076 33.7316 64.4896 29.562 61.1844 27.5032C58.2084 25.65 54.0904 26.3756 51.4152 28.512C50.0984 29.5636 49.2544 30.606 48.5064 32.088C48.3988 32.3008 48.3156 32.532 48.2048 32.7416H45.6412L45.3204 33.9888C45.3008 34.1936 45.3352 34.154 45.6364 34.1528C46.3584 34.1492 47.0804 34.1488 47.8028 34.1488C47.6364 34.4956 47.4784 36.4472 47.7024 36.9136H51.9248C51.7064 37.8508 50.082 39.5632 49.2308 40.1512C47.7344 41.1848 46.3716 41.6888 44.4348 41.6888C43.6272 41.6888 42.7288 41.4608 42.1556 41.2036C40.8148 40.602 39.958 39.7936 39.3068 38.4728C38.3944 36.622 38.6792 34.2852 39.5748 32.5064C39.8288 32.002 40.3756 31.1964 40.7532 30.7688C42.3116 29.0048 45.0528 27.5424 47.8252 27.994C48.7092 28.138 48.1616 28.0296 48.988 27.392C49.1768 27.246 49.2748 27.024 49.512 26.9608L48.4692 26.596C45.9648 26.0948 43.254 26.8688 41.3252 28.3252C41.2152 28.408 41.1168 28.4768 41.0096 28.5624L40.3708 29.1296C39.516 29.8116 38.6276 31.1932 38.1344 32.1712C37.6588 33.1152 37.2468 34.5604 37.2468 35.9584ZM12.7668 52.0944C12.7668 54.7688 14.6528 56.4676 17.19 56.4676C18.4956 56.4676 19.6572 56.334 20.8128 55.8172C21.0984 55.6896 21.0344 55.4652 21.12 54.868L21.5852 51.5632C21.6388 51.1984 21.714 50.81 21.714 50.4356H17.894C17.7144 50.4356 17.73 50.6164 17.6916 50.7864L17.3408 52.2452H19.3012C19.2748 52.5648 19.1944 52.9608 19.1476 53.298C19.1028 53.622 19.0268 54.0312 18.9996 54.3564C18.034 54.4368 16.7156 54.7476 15.882 53.654C15.7092 53.4276 15.5692 53.1824 15.4608 52.8688C15.158 51.9948 15.286 51.0468 15.5624 50.2152C15.7356 49.694 15.9524 49.3372 16.2556 48.948C17.3552 47.5356 19.0776 47.4788 20.6768 47.954C20.8812 48.0148 21.0144 48.0772 21.2116 48.1232L22.1664 46.414C21.7832 46.3116 20.9288 45.66 19.1504 45.66C16.6572 45.66 14.2928 47.128 13.3048 49.4152C12.9936 50.136 12.7668 51.0836 12.7668 52.0944ZM76.5556 56.0152H78.918C78.918 55.7492 78.9912 55.4468 79.0228 55.1648C79.0548 54.876 79.1192 54.6368 79.1192 54.306C79.4888 54.0588 79.8668 53.6908 80.0744 53.552C80.1204 53.7236 81.4324 55.8668 81.532 56.0152H84.0956C83.4792 54.8504 82.5756 53.4576 81.934 52.2452C82.1012 51.9956 84.0456 50.1588 84.41 49.7944C84.556 49.6484 84.6656 49.5388 84.812 49.3924C84.9564 49.248 85.1456 49.1372 85.2016 48.9276L82.6352 48.9248C82.3244 48.922 82.3124 48.9012 81.946 49.2408L80.6148 50.5236C80.4104 50.7276 80.2932 50.8508 80.0668 51.0312C79.8636 51.1932 79.7328 51.3996 79.5212 51.5412L79.8256 49.1816C79.8796 48.8024 79.934 48.4208 79.978 48.0268C80.0192 47.6588 80.1248 47.2076 80.1248 46.8164C77.508 46.8164 77.8036 46.644 77.7264 47.2832L76.7212 54.8236C76.6688 55.2228 76.6372 55.6652 76.5556 56.0152ZM57.7052 52.8988C57.7052 51.9652 58.0144 51.166 58.7616 50.7376C59.486 50.3224 60.6384 50.5084 60.81 51.6552C60.92 52.3904 60.728 53.036 60.3908 53.5232C59.6212 54.6352 57.7052 54.486 57.7052 52.8988ZM55.2424 53.0492C55.2424 54.9448 56.5388 56.166 58.4092 56.166C60.0984 56.166 60.77 55.9364 61.9864 54.9676L62.4748 54.4004C62.63 54.1924 62.7424 53.9872 62.8668 53.7372C63.3288 52.812 63.4892 51.172 62.9676 50.1996C62.1764 48.7248 60.3564 48.3768 58.8232 48.6884C58.512 48.7516 58.2272 48.8276 57.9268 48.9476C56.276 49.608 55.2424 51.2496 55.2424 53.0492ZM73.1376 50.536C73.8184 50.536 74.1428 51.0132 74.1428 51.692H71.78C71.9168 51.1048 72.4156 50.536 73.1376 50.536ZM69.116 52.8988C69.116 53.818 69.5544 54.7372 69.9852 55.2468C70.8768 56.3 71.9116 56.2164 73.238 56.2164C73.7412 56.2164 74.8868 55.88 75.2372 55.702C75.4444 55.5964 75.3944 55.5536 75.4296 55.2912C75.4612 55.0568 75.478 54.944 75.5148 54.7228C75.5508 54.5052 75.6248 53.7616 75.7012 53.6024C75.4684 53.6564 73.4668 54.8244 72.1708 54.016C71.8864 53.8388 71.6292 53.4944 71.6292 53.0492H76.2036C76.7216 50.826 75.9876 48.5756 73.5396 48.5756C71.786 48.5756 70.2152 49.4984 69.5316 51.1024C69.3316 51.5716 69.116 52.2564 69.116 52.8988ZM49.6628 49.5808C49.6124 49.3644 49.4808 49.2072 49.4616 48.9776H47.9032L47.0964 54.7052C47.0448 55.0768 46.9656 55.4668 46.9324 55.8612C46.9064 56.1724 46.9788 56.0652 47.9536 56.0652C48.3892 56.0652 48.8248 56.0652 49.2604 56.0652C49.282 55.8064 49.3468 55.48 49.3896 55.1892L49.7604 52.544C49.8028 52.2368 49.8388 51.9876 49.8856 51.6636C49.95 51.214 49.87 51.1764 50.2308 51.0036C50.68 50.7884 51.2168 50.536 51.824 50.536C52.7784 50.536 52.3584 52.1508 52.2916 52.612C52.234 53.0112 52.1876 53.3916 52.1348 53.762L51.824 56.0652C54.4256 56.0652 54.1508 56.2468 54.2404 55.566L54.51 53.624C54.6904 52.4 55.2576 49.996 54.3008 49.1148C53.7892 48.6432 53.1524 48.626 52.4776 48.626C51.4336 48.626 50.3644 49.2096 49.6628 49.5808ZM42.4744 54.4064C41.5888 54.4064 41.7308 53.5324 42.1408 53.2184C42.5504 52.9048 43.1784 52.9992 43.8316 52.9992C43.8316 53.5092 43.8088 53.8416 43.5092 54.034C43.2436 54.2048 42.8816 54.4064 42.4744 54.4064ZM41.7204 49.028C41.6044 49.526 41.4816 50.0004 41.3688 50.4856C41.8704 50.4856 43.3928 50.408 43.7124 50.6048C44.0924 50.8388 44.0328 51.2288 44.0328 51.5916H42.8768C41.1484 51.5916 39.8104 52.4408 39.8104 54.1552C39.8104 54.8352 39.9548 55.3608 40.5048 55.7728C41.1896 56.286 42.3496 56.3868 43.2628 55.8984C43.714 55.6568 43.8716 55.3676 44.0828 55.3112C44.1116 55.434 44.4116 56.0652 44.5856 56.0652C45.9744 56.0652 45.7616 56.3128 45.94 55.0068C45.9952 54.6032 46.0528 54.2516 46.1156 53.8252C46.3296 52.3696 46.9152 50.4316 45.7 49.472C44.5648 48.5752 43.076 48.9152 41.7204 49.028ZM24.8308 54.4064C23.8972 54.4064 24.0696 53.6076 24.4384 53.2604C24.8088 52.9112 25.4928 52.9992 26.188 52.9992C26.1756 53.1456 26.1376 53.3932 26.1116 53.576C26.0668 53.8884 26.0848 53.88 25.8588 54.0272C25.602 54.1948 25.2224 54.4064 24.8308 54.4064ZM23.7248 50.4856H25.4844C26.2988 50.4856 26.3888 50.9772 26.3888 51.5916C25.2196 51.5916 23.918 51.5108 23.0124 52.2364C21.7928 53.2132 21.4176 56.2164 24.4788 56.2164C24.9036 56.2164 25.3144 56.0704 25.5832 55.9132C25.9868 55.6768 26.1148 55.4952 26.3888 55.3112L26.7912 56.0652C28.2192 56.0652 28.1116 56.2008 28.166 55.7308L28.7164 52.0088C28.8592 51.0196 28.8704 50.3152 28.0868 49.542C27.3068 48.7724 26.2768 48.8792 25.2828 48.9272C24.9432 48.9436 24.6196 48.9416 24.2936 48.9936C23.9768 49.044 24.0708 48.9992 23.9156 49.6208C23.8632 49.8316 23.73 50.2456 23.7248 50.4856ZM65.0948 48.9776H64.0392L63.8592 50.3572C63.7604 50.9888 63.6456 50.8376 64.8432 50.8376C64.6764 51.5548 64.4412 53.4088 64.4412 54.2056C64.4412 55.3984 65.6864 56.2164 66.9044 56.2164C67.3908 56.2164 67.9348 56.2204 68.362 56.0152C68.362 55.324 68.4624 54.7788 68.4624 54.1048C67.9784 54.3372 67.1616 54.4812 66.902 53.8556C66.67 53.296 67.1556 51.5604 67.1556 50.8376C69.1832 50.8376 68.738 51.0776 68.8996 49.9676C68.9492 49.6272 69.0156 49.3296 69.0156 48.9776H67.4572C67.4572 48.714 67.6996 46.9396 67.7588 46.8164H65.3964C65.3508 47.364 65.1032 48.5912 65.0948 48.9776ZM34.9848 56.0652H37.096L38.9884 52.5292C39.0792 52.3504 39.134 52.2908 39.2248 52.1116C39.3112 51.9412 39.3728 51.7952 39.4608 51.644C39.5452 51.4984 39.606 51.4004 39.6928 51.2228L40.1616 50.3344C40.3064 50.056 40.8096 49.2188 40.866 48.9776H38.5032L36.4928 52.9992C36.4928 52.702 36.3728 52.2764 36.3128 51.9728L35.6884 48.9776H33.2252C33.3056 49.1448 33.3976 49.6168 33.4564 49.8524C33.536 50.1708 33.6028 50.4372 33.6776 50.7368L34.9848 56.0652ZM29.3044 56.0652H31.6168L32.974 45.9616H30.6116C30.6116 46.3824 30.03 50.5028 29.9608 50.9912C29.8416 51.8328 29.74 52.704 29.6216 53.5172C29.5584 53.9512 29.5112 54.3376 29.4524 54.7556C29.396 55.1572 29.3044 55.6284 29.3044 56.0652ZM36.5932 59.8352L36.5352 59.5356L35.99 59.534C35.9504 60.008 35.8492 60.5432 35.7804 61.0332C35.7188 61.4696 35.588 62.0792 35.588 62.55H36.392C36.4136 62.2908 36.4784 61.9644 36.5212 61.6736C36.5688 61.3492 36.604 61.0988 36.644 60.7908C36.6828 60.4896 36.7164 60.4288 37.098 60.2392C38.2692 59.6572 37.498 61.6424 37.498 62.55H38.3024C38.3224 62.3116 38.3788 62.0308 38.418 61.7608C38.4512 61.5316 38.4928 61.246 38.5316 60.9696C38.5856 60.586 38.534 60.5192 38.818 60.3512C39.9368 59.69 39.6196 60.7532 39.55 61.3344C39.5268 61.5252 39.4152 62.4308 39.358 62.55H40.2124C40.2192 62.2392 40.324 61.7428 40.372 61.4024C40.4844 60.6064 40.8428 59.4784 39.704 59.4524C39.1652 59.44 38.886 59.7464 38.5032 59.8352C38.278 58.992 36.6416 59.824 36.5932 59.8352ZM52.8796 61.2932C52.8796 60.7428 53.1816 60.1872 53.7344 60.1872C54.006 60.1872 54.1124 60.296 54.2872 60.3884C54.2872 60.672 54.224 60.9392 54.1896 61.1956C54.138 61.5788 54.212 61.6788 53.9068 61.8176C53.276 62.104 52.8796 61.7396 52.8796 61.2932ZM52.0252 61.3432C52.0252 62.1652 52.5636 62.6504 53.282 62.6504C53.5884 62.6504 53.7416 62.5564 53.9856 62.4996C53.9856 63.0848 53.636 63.304 53.0808 63.304C52.626 63.304 52.4888 63.1256 52.176 63.0524C52.0724 63.2484 51.9296 63.4188 51.8744 63.6556C52.6324 64.0568 53.7744 64.1252 54.4024 63.5192C54.9296 63.0104 54.9228 61.916 55.0628 60.9632C55.1288 60.5148 55.2424 59.9812 55.2424 59.534C54.642 59.534 54.9328 59.5548 54.5888 59.7852C53.2916 58.9168 52.0252 60.032 52.0252 61.3432ZM41.8208 61.7956C41.8576 61.3552 42.022 60.7808 42.022 60.338C42.3316 60.266 43.128 59.7964 43.128 60.9916C43.128 61.4872 42.7536 61.948 42.2868 61.9228C42.0572 61.9104 41.994 61.836 41.8208 61.7956ZM41.4692 58.2772C41.4692 58.6456 41.3932 58.9944 41.34 59.3544L41.0456 61.4728C40.9944 61.8388 40.9164 62.174 40.9164 62.55C41.5 62.55 41.266 62.5688 41.5192 62.3988C41.6852 62.4868 41.982 62.6504 42.2232 62.6504C43.7496 62.6504 44.3352 60.9804 43.8492 60.0688C43.5664 59.538 43.0928 59.4836 42.5748 59.4836C42.3588 59.4836 42.3024 59.542 42.1228 59.584L42.3236 58.1768C42.1304 58.2216 41.6804 58.2596 41.4692 58.2772ZM57.2028 60.1872C57.5368 60.1872 57.6416 60.466 57.7052 60.7404H56.4988C56.5716 60.4292 56.8168 60.1872 57.2028 60.1872ZM55.544 61.1928V61.5444C55.544 62.4772 56.7528 62.8404 57.7008 62.5452C57.9236 62.476 58.0956 62.342 58.2584 62.2988C58.2468 62.1596 58.1548 61.794 58.1076 61.6952C58.0308 61.7016 56.4232 62.4124 56.3984 61.2932H58.4092C58.4348 60.9844 58.4592 61.1472 58.4592 60.6396C58.4592 58.8232 55.544 59.2304 55.544 61.1928ZM34.08 60.1872C34.242 60.1872 34.3428 60.2536 34.422 60.348C34.5572 60.5092 34.5 60.5684 34.5824 60.7404H33.376C33.4544 60.4044 33.6676 60.1872 34.08 60.1872ZM32.4208 61.1424V61.5444C32.4208 62.4772 33.63 62.8404 34.578 62.5452C34.8008 62.476 34.9728 62.342 35.1356 62.2988C35.1164 62.0692 35.0316 61.8976 34.9848 61.6952C34.742 61.7156 34.7332 61.8016 34.5016 61.8656C33.9972 62.0048 33.2908 61.9744 33.2756 61.2932H35.2864L35.3364 60.6396C35.3364 59.1776 33.5552 59.27 32.91 59.9724C32.6916 60.2104 32.4208 60.7032 32.4208 61.1424ZM44.988 61.6952C44.988 61.428 45.3 61.2428 45.5908 61.2428H46.0432V61.444C46.0432 61.9824 44.988 62.176 44.988 61.6952ZM44.7364 59.7852C44.7364 60.0536 44.7872 60.2248 44.8368 60.4388C45.2024 60.3536 46.1264 59.9028 46.144 60.69C45.3308 60.69 44.284 60.626 44.284 61.8964C44.284 62.3892 44.7024 62.6504 45.1888 62.6504C45.6372 62.6504 45.8324 62.4232 46.0936 62.248L46.1516 62.5484C46.7372 62.558 46.6932 62.6108 46.7464 62.398L46.9984 60.3884C46.9984 59.1112 44.7364 59.482 44.7364 59.7852ZM50.7184 61.6952C50.3936 61.8668 49.7128 62.3036 49.7128 61.5948C49.7128 61.1544 50.5892 61.2428 50.7688 61.2428C50.724 61.4348 50.7184 61.4428 50.7184 61.6952ZM49.4112 59.7348C49.4112 60.0284 49.506 60.168 49.512 60.4388C49.7584 60.3812 50.4824 60.074 50.7444 60.3624C50.8276 60.4544 50.8188 60.5344 50.8188 60.69C50.1144 60.69 48.9588 60.6392 48.9588 61.846C48.9588 62.532 49.7272 62.8476 50.3852 62.5184C50.568 62.4268 50.6148 62.3396 50.7688 62.2988C50.8328 62.432 50.8144 62.3524 50.8188 62.55H51.422C51.422 62.226 51.5024 61.8524 51.5512 61.5228C51.6472 60.8704 51.8616 60.152 51.3588 59.7476C50.8224 59.316 49.9432 59.4796 49.4112 59.7348ZM59.716 59.8352C59.7128 59.6824 59.6932 59.6524 59.6656 59.534H59.1128C59.108 59.7504 59.0412 60.0564 59.0096 60.2848L58.7108 62.55H59.5152C59.5932 62.214 59.746 60.6404 59.8632 60.4852C59.9036 60.432 60.096 60.3212 60.1664 60.2856C60.4396 60.1468 60.6284 60.0964 60.9224 60.2376C61.086 60.9396 60.7912 61.7092 60.7212 62.55H61.576C61.576 61.7476 62.1436 60.0796 61.5864 59.624C60.984 59.132 59.8852 59.8212 59.716 59.8352ZM63.6368 61.6952C63.6368 62.2128 62.4336 61.7956 62.4304 61.7956C62.27 61.7956 62.1548 62.1104 62.0284 62.3488C63.9536 63.3676 65.506 61.4308 63.558 60.6684C63.468 60.6332 63.4312 60.618 63.3452 60.5796C63.2172 60.5224 63.288 60.53 63.1344 60.4888C63.148 60.322 63.1452 60.2948 63.2668 60.2188C63.3476 60.168 63.5084 60.1368 63.6236 60.1468C63.8772 60.17 64.0552 60.2832 64.2904 60.338C64.38 60.204 64.5528 59.9532 64.592 59.7852C64.0388 59.4148 63.1416 59.3344 62.6424 59.7956C62.458 59.966 62.234 60.2756 62.3072 60.6108C62.4644 61.3308 63.6368 61.2944 63.6368 61.6952ZM48.004 58.2772C47.9772 58.5968 47.8968 58.9928 47.8504 59.33L47.4008 62.55C48.4128 62.55 48.2188 62.624 48.2844 62.1264L48.5216 60.4536C48.582 60.0356 48.808 58.5352 48.808 58.1768C48.7308 58.2136 48.1308 58.2664 48.004 58.2772Z" fill="white"/>
</svg>
