<svg width="100" height="100" viewBox="0 0 100 100" fill="none" xmlns="http://www.w3.org/2000/svg">
<path fill-rule="evenodd" clip-rule="evenodd" d="M49.9999 2.28882e-05C77.6143 2.28882e-05 99.9999 22.3856 99.9999 50C99.9999 56.3512 98.8143 62.4248 96.6539 68.0136H85.2015C84.5711 68.0136 84.0555 68.5292 84.0555 69.1596C84.0555 69.79 84.5711 70.3056 85.2015 70.3056H95.7015C95.5123 70.7308 95.3171 71.1528 95.1163 71.572H78.9515C78.3211 71.572 77.8055 72.0876 77.8055 72.718C77.8055 73.3484 78.3211 73.864 78.9515 73.864H93.9439C93.7119 74.2896 93.4747 74.712 93.2307 75.1304H72.7015C72.0711 75.1304 71.5555 75.646 71.5555 76.2764C71.5555 76.9068 72.0711 77.4224 72.7015 77.4224H91.8107C91.5303 77.8488 91.2439 78.2712 90.9507 78.6888H66.4515C65.8211 78.6888 65.3055 79.2044 65.3055 79.8348C65.3055 80.4652 65.8211 80.9808 66.4515 80.9808H89.2431C88.9047 81.4084 88.5599 81.8308 88.2083 82.2472H60.2015C59.5711 82.2472 59.0555 82.7628 59.0555 83.3928C59.0555 84.0232 59.5711 84.5392 60.2015 84.5392H86.1523C77.0487 94.066 64.2175 100 49.9999 100C22.3855 100 -7.05719e-05 77.6144 -7.05719e-05 50C-7.05719e-05 42.7044 1.56353 35.7744 4.37233 29.5252H24.1059C24.7359 29.5252 25.2515 29.0096 25.2515 28.3792C25.2515 27.7492 24.7359 27.2332 24.1059 27.2332H5.47233C5.69033 26.8072 5.91553 26.3852 6.14593 25.9668H30.3559C30.9859 25.9668 31.5015 25.4512 31.5015 24.8208C31.5015 24.1904 30.9859 23.6748 30.3559 23.6748H7.48473C7.74913 23.248 8.02033 22.826 8.29753 22.4084H36.6059C37.2359 22.4084 37.7515 21.8928 37.7515 21.2624C37.7515 20.632 37.2359 20.1164 36.6059 20.1164H9.91233C10.2315 19.6888 10.5583 19.2668 10.8907 18.85H42.8559C43.4859 18.85 44.0015 18.3344 44.0015 17.704C44.0015 17.0736 43.4859 16.558 42.8559 16.558H12.8339C13.2203 16.1288 13.6143 15.7068 14.0151 15.2916H49.1059C49.7359 15.2916 50.2515 14.776 50.2515 14.1456C50.2515 13.5152 49.7359 12.9996 49.1059 12.9996H16.3751C25.2547 4.92402 37.0515 2.28882e-05 49.9999 2.28882e-05Z" fill="white"/>
<path d="M35.4375 33.4062C35.4375 33.0333 35.5857 32.6756 35.8494 32.4119C36.1131 32.1482 36.4708 32 36.8438 32H45.2812C45.6542 32 46.0119 32.1482 46.2756 32.4119C46.5393 32.6756 46.6875 33.0333 46.6875 33.4062V41.8438C46.6875 42.2167 46.5393 42.5744 46.2756 42.8381C46.0119 43.1018 45.6542 43.25 45.2812 43.25H36.8438C36.4708 43.25 36.1131 43.1018 35.8494 42.8381C35.5857 42.5744 35.4375 42.2167 35.4375 41.8438V33.4062ZM53.7188 32C53.3458 32 52.9881 32.1482 52.7244 32.4119C52.4607 32.6756 52.3125 33.0333 52.3125 33.4062V41.8438C52.3125 42.2167 52.4607 42.5744 52.7244 42.8381C52.9881 43.1018 53.3458 43.25 53.7188 43.25H62.1562C62.5292 43.25 62.8869 43.1018 63.1506 42.8381C63.4143 42.5744 63.5625 42.2167 63.5625 41.8438V33.4062C63.5625 33.0333 63.4143 32.6756 63.1506 32.4119C62.8869 32.1482 62.5292 32 62.1562 32H53.7188ZM55.125 40.4375V34.8125H60.75V40.4375H55.125ZM38.25 60.125C38.9959 60.125 39.7113 59.8287 40.2387 59.3012C40.7662 58.7738 41.0625 58.0584 41.0625 57.3125C41.0625 56.5666 40.7662 55.8512 40.2387 55.3238C39.7113 54.7963 38.9959 54.5 38.25 54.5C37.5041 54.5 36.7887 54.7963 36.2613 55.3238C35.7338 55.8512 35.4375 56.5666 35.4375 57.3125C35.4375 58.0584 35.7338 58.7738 36.2613 59.3012C36.7887 59.8287 37.5041 60.125 38.25 60.125ZM52.3125 57.3125C52.3125 58.0584 52.0162 58.7738 51.4887 59.3012C50.9613 59.8287 50.2459 60.125 49.5 60.125C48.7541 60.125 48.0387 59.8287 47.5113 59.3012C46.9838 58.7738 46.6875 58.0584 46.6875 57.3125C46.6875 56.5666 46.9838 55.8512 47.5113 55.3238C48.0387 54.7963 48.7541 54.5 49.5 54.5C50.2459 54.5 50.9613 54.7963 51.4887 55.3238C52.0162 55.8512 52.3125 56.5666 52.3125 57.3125V57.3125ZM60.75 60.125C61.4959 60.125 62.2113 59.8287 62.7387 59.3012C63.2662 58.7738 63.5625 58.0584 63.5625 57.3125C63.5625 56.5666 63.2662 55.8512 62.7387 55.3238C62.2113 54.7963 61.4959 54.5 60.75 54.5C60.0041 54.5 59.2887 54.7963 58.7613 55.3238C58.2338 55.8512 57.9375 56.5666 57.9375 57.3125C57.9375 58.0584 58.2338 58.7738 58.7613 59.3012C59.2887 59.8287 60.0041 60.125 60.75 60.125V60.125ZM27 57.3125C27 54.3288 28.1853 51.4673 30.295 49.3575C32.4048 47.2478 35.2663 46.0625 38.25 46.0625H60.75C63.7337 46.0625 66.5952 47.2478 68.7049 49.3575C70.8147 51.4673 72 54.3288 72 57.3125C72 60.2962 70.8147 63.1577 68.7049 65.2675C66.5952 67.3772 63.7337 68.5625 60.75 68.5625H38.25C35.2663 68.5625 32.4048 67.3772 30.295 65.2675C28.1853 63.1577 27 60.2962 27 57.3125ZM38.25 48.875C36.0122 48.875 33.8661 49.7639 32.2838 51.3463C30.7014 52.9286 29.8125 55.0747 29.8125 57.3125C29.8125 59.5503 30.7014 61.6964 32.2838 63.2787C33.8661 64.8611 36.0122 65.75 38.25 65.75H60.75C62.9878 65.75 65.1339 64.8611 66.7162 63.2787C68.2986 61.6964 69.1875 59.5503 69.1875 57.3125C69.1875 55.0747 68.2986 52.9286 66.7162 51.3463C65.1339 49.7639 62.9878 48.875 60.75 48.875H38.25Z" fill="#0C7149"/>
</svg>
