<svg width="100" height="100" viewBox="0 0 100 100" fill="none" xmlns="http://www.w3.org/2000/svg">
<path fill-rule="evenodd" clip-rule="evenodd" d="M49.9999 2.28882e-05C77.6143 2.28882e-05 99.9999 22.3856 99.9999 50C99.9999 56.3512 98.8143 62.4248 96.6539 68.0136H85.2015C84.5711 68.0136 84.0555 68.5292 84.0555 69.1596C84.0555 69.79 84.5711 70.3056 85.2015 70.3056H95.7015C95.5123 70.7308 95.3171 71.1528 95.1163 71.572H78.9515C78.3211 71.572 77.8055 72.0876 77.8055 72.718C77.8055 73.3484 78.3211 73.864 78.9515 73.864H93.9439C93.7119 74.2896 93.4747 74.712 93.2307 75.1304H72.7015C72.0711 75.1304 71.5555 75.646 71.5555 76.2764C71.5555 76.9068 72.0711 77.4224 72.7015 77.4224H91.8107C91.5303 77.8488 91.2439 78.2712 90.9507 78.6888H66.4515C65.8211 78.6888 65.3055 79.2044 65.3055 79.8348C65.3055 80.4652 65.8211 80.9808 66.4515 80.9808H89.2431C88.9047 81.4084 88.5599 81.8308 88.2083 82.2472H60.2015C59.5711 82.2472 59.0555 82.7628 59.0555 83.3928C59.0555 84.0232 59.5711 84.5392 60.2015 84.5392H86.1523C77.0487 94.066 64.2175 100 49.9999 100C22.3855 100 -7.05719e-05 77.6144 -7.05719e-05 50C-7.05719e-05 42.7044 1.56353 35.7744 4.37233 29.5252H24.1059C24.7359 29.5252 25.2515 29.0096 25.2515 28.3792C25.2515 27.7492 24.7359 27.2332 24.1059 27.2332H5.47233C5.69033 26.8072 5.91553 26.3852 6.14593 25.9668H30.3559C30.9859 25.9668 31.5015 25.4512 31.5015 24.8208C31.5015 24.1904 30.9859 23.6748 30.3559 23.6748H7.48473C7.74913 23.248 8.02033 22.826 8.29753 22.4084H36.6059C37.2359 22.4084 37.7515 21.8928 37.7515 21.2624C37.7515 20.632 37.2359 20.1164 36.6059 20.1164H9.91233C10.2315 19.6888 10.5583 19.2668 10.8907 18.85H42.8559C43.4859 18.85 44.0015 18.3344 44.0015 17.704C44.0015 17.0736 43.4859 16.558 42.8559 16.558H12.8339C13.2203 16.1288 13.6143 15.7068 14.0151 15.2916H49.1059C49.7359 15.2916 50.2515 14.776 50.2515 14.1456C50.2515 13.5152 49.7359 12.9996 49.1059 12.9996H16.3751C25.2547 4.92402 37.0515 2.28882e-05 49.9999 2.28882e-05Z" fill="white"/>
<path d="M49.35 48.5839C53.4 48.5839 56.55 45.2839 56.55 41.2339C56.55 37.1839 53.25 34.0339 49.2 34.0339C45.15 34.0339 42 37.3339 42 41.2339C42 45.2839 45.3 48.5839 49.35 48.5839ZM49.2 37.0339C49.35 37.0339 49.35 37.0339 49.2 37.0339C51.6 37.0339 53.55 38.9839 53.55 41.3839C53.55 43.7839 51.6 45.5839 49.2 45.5839C46.8 45.5839 45 43.6339 45 41.3839C45 38.9839 46.95 37.0339 49.2 37.0339V37.0339Z" fill="#0C7149"/>
<path d="M71.55 47.684C68.7 45.134 64.95 43.784 61.05 43.934H59.85C59.55 45.134 59.1 46.184 58.5 47.084C59.4 46.934 60.15 46.934 61.05 46.934C63.9 46.784 66.75 47.684 69 49.334V60.134H72V48.134L71.55 47.684Z" fill="#0C7149"/>
<path d="M57.6 34.3341C58.35 32.5341 60.45 31.6341 62.4 32.3841C64.2 33.1341 65.1 35.2341 64.35 37.1841C63.75 38.5341 62.4 39.4341 61.05 39.4341C60.75 39.4341 60.3 39.4341 60 39.2841C60.15 40.0341 60.15 40.7841 60.15 41.3841V42.2841C60.45 42.2841 60.75 42.4341 61.05 42.4341C64.8 42.4341 67.8 39.4341 67.8 35.8341C67.8 32.0841 64.8 29.0841 61.2 29.0841C58.8 29.0841 56.7 30.2841 55.5 32.3841C56.25 32.8341 57 33.4341 57.6 34.3341V34.3341Z" fill="#0C7149"/>
<path d="M40.5 47.2341C39.9 46.3341 39.45 45.2841 39.15 44.0841H37.95C34.05 43.9341 30.3 45.2841 27.45 47.6841L27 48.1341V60.1341H30V49.3341C32.4 47.6841 35.1 46.7841 37.95 46.9341C38.85 46.9341 39.75 47.0841 40.5 47.2341Z" fill="#0C7149"/>
<path d="M37.9501 42.284C38.2501 42.284 38.5501 42.284 38.8501 42.134V41.234C38.8501 40.484 38.8501 39.734 39.0001 39.134C38.7001 39.284 38.2501 39.284 37.9501 39.284C36.0001 39.284 34.3501 37.634 34.3501 35.684C34.3501 33.734 36.0001 32.084 37.9501 32.084C39.4501 32.084 40.8001 32.984 41.4001 34.334C42.0001 33.584 42.9001 32.834 43.6501 32.234C41.7001 29.084 37.6501 28.034 34.5001 29.984C31.3501 31.934 30.3001 35.984 32.2501 39.134C33.4501 41.084 35.5501 42.284 37.9501 42.284V42.284Z" fill="#0C7149"/>
<path d="M61.65 56.684L61.35 56.234C58.35 52.934 54.15 50.984 49.65 51.134C45.15 50.984 40.8 52.934 37.8 56.234L37.5 56.684V68.084C37.5 69.434 38.55 70.6341 40.05 70.6341H59.25C60.6 70.6341 61.8 69.434 61.8 68.084V56.684H61.65ZM58.65 67.6341H40.5V57.734C42.9 55.334 46.2 54.134 49.65 54.134C52.95 53.984 56.25 55.334 58.65 57.734V67.6341Z" fill="#0C7149"/>
</svg>
