<svg width="500" height="465" viewBox="0 0 500 465" fill="none" xmlns="http://www.w3.org/2000/svg">
<path d="M73.2206 429.459C170.855 475.988 329.145 476.002 426.779 429.459C524.414 382.916 524.4 307.483 426.779 260.954C329.159 214.425 170.855 214.425 73.2206 260.954C-24.414 307.483 -24.3998 382.93 73.2206 429.459Z" fill="#F5F5F5"/>
<path d="M426.439 395.072C444.421 395.072 458.998 388.126 458.998 379.558C458.998 370.989 444.421 364.043 426.439 364.043C408.458 364.043 393.88 370.989 393.88 379.558C393.88 388.126 408.458 395.072 426.439 395.072Z" fill="#EBEBEB"/>
<path d="M65.8103 381.782L77.3292 375.137C83.7606 369.889 88.6556 363.002 91.4977 355.202C95.0539 345.398 94.558 337.945 92.0077 334.205C88.8765 329.6 80.758 330.408 80.4321 340.099C79.752 359.198 74.1838 372.445 65.8103 381.782Z" fill="#B6D4C8"/>
<path opacity="0.2" d="M65.8103 381.782L77.3292 375.137C83.7606 369.889 88.6556 363.002 91.4977 355.202C95.0539 345.398 94.558 337.945 92.0077 334.205C88.8765 329.6 80.758 330.408 80.4321 340.099C79.752 359.198 74.1838 372.445 65.8103 381.782Z" fill="black"/>
<path d="M65.8101 382.491C65.6601 382.489 65.5145 382.439 65.3944 382.35C65.2743 382.26 65.1858 382.134 65.1417 381.991C65.0976 381.847 65.1001 381.694 65.1489 381.552C65.1978 381.41 65.2904 381.287 65.4134 381.201C92.05 362.782 86.8927 337.095 86.836 336.84C86.8165 336.747 86.8155 336.651 86.833 336.558C86.8506 336.464 86.8864 336.375 86.9383 336.295C86.9903 336.216 87.0574 336.147 87.1359 336.094C87.2144 336.04 87.3026 336.002 87.3957 335.983C87.4887 335.963 87.5847 335.962 87.6781 335.98C87.7715 335.997 87.8606 336.033 87.9402 336.085C88.0198 336.137 88.0884 336.204 88.142 336.283C88.1957 336.361 88.2333 336.449 88.2529 336.542C88.2529 336.812 93.6935 363.377 66.2635 382.363C66.1304 382.454 65.9711 382.499 65.8101 382.491Z" fill="white"/>
<path d="M42.73 395.115C42.73 395.115 38.7203 391.856 39.6838 387.435C40.6472 383.015 43.24 379.841 38.8053 374.145C34.3706 368.45 33.138 360.855 38.4369 356.747C42.4749 353.559 48.7799 358.064 51.0468 349.662C52.7187 343.513 52.152 329.897 59.9871 325.364C67.8222 320.83 72.7387 327.659 71.506 336.897C70.4292 345.157 68.899 353.105 70.0892 355.316C72.3845 359.566 76.3091 358.985 76.1249 366.75C75.9691 373.975 69.1257 379.954 69.1257 379.954L42.73 395.115Z" fill="#B6D4C8"/>
<path d="M55.8925 388.186C55.7193 388.185 55.5525 388.121 55.4225 388.006C55.2925 387.892 55.2079 387.735 55.1841 387.563C53.158 370.773 58.0178 341.785 61.985 333.17C62.0184 333.075 62.0718 332.988 62.1418 332.914C62.2118 332.841 62.2966 332.784 62.3906 332.746C62.4846 332.709 62.5855 332.692 62.6866 332.697C62.7877 332.701 62.8867 332.728 62.9767 332.774C63.0613 332.812 63.1374 332.866 63.2005 332.934C63.2636 333.002 63.3124 333.082 63.3441 333.169C63.3758 333.257 63.3898 333.349 63.3851 333.442C63.3804 333.535 63.3571 333.625 63.3168 333.709C59.3921 342.21 54.7024 371.283 56.6435 387.336C56.6634 387.522 56.609 387.708 56.4922 387.854C56.3755 388 56.2057 388.094 56.02 388.116L55.8925 388.186Z" fill="white"/>
<path d="M55.5101 375.109C55.4017 375.114 55.2939 375.09 55.1984 375.038C50.2819 372.644 47.1649 364.1 47.0374 363.703C47.0026 363.615 46.9859 363.521 46.9882 363.426C46.9906 363.332 47.0118 363.238 47.0508 363.152C47.0898 363.066 47.1457 362.988 47.2152 362.924C47.2847 362.859 47.3664 362.81 47.4555 362.777C47.5446 362.745 47.6392 362.731 47.7338 362.736C47.8284 362.741 47.921 362.765 48.0062 362.806C48.0914 362.848 48.1674 362.906 48.2297 362.977C48.2921 363.049 48.3395 363.132 48.3692 363.222C48.3692 363.307 51.4154 371.581 55.8218 373.72C55.9663 373.79 56.0828 373.907 56.1521 374.052C56.2214 374.197 56.2394 374.361 56.2031 374.518C56.1669 374.674 56.0786 374.814 55.9527 374.913C55.8267 375.013 55.6707 375.067 55.5101 375.066V375.109Z" fill="white"/>
<path d="M55.4249 380.776C55.2829 380.776 55.1443 380.733 55.0278 380.652C54.9112 380.571 54.8224 380.456 54.7731 380.323C54.7026 380.15 54.7033 379.956 54.7749 379.784C54.8465 379.611 54.9834 379.474 55.1557 379.402C63.43 376.087 68.5873 366.239 68.644 366.126C68.7304 365.959 68.8797 365.833 69.0591 365.776C69.2384 365.719 69.4332 365.735 69.6004 365.822C69.7676 365.908 69.8936 366.057 69.9507 366.237C70.0079 366.416 69.9914 366.611 69.905 366.778C69.6783 367.203 64.4501 377.206 55.7366 380.72C55.6395 380.766 55.5319 380.785 55.4249 380.776Z" fill="white"/>
<path d="M344.645 304.55C344.645 304.55 338.453 294.519 337.844 283.623C337.235 272.728 339.629 268.194 342.916 266.891C346.203 265.587 346.458 269.597 348.144 271.963C349.831 274.329 353.273 272.983 354.549 265.601C355.824 258.219 360.471 245.765 370.134 243.343C380.76 240.707 375.064 253.176 372.387 258.035C369.709 262.895 367.64 269.526 369.397 271.325C371.154 273.125 373.888 269.795 376.481 272.884C379.641 276.61 369.822 290.028 364.183 293.272L344.645 304.55Z" fill="#B6D4C8"/>
<path d="M353.132 300.342C353.039 300.338 352.947 300.317 352.863 300.278C352.778 300.239 352.702 300.183 352.639 300.115C352.576 300.046 352.527 299.966 352.495 299.879C352.463 299.791 352.448 299.698 352.452 299.605C353.411 282.079 358.877 265.096 368.32 250.299C368.374 250.222 368.442 250.157 368.522 250.107C368.601 250.057 368.69 250.024 368.783 250.009C368.876 249.995 368.97 249.999 369.061 250.022C369.152 250.045 369.238 250.086 369.312 250.143C369.461 250.254 369.56 250.418 369.589 250.601C369.618 250.783 369.575 250.97 369.468 251.121C360.193 265.701 354.826 282.422 353.883 299.676C353.877 299.769 353.854 299.86 353.813 299.944C353.772 300.028 353.715 300.103 353.646 300.165C353.576 300.227 353.495 300.274 353.406 300.305C353.318 300.335 353.225 300.348 353.132 300.342Z" fill="white"/>
<path d="M353.939 291.969C353.821 291.968 353.704 291.938 353.599 291.884C349.632 289.688 347.436 283.17 347.351 282.901C347.32 282.812 347.306 282.719 347.312 282.625C347.317 282.532 347.341 282.44 347.381 282.356C347.422 282.271 347.479 282.196 347.55 282.134C347.62 282.072 347.702 282.024 347.79 281.994C347.969 281.936 348.163 281.951 348.33 282.036C348.498 282.121 348.625 282.269 348.683 282.447C348.683 282.447 350.808 288.724 354.35 290.637C354.511 290.732 354.628 290.885 354.679 291.064C354.729 291.244 354.708 291.436 354.62 291.6C354.555 291.722 354.457 291.822 354.336 291.888C354.214 291.954 354.077 291.982 353.939 291.969Z" fill="white"/>
<path d="M354.634 287.676C354.477 287.674 354.325 287.62 354.202 287.523C354.078 287.425 353.991 287.29 353.954 287.137C353.93 287.048 353.925 286.955 353.938 286.863C353.951 286.772 353.983 286.684 354.03 286.605C354.078 286.526 354.14 286.457 354.215 286.402C354.289 286.348 354.374 286.309 354.464 286.287C364.693 283.694 368.235 278.339 368.264 278.282C368.314 278.203 368.379 278.134 368.456 278.081C368.533 278.027 368.619 277.989 368.711 277.968C368.802 277.948 368.897 277.946 368.989 277.962C369.081 277.978 369.169 278.012 369.248 278.062C369.327 278.113 369.396 278.178 369.45 278.255C369.504 278.331 369.542 278.418 369.562 278.509C369.583 278.601 369.585 278.695 369.569 278.787C369.552 278.88 369.518 278.968 369.468 279.047C369.312 279.288 365.628 284.913 354.818 287.661L354.634 287.676Z" fill="white"/>
<path d="M190.492 282.532C190.492 282.532 176.905 279.217 176.196 253.771C175.445 226.312 179.526 194.263 163.445 191.67C147.364 189.078 138.437 208.672 138.636 231.554C138.82 251.589 146.896 295.086 190.436 303.615L190.492 282.532Z" fill="#B6D4C8"/>
<path opacity="0.2" d="M190.492 282.532C190.492 282.532 176.905 279.217 176.196 253.771C175.445 226.312 179.526 194.263 163.445 191.67C147.364 189.078 138.437 208.672 138.636 231.554C138.82 251.589 146.896 295.086 190.436 303.615L190.492 282.532Z" fill="black"/>
<path d="M190.493 301.008H190.365C180.575 299.223 172.598 293.825 166.661 284.984C149.064 258.729 154.604 209.707 156.432 201.149C156.473 200.967 156.582 200.807 156.738 200.704C156.894 200.601 157.084 200.563 157.268 200.596C157.451 200.641 157.611 200.753 157.713 200.911C157.816 201.07 157.854 201.261 157.82 201.447C156.021 209.948 150.509 258.347 167.837 284.19C170.36 288.198 173.687 291.638 177.609 294.291C181.531 296.945 185.962 298.755 190.62 299.605C190.713 299.622 190.801 299.658 190.879 299.709C190.958 299.76 191.026 299.827 191.079 299.905C191.131 299.982 191.168 300.07 191.187 300.162C191.205 300.254 191.205 300.349 191.187 300.441C191.157 300.603 191.07 300.748 190.943 300.852C190.816 300.955 190.657 301.011 190.493 301.008Z" fill="white"/>
<path d="M190.492 366.31C176.452 368.209 153.655 368.181 140.492 357.809C127.33 347.438 130.078 338.512 135.136 334.786C140.195 331.059 144.587 326.809 135.887 318.534C127.188 310.26 113.218 296.97 108.684 277.035C104.15 257.1 106.389 244.632 115.287 240.481C123.915 236.457 126.196 242.861 131.481 256.066C136.766 269.271 148.653 257.95 158.826 262.073C168.999 266.196 168.588 274.357 169.226 281.371C169.863 288.384 173.221 290.325 178.988 290.325C184.754 290.325 190.492 293.641 190.492 300.243V366.31Z" fill="#B6D4C8"/>
<path d="M190.492 343.159C190.432 343.173 190.369 343.173 190.308 343.159C189.699 342.989 175.176 338.767 154.023 319.342C131.495 298.656 120.869 267.627 120.755 267.316C120.701 267.137 120.718 266.944 120.802 266.778C120.887 266.612 121.033 266.484 121.209 266.423C121.385 266.364 121.578 266.377 121.745 266.46C121.912 266.542 122.04 266.686 122.101 266.862C122.201 267.174 132.728 297.863 154.986 318.294C175.842 337.463 190.535 341.756 190.691 341.799C190.78 341.825 190.863 341.868 190.936 341.927C191.008 341.985 191.069 342.057 191.114 342.138C191.158 342.22 191.186 342.31 191.197 342.402C191.207 342.495 191.198 342.588 191.172 342.677C191.126 342.82 191.035 342.945 190.913 343.032C190.79 343.119 190.643 343.163 190.492 343.159Z" fill="white"/>
<path d="M159.931 324.273C159.789 324.275 159.649 324.232 159.532 324.151C159.415 324.07 159.327 323.954 159.279 323.819C154.731 312.144 153.697 287.166 153.612 286.103C153.608 285.916 153.677 285.735 153.803 285.597C153.93 285.46 154.105 285.377 154.292 285.366C154.477 285.369 154.655 285.44 154.791 285.565C154.927 285.691 155.011 285.862 155.029 286.046C155.029 286.301 156.091 311.847 160.554 323.309C160.589 323.397 160.605 323.49 160.603 323.584C160.601 323.677 160.58 323.77 160.542 323.856C160.503 323.941 160.448 324.018 160.38 324.083C160.312 324.147 160.231 324.197 160.144 324.23C160.075 324.255 160.004 324.269 159.931 324.273Z" fill="white"/>
<path d="M159.818 341.062C158.512 341.072 157.206 341.006 155.908 340.864C155.815 340.853 155.725 340.823 155.643 340.777C155.561 340.731 155.489 340.67 155.432 340.596C155.374 340.523 155.331 340.438 155.306 340.348C155.28 340.258 155.273 340.163 155.284 340.07C155.295 339.977 155.325 339.887 155.371 339.806C155.417 339.724 155.478 339.652 155.552 339.594C155.625 339.536 155.71 339.494 155.8 339.468C155.89 339.443 155.985 339.436 156.078 339.447C156.205 339.447 169.396 340.949 175.446 334.786C175.509 334.711 175.587 334.65 175.674 334.607C175.762 334.564 175.857 334.539 175.955 334.535C176.052 334.531 176.15 334.546 176.241 334.581C176.332 334.616 176.415 334.67 176.484 334.738C176.554 334.807 176.608 334.889 176.645 334.98C176.681 335.07 176.698 335.167 176.695 335.265C176.692 335.363 176.669 335.458 176.627 335.547C176.585 335.635 176.525 335.713 176.452 335.777C172.074 340.297 164.437 341.062 159.818 341.062Z" fill="white"/>
<path d="M149.617 72.769L148.087 63.9421L140.209 69.1277C139.49 67.711 138.469 66.4683 137.22 65.4865L140.989 55.2852L133.904 53.7125L128.719 63.6304C126.843 63.9469 125.024 64.5389 123.321 65.3873L121.068 57.9063L112.652 64.523L113.204 73.3074C111.49 75.2272 109.936 77.2838 108.557 79.4565L101.615 79.1023L96.7406 90.0261L102.706 92.5765C102.083 94.836 101.689 97.1523 101.53 99.4907L93.9495 106.462L95.4655 115.303L103.357 110.117C104.073 111.532 105.094 112.771 106.347 113.744L102.649 123.96L109.733 125.518L117.157 118.292C118.872 118.023 118.447 114.793 120.317 113.872L122.57 121.324L130.972 114.722L130.759 111.265C132.459 109.366 138.892 105.186 140.28 103.004L142.023 100.171L146.897 89.2469L144.63 85.138L142.108 79.7824L149.617 72.769ZM123.902 101.828C117.441 106.901 115.4 108.02 114.309 101.233C113.219 94.4467 116.916 84.1321 123.377 79.0456C129.838 73.9592 132.303 73.6049 133.465 80.3775C134.627 87.15 130.376 96.8128 123.902 101.828Z" fill="#E0E0E0"/>
<path d="M133.961 53.7125L143.156 59.0115L137.971 68.901L128.775 63.602L133.961 53.7125Z" fill="#F5F5F5"/>
<path d="M157.282 69.2411L149.405 74.4267L140.209 69.1277L148.087 63.9421L157.282 69.2411Z" fill="#F5F5F5"/>
<path d="M156.021 94.5034L150.056 91.9672L140.861 86.6682L146.826 89.2044L156.021 94.5034Z" fill="#E0E0E0"/>
<path d="M102.635 123.96L111.83 129.244L115.599 119.043L106.404 113.744L102.635 123.96Z" fill="#E0E0E0"/>
<path d="M131.68 126.623L122.499 121.324L120.246 113.872L129.441 119.171L131.68 126.623Z" fill="#E0E0E0"/>
<path d="M158.798 78.068L157.282 69.2411L149.404 74.4267C148.679 73.0093 147.654 71.7668 146.401 70.7854L150.169 60.5842L143.156 59.0115L137.956 68.9294C136.08 69.2459 134.261 69.8379 132.558 70.6863L130.32 63.2337L121.903 69.8503L122.456 78.6347C120.74 80.5681 119.186 82.6389 117.809 84.8263L110.852 84.4721L105.978 95.396L111.943 97.9463C111.326 100.212 110.932 102.532 110.767 104.875L103.201 111.746L104.717 120.587L112.595 115.402C113.32 116.815 114.345 118.053 115.599 119.029L111.83 129.23L118.914 130.803L124.1 120.885C125.983 120.572 127.808 119.975 129.512 119.114L131.751 126.567L140.167 119.964L139.614 111.18C141.328 109.26 142.882 107.203 144.261 105.03L151.218 105.371L156.092 94.4467L150.042 91.9105C150.669 89.6467 151.068 87.3256 151.232 84.9822L158.798 78.068ZM133.111 107.184C126.664 112.256 120.487 110.882 119.311 104.11C118.135 97.337 122.428 87.7167 128.889 82.6444C135.349 77.5721 141.513 78.9606 142.689 85.7331C143.865 92.5056 139.572 102.112 133.111 107.184Z" fill="#EBEBEB"/>
<path d="M130.32 63.2053L121.125 57.9063L112.708 64.523L121.904 69.822L130.32 63.2053Z" fill="#F5F5F5"/>
<path d="M112.708 64.523L113.261 73.3074L122.456 78.6064L121.904 69.822L112.708 64.523Z" fill="#E0E0E0"/>
<path d="M117.809 84.7555L108.614 79.4565L101.671 79.1165L110.852 84.4155L117.809 84.7555Z" fill="#F5F5F5"/>
<path d="M101.671 79.1165L96.7974 90.0261L105.979 95.3251L110.852 84.4155L101.671 79.1165Z" fill="#E0E0E0"/>
<path d="M110.767 104.79L101.586 99.4907L94.0061 106.462L103.187 111.76L110.767 104.79Z" fill="#F5F5F5"/>
<path d="M104.717 120.602L95.5221 115.303L94.0061 106.462L103.187 111.76L104.717 120.602Z" fill="#E0E0E0"/>
<path d="M143.156 59.0115L133.961 53.7125L140.988 55.2852L150.17 60.5842L143.156 59.0115Z" fill="#F5F5F5"/>
<path d="M108.443 32.7007V19.5099L97.9447 24.2422C97.3886 22.0042 96.4283 19.8867 95.111 17.9939L101.728 4.66141L93.6516 0L85.4056 12.3974C83.1077 12.1966 80.7924 12.4224 78.5764 13.0633L77.4146 1.60104L65.9949 8.20352L64.8473 20.9551C62.3619 23.1573 60.0766 25.5754 58.0181 28.181L49.7721 25.3473L41.6961 39.3457L48.2985 45.0131C47.0786 48.0982 46.1304 51.2841 45.4649 54.5343L34.9661 61.916V75.121L45.4649 70.3887C46.0209 72.6267 46.9813 74.7442 48.2985 76.637L41.7244 89.9836L49.8004 94.645L58.0464 82.2477C60.3444 82.4478 62.6596 82.2221 64.8756 81.5818L66.0232 93.044L77.443 86.4415L78.6048 73.69C82.1691 72.3895 85.3266 70.1705 87.7576 67.2575L93.68 69.3403L101.756 55.356L96.797 51.1055C97.8735 47.5611 98.2725 43.8455 97.973 40.1533L108.443 32.7007ZM71.7048 65.6565C62.9487 70.7146 57.5364 67.0733 57.5364 56.9996C57.5364 46.9258 64.7764 34.4718 73.5467 29.4136C82.3169 24.3555 87.6159 27.9968 87.6159 38.1556C87.6159 48.3143 80.475 60.5842 71.7048 65.6565Z" fill="#E0E0E0"/>
<path d="M102.833 5.28483L93.6518 0L85.4058 12.3974L94.5869 17.6964L102.833 5.28483Z" fill="#F5F5F5"/>
<path d="M117.639 24.8089L108.444 19.5099L97.9451 24.2422L107.14 29.5412L117.639 24.8089Z" fill="#F5F5F5"/>
<path d="M75.1762 98.343L65.9951 93.044L64.8474 81.5818L74.0286 86.8807L75.1762 98.343Z" fill="#E0E0E0"/>
<path d="M41.6821 89.9836L50.8774 95.2826L57.4941 81.9501L48.2988 76.6511L41.6821 89.9836Z" fill="#E0E0E0"/>
<path d="M117.639 38.0705V24.8798L107.14 29.5695C106.59 27.3295 105.629 25.2109 104.306 23.3212L110.923 9.98874L102.847 5.31316L94.601 17.7247C92.303 17.517 89.9864 17.7428 87.7718 18.3906L86.61 6.90002L75.1902 13.5025L74.0284 26.2541C71.5466 28.46 69.2616 30.8777 67.1992 33.48L58.9532 30.6463L50.8772 44.6447L57.4939 50.3121C56.2674 53.395 55.3191 56.5814 54.6602 59.8332L44.1614 67.215V80.42L54.6602 75.6877C55.2101 77.9278 56.1709 80.0464 57.4939 81.936L50.8772 95.2684L58.9532 99.9299L67.1992 87.5325C69.4972 87.7333 71.8125 87.5075 74.0284 86.8666L75.1902 98.3288L86.61 91.7263L87.7576 78.9748C90.2429 76.7725 92.5283 74.3545 94.5868 71.7489L102.833 74.5826L110.909 60.5983L104.292 54.931C105.518 51.8479 106.467 48.6615 107.126 45.4098L117.639 38.0705ZM80.9001 71.0263C72.1298 76.0844 65.0173 71.9756 65.0173 61.8593C65.0173 51.7431 72.1015 39.4307 80.9001 34.3584C89.6987 29.2861 96.7687 33.4091 96.7687 43.5254C96.7687 53.6416 89.6562 65.8832 80.9001 70.9555V71.0263Z" fill="#EBEBEB"/>
<path d="M58.0182 28.2093L67.1994 33.5083L58.9534 30.6321L49.7722 25.319L58.0182 28.2093Z" fill="#F0F0F0"/>
<path d="M49.7711 25.3334L41.6929 39.3366L50.8851 44.6394L58.9633 30.6363L49.7711 25.3334Z" fill="#F5F5F5"/>
<path d="M41.6821 39.3174L50.8774 44.6164L57.4941 50.3121L48.2988 45.0272L41.6821 39.3174Z" fill="#E0E0E0"/>
<path d="M45.4651 54.5484L54.6604 59.8474L44.1616 67.2292L34.9663 61.9302L45.4651 54.5484Z" fill="#F5F5F5"/>
<path d="M34.9663 61.9302L44.1616 67.2292V80.4341L34.9663 75.1351V61.9302Z" fill="#E0E0E0"/>
<path d="M86.6104 6.90003L77.4151 1.60104L65.9954 8.20352L75.1765 13.5025L86.6104 6.90003Z" fill="#F5F5F5"/>
<path d="M204.491 385.268L337.674 308.361C337.968 308.258 338.222 308.067 338.402 307.813C338.581 307.559 338.678 307.256 338.678 306.945C338.678 306.634 338.581 306.33 338.402 306.076C338.222 305.823 337.968 305.631 337.674 305.528L325.362 298.444C324.599 298.06 323.757 297.86 322.904 297.86C322.05 297.86 321.208 298.06 320.445 298.444L187.22 375.279C186.926 375.382 186.672 375.574 186.492 375.828C186.313 376.081 186.216 376.385 186.216 376.696C186.216 377.007 186.313 377.31 186.492 377.564C186.672 377.818 186.926 378.009 187.22 378.113L199.575 385.197C200.332 385.592 201.171 385.804 202.024 385.816C202.878 385.828 203.723 385.64 204.491 385.268Z" fill="#E0E0E0"/>
<path d="M334.019 11.4339L213.927 80.7742C212.142 81.9392 210.656 83.5084 209.59 85.3545C208.525 87.2007 207.909 89.2719 207.792 91.4005V376.285C207.792 380.195 210.541 381.782 213.927 379.827L334.019 310.487C335.806 309.324 337.294 307.756 338.36 305.909C339.426 304.062 340.041 301.99 340.154 299.86V14.976C340.154 11.0655 337.419 9.47867 334.019 11.4339Z" fill="#455A64"/>
<path d="M213.927 80.7742L334.019 11.4339C337.051 9.67703 339.559 10.768 340.069 13.8142C339.785 11.899 339.1 10.0654 338.057 8.43419C337.014 6.80292 335.638 5.4109 334.019 4.34971L329.031 1.51602C327.13 0.551439 325.028 0.0487442 322.896 0.0487442C320.765 0.0487442 318.663 0.551439 316.762 1.51602L196.656 70.7996C194.847 71.9339 193.355 73.5084 192.32 75.376L209.592 85.2939C210.626 83.4411 212.119 81.8849 213.927 80.7742Z" fill="#37474F"/>
<path d="M190.493 366.31C190.609 368.439 191.225 370.51 192.291 372.356C193.357 374.202 194.842 375.772 196.628 376.937L201.629 379.77C203.36 380.636 205.255 381.127 207.188 381.21C209.122 381.293 211.052 380.966 212.85 380.252C210.017 381.357 207.764 379.728 207.764 376.228V91.4005C207.835 89.2629 208.455 87.1795 209.563 85.3506L192.292 75.4327C191.199 77.2478 190.58 79.3088 190.493 81.4259V366.31Z" fill="#263238"/>
<path d="M217.229 118.731L330.76 53.2024C332.8 52.0406 334.444 52.9899 334.444 55.3277V266.182C334.376 267.46 334.007 268.704 333.367 269.812C332.726 270.92 331.833 271.861 330.76 272.558L217.271 338.087C215.231 339.263 213.587 338.314 213.587 335.962V125.107C213.652 123.833 214.015 122.592 214.648 121.485C215.28 120.377 216.164 119.434 217.229 118.731Z" fill="white"/>
<path d="M273.973 56.9004C273.346 57.3118 272.825 57.8646 272.451 58.5142C272.077 59.1639 271.86 59.8923 271.819 60.6408C271.819 62.0577 272.783 62.5819 273.973 61.8877C274.602 61.4788 275.125 60.9266 275.5 60.2764C275.874 59.6262 276.089 58.8965 276.127 58.1472C276.127 56.7729 275.163 56.2203 273.973 56.9004Z" fill="#37474F"/>
<path d="M273.973 315.403C271.496 317.024 269.436 319.204 267.959 321.769C266.482 324.334 265.63 327.211 265.472 330.167C265.472 335.593 269.283 337.803 273.973 335.083C276.449 333.462 278.509 331.281 279.986 328.716C281.463 326.151 282.315 323.275 282.474 320.32C282.503 314.893 278.677 312.683 273.973 315.403Z" fill="#37474F"/>
<path d="M253.585 78.8331C252.339 79.6597 251.306 80.7674 250.567 82.0669C249.829 83.3663 249.407 84.8212 249.334 86.314C249.334 89.0627 251.261 90.182 253.585 88.8077C254.843 87.9889 255.89 86.8846 256.641 85.5847C257.392 84.2847 257.825 82.8258 257.906 81.3267C257.906 78.5781 255.979 77.4588 253.585 78.8331Z" fill="#37474F"/>
<path d="M264.168 77.898C264.168 79.7399 265.585 80.4341 267.243 79.4565L295.58 63.0636C296.458 62.5155 297.194 61.7678 297.728 60.8815C298.262 59.9951 298.58 58.9952 298.654 57.963C298.654 56.1353 297.238 55.441 295.58 56.4186L267.243 72.8115C266.367 73.3583 265.632 74.1038 265.098 74.9875C264.564 75.8712 264.245 76.8683 264.168 77.898Z" fill="#37474F"/>
<path d="M357.425 62.001C357.425 59.6491 355.781 58.6998 353.741 59.8758L340.154 67.7109L240.252 125.405C239.179 126.102 238.286 127.043 237.646 128.151C237.006 129.259 236.636 130.503 236.568 131.78V342.578C236.568 344.93 238.212 345.879 240.252 344.704L340.196 286.996L353.741 279.175C354.814 278.477 355.707 277.536 356.347 276.428C356.988 275.32 357.357 274.077 357.425 272.799V62.001Z" fill="white"/>
<path d="M358.842 62.001C358.931 61.2905 358.809 60.5694 358.49 59.9281C358.172 59.2867 357.671 58.7535 357.051 58.3951C356.431 58.0367 355.72 57.8691 355.005 57.9132C354.29 57.9573 353.604 58.2112 353.033 58.6431L340.069 66.1382L239.544 124.229C238.25 125.046 237.174 126.165 236.408 127.491C235.643 128.816 235.212 130.308 235.152 131.837V342.578C235.095 343.286 235.231 343.995 235.545 344.631C235.86 345.268 236.341 345.807 236.937 346.191C237.444 346.486 238.022 346.638 238.609 346.63C239.439 346.604 240.249 346.365 240.961 345.936L341.557 287.846L354.492 280.379C355.779 279.554 356.85 278.433 357.614 277.109C358.378 275.785 358.814 274.297 358.885 272.77L358.842 62.001ZM340.097 285.423L338.935 286.103L239.601 343.457C239.434 343.585 239.24 343.674 239.034 343.718C238.828 343.763 238.615 343.76 238.411 343.712C238.226 343.598 238.042 343.202 238.042 342.55V131.78C238.116 130.752 238.421 129.753 238.937 128.86C239.452 127.966 240.164 127.202 241.018 126.623L340.253 69.2411L354.422 61.0376C354.589 60.9093 354.782 60.8198 354.988 60.7757C355.194 60.7316 355.407 60.7339 355.612 60.7825C355.796 60.8959 355.98 61.2926 355.98 61.9443V272.799C355.907 273.828 355.601 274.826 355.085 275.72C354.57 276.613 353.859 277.378 353.005 277.956L340.069 285.423H340.097Z" fill="#B6D4C8"/>
<path d="M296.997 110.981C309.748 103.642 320.021 109.564 320.021 124.285C320.021 139.006 309.706 156.873 296.997 164.155C284.288 171.438 273.973 165.572 273.973 150.865C273.973 136.159 284.288 118.335 296.997 110.981Z" fill="#B6D4C8"/>
<path d="M296.997 122.543C301.12 120.162 304.463 122.089 304.463 126.793C304.323 129.385 303.574 131.906 302.277 134.154C300.979 136.402 299.17 138.312 296.997 139.729C292.874 142.109 289.53 140.182 289.53 135.478C289.67 132.887 290.419 130.365 291.716 128.118C293.014 125.87 294.823 123.96 296.997 122.543Z" fill="#B6D4C8"/>
<path d="M311.548 147.932C311.548 140.112 306.064 136.938 299.278 140.848L295.027 143.299C288.255 147.21 282.757 156.731 282.757 164.552V166.663C286.682 167.952 291.613 167.258 296.926 164.155C302.811 160.525 307.789 155.596 311.477 149.746L311.548 147.932Z" fill="#B6D4C8"/>
<path opacity="0.7" d="M296.997 122.543C301.12 120.162 304.463 122.089 304.463 126.793C304.323 129.385 303.574 131.906 302.277 134.154C300.979 136.402 299.17 138.312 296.997 139.729C292.874 142.109 289.53 140.182 289.53 135.478C289.67 132.887 290.419 130.365 291.716 128.118C293.014 125.87 294.823 123.96 296.997 122.543Z" fill="white"/>
<path opacity="0.7" d="M311.548 147.932C311.548 140.112 306.064 136.938 299.278 140.848L295.027 143.299C288.255 147.21 282.757 156.731 282.757 164.552V166.663C286.682 167.952 291.613 167.258 296.926 164.155C302.811 160.525 307.789 155.596 311.477 149.746L311.548 147.932Z" fill="white"/>
<path d="M252.451 196.53L282.077 179.429C283.494 178.65 284.528 179.273 284.528 180.846V181.823C284.484 182.675 284.238 183.504 283.812 184.242C283.386 184.981 282.792 185.609 282.077 186.074L252.451 203.175C251.105 203.954 250 203.317 250 201.758V200.781C250.046 199.929 250.292 199.101 250.718 198.363C251.144 197.624 251.737 196.996 252.451 196.53Z" fill="#B6D4C8"/>
<path opacity="0.1" d="M252.451 196.53L282.077 179.429C283.494 178.65 284.528 179.273 284.528 180.846V181.823C284.484 182.675 284.238 183.504 283.812 184.242C283.386 184.981 282.792 185.609 282.077 186.074L252.451 203.175C251.105 203.954 250 203.317 250 201.758V200.781C250.046 199.929 250.292 199.101 250.718 198.363C251.144 197.624 251.737 196.996 252.451 196.53Z" fill="black"/>
<path d="M251.233 217.174L340.862 165.43C341.528 165.034 342.081 165.345 342.081 166.139V176.595C342.056 177.02 341.933 177.432 341.721 177.801C341.51 178.17 341.216 178.485 340.862 178.72L251.233 230.464C250.553 230.86 250 230.534 250 229.755V219.299C250.024 218.873 250.149 218.458 250.363 218.089C250.577 217.72 250.875 217.406 251.233 217.174Z" fill="#B6D4C8"/>
<path opacity="0.2" d="M251.233 217.174L340.862 165.43C341.528 165.034 342.081 165.345 342.081 166.139V176.595C342.056 177.02 341.933 177.432 341.721 177.801C341.51 178.17 341.216 178.485 340.862 178.72L251.233 230.464C250.553 230.86 250 230.534 250 229.755V219.299C250.024 218.873 250.149 218.458 250.363 218.089C250.577 217.72 250.875 217.406 251.233 217.174Z" fill="white"/>
<path d="M252.451 243.045L282.077 225.944C283.494 225.165 284.528 225.802 284.528 227.361V228.338C284.485 229.19 284.24 230.019 283.814 230.758C283.388 231.497 282.793 232.124 282.077 232.589L252.451 249.69C251.105 250.483 250 249.846 250 248.273V247.296C250.048 246.445 250.295 245.617 250.721 244.879C251.146 244.141 251.739 243.513 252.451 243.045Z" fill="#B6D4C8"/>
<path opacity="0.1" d="M252.451 243.045L282.077 225.944C283.494 225.165 284.528 225.802 284.528 227.361V228.338C284.485 229.19 284.24 230.019 283.814 230.758C283.388 231.497 282.793 232.124 282.077 232.589L252.451 249.69C251.105 250.483 250 249.846 250 248.273V247.296C250.048 246.445 250.295 245.617 250.721 244.879C251.146 244.141 251.739 243.513 252.451 243.045Z" fill="black"/>
<path d="M251.233 263.688L340.862 211.945C341.528 211.549 342.081 211.875 342.081 212.654V223.11C342.056 223.534 341.933 223.947 341.721 224.316C341.51 224.685 341.216 224.999 340.862 225.235L251.233 276.978C250.553 277.375 250 277.063 250 276.27V265.814C250.024 265.388 250.149 264.973 250.363 264.604C250.577 264.235 250.875 263.921 251.233 263.688Z" fill="#B6D4C8"/>
<path opacity="0.2" d="M251.233 263.688L340.862 211.945C341.528 211.549 342.081 211.875 342.081 212.654V223.11C342.056 223.534 341.933 223.947 341.721 224.316C341.51 224.685 341.216 224.999 340.862 225.235L251.233 276.978C250.553 277.375 250 277.063 250 276.27V265.814C250.024 265.388 250.149 264.973 250.363 264.604C250.577 264.235 250.875 263.921 251.233 263.688Z" fill="white"/>
<path d="M286.979 269.625L322.401 249.208C323.817 248.415 324.866 249.052 324.866 250.625V261.563C324.819 262.416 324.572 263.246 324.143 263.984C323.715 264.723 323.118 265.35 322.401 265.814L286.979 286.245C285.563 287.024 284.528 286.386 284.528 284.828V273.876C284.578 273.025 284.825 272.198 285.25 271.46C285.676 270.722 286.268 270.094 286.979 269.625Z" fill="#B6D4C8"/>
<path opacity="0.1" d="M286.979 269.625L322.401 249.208C323.817 248.415 324.866 249.052 324.866 250.625V261.563C324.819 262.416 324.572 263.246 324.143 263.984C323.715 264.723 323.118 265.35 322.401 265.814L286.979 286.245C285.563 287.024 284.528 286.386 284.528 284.828V273.876C284.578 273.025 284.825 272.198 285.25 271.46C285.676 270.722 286.268 270.094 286.979 269.625Z" fill="black"/>
<path d="M370.856 223.464C370.856 223.464 353.458 199.463 352.437 196.544C351.63 194.391 352.437 191.189 352.693 189.701C352.948 188.213 353.174 184.898 353.429 184.034C353.854 182.418 351.772 182.744 350.596 184.218C349.42 185.691 349.023 188.638 348.414 189.12C347.804 189.602 343.171 182.843 340.749 179.726C338.326 176.609 336.81 174.711 335.322 175.873C334.259 176.709 335.053 178.522 336.81 181.186C337.836 182.62 338.782 184.11 339.643 185.649C339.913 186.23 338.467 186.272 337.688 187.477C337.079 188.412 337.688 189.928 336.838 190.65C336.315 191.048 335.956 191.625 335.831 192.27C335.706 192.916 335.822 193.585 336.158 194.15C337.735 196.627 339.769 198.781 342.151 200.497C344.758 202.297 345.807 202.934 347.351 205.385C348.895 207.837 362.752 232.872 363.687 234.374C364.622 235.876 366.422 238.936 369.156 239.021C371.891 239.106 394.277 219.837 395.424 218.874C399.108 215.799 400.284 215.36 400.908 218.123C401.123 219.105 401.284 220.098 401.389 221.098C401.829 224.612 404.223 237.165 404.223 237.165C404.223 237.165 415.558 242.648 424.866 239.999C434.175 237.349 437.32 233.396 437.32 233.396L432.659 225.802C433.92 222.671 439.743 209.976 441.628 201.092L412.441 196.374C411.846 196.247 410.882 196.006 409.607 195.68C408.006 195.255 403.94 193.852 400.865 196.544C390.834 205.286 370.885 223.464 370.885 223.464" fill="#FFA8A7"/>
<path d="M428.72 370.731L423.492 377.999C425.868 379.109 428.464 379.666 431.086 379.629C435.776 379.799 437.066 378.212 437.236 377.9C438.029 376.2 436.796 373.14 436.456 370.504L428.72 370.731Z" fill="#37474F"/>
<path d="M423.79 374.514C423.79 374.514 417.442 374.103 413.064 373.565C408.686 373.026 405.215 375.151 406.235 376.951C407.255 378.75 409.678 380.252 413.447 381.513C416.663 382.604 420.531 383.383 423.875 384.347C427.219 385.31 429.542 386.571 431.483 385.891C433.651 385.14 434.586 384.276 434.402 382.689C433.929 380.432 433.342 378.2 432.645 376.002L423.79 374.514Z" fill="#37474F"/>
<path d="M437.236 363.434C437.236 363.434 436.442 370.037 436.385 371.453C436.329 372.87 429.939 373.324 428.72 370.731L428.522 362.655L437.236 363.434Z" fill="#F28F8F"/>
<path d="M430.803 367.486L433.084 377.518C433.084 377.518 433.297 378.736 428.083 379.515C422.869 380.295 414.68 376.781 413.277 376.072C411.874 375.364 411.718 373.933 416.847 374.216C421.976 374.5 423.79 374.514 423.79 374.514L422.118 370.079L430.803 367.486Z" fill="#FFA8A7"/>
<path d="M441.542 201.007L445.155 200.001C445.155 200.001 452.707 223.904 453.543 226.213C454.379 228.522 455.328 230.959 453.699 233.807C451.758 237.194 441.542 250.809 441.542 250.809L435.053 244.462L442.421 230.974L435.903 217.797L441.542 201.007Z" fill="#F28F8F"/>
<path d="M404.435 169.964C403.588 168.374 403.159 166.595 403.186 164.794C403.213 162.993 403.697 161.228 404.591 159.664C408.19 152.991 416.209 149.746 425.759 150.979C430.179 151.56 435.393 155.229 438.241 160.712C441.387 166.791 441.684 179.032 442.492 183.665L404.435 169.964Z" fill="#37474F"/>
<path d="M404.181 172.586C404.181 172.586 401.914 176.907 402.31 177.304C402.898 177.647 403.54 177.886 404.209 178.012L404.181 172.586Z" fill="#FFA8A7"/>
<path d="M411.067 158.927C408.601 160.528 404.351 163.475 404.167 173.181C403.968 183.099 405.385 186.371 406.859 187.519C407.85 188.298 413.674 187.902 416.167 187.321C418.661 186.74 425.844 183.184 428.437 177.785C431.483 171.438 430.86 162.2 426.34 159.366C424.04 158.006 421.432 157.252 418.76 157.175C416.089 157.099 413.441 157.701 411.067 158.927Z" fill="#FFA8A7"/>
<path d="M437.235 233.34C441.599 240.141 445.736 246.091 446.643 253.771C448.513 269.908 442.393 288.356 441.075 300.3C443.553 303.697 444.981 307.746 445.184 311.946C445.184 316.891 437.235 363.434 437.235 363.434C437.235 363.434 431.455 365.191 428.522 362.655L423.067 277.035L425.901 266.607L437.235 233.34Z" fill="#B6D4C8"/>
<path opacity="0.2" d="M437.235 233.34C441.599 240.141 445.736 246.091 446.643 253.771C448.513 269.908 442.393 288.356 441.075 300.3C443.553 303.697 444.981 307.746 445.184 311.946C445.184 316.891 437.235 363.434 437.235 363.434C437.235 363.434 431.455 365.191 428.522 362.655L423.067 277.035L425.901 266.607L437.235 233.34Z" fill="black"/>
<path d="M423.067 277.035L425.901 266.607C431.326 265.179 436.559 263.1 441.486 260.416C441.486 260.416 438.539 265.785 430.066 268.732L425.688 282.122L425.32 312.796L423.067 277.035Z" fill="#B6D4C8"/>
<path opacity="0.3" d="M423.067 277.035L425.901 266.607C431.326 265.179 436.559 263.1 441.486 260.416C441.486 260.416 438.539 265.785 430.066 268.732L425.688 282.122L425.32 312.796L423.067 277.035Z" fill="black"/>
<path d="M437.236 233.34C439.573 237.165 445.156 243.683 443.966 249.959C442.549 257.554 438.44 262.895 425.943 266.607L414.212 309.112C414.212 309.112 420.319 314.78 422.189 320.263C424.059 325.746 430.803 367.515 430.803 367.515C430.803 367.515 428.706 370.929 422.118 370.107C422.118 370.107 399.151 317.684 397.536 314.27C395.575 310.812 394.889 306.776 395.595 302.864C396.317 297.367 404.096 237.194 404.096 237.194L437.236 233.34Z" fill="#B6D4C8"/>
<path opacity="0.2" d="M437.236 233.34C439.573 237.165 445.156 243.683 443.966 249.959C442.549 257.554 438.44 262.895 425.943 266.607L414.212 309.112C414.212 309.112 420.319 314.78 422.189 320.263C424.059 325.746 430.803 367.515 430.803 367.515C430.803 367.515 428.706 370.929 422.118 370.107C422.118 370.107 399.151 317.684 397.536 314.27C395.575 310.812 394.889 306.776 395.595 302.864C396.317 297.367 404.096 237.194 404.096 237.194L437.236 233.34Z" fill="black"/>
<path d="M441.542 201.007L412.355 196.289C411.76 196.162 410.797 195.921 409.522 195.595C409.522 195.595 408.275 213.901 400.78 218.094C400.964 218.973 401.12 219.951 401.262 221.07C401.701 224.584 404.095 237.137 404.095 237.137C404.095 237.137 415.43 242.62 424.739 239.971C434.047 237.321 437.193 233.368 437.193 233.368L432.531 225.774C433.835 222.614 439.7 209.919 441.542 201.007Z" fill="#B6D4C8"/>
<path opacity="0.7" d="M441.542 201.007L412.355 196.289C411.76 196.162 410.797 195.921 409.522 195.595C409.522 195.595 408.275 213.901 400.78 218.094C400.964 218.973 401.12 219.951 401.262 221.07C401.701 224.584 404.095 237.137 404.095 237.137C404.095 237.137 415.43 242.62 424.739 239.971C434.047 237.321 437.193 233.368 437.193 233.368L432.531 225.774C433.835 222.614 439.7 209.919 441.542 201.007Z" fill="white"/>
<path d="M433.849 222.756C429.973 225.083 425.912 227.088 421.707 228.749C425.524 228.673 429.26 227.64 432.574 225.745L433.849 222.756Z" fill="#B6D4C8"/>
<path d="M410.344 159.409C410.344 159.409 408.927 168.618 412.271 174.031C412.271 174.031 413.518 170.361 416.621 171.055C419.724 171.75 419.894 175.844 417.712 178.14C417.157 178.783 416.432 179.258 415.62 179.508C414.808 179.759 413.942 179.776 413.121 179.556C413.121 179.556 412.625 186.216 412.356 191.798C412.087 197.38 410.613 209.551 416.89 214.467C423.166 219.384 438.922 221.112 446.303 210.798C450.412 205.06 444.957 194.915 442.421 183.538C440.084 173.081 438.766 157.581 427.672 155.088C416.578 152.594 410.344 159.409 410.344 159.409Z" fill="#37474F"/>
<path d="M451.05 33.5792L448.712 34.996C448.909 34.1642 449.018 33.3143 449.038 32.4599C449.038 27.7134 445.709 25.8007 441.6 28.2093C440.349 28.9636 439.234 29.9213 438.298 31.043C438.298 24.6672 433.821 22.0744 428.296 25.2623C425.384 27.1613 422.961 29.7198 421.223 32.7305C419.485 35.7412 418.481 39.1191 418.293 42.5903C418.293 42.9162 418.293 43.2279 418.293 43.5396C416.869 43.3605 415.428 43.6918 414.226 44.4747C412.061 45.8855 410.259 47.7869 408.967 50.0247C407.675 52.2624 406.928 54.7734 406.788 57.3538C406.787 57.9536 406.849 58.5519 406.972 59.139L405.725 59.8616C402.339 61.8168 399.59 65.6281 399.59 68.3626C399.59 71.0971 402.339 71.7489 405.725 69.7795L451.064 43.6387C454.45 41.6835 457.199 37.8722 457.199 35.1377C457.199 32.4032 454.436 31.6098 451.05 33.5792Z" fill="#EBEBEB"/>
</svg>
