<svg width="100" height="100" viewBox="0 0 100 100" fill="none" xmlns="http://www.w3.org/2000/svg">
<path fill-rule="evenodd" clip-rule="evenodd" d="M50 0C77.6144 0 100 22.3856 100 50C100 56.3512 98.8144 62.4248 96.654 68.0136H85.2016C84.5712 68.0136 84.0556 68.5292 84.0556 69.1596C84.0556 69.79 84.5712 70.3056 85.2016 70.3056H95.7016C95.5124 70.7308 95.3172 71.1528 95.1164 71.572H78.9516C78.3212 71.572 77.8056 72.0876 77.8056 72.718C77.8056 73.3484 78.3212 73.864 78.9516 73.864H93.944C93.712 74.2896 93.4748 74.712 93.2308 75.1304H72.7016C72.0712 75.1304 71.5556 75.646 71.5556 76.2764C71.5556 76.9068 72.0712 77.4224 72.7016 77.4224H91.8108C91.5304 77.8488 91.244 78.2712 90.9508 78.6888H66.4516C65.8212 78.6888 65.3056 79.2044 65.3056 79.8348C65.3056 80.4652 65.8212 80.9808 66.4516 80.9808H89.2432C88.9048 81.4084 88.56 81.8308 88.2084 82.2472H60.2016C59.5712 82.2472 59.0556 82.7628 59.0556 83.3928V83.3932C59.0556 84.0236 59.5712 84.5392 60.2016 84.5392H86.1524C77.0488 94.066 64.2176 100 50 100C22.3856 100 0 77.6144 0 50C0 42.7044 1.5636 35.7744 4.3724 29.5252H24.106C24.736 29.5252 25.2516 29.0096 25.2516 28.3792V28.3788C25.2516 27.7488 24.736 27.2332 24.106 27.2332H5.4724C5.6904 26.8072 5.9156 26.3852 6.146 25.9668H30.356C30.986 25.9668 31.5016 25.4512 31.5016 24.8208C31.5016 24.1904 30.986 23.6748 30.356 23.6748H7.4848C7.7492 23.248 8.0204 22.826 8.2976 22.4084H36.606C37.236 22.4084 37.7516 21.8928 37.7516 21.2624C37.7516 20.632 37.236 20.1164 36.606 20.1164H9.9124C10.2316 19.6888 10.5584 19.2668 10.8908 18.85H42.856C43.486 18.85 44.0016 18.3344 44.0016 17.704C44.0016 17.0736 43.486 16.558 42.856 16.558H12.834C13.2204 16.1288 13.6144 15.7068 14.0152 15.2916H49.106C49.736 15.2916 50.2516 14.776 50.2516 14.1456C50.2516 13.5152 49.736 12.9996 49.106 12.9996H16.3752C25.2548 4.924 37.0516 0 50 0V0ZM73.1772 48.1024H26.8248C26.6496 48.1024 26.5072 48.2448 26.5072 48.42V50.8444H73.4928V48.42C73.4928 48.2448 73.3508 48.1024 73.1772 48.1024V48.1024ZM26.1724 46.7528L27.6164 37.0836C28.0172 34.6744 30.0712 32.9356 32.5008 32.9356H67.4992C69.93 32.9356 71.9824 34.6744 72.3828 37.0724L73.83 46.7528C74.4944 47.0148 74.9656 47.664 74.9656 48.42V51.58V54.7404C74.9656 55.4652 74.5332 56.0908 73.9128 56.372V62.1148C73.9128 64.8448 71.692 67.0644 68.9624 67.0644H64.7484H60.5352H56.3208H52.1068H47.8936H43.6796H39.4664H35.252H31.038C28.3088 67.0644 26.0884 64.8448 26.0884 62.1148V56.372C25.4672 56.0908 25.0344 55.4652 25.0344 54.7404V51.58V48.42C25.0344 47.6636 25.5068 47.0144 26.1724 46.7528V46.7528ZM72.4404 56.5304H27.5612V62.1148C27.5612 63.7804 28.7372 65.1744 30.302 65.5128V62.1148C30.302 60.5472 31.5776 59.272 33.1456 59.272C34.7132 59.272 35.9884 60.5472 35.9884 62.1148V65.5912H38.7296V62.1148C38.7296 60.5472 40.0048 59.272 41.5728 59.272C43.1404 59.272 44.416 60.5472 44.416 62.1148V65.5912H47.1568V62.1148C47.1568 60.5472 48.4328 59.272 50.0004 59.272C51.568 59.272 52.8432 60.5472 52.8432 62.1148V65.5912H55.5852V62.1148C55.5852 60.5472 56.8604 59.272 58.4284 59.272C59.996 59.272 61.272 60.5472 61.272 62.1148V65.5912H64.0116V62.1148C64.0116 60.5472 65.288 59.272 66.856 59.272C68.4236 59.272 69.6988 60.5472 69.6988 62.1148V65.5128C71.264 65.174 72.4404 63.7804 72.4404 62.1148V56.5304V56.5304ZM73.4928 52.3172H26.5072V54.7404C26.5072 54.916 26.6496 55.0584 26.8248 55.0584H73.1772C73.3508 55.0584 73.4928 54.916 73.4928 54.7404V52.3172ZM71.9128 43.8896H64.2684C63.8616 43.8896 63.5316 43.5588 63.5316 43.1532C63.5316 42.7464 63.8616 42.4164 64.2684 42.4164H71.6924L70.9276 37.3008C70.6488 35.63 69.2072 34.4088 67.4992 34.4088H32.5008C30.7944 34.4088 29.3516 35.63 29.0712 37.312L28.3088 42.4164H33.1456C33.552 42.4164 33.8816 42.7464 33.8816 43.1532C33.8816 43.5588 33.552 43.8896 33.1456 43.8896H28.0888L27.6796 46.6292H72.3224L71.9128 43.8896V43.8896ZM61.322 43.8896H60.3408C59.9336 43.8896 59.604 43.5588 59.604 43.1532C59.604 42.7464 59.9336 42.4164 60.3408 42.4164H61.322C61.7288 42.4164 62.0588 42.7464 62.0588 43.1532C62.0588 43.5588 61.7288 43.8896 61.322 43.8896ZM57.3956 43.8896H53.1608C52.7544 43.8896 52.4244 43.5588 52.4244 43.1532C52.4244 42.7464 52.7544 42.4164 53.1608 42.4164H57.3956C57.8012 42.4164 58.1316 42.7464 58.1316 43.1532C58.1316 43.5588 57.8012 43.8896 57.3956 43.8896ZM31.7748 65.5912H34.5156V62.1148C34.5156 61.358 33.9012 60.744 33.1456 60.744C32.39 60.744 31.7748 61.358 31.7748 62.1148V65.5912ZM40.2024 65.5912H42.9432V62.1148C42.9432 61.358 42.3284 60.744 41.5728 60.744C40.8172 60.744 40.2024 61.358 40.2024 62.1148V65.5912ZM48.6292 65.5912H51.3708V62.1148C51.3708 61.358 50.756 60.744 50.0004 60.744C49.2448 60.744 48.6292 61.358 48.6292 62.1148V65.5912ZM57.0572 65.5912H59.7988V62.1148C59.7988 61.358 59.184 60.744 58.4284 60.744C57.672 60.744 57.0572 61.358 57.0572 62.1148V65.5912V65.5912ZM65.4848 65.5912H68.2256V62.1148C68.2256 61.358 67.612 60.744 66.856 60.744C66.0996 60.744 65.4848 61.358 65.4848 62.1148V65.5912Z" fill="white"/>
</svg>
