<svg width="100" height="100" viewBox="0 0 100 100" fill="none" xmlns="http://www.w3.org/2000/svg">
<path fill-rule="evenodd" clip-rule="evenodd" d="M50 0C77.6144 0 100 22.3856 100 50C100 56.3512 98.8144 62.4248 96.654 68.0136H85.2016C84.5712 68.0136 84.0556 68.5292 84.0556 69.1596C84.0556 69.79 84.5712 70.3056 85.2016 70.3056H95.7016C95.5124 70.7308 95.3172 71.1528 95.1164 71.572H78.9516C78.3212 71.572 77.8056 72.0876 77.8056 72.718C77.8056 73.3484 78.3212 73.864 78.9516 73.864H93.944C93.712 74.2896 93.4748 74.712 93.2308 75.1304H72.7016C72.0712 75.1304 71.5556 75.646 71.5556 76.2764C71.5556 76.9068 72.0712 77.4224 72.7016 77.4224H91.8108C91.5304 77.8488 91.244 78.2712 90.9508 78.6888H66.4516C65.8212 78.6888 65.3056 79.2044 65.3056 79.8348C65.3056 80.4652 65.8212 80.9808 66.4516 80.9808H89.2432C88.9048 81.4084 88.56 81.8308 88.2084 82.2472H60.2016C59.5712 82.2472 59.0556 82.7628 59.0556 83.3928V83.3932C59.0556 84.0236 59.5712 84.5392 60.2016 84.5392H86.1524C77.0488 94.066 64.2176 100 50 100C22.3856 100 0 77.6144 0 50C0 42.7044 1.5636 35.7744 4.3724 29.5252H24.106C24.736 29.5252 25.2516 29.0096 25.2516 28.3792V28.3788C25.2516 27.7488 24.736 27.2332 24.106 27.2332H5.4724C5.6904 26.8072 5.9156 26.3852 6.146 25.9668H30.356C30.986 25.9668 31.5016 25.4512 31.5016 24.8208C31.5016 24.1904 30.986 23.6748 30.356 23.6748H7.4848C7.7492 23.248 8.0204 22.826 8.2976 22.4084H36.606C37.236 22.4084 37.7516 21.8928 37.7516 21.2624C37.7516 20.632 37.236 20.1164 36.606 20.1164H9.9124C10.2316 19.6888 10.5584 19.2668 10.8908 18.85H42.856C43.486 18.85 44.0016 18.3344 44.0016 17.704C44.0016 17.0736 43.486 16.558 42.856 16.558H12.834C13.2204 16.1288 13.6144 15.7068 14.0152 15.2916H49.106C49.736 15.2916 50.2516 14.776 50.2516 14.1456C50.2516 13.5152 49.736 12.9996 49.106 12.9996H16.3752C25.2548 4.924 37.0516 0 50 0ZM54.9448 32.456L56.6212 33.5896C56.7432 33.6724 56.8404 33.7888 56.9008 33.9236L57.6248 35.5612L58.35 33.9236C58.4088 33.7888 58.5064 33.6724 58.6284 33.5896L60.3048 32.456L58.6284 31.3216C58.5064 31.2388 58.4088 31.1232 58.35 30.9884L57.6248 29.35L56.9008 30.9876C56.8404 31.1232 56.7432 31.2388 56.6212 31.3216L54.9448 32.456ZM57.6248 38.296C57.3128 38.296 57.0308 38.112 56.904 37.8264L55.5516 34.768L53.0976 33.1084C52.8804 32.9612 52.7512 32.7172 52.7512 32.456C52.7512 32.194 52.8804 31.95 53.0976 31.8028L55.5516 30.1432L56.904 27.0848C57.0308 26.7992 57.3128 26.6152 57.6248 26.6152C57.936 26.6152 58.2188 26.7992 58.3452 27.0848L59.698 30.1432L62.1528 31.8028C62.3692 31.95 62.4992 32.194 62.4992 32.456C62.4992 32.7172 62.3692 32.9612 62.1528 33.1084L59.698 34.768L58.3452 37.8276C58.2188 38.112 57.936 38.296 57.6248 38.296ZM47.7148 48.428L47.7092 48.4136L47.0552 46.6988L44.3284 39.548C44.1356 39.042 43.5668 38.7872 43.0612 38.98C42.8156 39.0728 42.622 39.2568 42.5144 39.496C42.4068 39.7352 42.3996 40.0028 42.4928 40.2476L43.6192 43.2012L43.6316 43.2332L45.7368 48.754L47.2052 52.6048C47.3596 53.0112 47.156 53.4664 46.7504 53.6208C46.6576 53.6568 46.5628 53.6728 46.4692 53.6728C46.1516 53.6728 45.8532 53.48 45.7332 53.166L45.398 52.2864L45.3904 52.2672L42.1596 43.7944C41.9668 43.2888 41.398 43.0332 40.8924 43.2268C40.6468 43.3208 40.4528 43.5036 40.3456 43.7436C40.238 43.9828 40.23 44.2492 40.3236 44.4952L46.8232 61.538L49.452 68.4352L60.5224 64.214L59.9852 62.806C59.9768 62.7868 59.9692 62.7668 59.9628 62.7468L58.834 59.7872L58.8308 59.7784L58.2344 58.2152C57.9532 57.4776 57.9188 56.6532 58.1372 55.8952L61.6032 43.85C61.7408 43.3724 61.5388 42.86 61.1128 42.6048C60.8336 42.4372 60.5116 42.4008 60.204 42.5028C59.8984 42.6028 59.6608 42.8212 59.536 43.1196C57.9224 46.9744 57.0124 49.1324 57.0124 49.1324C56.8868 49.4288 56.6032 49.6164 56.2728 49.6136C55.9508 49.608 55.6652 49.4068 55.5504 49.1068L50.9432 37.0248C50.8508 36.78 50.6668 36.5856 50.4276 36.4792C50.1892 36.3716 49.9208 36.3636 49.676 36.4572C49.4312 36.5508 49.2368 36.7336 49.1292 36.974C49.022 37.2132 49.0148 37.48 49.1084 37.7244L52.8924 47.6476C53.0468 48.0544 52.8428 48.5088 52.4364 48.6648C52.0308 48.82 51.5748 48.6152 51.4204 48.2088L51.0252 47.1732L51.0172 47.1528L48.9636 41.7672L47.6364 38.2868L47.6244 38.2544L46.3056 34.7952C46.1128 34.2884 45.544 34.0336 45.0372 34.2264C44.5316 34.4204 44.2768 34.9888 44.4696 35.4956L49.1812 47.852L49.1868 47.8676L50 50C50.1548 50.406 49.9508 50.8608 49.5444 51.0164C49.1392 51.1712 48.6836 50.9672 48.528 50.5608L47.7148 48.428ZM45.182 61.656L38.852 45.0568C38.35 43.7384 39.0132 42.2572 40.3308 41.7548C40.656 41.6312 40.9908 41.5784 41.3188 41.5888L41.0212 40.8088C40.5184 39.4912 41.1824 38.0104 42.5 37.508C42.8248 37.384 43.16 37.3312 43.488 37.3416L42.9976 36.056C42.7536 35.4184 42.7736 34.7224 43.0528 34.1C43.3324 33.476 43.8372 32.9984 44.4756 32.7552C45.7924 32.2532 47.2744 32.9164 47.7764 34.2336L48.266 35.5176C48.5076 35.2888 48.7944 35.1076 49.1148 34.9852C49.7536 34.7432 50.4484 34.7612 51.0716 35.0416C51.6948 35.32 52.1724 35.826 52.4152 36.4636L56.3228 46.7104C56.7468 45.6996 57.3408 44.2848 58.0844 42.5108C58.3836 41.796 58.9768 41.2472 59.7128 41.006C60.4512 40.764 61.2556 40.8544 61.9228 41.2536C62.9608 41.8756 63.4508 43.1232 63.1172 44.2856L59.6508 56.3312C59.526 56.7632 59.5456 57.2336 59.7064 57.6548L60.0664 58.5984L60.3824 58.5332L64.724 57.6404C65.136 57.556 65.4888 57.3172 65.7208 56.9664C65.952 56.6152 66.032 56.1956 65.9484 55.7836L63.9952 46.278C63.9068 45.8524 64.1816 45.436 64.6072 45.3476C65.0332 45.2612 65.45 45.5348 65.5368 45.9616L67.4904 55.4668C67.6596 56.2904 67.4984 57.1308 67.0356 57.8324C66.5724 58.5348 65.8636 59.0148 65.0404 59.1844L64.6408 59.2664L64.6428 59.2764C64.992 60.9756 63.8932 62.6432 62.1928 62.9928L61.7748 63.0788L61.994 63.6528L62.1636 63.5884C62.5056 63.4584 62.878 63.4684 63.2128 63.6188C63.5468 63.7688 63.8032 64.0396 63.9332 64.382L65.2916 67.9428C65.4216 68.2848 65.4108 68.6576 65.2616 68.9916C65.1112 69.3264 64.84 69.582 64.4984 69.7124L50.1456 75.1852C49.9872 75.2464 49.8216 75.2752 49.6568 75.2752C49.466 75.2752 49.276 75.2352 49.0968 75.1556C48.762 75.0052 48.506 74.734 48.376 74.392L47.0176 70.8312C46.7492 70.1252 47.104 69.3308 47.8104 69.0616L47.9812 68.9964L46.8908 66.1368L37.0688 68.1556C36.856 68.1992 36.6436 68.22 36.4348 68.22C34.972 68.22 33.6572 67.1928 33.3516 65.7052L28.1892 40.5812C28.0204 39.758 28.182 38.9172 28.6444 38.2148C29.1072 37.5136 29.8156 37.034 30.6392 36.864L31.0396 36.782L31.0376 36.772C30.688 35.0716 31.7872 33.404 33.4876 33.0556L40.1588 31.6844C40.5848 31.598 41.0016 31.8708 41.0888 32.2968C41.176 32.7236 40.9024 33.1392 40.4764 33.2276L33.8044 34.5976C33.3924 34.6832 33.0388 34.9228 32.8076 35.2728C32.5768 35.624 32.496 36.0432 32.5804 36.4556L37.7432 61.5796L37.7516 61.618V61.6192L37.752 61.6208L37.7608 61.656L37.7612 61.6584C37.9656 62.4492 38.7496 62.954 39.56 62.8108H39.5612L39.6 62.8032L45.182 61.656ZM46.322 64.6452L45.7508 63.1472L39.9168 64.3464L39.9068 64.3484L39.8968 64.3504L39.8868 64.3524L39.8784 64.354L39.8768 64.3544L39.8668 64.356L39.8568 64.358L39.8472 64.36L39.8396 64.3612L39.8372 64.3616L39.8272 64.3632L39.8172 64.3652L39.7972 64.3684L39.7872 64.37L39.7772 64.3716C38.9992 64.496 38.2128 64.3272 37.5504 63.8908C36.9092 63.4684 36.4532 62.84 36.2504 62.1068L36.2484 62.1L36.232 62.0368L36.2304 62.0308L36.2164 61.9732L36.2148 61.9656L36.2128 61.9584L36.1996 61.8964L31.3564 38.3248L30.9564 38.4068C30.5452 38.4916 30.1912 38.7316 29.9604 39.082C29.7284 39.4328 29.6476 39.8528 29.7328 40.2648L34.8948 65.388C35.0684 66.2376 35.9004 66.7872 36.7524 66.6128L46.322 64.6452ZM60.6352 60.09L61.2064 61.588L61.8764 61.4504C62.2872 61.3648 62.6412 61.126 62.8724 60.7748C63.1036 60.4244 63.1844 60.004 63.1 59.5928C63.0988 59.5868 61.6336 59.8856 60.6352 60.09ZM61.8336 65.4004L61.8188 65.4064L57.786 66.9436L48.5624 70.46L49.7752 73.6408L63.7468 68.3128L62.534 65.1332L61.8336 65.4004Z" fill="white"/>
</svg>
