<svg width="100" height="100" viewBox="0 0 100 100" fill="none" xmlns="http://www.w3.org/2000/svg">
<path fill-rule="evenodd" clip-rule="evenodd" d="M49.0441 99.8705C21.8764 99.3895 0 77.2242 0 49.9419C0 42.6544 1.56186 35.7321 4.36753 29.4899H24.0791C24.7084 29.4899 25.2234 28.9749 25.2234 28.3452V28.3448C25.2234 27.7155 24.7084 27.2004 24.0791 27.2004H5.4663C5.68406 26.7749 5.90901 26.3534 6.13915 25.9355H30.3222C30.9515 25.9355 31.4665 25.4204 31.4665 24.7907C31.4665 24.161 30.9515 23.646 30.3222 23.646H7.47646C7.74056 23.2197 8.01146 22.7982 8.28835 22.381H36.5652C37.1945 22.381 37.7095 21.866 37.7095 21.2363C37.7095 20.6066 37.1945 20.0916 36.5652 20.0916H9.90135C10.2202 19.6645 10.5466 19.2429 10.8787 18.8266H42.8082C43.4375 18.8266 43.9525 18.3116 43.9525 17.6819C43.9525 17.0522 43.4375 16.5371 42.8082 16.5371H12.8197C13.2057 16.1084 13.5992 15.6869 13.9996 15.2722H49.0513C49.2131 15.2722 49.3673 15.2382 49.5071 15.1767V15.2214C49.9694 15.074 50.3071 14.6397 50.3071 14.1298C50.3071 13.62 49.9694 13.1857 49.5071 13.0382V13.0782C49.3893 13.0263 49.261 12.9939 49.1264 12.9851H49.0441V12.9827H16.3569C25.1268 5.00721 36.745 0.109478 49.5071 0V0.00319712L50.0557 0C77.6394 0 100 22.3606 100 49.9443C100 56.2884 98.8157 62.3552 96.6577 67.9378H85.2181C84.5884 67.9378 84.0734 68.4528 84.0734 69.0825C84.0734 69.7122 84.5884 70.2272 85.2181 70.2272H95.7064C95.5174 70.6519 95.3224 71.0735 95.1218 71.4922H78.9751C78.3454 71.4922 77.8303 72.0072 77.8303 72.6369C77.8303 73.2666 78.3454 73.7817 78.9751 73.7817H93.9508C93.719 74.2068 93.4821 74.6287 93.2383 75.0466H72.732C72.1023 75.0466 71.5873 75.5617 71.5873 76.1914C71.5873 76.8211 72.1023 77.3361 72.732 77.3361H91.8199C91.5398 77.762 91.2538 78.1839 90.9609 78.6011H66.489C65.8593 78.6011 65.3443 79.1161 65.3443 79.7458C65.3443 80.3755 65.8593 80.8905 66.489 80.8905H89.2552C88.9172 81.3176 88.5727 81.7396 88.2215 82.1555H60.246C59.6163 82.1555 59.1012 82.6705 59.1012 83.2998V83.3002C59.1012 83.9299 59.6163 84.445 60.246 84.445H86.1678C77.0744 93.9611 64.2575 99.8885 50.0557 99.8885C49.7173 99.8885 49.3809 99.8825 49.0441 99.8757V99.8705ZM49.5071 31.4305V32.7379C49.9371 32.7211 50.3674 32.7119 50.7981 32.7103C58.2969 32.7371 65.6555 35.118 72.7716 37.4214C73.4532 37.6424 74.1337 37.8625 74.8129 38.0799C75.1593 38.191 75.805 38.3975 76.2857 39.0324C76.7543 39.6505 76.8195 40.3701 76.8582 40.8001L76.897 41.2272H72.7464C72.2658 41.2272 71.8758 41.6168 71.8758 42.0978C71.8758 42.5785 72.2658 42.9688 72.7464 42.9688H77.0544L78.2758 56.4626H73.6438C73.1628 56.4626 72.7728 56.853 72.7728 57.334C72.7728 57.8147 73.1628 58.205 73.6438 58.205H78.2706C78.2351 58.3728 78.1843 58.5435 78.1128 58.7149C77.8495 59.3466 77.388 59.715 77.0892 59.9535C77.046 59.9878 77.0029 60.023 76.9605 60.0606C71.1985 65.3267 62.219 72.3273 50.8081 72.3273C50.371 72.3273 49.9375 72.3165 49.5071 72.2961V73.6043C49.9371 73.6238 50.3706 73.6338 50.8081 73.6338C62.6733 73.6338 71.9193 66.4379 77.8407 61.0259C77.8583 61.0103 77.8775 60.9959 77.9278 60.9564C78.2519 60.6975 78.9263 60.1581 79.3183 59.2179C79.4637 58.8707 79.5488 58.5275 79.5964 58.205H82.5099C87.1907 58.205 90.9988 54.3969 90.9988 49.7157C90.9988 45.0345 87.1907 41.2272 82.5099 41.2272H78.2087L78.1596 40.6818C78.1144 40.188 78.0213 39.1595 77.3269 38.2433C76.5977 37.2796 75.626 36.9687 75.2109 36.8357C74.534 36.6191 73.8548 36.399 73.1735 36.1784C65.9624 33.845 58.5051 31.4309 50.7981 31.4037C50.367 31.4053 49.9367 31.4145 49.5071 31.4305ZM49.0441 37.8785C48.3704 37.5877 47.6077 37.5872 46.9332 37.8821C46.7834 37.9476 46.6415 38.0264 46.5085 38.1167L44.1543 35.7669C43.6777 35.2902 43.0432 35.0285 42.3679 35.0285C41.6927 35.0293 41.0594 35.2926 40.5831 35.7701C40.4185 35.9347 40.2643 36.1185 40.128 36.3159L38.9441 33.9241C38.6453 33.3188 38.1282 32.8669 37.489 32.6512C36.8505 32.4358 36.1656 32.4813 35.5607 32.7802C35.2151 32.9512 34.9194 33.193 34.6889 33.4882L34.0037 32.103C33.7036 31.4984 33.1874 31.0466 32.5485 30.8312C31.9084 30.6146 31.2244 30.6606 30.6198 30.9598C30.0161 31.2587 29.5634 31.7757 29.348 32.415C29.1315 33.0535 29.1766 33.7383 29.4767 34.3429L30.1631 35.7301C29.7947 35.7333 29.4216 35.8176 29.0696 35.9914C28.4658 36.2903 28.0131 36.8073 27.7966 37.4458C27.5804 38.0859 27.6268 38.7707 27.9256 39.3753L28.3663 40.2659C27.998 40.2695 27.6252 40.3534 27.2732 40.5272C26.0262 41.1453 25.5123 42.6632 26.1308 43.9102L34.4044 60.6335L37.793 67.4835L37.5453 67.6061C36.8968 67.9274 36.6299 68.7161 36.9512 69.3638L38.68 72.8583C38.8355 73.1723 39.1044 73.4073 39.4356 73.5187C39.5738 73.5659 39.7157 73.5891 39.8567 73.5891C40.0569 73.5891 40.2543 73.5431 40.4385 73.452L49.0441 69.194V67.5982L39.9091 72.1179L38.2853 68.8352L39.056 68.4536L39.068 68.448L49.0441 63.5115V61.9157L39.0748 66.8486L35.6862 60.0002L27.411 43.2769C27.1433 42.7351 27.3667 42.0766 27.9077 41.8093C28.4487 41.5408 29.1075 41.7638 29.3752 42.3048L33.489 50.6187L33.4978 50.6355L33.9257 51.5005C34.0496 51.7526 34.3033 51.8989 34.567 51.8989C34.6737 51.8989 34.7808 51.8745 34.8831 51.8246C35.2375 51.6492 35.3829 51.2204 35.2071 50.8664L29.2074 38.7412C29.0779 38.4783 29.0572 38.1818 29.1523 37.9041C29.2454 37.6268 29.4411 37.4031 29.7048 37.2732C30.2438 37.0059 30.9031 37.2281 31.1716 37.7687L32.3787 40.2079L35.4764 46.4689L35.4848 46.4861L36.5184 48.5754C36.6926 48.9294 37.1206 49.074 37.4766 48.899C37.8302 48.7248 37.9744 48.2953 37.7994 47.9417L36.771 45.8632L36.7582 45.8356L30.7577 33.7092C30.6286 33.4471 30.6082 33.1502 30.7025 32.8729C30.7956 32.5952 30.9914 32.3715 31.2547 32.2416C31.5168 32.113 31.8133 32.0922 32.0906 32.1857C32.3675 32.2788 32.592 32.4758 32.7219 32.7371L38.7212 44.8635L38.7304 44.8819L39.2342 45.9C39.41 46.2544 39.8379 46.397 40.1919 46.2228C40.5455 46.0486 40.6902 45.6195 40.5152 45.2659L35.6986 35.5287C35.5687 35.267 35.5487 34.9698 35.6422 34.6933C35.7365 34.4156 35.9331 34.1918 36.1948 34.0612C36.4557 33.9325 36.7538 33.9118 37.0315 34.0048C37.3092 34.0991 37.5329 34.2949 37.6616 34.5574L39.7213 38.7196C39.7349 38.7492 39.7492 38.7779 39.7644 38.8071L43.5282 46.4122C43.6569 46.6739 43.933 46.8273 44.2234 46.8086C44.5151 46.7854 44.7628 46.588 44.8507 46.3095C44.8507 46.3095 45.5683 44.0233 46.8365 39.9402C46.8781 39.8092 46.9384 39.6885 47.0163 39.5822C47.0371 39.5595 47.0563 39.5351 47.0739 39.5103C47.1897 39.3753 47.3356 39.267 47.5058 39.1927C47.8302 39.0504 48.197 39.0572 48.5175 39.209C48.744 39.3169 48.9246 39.4883 49.0441 39.6945V37.8785ZM49.0497 61.9133C49.6362 61.9441 50.2255 61.9616 50.8161 61.9636C56.9476 61.9449 62.8922 60.2519 68.6414 58.6154C68.9878 58.5171 69.1892 58.1551 69.0905 57.8083C68.9914 57.4611 68.6298 57.2605 68.2834 57.3588C62.6197 58.971 56.7635 60.6387 50.8161 60.6571C50.379 60.6555 49.9431 60.6451 49.5071 60.6267V61.6868L49.0497 61.9133ZM49.0441 59.2627V56.0375L48.4284 54.7928C48.2146 54.3625 48.1467 53.8651 48.2342 53.3936L49.0441 49.068V42.0203C49.6286 41.9955 50.214 41.9815 50.8005 41.9799C56.7846 41.9947 62.6501 43.2861 68.3221 44.5351C68.3693 44.5463 68.4164 44.5511 68.4632 44.5511C68.7633 44.5511 69.0334 44.3437 69.1005 44.0381C69.178 43.686 68.9554 43.3376 68.6034 43.2601C62.8634 41.9959 56.9285 40.6886 50.8005 40.6734C50.2503 40.675 49.7009 40.6866 49.1535 40.7082L48.8974 42.0766L48.8942 42.0938L46.8293 53.1303C46.6839 53.9034 46.7962 54.7193 47.1466 55.4265L49.0441 59.2627ZM49.5071 51.1353C57.2901 51.097 65.3754 51.4022 68.3221 52.0515C68.6738 52.1294 69.0226 51.9069 69.1005 51.5545C69.178 51.2021 68.9554 50.8536 68.6034 50.7757C65.5233 50.0973 57.3672 49.778 49.5071 49.8176V51.1353ZM78.3665 42.9688L79.5876 56.4626H82.5099C86.2302 56.4626 89.2568 53.436 89.2568 49.7157C89.2568 45.9955 86.2302 42.9688 82.5099 42.9688H78.3665ZM45.5851 39.2146L43.1442 36.7786C42.7171 36.3522 42.0207 36.3518 41.5948 36.7802C41.1501 37.2249 40.894 37.8258 41.0186 38.1163L41.0386 38.157L41.0478 38.175L44.0189 44.1795C44.3565 43.1003 44.8471 41.5261 45.4705 39.5163C45.5028 39.4128 45.5412 39.3125 45.5851 39.2146Z" fill="white"/>
</svg>
