<svg width="100" height="100" viewBox="0 0 100 100" fill="none" xmlns="http://www.w3.org/2000/svg">
<path fill-rule="evenodd" clip-rule="evenodd" d="M50 0C77.6144 0 100 22.3856 100 50C100 56.3512 98.8144 62.4248 96.654 68.0136H85.2016C84.5712 68.0136 84.0556 68.5292 84.0556 69.1596C84.0556 69.79 84.5712 70.3056 85.2016 70.3056H95.7016C95.5124 70.7308 95.3172 71.1528 95.1164 71.572H78.9516C78.3212 71.572 77.8056 72.0876 77.8056 72.718C77.8056 73.3484 78.3212 73.864 78.9516 73.864H93.944C93.712 74.2896 93.4748 74.712 93.2308 75.1304H72.7016C72.0712 75.1304 71.5556 75.646 71.5556 76.2764C71.5556 76.9068 72.0712 77.4224 72.7016 77.4224H91.8108C91.5304 77.8488 91.244 78.2712 90.9508 78.6888H66.4516C65.8212 78.6888 65.3056 79.2044 65.3056 79.8348C65.3056 80.4652 65.8212 80.9808 66.4516 80.9808H89.2432C88.9048 81.4084 88.56 81.8308 88.2084 82.2472H60.2016C59.5712 82.2472 59.0556 82.7628 59.0556 83.3928V83.3932C59.0556 84.0236 59.5712 84.5392 60.2016 84.5392H86.1524C77.0488 94.066 64.2176 100 50 100C22.3856 100 0 77.6144 0 50C0 42.7044 1.5636 35.7744 4.3724 29.5252H24.106C24.736 29.5252 25.2516 29.0096 25.2516 28.3792V28.3788C25.2516 27.7488 24.736 27.2332 24.106 27.2332H5.4724C5.6904 26.8072 5.9156 26.3852 6.146 25.9668H30.356C30.986 25.9668 31.5016 25.4512 31.5016 24.8208C31.5016 24.1904 30.986 23.6748 30.356 23.6748H7.4848C7.7492 23.248 8.0204 22.826 8.2976 22.4084H36.606C37.236 22.4084 37.7516 21.8928 37.7516 21.2624C37.7516 20.632 37.236 20.1164 36.606 20.1164H9.9124C10.2316 19.6888 10.5584 19.2668 10.8908 18.85H42.856C43.486 18.85 44.0016 18.3344 44.0016 17.704C44.0016 17.0736 43.486 16.558 42.856 16.558H12.834C13.2204 16.1288 13.6144 15.7068 14.0152 15.2916H49.106C49.736 15.2916 50.2516 14.776 50.2516 14.1456C50.2516 13.5152 49.736 12.9996 49.106 12.9996H16.3752C25.2548 4.924 37.0516 0 50 0ZM43.1388 40.3884C42.526 40.3568 42.0216 40.3436 41.4748 40.806C40.5348 41.6012 40.5636 43.006 41.4616 43.7524C41.9652 44.1712 42.3408 44.2252 43.1372 44.1812C43.3508 44.7396 43.6136 45.0604 44.0856 45.3132C45.616 46.1344 47.4284 44.6124 46.782 42.8996C46.7348 42.7748 46.6424 42.634 46.6176 42.5396C47.2208 42.522 47.8028 43.1684 48.052 43.3064L48.0528 41.2628C47.8184 41.3856 47.2768 42.0152 46.6212 42.0292C46.6624 41.8964 46.7384 41.784 46.7868 41.6528C47.4108 39.9744 45.6476 38.4448 44.1028 39.2516C43.6368 39.4952 43.3508 39.8168 43.1388 40.3884ZM44.1876 41.22C44.0468 41.3312 43.8188 41.4356 43.6612 41.5292C43.2408 41.7788 43.4908 41.6452 43.0956 41.5528C42.6104 41.4388 42.1844 41.826 42.178 42.2728C42.1716 42.7208 42.5848 43.124 43.078 43.0228C43.4876 42.9384 43.2212 42.7924 43.6448 43.032C43.7772 43.1068 44.0832 43.2656 44.1768 43.3512C44.2072 44.2228 44.946 44.34 45.3524 44.0684C45.5344 43.9464 45.7248 43.6872 45.6748 43.3332C45.654 43.186 45.584 43.0496 45.5076 42.9664C45.3928 42.84 45.358 42.8344 45.2 42.7348L45.1936 41.8364C45.9444 41.4368 45.734 40.7568 45.3732 40.508C45.0348 40.2744 44.2448 40.2708 44.1876 41.22ZM52.758 42.028C52.1392 42.032 51.52 41.358 51.334 41.2684L51.3324 43.302C51.5196 43.2088 52.174 42.5168 52.7648 42.5384C52.6676 42.7168 52.5744 42.8288 52.4976 43.0744C52.4256 43.3048 52.4008 43.5572 52.4224 43.8128C52.4632 44.3108 52.702 44.7008 52.9524 44.9188C53.6376 45.5156 54.5204 45.6588 55.3816 45.0608C56.21 44.4852 57.4448 43.5928 58.2624 42.9856L58.9788 42.4696C59.0916 42.39 59.1748 42.356 59.2212 42.266C59.0672 42.1796 56.6772 40.41 56.3864 40.2008C56.0696 39.9732 55.7596 39.7168 55.4352 39.5084C54.6396 38.9972 53.6728 38.9828 53.0044 39.6008C52.5084 40.0592 52.316 40.7376 52.496 41.448C52.5684 41.7328 52.6552 41.8164 52.758 42.028ZM54.3104 41.9148L54.314 42.6584C53.1992 42.9188 53.532 44.1136 54.2668 44.192C54.6208 44.2296 54.7852 44.0672 54.99 43.924L56.6968 42.7032C56.83 42.6056 57.2088 42.37 57.2676 42.2688C57.118 42.1888 55.2152 40.8048 54.9896 40.6472C54.796 40.5116 54.6264 40.3476 54.2896 40.3772C54.0064 40.4024 53.798 40.5812 53.698 40.7572C53.5644 40.9924 53.5568 41.2904 53.6988 41.526C53.8508 41.7788 53.9788 41.8204 54.3104 41.9148ZM49.6932 40.9776C49.762 40.9368 51.0008 39.1512 51.1532 38.9308C51.3968 38.58 51.6404 38.2484 51.8848 37.8904C52.0072 37.7116 52.12 37.5516 52.2436 37.3764C52.3708 37.1964 52.4904 37.0464 52.602 36.836C53.3564 35.4152 52.3444 33.5812 50.7828 33.9364C50.1412 34.0824 50.038 34.3092 49.6932 34.6204C49.4708 34.4548 49.3368 34.1084 48.63 33.9416C48.1096 33.8188 47.5432 33.9888 47.2312 34.2384C46.5912 34.7492 46.3064 35.8932 46.7884 36.8332C46.8768 37.0056 49.536 40.8 49.6932 40.9776ZM50.0648 35.9164L49.3228 35.9192C49.2512 35.608 49.1768 35.4608 48.9664 35.322C48.498 35.0128 47.8512 35.3084 47.7888 35.8784C47.7516 36.218 47.9232 36.3992 48.0568 36.5912C48.1608 36.7408 49.5948 38.7696 49.6932 38.8636L49.8032 38.736L51.3336 36.5952C51.4692 36.4036 51.636 36.2188 51.6024 35.8776C51.5296 35.144 50.3452 34.782 50.0648 35.9164ZM46.4076 47.6908C46.4736 47.7636 47.1584 48.3692 47.3656 48.5808C48.2408 49.4752 48.9168 50.4116 49.5148 51.516C49.6168 51.7044 49.6316 51.7696 49.6932 51.8244C49.7992 51.6744 49.9216 51.3992 50.0192 51.2264C50.4832 50.408 50.9624 49.7624 51.558 49.068C51.9056 48.6624 52.4348 48.1576 52.8404 47.8088C52.9008 47.7568 52.914 47.7676 52.9712 47.6908L52.4928 47.2532C51.5108 46.3208 51.1644 45.9148 50.3788 44.7456C50.1348 44.3828 49.8048 43.7112 49.6932 43.5556L49.6568 43.5964C49.654 43.6004 49.6488 43.6072 49.646 43.6116C49.5588 43.7436 49.2276 44.3888 49.012 44.724C48.7604 45.1156 48.516 45.4592 48.2412 45.8028C47.8608 46.2784 47.3576 46.8252 46.9092 47.2428C46.7736 47.3692 46.5136 47.5568 46.4076 47.6908ZM48.2144 47.6908C48.2772 47.7856 48.3408 47.82 48.4084 47.8972C48.7944 48.342 48.9712 48.5416 49.3404 49.046C49.4324 49.1716 49.5976 49.4608 49.6932 49.534C49.884 49.3192 50.3052 48.608 50.7564 48.1384L51.1604 47.6908L50.3992 46.8048C50.2312 46.5976 49.7324 45.8816 49.6932 45.84L49.6652 45.8644C49.6628 45.8672 49.6556 45.874 49.6524 45.8776C49.6492 45.8812 49.6436 45.8876 49.6404 45.8912C49.544 46.0092 49.1888 46.5388 48.9816 46.7996L48.2144 47.6908ZM50 31.0156C56.472 31.0156 61.7188 36.3176 61.7188 42.858C61.7188 49.3984 56.472 54.7008 50 54.7008C43.528 54.7008 38.2812 49.3984 38.2812 42.858C38.2812 36.3176 43.528 31.0156 50 31.0156ZM50 32.4588C55.6832 32.4588 60.2904 37.1148 60.2904 42.858C60.2904 48.6012 55.6832 53.2572 50 53.2572C44.3168 53.2572 39.7096 48.6012 39.7096 42.858C39.7096 37.1148 44.3168 32.4588 50 32.4588ZM71.9968 65.6776C71.4752 66.0268 69.9632 67.6836 69.3352 68.104C68.7844 67.2812 66.5116 66.7732 65.03 66.7732H34.2656C33.472 66.7732 32.7044 66.8884 32.106 67.1188C30.8188 67.6148 30.9572 67.984 30.508 68.104L28.0216 65.6588C28.958 63.808 29.0572 61.2592 28.0812 59.4148L30.5676 56.9696C31.1908 57.3928 31.458 57.6384 32.2588 57.8992C32.8984 58.108 33.6868 58.2408 34.5004 58.2408H65.1084C66.3092 58.2408 67.6048 58.0044 68.55 57.4556C68.8496 57.2816 69.0892 57.0816 69.4136 56.91C69.6228 57.2224 70.2652 57.7224 70.6856 58.1428C70.9132 58.3708 71.0636 58.5532 71.3252 58.7556C71.6044 58.9712 71.7516 59.1724 71.9968 59.3368C70.9384 61.5424 70.8476 63.5056 71.9968 65.6776ZM69.4828 56.0488H69.5304L72.7016 59.2584C72.542 59.9428 71.2428 61.866 72.1312 64.3688L72.7016 65.834C72.5108 66.1184 72.3288 66.2216 72.1216 66.4284C72.1104 66.4396 72.0944 66.4564 72.0832 66.4684C71.5464 67.0288 69.8848 68.8392 69.4136 68.9652C68.2764 68.2036 67.442 67.3996 65.578 67.3996H34.422C33.5568 67.3996 32.7552 67.6496 32.1276 67.9232C31.3468 68.2644 30.9852 68.832 30.4104 68.9844L27.2988 65.834C27.5168 64.896 28.6872 63.4508 27.876 60.7164C27.7156 60.176 27.4016 59.5872 27.2988 59.2972V59.2204L30.43 56.0488C31.4592 56.5936 32.4004 57.4364 33.4408 57.5972L65.1084 57.6928C66.1472 57.6928 66.9232 57.5212 67.6704 57.202C68.4564 56.8664 68.8376 56.4908 69.4828 56.0488ZM31.4288 61.5188L31.9968 61.5196C32.0528 61.6724 32.016 63.1796 32.0172 63.4728L31.4384 63.474L31.4276 64.2612L33.4272 64.2664L33.432 63.4928L33.0124 63.4716L33.0012 61.5672C33.0092 61.5724 33.0168 61.5728 33.0196 61.5828L33.0744 61.6444L33.2264 61.9028C33.5836 62.4892 34.3308 63.81 34.6412 64.2632L35.416 64.2668C35.6356 63.9972 36.932 61.6472 37.0568 61.56L37.058 63.468L36.6372 63.4748L36.6356 64.266L38.6364 64.2652L38.6368 63.4792L38.0536 63.4728L38.0484 61.5224L38.6368 61.5184V60.7324L36.4756 60.728C36.3844 60.7476 35.808 61.7644 35.75 61.8588C35.622 62.0676 35.1372 62.8948 35.038 63.0196L34.9872 62.9676C34.9628 62.9368 34.96 62.9248 34.9376 62.8884C34.9056 62.834 34.8844 62.7996 34.8508 62.7452L34.3256 61.8832C34.2112 61.696 33.6936 60.8572 33.6344 60.73L31.432 60.728L31.4288 61.5188ZM56.0116 61.5144L56.5884 61.5208L56.6008 63.4712L56.0132 63.4804V64.2648L58.1616 64.2668L58.1744 63.4808L57.5884 63.4776L57.5836 61.5268L58.162 61.5188L58.1744 60.7316L56.0132 60.728L56.0116 61.5144ZM64.2884 61.5196H64.8576C64.894 61.6428 64.8844 63.2548 64.8688 63.476L64.2852 63.4808L64.2856 64.2632L68.56 64.2668L68.5724 62.6948L67.5976 62.6924L67.5852 63.4708L65.8696 63.4792C65.8488 63.2512 65.8368 61.652 65.884 61.5192H66.4504L66.4492 60.7296L64.2928 60.728L64.2884 61.5196ZM39.026 61.5196H39.5948C39.642 61.6704 39.6124 62.468 39.6124 62.686C39.6112 64.1416 40.0976 64.3112 41.6108 64.3112C43.1324 64.3112 43.6328 64.1484 43.6316 62.712C43.6316 62.4932 43.5996 61.666 43.6508 61.5204L44.218 61.5196L44.2176 60.7272L42.0576 60.728L42.054 61.5192L42.6248 61.5196C42.6688 61.6536 42.6532 62.7976 42.6308 62.9908C42.5672 63.5424 42.168 63.4788 41.6368 63.4788C41.1108 63.4788 40.6876 63.5476 40.6156 63.0144C40.59 62.822 40.5736 61.6528 40.6204 61.5196L41.1852 61.5192L41.1844 60.7296L39.0296 60.728L39.026 61.5196ZM58.9584 63.4712L58.564 63.4828L58.5644 64.2612L59.7328 64.2676C59.8412 64.124 59.9208 63.8672 60.0244 63.7496L62.4416 63.7488C62.5436 63.9064 62.622 64.116 62.7228 64.2664L63.8864 64.266L63.8988 63.484L63.5056 63.4784C63.2716 63.0308 62.9876 62.5684 62.7296 62.1072C62.6204 61.912 62.0288 60.7944 61.9196 60.728H60.5004C60.4304 60.8944 59.07 63.2788 58.9584 63.4712ZM60.4052 62.9992L62.0456 63.004C61.9436 62.7372 61.7748 62.478 61.6468 62.216C61.5848 62.0904 61.5092 61.9496 61.4432 61.8264L61.226 61.4476L60.4052 62.9992ZM44.6052 61.5172L45.186 61.5208L45.1952 63.4676C45.0128 63.49 44.764 63.438 44.6048 63.4944V64.2584L46.6576 64.2668L46.6688 63.4828L46.1884 63.4728L46.1796 61.5556C46.2752 61.6184 47.376 63.2528 47.6148 63.588C47.7712 63.8084 47.9252 64.0632 48.0904 64.2652L49.7324 64.2664C49.7968 63.7532 49.6564 61.7984 49.7604 61.5204L50.3292 61.5196L50.3288 60.7264L48.2228 60.728L48.2196 61.5208L48.7348 61.5196C48.7848 61.6944 48.754 63.1424 48.7492 63.4336C48.6444 63.3628 47.944 62.2988 47.798 62.0956C47.654 61.8956 46.9428 60.8816 46.8588 60.7284L44.608 60.728L44.6052 61.5172ZM50.7152 61.5208H51.2972L51.3048 63.4664C51.1208 63.4932 50.8752 63.4328 50.7156 63.4964V64.2572C50.9244 64.2964 53.5928 64.2692 54.0376 64.2668C55.4604 64.2604 55.6608 63.9292 55.662 62.5324C55.6628 61.1372 55.5308 60.7528 54.0884 60.7284C52.968 60.7092 51.8392 60.742 50.718 60.7268L50.7152 61.5208ZM52.2884 63.4724L53.8828 63.4748C54.6876 63.4744 54.672 63.0216 54.672 62.3784C54.672 61.7788 54.5144 61.5344 53.9096 61.5196C53.4072 61.508 52.7836 61.4968 52.2876 61.5236L52.2884 63.4724Z" fill="white"/>
</svg>
