<svg width="100" height="100" viewBox="0 0 100 100" fill="none" xmlns="http://www.w3.org/2000/svg">
<path fill-rule="evenodd" clip-rule="evenodd" d="M49.9999 2.28882e-05C77.6143 2.28882e-05 99.9999 22.3856 99.9999 50C99.9999 56.3512 98.8143 62.4248 96.6539 68.0136H85.2015C84.5711 68.0136 84.0555 68.5292 84.0555 69.1596C84.0555 69.79 84.5711 70.3056 85.2015 70.3056H95.7015C95.5123 70.7308 95.3171 71.1528 95.1163 71.572H78.9515C78.3211 71.572 77.8055 72.0876 77.8055 72.718C77.8055 73.3484 78.3211 73.864 78.9515 73.864H93.9439C93.7119 74.2896 93.4747 74.712 93.2307 75.1304H72.7015C72.0711 75.1304 71.5555 75.646 71.5555 76.2764C71.5555 76.9068 72.0711 77.4224 72.7015 77.4224H91.8107C91.5303 77.8488 91.2439 78.2712 90.9507 78.6888H66.4515C65.8211 78.6888 65.3055 79.2044 65.3055 79.8348C65.3055 80.4652 65.8211 80.9808 66.4515 80.9808H89.2431C88.9047 81.4084 88.5599 81.8308 88.2083 82.2472H60.2015C59.5711 82.2472 59.0555 82.7628 59.0555 83.3928C59.0555 84.0232 59.5711 84.5392 60.2015 84.5392H86.1523C77.0487 94.066 64.2175 100 49.9999 100C22.3855 100 -7.05719e-05 77.6144 -7.05719e-05 50C-7.05719e-05 42.7044 1.56353 35.7744 4.37233 29.5252H24.1059C24.7359 29.5252 25.2515 29.0096 25.2515 28.3792C25.2515 27.7492 24.7359 27.2332 24.1059 27.2332H5.47233C5.69033 26.8072 5.91553 26.3852 6.14593 25.9668H30.3559C30.9859 25.9668 31.5015 25.4512 31.5015 24.8208C31.5015 24.1904 30.9859 23.6748 30.3559 23.6748H7.48473C7.74913 23.248 8.02033 22.826 8.29753 22.4084H36.6059C37.2359 22.4084 37.7515 21.8928 37.7515 21.2624C37.7515 20.632 37.2359 20.1164 36.6059 20.1164H9.91233C10.2315 19.6888 10.5583 19.2668 10.8907 18.85H42.8559C43.4859 18.85 44.0015 18.3344 44.0015 17.704C44.0015 17.0736 43.4859 16.558 42.8559 16.558H12.8339C13.2203 16.1288 13.6143 15.7068 14.0151 15.2916H49.1059C49.7359 15.2916 50.2515 14.776 50.2515 14.1456C50.2515 13.5152 49.7359 12.9996 49.1059 12.9996H16.3751C25.2547 4.92402 37.0515 2.28882e-05 49.9999 2.28882e-05Z" fill="white"/>
<path d="M63 34H37C35.8954 34 35 34.8954 35 36V68C35 69.1046 35.8954 70 37 70H63C64.1046 70 65 69.1046 65 68V36C65 34.8954 64.1046 34 63 34Z" stroke="#0C7149" stroke-width="4" stroke-linejoin="round"/>
<path d="M44 30V36" stroke="#0C7149" stroke-width="4" stroke-linecap="round" stroke-linejoin="round"/>
<path d="M56 30V36" stroke="#0C7149" stroke-width="4" stroke-linecap="round" stroke-linejoin="round"/>
<path d="M42 45H58" stroke="#0C7149" stroke-width="4" stroke-linecap="round" stroke-linejoin="round"/>
<path d="M42 53H54" stroke="#0C7149" stroke-width="4" stroke-linecap="round" stroke-linejoin="round"/>
<path d="M42 61H50" stroke="#0C7149" stroke-width="4" stroke-linecap="round" stroke-linejoin="round"/>
</svg>
