<svg width="100" height="100" viewBox="0 0 100 100" fill="none" xmlns="http://www.w3.org/2000/svg">
<path fill-rule="evenodd" clip-rule="evenodd" d="M50 0C77.6144 0 100 22.3856 100 50C100 56.3512 98.8144 62.4248 96.654 68.0136H85.2016C84.5712 68.0136 84.0556 68.5292 84.0556 69.1596C84.0556 69.79 84.5712 70.3056 85.2016 70.3056H95.7016C95.5124 70.7308 95.3172 71.1528 95.1164 71.572H78.9516C78.3212 71.572 77.8056 72.0876 77.8056 72.718C77.8056 73.3484 78.3212 73.864 78.9516 73.864H93.944C93.712 74.2896 93.4748 74.712 93.2308 75.1304H72.7016C72.0712 75.1304 71.5556 75.646 71.5556 76.2764C71.5556 76.9068 72.0712 77.4224 72.7016 77.4224H91.8108C91.5304 77.8488 91.244 78.2712 90.9508 78.6888H66.4516C65.8212 78.6888 65.3056 79.2044 65.3056 79.8348C65.3056 80.4652 65.8212 80.9808 66.4516 80.9808H89.2432C88.9048 81.4084 88.56 81.8308 88.2084 82.2472H60.2016C59.5712 82.2472 59.0556 82.7628 59.0556 83.3928V83.3932C59.0556 84.0236 59.5712 84.5392 60.2016 84.5392H86.1524C77.0488 94.066 64.2176 100 50 100C22.3856 100 0 77.6144 0 50C0 42.7044 1.5636 35.7744 4.3724 29.5252H24.106C24.736 29.5252 25.2516 29.0096 25.2516 28.3792V28.3788C25.2516 27.7488 24.736 27.2332 24.106 27.2332H5.4724C5.6904 26.8072 5.9156 26.3852 6.146 25.9668H30.356C30.986 25.9668 31.5016 25.4512 31.5016 24.8208C31.5016 24.1904 30.986 23.6748 30.356 23.6748H7.4848C7.7492 23.248 8.0204 22.826 8.2976 22.4084H36.606C37.236 22.4084 37.7516 21.8928 37.7516 21.2624C37.7516 20.632 37.236 20.1164 36.606 20.1164H9.9124C10.2316 19.6888 10.5584 19.2668 10.8908 18.85H42.856C43.486 18.85 44.0016 18.3344 44.0016 17.704C44.0016 17.0736 43.486 16.558 42.856 16.558H12.834C13.2204 16.1288 13.6144 15.7068 14.0152 15.2916H49.106C49.736 15.2916 50.2516 14.776 50.2516 14.1456C50.2516 13.5152 49.736 12.9996 49.106 12.9996H16.3752C25.2548 4.924 37.0516 0 50 0ZM36.1664 69.8704C36.3564 69.988 36.4696 70.1624 36.1664 69.8704V69.8704ZM77.6016 65.9572C69.4744 66.7068 61.3484 67.4572 53.2216 68.2076C48.442 68.6488 43.662 69.09 38.8816 69.5316C38.1708 69.5968 36.788 69.4652 36.0348 69.7396C36.0268 69.7328 36.0208 69.7264 36.0128 69.7184C35.3716 69.068 34.548 68.5272 33.838 67.9516C31.3704 65.9524 28.8996 63.956 26.4064 61.9888C25.1304 60.9828 23.5504 59.2468 21.9612 58.738C20.7232 58.3432 20.1936 60.2876 21.4252 60.6808C22.3692 60.9828 24.5792 63.0924 25.7128 63.992C27.85 65.6868 29.9736 67.3992 32.0932 69.1168C33.0076 69.8568 34.3308 71.46 35.5168 71.7964C36.1372 71.972 37.0188 71.718 37.636 71.6604C47.6356 70.7376 57.6344 69.814 67.6332 68.8912C70.956 68.5848 74.2776 68.278 77.6016 67.9708C78.8808 67.8528 78.8932 65.8376 77.6016 65.9572ZM36.1664 64.8344C36.3564 64.9536 36.4696 65.1268 36.1664 64.8344V64.8344ZM77.6016 60.9216C69.4744 61.672 61.3484 62.4212 53.2216 63.172C48.442 63.6128 43.662 64.0548 38.8816 64.496C38.1708 64.562 36.788 64.4288 36.0348 64.7048C36.0268 64.6964 36.0208 64.6916 36.0128 64.6832C35.3716 64.032 34.548 63.4916 33.838 62.9168C31.3704 60.9168 28.8996 58.9212 26.4064 56.9532C25.1304 55.9464 23.5504 54.2108 21.9612 53.7032C20.7232 53.3076 20.1936 55.2516 21.4252 55.6452C22.3692 55.9464 24.5792 58.0568 25.7128 58.9556C27.85 60.6508 29.9736 62.364 32.0932 64.0804C33.0076 64.8224 34.3308 66.4236 35.5168 66.7604C36.1372 66.9364 37.0188 66.682 37.636 66.6252C47.6356 65.7024 57.6344 64.7788 67.6332 63.8556C70.956 63.5492 74.2776 63.242 77.6016 62.936C78.8808 62.818 78.8932 60.8016 77.6016 60.9216ZM36.1664 59.8C36.3564 59.9176 36.4696 60.0908 36.1664 59.8V59.8ZM77.6016 55.8856C69.4744 56.6364 61.3484 57.3868 53.2216 58.136C48.442 58.578 43.662 59.0196 38.8816 59.4604C38.1708 59.5256 36.788 59.3932 36.0348 59.6684C36.0268 59.6608 36.0208 59.656 36.0128 59.6468C35.3716 58.9964 34.548 58.4552 33.838 57.8804C31.3704 55.8808 28.8996 53.8856 26.4064 51.9176C25.1304 50.9104 23.5504 49.1748 21.9612 48.6676C20.7232 48.2716 20.1936 50.2164 21.4252 50.61C22.3692 50.9104 24.5792 53.0212 25.7128 53.9208C27.85 55.616 29.9736 57.3276 32.0932 59.0452C33.0076 59.7864 34.3308 61.3888 35.5168 61.7248C36.1372 61.9008 37.0188 61.6468 37.636 61.5896C47.6356 60.6668 57.6344 59.7436 67.6332 58.8208C70.956 58.5136 74.2776 58.2068 77.6016 57.9C78.8808 57.7824 78.8932 55.7672 77.6016 55.8856ZM71.0428 51.6568C72.0056 51.0424 72.892 50.3892 73.6812 49.7552L76.2144 51.1344L71.0428 51.6568ZM64.852 52.2828L61.7356 52.5976C58.556 52.4064 55.8508 50.6596 54.49 47.9132C53.5752 46.0672 53.3856 44.0284 53.8984 42.1128C53.9396 42.1392 53.9864 42.1708 54.0392 42.2048C58.0512 44.7956 62.2564 44.5428 66.542 41.4548L75.1044 45.7712C73.3656 47.5248 69.3232 51.1672 64.852 52.2828ZM49.4088 48.476C46.7824 44.7388 47.1828 39.4772 47.4132 38.202L47.4832 38.0648C47.826 37.3924 47.4128 36.9676 46.9952 36.6956L46.998 36.6888L46.9872 36.69C46.86 36.6076 46.7324 36.54 46.6268 36.4828L45.4492 35.8548C44.6936 35.4528 43.7288 34.94 42.6812 34.3852C43.9172 32.2512 45.5996 30.8188 46.3476 30.252L57.6248 34.7768C55.1728 36.1848 53.5592 38.2068 53.4788 38.3084L53.4368 38.3656C51.2896 41.5204 51.0088 45.4236 52.6848 48.8076C53.37 50.1908 54.3308 51.3648 55.4892 52.292C52.8416 51.724 50.7976 50.4516 49.4088 48.476ZM37.434 55.0548L23.8768 44.5544L31.4616 44.198L31.4588 44.15C31.7652 44.8592 32.1444 45.564 32.6192 46.256C34.4236 48.886 37.2308 50.7124 40.5248 51.398L51.334 53.6496L37.434 55.0548ZM33.9832 32.074C36.4328 33.3536 43.2356 36.9544 45.4072 38.1144C45.0732 40.0176 45.1476 43.5864 46.17 46.5C46.7044 48.0212 47.5764 49.6816 48.9992 51.1048L40.9356 49.4264C38.1528 48.8468 35.7896 47.3164 34.2804 45.1164C30.8872 40.1704 32.9916 34.262 33.9832 32.074ZM54.8132 41.8268C54.528 42.1124 54.1512 42.1508 53.9048 42.0868C53.9852 41.7912 54.0828 41.498 54.1956 41.2088L54.8132 41.8268ZM78.5044 50.0864L75.318 48.3532C76.0472 47.688 76.6204 47.1092 76.9964 46.7128C77.3332 46.3576 77.4844 45.8576 77.4004 45.3752C77.3168 44.8932 77.0048 44.4732 76.5672 44.2524L67.3352 39.5992C66.7268 39.2932 66.0032 39.354 65.4472 39.7604C60.0584 43.6944 56.4788 41.3824 55.1324 40.5132C54.9968 40.4252 54.8324 40.3192 54.6512 40.2352C54.7816 39.9964 54.9252 39.762 55.0796 39.532C55.2952 39.268 57.2316 36.962 59.8536 35.928C60.3544 35.7304 60.68 35.2556 60.6812 34.718C60.6836 34.1808 60.3608 33.7044 59.8628 33.5048L46.7332 28.2372C46.3256 28.0728 45.8664 28.1248 45.5048 28.3748C44.8028 28.8616 42.5188 30.5904 40.8928 33.4392C38.3056 32.07 35.6456 30.6672 34.5528 30.0992C34.1604 29.8948 33.7124 29.8592 33.2928 29.9984C32.8724 30.1376 32.5348 30.4352 32.3404 30.8344C31.5548 32.4548 29.5764 37.2512 30.8048 42.2128L22.034 42.6248C21.4356 42.6248 20.9172 43.01 20.744 43.5824C20.576 44.1404 20.778 44.73 21.2488 45.0668L36.43 56.8244L36.4892 56.8664C36.71 57.0136 36.9704 57.0916 37.2356 57.0916C37.2804 57.0916 37.3252 57.0896 37.3704 57.0852L61.7868 54.6168C61.9492 54.6244 62.112 54.63 62.2744 54.63C63.2424 54.63 64.2008 54.4992 65.1376 54.2784L77.9228 52.9856C78.6036 52.9172 79.1512 52.4192 79.284 51.7484C79.4176 51.078 79.1032 50.4092 78.5044 50.0864Z" fill="white"/>
</svg>
