<svg width="100" height="100" viewBox="0 0 100 100" fill="none" xmlns="http://www.w3.org/2000/svg">
<path fill-rule="evenodd" clip-rule="evenodd" d="M50 0C77.6144 0 100 22.3856 100 50C100 56.3512 98.8144 62.4248 96.654 68.0136H85.2016C84.5712 68.0136 84.0556 68.5292 84.0556 69.1596C84.0556 69.79 84.5712 70.3056 85.2016 70.3056H95.7016C95.5124 70.7308 95.3172 71.1528 95.1164 71.572H78.9516C78.3212 71.572 77.8056 72.0876 77.8056 72.718C77.8056 73.3484 78.3212 73.864 78.9516 73.864H93.944C93.712 74.2896 93.4748 74.712 93.2308 75.1304H72.7016C72.0712 75.1304 71.5556 75.646 71.5556 76.2764C71.5556 76.9068 72.0712 77.4224 72.7016 77.4224H91.8108C91.5304 77.8488 91.244 78.2712 90.9508 78.6888H66.4516C65.8212 78.6888 65.3056 79.2044 65.3056 79.8348C65.3056 80.4652 65.8212 80.9808 66.4516 80.9808H89.2432C88.9048 81.4084 88.56 81.8308 88.2084 82.2472H60.2016C59.5712 82.2472 59.0556 82.7628 59.0556 83.3928V83.3932C59.0556 84.0236 59.5712 84.5392 60.2016 84.5392H86.1524C77.0488 94.066 64.2176 100 50 100C22.3856 100 0 77.6144 0 50C0 42.7044 1.5636 35.7744 4.3724 29.5252H24.106C24.736 29.5252 25.2516 29.0096 25.2516 28.3792V28.3788C25.2516 27.7488 24.736 27.2332 24.106 27.2332H5.4724C5.6904 26.8072 5.9156 26.3852 6.146 25.9668H30.356C30.986 25.9668 31.5016 25.4512 31.5016 24.8208C31.5016 24.1904 30.986 23.6748 30.356 23.6748H7.4848C7.7492 23.248 8.0204 22.826 8.2976 22.4084H36.606C37.236 22.4084 37.7516 21.8928 37.7516 21.2624C37.7516 20.632 37.236 20.1164 36.606 20.1164H9.9124C10.2316 19.6888 10.5584 19.2668 10.8908 18.85H42.856C43.486 18.85 44.0016 18.3344 44.0016 17.704C44.0016 17.0736 43.486 16.558 42.856 16.558H12.834C13.2204 16.1288 13.6144 15.7068 14.0152 15.2916H49.106C49.736 15.2916 50.2516 14.776 50.2516 14.1456C50.2516 13.5152 49.736 12.9996 49.106 12.9996H16.3752C25.2548 4.924 37.0516 0 50 0ZM47.0044 75.5076L52.484 72.3436C52.83 72.1432 53.2576 72.3984 53.2568 72.7896L53.2572 74.9332H54.6044C55.6984 74.9332 57.0044 74.2292 58.0532 73.2488L58.0556 73.2512C59.0748 72.2972 59.8092 71.1216 59.8092 70.1336V57.3932C59.8092 56.8284 60.2676 56.3704 60.8332 56.3704C61.3984 56.3704 61.8564 56.8284 61.8564 57.3932V70.1336C61.8564 71.7072 60.846 73.43 59.4448 74.7404L59.4428 74.7424L59.4448 74.7448C58.0524 76.0456 56.23 76.9808 54.6044 76.9808H53.2576L53.258 79.1236C53.258 79.5416 52.7896 79.78 52.4524 79.5512L46.998 76.402C46.6496 76.2008 46.6608 75.6996 47.0044 75.5076ZM39.6168 46.0264C39.4248 45.6836 38.9232 45.672 38.7216 46.0204L35.5724 51.4748C35.344 51.812 35.5824 52.2808 36.0004 52.2808L38.1436 52.2804V70.1336C38.1436 71.092 38.5084 72.0944 39.1064 73.0244C39.708 73.9612 40.5568 74.8408 41.5 75.5244C41.9572 75.856 42.5968 75.7536 42.9276 75.2964C43.2584 74.8396 43.1564 74.2004 42.7 73.8692C41.9544 73.3288 41.29 72.6432 40.8252 71.9208C40.4312 71.3072 40.1908 70.6836 40.1908 70.1336V52.28L42.3348 52.2796C42.7252 52.28 42.9808 51.8524 42.7804 51.5056L39.6168 46.0264ZM40.1908 41.154C40.1908 41.7192 39.7324 42.178 39.1672 42.178C38.6016 42.178 38.1436 41.7192 38.1436 41.154C38.1436 34.3568 43.2924 27.758 44.508 26.294V21.3832C44.508 20.8184 44.9664 20.3596 45.5316 20.3596H54.4688C55.034 20.3596 55.492 20.8184 55.492 21.3832V26.294C56.7084 27.758 61.8564 34.3564 61.8564 41.154V45.7644L64.0004 45.7636C64.4176 45.7636 64.656 46.2324 64.428 46.5696L61.2784 52.024C61.0768 52.3724 60.5752 52.3608 60.3832 52.018L57.2196 46.5388C57.0192 46.1924 57.2748 45.7644 57.6652 45.7652L59.8092 45.7648V41.154C59.8092 34.5944 54.3512 28.0892 53.7544 27.3984C53.564 27.2124 53.4452 26.9524 53.4452 26.6648V22.4068H46.5552V26.6648H46.5516C46.5516 26.9032 46.4684 27.1428 46.2992 27.3364C46.2816 27.3568 40.1908 34.2252 40.1908 41.154Z" fill="white"/>
</svg>
