<svg width="100" height="100" viewBox="0 0 100 100" fill="none" xmlns="http://www.w3.org/2000/svg">
<path fill-rule="evenodd" clip-rule="evenodd" d="M50 0C77.6144 0 100 22.3856 100 50C100 56.3512 98.8144 62.4248 96.654 68.0136H85.2016C84.5712 68.0136 84.0556 68.5292 84.0556 69.1596C84.0556 69.79 84.5712 70.3056 85.2016 70.3056H95.7016C95.5124 70.7308 95.3172 71.1528 95.1164 71.572H78.9516C78.3212 71.572 77.8056 72.0876 77.8056 72.718C77.8056 73.3484 78.3212 73.864 78.9516 73.864H93.944C93.712 74.2896 93.4748 74.712 93.2308 75.1304H72.7016C72.0712 75.1304 71.5556 75.646 71.5556 76.2764C71.5556 76.9068 72.0712 77.4224 72.7016 77.4224H91.8108C91.5304 77.8488 91.244 78.2712 90.9508 78.6888H66.4516C65.8212 78.6888 65.3056 79.2044 65.3056 79.8348C65.3056 80.4652 65.8212 80.9808 66.4516 80.9808H89.2432C88.9048 81.4084 88.56 81.8308 88.2084 82.2472H60.2016C59.5712 82.2472 59.0556 82.7628 59.0556 83.3928V83.3932C59.0556 84.0236 59.5712 84.5392 60.2016 84.5392H86.1524C77.0488 94.066 64.2176 100 50 100C22.3856 100 0 77.6144 0 50C0 42.7044 1.5636 35.7744 4.3724 29.5252H24.106C24.736 29.5252 25.2516 29.0096 25.2516 28.3792V28.3788C25.2516 27.7488 24.736 27.2332 24.106 27.2332H5.4724C5.6904 26.8072 5.9156 26.3852 6.146 25.9668H30.356C30.986 25.9668 31.5016 25.4512 31.5016 24.8208C31.5016 24.1904 30.986 23.6748 30.356 23.6748H7.4848C7.7492 23.248 8.0204 22.826 8.2976 22.4084H36.606C37.236 22.4084 37.7516 21.8928 37.7516 21.2624C37.7516 20.632 37.236 20.1164 36.606 20.1164H9.9124C10.2316 19.6888 10.5584 19.2668 10.8908 18.85H42.856C43.486 18.85 44.0016 18.3344 44.0016 17.704C44.0016 17.0736 43.486 16.558 42.856 16.558H12.834C13.2204 16.1288 13.6144 15.7068 14.0152 15.2916H49.106C49.736 15.2916 50.2516 14.776 50.2516 14.1456C50.2516 13.5152 49.736 12.9996 49.106 12.9996H16.3752C25.2548 4.924 37.0516 0 50 0ZM14.144 48.916H12.2868V45.3104C13.9136 45.3104 15.8924 44.9608 15.8924 47.1676C15.8924 48.1472 15.102 48.916 14.144 48.916ZM18.0776 43.8896C17.6036 43.5724 17.592 43.3212 16.658 42.9056C15.1532 42.236 12.5856 42.4692 10.6476 42.4692C9.828 42.4692 9.118 43.002 9.118 43.7804V54.816C9.118 56.7532 12.2868 56.8288 12.2868 54.5976V51.7568C13.8872 51.7568 15.4116 51.9312 16.7064 51.3688C17.3816 51.076 17.5788 50.7796 18.0776 50.4456C18.0776 51.324 17.9032 54.8536 18.2912 55.4764C18.4804 55.7792 18.9108 56.1272 19.3888 56.1272H24.852C25.6144 56.1272 25.1876 55.6772 25.9468 56.0028C26.2288 56.124 25.8396 56.1272 26.3816 56.1272H31.954C33.0632 56.1272 33.6432 54.3752 32.6584 53.5656C32.236 53.2184 31.9948 53.2788 31.3 53.2848C30.7532 53.2896 30.2064 53.2848 29.6592 53.2868C27.9572 53.292 28.2392 53.7388 28.2392 50.7732C29.8144 50.7732 32.7188 51.1548 32.7188 49.5716C32.7188 47.3648 31.654 47.8232 28.2392 47.8232V45.4196C30.8944 45.4196 33.0468 45.9092 33.0468 43.7804C33.0468 43.002 32.3364 42.4692 31.5168 42.4692H26.4908C25.6164 42.4692 25.0704 43.2992 25.0704 44.3268V53.2864H21.2464V43.9988C21.2464 41.8688 18.1256 41.7368 18.0776 43.8896ZM38.8376 47.1676C38.8376 49.21 40.5192 50.992 42.662 50.992C44.566 50.992 46.3768 49.3732 46.3768 47.4956C46.3768 46.2224 46.3052 45.508 45.2612 44.4588C43.0392 42.226 38.8376 43.8508 38.8376 47.1676ZM33.9208 43.6712V54.816C33.9208 56.7532 37.0896 56.8288 37.0896 54.5976V44.2176C37.0896 41.5292 33.9208 42.0804 33.9208 43.6712ZM82.8792 48.1512H82.5432C82.6028 47.4324 83.948 44.5384 84.2912 43.8896C86.208 43.8896 88.0664 44.1496 90.0812 43.998C91.944 43.8576 92.4184 41.5456 92.814 40.7212H83.9636L82.2296 44.6692C81.9396 45.3772 81.7096 45.958 81.4044 46.6844C81.21 47.1476 80.6224 48.33 80.5764 48.7384C80.436 48.9732 79.3744 51.2012 79.5928 51.4288C79.9032 51.7524 81.3848 50.7592 82.9388 50.9324C83.7436 51.0224 84.0252 51.134 84.4856 51.5624C84.6992 51.7608 84.8388 51.8744 84.9876 52.1524C85.2236 52.5932 85.0704 52.6268 85.3832 53.068C83.9404 52.9832 83.2708 51.7712 76.4208 51.9716L73.8532 52.3416C73.5756 52.3336 73.7896 52.4404 73.5836 52.2564L78.5172 48.6044C78.7808 48.3968 79.03 48.1808 79.0708 47.9324C79.4168 47.7788 79.418 47.7704 79.6608 47.4508C80.0796 46.8988 80.6 46.2944 80.9048 45.6384C83.878 39.2308 76.4476 38.2624 72.6444 39.782C69.4068 41.0756 67.5708 45.628 70.1964 47.3864C70.654 45.422 72.598 41.5812 75.1392 40.964C77.0464 40.5012 78.0604 41.7588 77.58 43.6248C77.3136 44.6608 76.7356 45.612 76.162 46.4684C76.0456 46.6424 75.9636 46.7548 75.8564 46.9192L75.5504 47.4948C75.3508 47.5588 74.2352 49.028 73.6804 49.5588C72.91 50.2956 71.9356 51.3648 71.0544 52.0684C70.6912 52.358 70.4724 52.622 70.0708 52.9424L68.6368 54.236C68.4324 54.4108 68.27 54.5104 68.0116 54.7068C67.8908 54.9348 66.5976 55.9904 66.2872 56.2608C65.3512 57.0764 63.5896 58.6124 62.8284 59.5764C62.496 59.9972 61.3608 61.0164 61.2368 61.4812L61.1276 61.5904L61.0184 61.6996L60.9088 61.8088H60.7996L60.8908 61.9364L60.9088 61.8088L61.0184 61.6996L61.1276 61.5904L61.2368 61.4812L63.34 59.542C64.0492 58.8664 64.8352 58.3676 65.6236 57.7828C68.904 55.3508 73.4768 53.7392 77.632 53.4012C79.1884 53.2748 81.8648 53.478 83.402 53.7388C83.9052 53.824 84.6764 54.0108 85.1656 54.0512V54.3168C85.0732 55.222 84.4524 56.4296 84.0536 57.0912C83.8008 57.5108 83.564 57.87 83.2636 58.2684C82.9708 58.656 82.5744 59.022 82.33 59.4052C82.0284 59.6008 81.9312 59.7728 81.6232 60.0152C77.9904 62.874 76.2128 62.6396 75.3316 63.2296C75.5728 64.1328 77.226 63.7488 78.206 63.5908C79.2148 63.4276 80.1984 63.1568 81.0464 62.8252C82.1468 62.3948 85.118 60.9116 85.5816 60.0608C86.1192 59.8056 86.256 59.5688 86.6688 59.1604C86.9968 58.8356 87.342 58.4232 87.6148 58.0304C87.9228 57.588 88.1628 57.24 88.4084 56.748C88.6748 56.214 88.8132 55.822 89.0984 55.2532C89.3628 55.3708 89.7508 55.5532 90.0824 55.5808V55.6904L90.2096 55.5992L90.0824 55.5808C89.8968 55.3276 89.57 55.1188 89.2084 55.0348V54.7076C89.3496 53.72 89.6788 52.8648 89.4924 51.5816C89.2008 49.5768 88.7184 47.9412 85.9316 47.7076C84.9164 47.6228 83.7052 47.7364 82.8792 48.1512ZM50.4012 45.4196C50.1012 45.2156 50.3104 45.4348 50.0864 45.0936C50.0484 45.0352 49.9608 44.834 49.9088 44.7264C49.61 44.1064 48.9496 43.2328 48.4832 42.7668C46.4072 40.6904 42.9 39.672 40.1184 40.0348L38.0728 40.284C38.0728 40.5692 38.2044 42.0536 38.4276 42.1696C38.572 42.2444 39.9732 41.9472 40.3704 41.926C43.7532 41.7468 46.7984 41.8392 49.316 44.4468L49.7808 44.9648C50.2872 45.6188 49.872 45.3784 50.3812 45.638L50.2968 46.1828C49.7136 45.7848 49.3812 45.168 48.6944 44.7408C48.0352 44.3308 47.4396 43.9772 46.5952 43.7804C46.962 44.328 48.9868 45.2904 48.8944 48.592C48.794 52.1908 44.3584 55.2648 40.4528 52.6548C39.022 51.6988 37.8256 49.4628 38.182 47.9324C37.3908 48.5124 36.5028 54.0524 41.0264 56.67C42.4224 57.478 44.1588 57.9444 46.3132 57.4844C47.4928 57.2324 49.9524 55.8568 50.2012 54.9252C50.542 55.1752 50.3696 55.4792 50.7776 55.8788C51.2692 56.3604 53.4388 56.7996 53.484 54.6028C53.5276 52.512 53.4788 50.3584 53.4788 48.2604C54.0416 48.6372 58.486 54.6008 59.3496 55.5012C59.8752 56.0496 60.0556 56.3892 61.2272 56.2288C62.73 56.0228 62.4388 53.9036 62.4388 52.194L62.4424 44.3228C62.3788 41.7904 60.2108 42.158 59.6228 42.822C59.1288 43.3792 59.27 44.1096 59.27 45.0916C59.27 46.84 59.27 48.588 59.27 50.3364C58.9636 50.2548 58.9996 50.2052 58.6612 49.7428L53.664 43.4864C53.2904 43.044 52.9076 42.4612 52.2676 42.3664C50.0316 42.0344 50.124 44.5604 50.4012 45.4196ZM63.7496 46.9492L64.1828 46.8264C64.1592 47.1564 64.2288 47.0268 64.0772 47.0808C63.876 47.1524 63.7576 46.9548 63.7496 46.9492ZM63.422 45.3104C63.422 44.5636 63.8112 44.4544 62.9848 44.436C62.9848 44.87 62.8428 45.8564 63.5312 45.8564C64.488 45.8564 63.9852 44.9636 64.7332 44.764C64.7712 45.2236 64.8388 45.2988 64.624 45.7472C64.9252 45.8176 64.87 45.8 65.0608 45.9656C64.4828 46.1004 63.488 46.4892 62.9848 46.7308V47.2768L64.4296 47.7992C64.7432 47.9688 64.7332 47.7428 64.7332 48.4788C64.7332 49.3476 62.9848 48.2804 62.9848 49.0252V49.3528H65.1704V47.4956C64.9212 47.4376 64.9188 47.4108 64.624 47.3864V46.6212C65.0532 46.612 64.8804 46.6512 65.1704 46.512C65.1704 45.6536 65.5064 44.2176 64.624 44.2176C64.234 44.2176 64.076 44.3224 63.932 44.6184C63.7116 45.0716 63.9228 45.1764 63.422 45.3104ZM64.296 55.0348H64.7332V55.5808H64.296V55.0348ZM63.5312 55.0348C63.8876 55.2232 63.8472 55.052 63.8588 55.5808H63.422C63.4304 55.2004 63.4052 55.2888 63.5312 55.0348ZM62.9848 55.2532V56.1272H65.1704C65.1704 55.4028 65.3312 54.3792 64.5148 54.3792C64.168 54.3792 64.3144 54.5304 64.1024 54.5976C63.8688 54.6716 63.8032 54.544 63.6236 54.53C63.2164 54.4988 62.9848 54.7924 62.9848 55.2532ZM63.422 52.5216C63.422 51.7296 64.2508 51.9724 64.7332 52.0848C64.7332 53.5828 63.422 52.8676 63.422 52.5216ZM62.9848 52.3032C62.9848 53.006 63.09 53.5048 64.0776 53.5048C65.8476 53.5048 65.2828 51.4288 64.5148 51.4288C63.9096 51.4288 62.9848 51.3104 62.9848 52.3032ZM63.7496 43.4528H63.422C63.422 43.0212 63.4564 43.0092 63.5312 42.688C62.9708 42.5572 62.9848 42.4884 62.9848 43.3436C62.9848 44.1352 64.0136 44.6976 64.4052 43.0156H64.7332C64.836 43.4572 64.8272 43.466 64.624 43.8896C64.8168 43.9824 64.9776 44.016 65.1704 44.1084C65.1704 42.71 65.5728 42.4692 64.1868 42.4692C63.9856 42.77 63.7888 42.9824 63.7496 43.4528ZM63.9684 50.5548H63.422C63.4788 49.8716 63.8272 49.95 63.9684 50.5548ZM63.0944 49.6808C63.0384 50.352 62.9848 49.998 62.9848 51.1012H65.1704V50.5548H64.4052C64.4052 49.948 64.312 49.9216 64.0776 49.5716C63.7188 49.5716 63.4372 49.5476 63.0944 49.6808ZM77.2984 55.6904H77.8448C77.8448 55.6904 78.47 57.22 77.6264 57.22C77.1616 57.22 76.9548 56.4068 77.2984 55.6904ZM76.752 56.346V56.6736C76.752 57.9428 78.5004 57.6904 78.5004 56.4552V56.346C78.5004 55.036 76.752 55.1452 76.752 56.346ZM72.928 56.892C73.1504 56.56 73.0656 56.576 73.5836 56.5644V57.1108C73.1 57.2232 73.2196 57.328 72.928 56.892ZM72.7092 55.6904C72.7092 56.108 72.676 55.73 72.8188 56.018C73.244 55.7064 72.9204 55.55 73.5836 55.6904V56.346C72.9768 56.346 72.95 56.4392 72.6 56.6736V57.3292C73.1768 57.6344 73.0684 57.638 73.6928 57.22C73.8232 57.7084 73.8236 57.5352 74.2392 57.4384L74.0536 57.0776C73.9532 56.7296 74.1068 56.4208 73.9112 55.5808C73.2656 55.2712 72.7092 55.3692 72.7092 55.6904ZM13.4884 59.296H13.1608V58.6404H14.0348C14.1116 58.9296 14.026 58.7304 14.144 58.968C13.982 59.1892 13.8932 59.296 13.4884 59.296ZM12.8328 60.498H13.1608V59.6236C13.7308 59.6236 13.8716 59.6408 14.3628 59.4052C14.4904 58.872 14.624 59.0292 14.144 58.3128H12.8328V60.498ZM74.4576 55.4716C74.8244 56.0192 74.676 56.1508 74.676 57.4384H75.1132C74.7596 55.9204 75.0124 55.7996 75.7688 55.7996C75.9464 56.5616 75.878 56.5256 75.878 57.4384H76.206V55.5808C75.3428 55.1244 75.738 55.4944 75.004 55.6904C74.9036 55.314 74.8044 55.3372 74.4576 55.4716ZM48.562 60.17V59.296C48.9824 59.2068 49.2176 59.2208 49.2176 59.8424C49.2176 60.322 48.882 60.2448 48.562 60.17ZM49.2176 58.968C48.6852 58.844 48.662 58.9004 48.2344 59.1868V60.2792C48.6772 60.576 49.5456 60.8168 49.5456 60.2792V58.3128H49.2176V58.968ZM15.5644 60.0608C15.7972 59.7432 15.5492 59.8548 16.1108 59.8424C16.0932 60.0544 16.116 60.2792 15.8924 60.2792C15.5848 60.2792 15.69 60.232 15.5644 60.0608ZM15.7828 58.968C15.276 59.0104 15.422 59.0556 15.2368 59.4052C15.8116 59.5268 15.3328 59.5468 15.7064 59.3196C16.0188 59.13 15.9844 59.0408 16.1108 59.5144C14.9032 59.5412 15.2836 60.2308 15.346 60.498C15.8656 60.6224 15.9004 60.6348 16.548 60.498C16.3748 60.1368 16.4388 59.7048 16.4388 59.1868C16.0892 58.9528 16.362 59.0072 15.8924 58.968C16.0336 58.4388 16.0788 58.842 16.22 58.3128C15.7132 58.3548 15.6152 58.6056 15.7828 58.968ZM25.3984 60.17V59.296C25.6616 59.24 26.054 59.1596 26.054 59.6236V59.8424C26.054 60.322 25.7184 60.2448 25.3984 60.17ZM25.0704 61.2628H25.3984V60.6072C25.8296 60.6072 25.8416 60.5728 26.1632 60.498C26.3344 59.7628 26.6528 59.8624 26.054 58.968H25.0704V61.2628ZM32.0632 60.2792C31.7612 60.2792 31.8008 60.1948 31.7356 59.9516C32.2832 59.8204 32.0188 59.7424 32.3912 59.9516C32.3244 60.0512 32.2132 60.2792 32.0632 60.2792ZM31.5168 59.4052C31.888 59.3744 31.9168 59.322 32.1728 59.1868L32.4068 59.5012C30.94 59.5748 31.2596 60.5804 32.1492 60.5904L32.306 60.5788C32.326 60.5776 32.3588 60.5792 32.3772 60.5776C32.7876 60.5392 32.7188 60.6328 32.7188 59.6236C32.7188 59.2904 32.614 59.1828 32.5004 58.968C31.7996 58.968 31.6424 58.8824 31.5168 59.4052ZM50.7472 60.0608C50.9128 59.8228 50.6872 59.8424 51.4028 59.8424V60.17C50.838 60.3052 50.9856 60.4032 50.7472 60.0608ZM50.5288 59.4052C51.088 59.3588 50.6768 59.3224 51.1844 59.1868L51.4188 59.5012C49.7756 59.5836 50.5596 60.6072 50.966 60.6072C51.8668 60.6072 51.7308 60.4928 51.7308 59.6236C51.7308 59.2904 51.626 59.1828 51.5124 58.968C50.6484 58.968 50.5288 58.8748 50.5288 59.4052ZM27.4744 59.8424V60.17C26.9264 60.3012 27.1908 60.3792 26.8188 60.17C27.0412 59.838 26.9564 59.8536 27.4744 59.8424ZM26.6 59.4052C26.9712 59.3744 27 59.322 27.2556 59.1868L27.49 59.5012C27.0732 59.5232 26.8688 59.604 26.6 59.7328C26.53 60.026 26.4908 59.9388 26.4908 60.17C26.4908 60.6032 27.2708 60.592 27.5212 60.5668C27.8656 60.5324 27.802 60.6088 27.802 59.6236C27.802 59.2904 27.6972 59.1828 27.5836 58.968C26.8828 58.968 26.7252 58.8824 26.6 59.4052ZM36.3248 59.296C36.7492 59.206 36.4464 59.206 36.8708 59.296V59.5144H36.3248V59.296ZM35.8876 59.7328C35.8876 60.8912 37.3372 60.6996 37.1592 60.2068C37 59.766 36.4828 60.8432 36.2152 59.8424H37.1988C37.1988 58.9768 37.312 58.968 36.2152 58.968C36.0568 59.2048 35.8876 59.332 35.8876 59.7328ZM43.864 59.296C44.2884 59.206 43.9856 59.206 44.41 59.296V59.5144H43.864V59.296ZM44.1916 60.6072C44.4192 60.6072 44.698 60.4716 44.7068 60.268C44.7252 59.85 44.4352 60.2792 44.3008 60.2792C44.0508 60.2792 44.174 60.2424 43.864 60.17V59.8424H44.8472C44.836 59.3332 44.7188 59.2656 44.5192 58.968H43.9732C43.2768 58.968 43.2612 60.6072 44.1916 60.6072ZM41.5692 60.2792C41.6084 59.8076 41.6308 59.8532 42.1156 59.8424C42.0764 60.3148 42.054 60.2676 41.5692 60.2792ZM41.2416 59.4052C41.8768 59.3524 41.522 59.1704 42.1156 59.296V59.5144C41.7148 59.5232 41.51 59.604 41.2416 59.7328V60.3888C41.7632 60.6648 41.7652 60.624 42.1924 60.5528C42.4872 60.504 42.4432 60.8492 42.4432 59.4052C42.4432 58.8 41.396 58.7592 41.2416 59.4052ZM29.4408 59.9516C29.6984 59.8916 29.7636 59.8496 30.0968 59.8424V60.17C29.3188 60.3564 29.6436 60.3368 29.4408 59.9516ZM29.2224 59.4052C30.004 59.34 29.2808 59.106 30.0968 59.296V59.5144C29.6956 59.5232 29.4908 59.604 29.2224 59.7328C29.1456 60.0224 29.2312 59.8228 29.1132 60.0608C29.3476 60.504 29.3684 60.5984 29.9364 60.5828C30.5272 60.5668 30.4244 60.6296 30.4244 59.6236C30.4244 59.2904 30.3196 59.1828 30.206 58.968C29.5048 58.968 29.3476 58.8824 29.2224 59.4052ZM78.828 55.6904V56.346C79.14 56.5108 79.3156 56.6928 79.7024 56.7828V57.22C79.1708 57.22 79.1688 57.1816 78.828 57.0012C78.8964 57.8224 79.5676 57.5296 80.03 57.22V56.5644C79.822 56.4248 79.6832 56.3632 79.4808 56.2396C79.2032 56.07 79.1896 56.0956 79.156 55.6904C79.4936 55.6188 79.4828 55.5436 79.77 55.834C79.7852 55.8496 79.8084 55.8796 79.8216 55.8948L80.0436 55.5852C79.388 55.2508 79.4316 55.286 78.828 55.6904ZM46.5952 60.2792C46.1588 60.2792 45.8848 59.5892 46.486 59.1868C47.2924 59.6132 46.7 60.2792 46.5952 60.2792ZM45.8308 59.6236C45.8308 60.07 45.8828 60.6072 46.486 60.6072C47.1788 60.6072 47.8696 58.968 46.2676 58.968H46.0492C45.9356 59.1828 45.8308 59.2904 45.8308 59.6236ZM21.4648 59.7328C21.4648 59.5256 21.4964 59.5356 21.578 59.4088L21.7928 59.1868L22.2264 59.4112C22.2472 60.8068 21.4648 60.2524 21.4648 59.7328ZM21.1368 59.8424C21.1368 60.688 22.9536 61.2476 22.448 59.0772L21.4648 58.968C21.3052 59.2068 21.1368 59.4336 21.1368 59.8424ZM16.7664 59.4052V59.6236C17.8012 60.1712 17.25 59.5276 17.6404 60.0608C17.3452 60.586 17.3656 60.0768 16.6572 60.0608C16.7304 60.1988 16.7468 60.298 16.8568 60.4072C17.4848 61.0296 18.5216 60.0856 17.644 59.6204C17.2184 59.3948 17.3804 59.6864 17.0944 59.296C17.6488 59.0396 17.414 59.5524 17.9684 59.296C17.6564 58.83 17.6172 58.968 16.8756 58.968C16.8056 59.2612 16.7664 59.174 16.7664 59.4052ZM22.776 59.4052V59.6236C23.8108 60.1712 23.2592 59.5276 23.65 60.0608C23.3548 60.586 23.3748 60.0768 22.6668 60.0608C22.7396 60.1988 22.7564 60.298 22.8664 60.4072C23.494 61.0296 24.5308 60.0856 23.6536 59.6204C23.228 59.3948 23.39 59.6864 23.1036 59.296C23.658 59.0396 23.4232 59.5524 23.978 59.296C23.6656 58.83 23.6268 58.968 22.8852 58.968C22.8152 59.2612 22.776 59.174 22.776 59.4052ZM62.9848 53.942V54.27H65.1704V53.7236H63.422C63.1548 53.7236 62.9848 53.4812 62.9848 53.942ZM57.8496 59.9516H58.2868V60.2792H57.8496V59.9516ZM57.5216 59.5144C58.3308 59.686 57.3128 59.4268 58.2868 59.4052V59.6236C57.9516 59.6516 57.7612 59.7272 57.5216 59.8424V60.3888C58.026 60.6552 58.268 60.5944 58.7236 60.498C58.5524 60.1404 58.6144 59.804 58.6144 59.296C58.0216 58.9824 57.8288 58.934 57.5216 59.5144ZM53.3696 60.0608C53.6596 59.9216 53.4868 59.9612 53.916 59.9516V60.2792C53.3544 60.2668 53.6024 60.3784 53.3696 60.0608ZM53.1512 59.5144C53.5756 59.4792 53.436 59.416 53.916 59.4052V59.6236C53.4688 59.6336 53.4408 59.6888 53.1512 59.8424V60.3888C53.6332 60.6436 53.72 60.5708 53.7644 60.566C53.782 60.5636 53.9888 60.5536 53.9928 60.5528C54.3108 60.5 54.244 60.7908 54.244 59.296C53.9016 59.1148 53.3372 58.818 53.1512 59.5144ZM37.5264 60.498H37.8544V59.296C38.2648 59.2092 38.1188 59.1984 38.51 59.4052V60.498H38.8376C38.8376 58.9268 38.7968 59.7308 38.6192 58.968H37.5264V60.498ZM55.7736 59.9516C55.7736 59.6564 55.8256 59.6504 55.8828 59.4052H56.32C56.4876 60.106 56.4744 59.6164 56.32 60.2792C56.0628 60.258 55.7736 60.1808 55.7736 59.9516ZM56.4292 59.0772C55.9976 59.0772 55.9856 59.1116 55.6644 59.1868C55.5064 59.8644 55.5064 59.8204 55.6644 60.498H56.7568C56.5468 60.06 56.6476 59.1504 56.6476 58.5312L56.4292 59.0772ZM19.826 59.0772C19.3792 60.9948 20.606 60.6208 20.7772 60.466C21.0016 60.2636 20.89 60.4028 20.9184 60.0608C20.386 60.2028 20.8344 60.2792 20.2628 60.2792C19.9456 59.8052 19.9456 59.6608 20.2628 59.1868C20.7652 59.3036 20.6248 59.4824 21.0276 59.296C20.7528 58.8852 20.3496 58.874 19.826 59.0772ZM39.1656 59.0772L39.0564 59.8424C39.0564 60.61 39.8788 60.8996 40.3672 60.17C39.684 59.854 40.3712 60.2792 39.6024 60.2792C39.2852 59.8052 39.2852 59.6608 39.6024 59.1868C40.1048 59.3036 39.9644 59.4824 40.3672 59.296C40.0924 58.8852 39.6892 58.874 39.1656 59.0772ZM33.7024 59.8424C33.7024 60.7908 35.166 60.7376 34.974 60.2068C34.8644 59.9028 34.03 60.7108 34.03 59.7328C34.03 59.46 34.1864 59.3496 34.358 59.1868C34.8368 59.3144 34.87 59.6144 35.0136 59.0772L34.03 58.968C33.8704 59.2068 33.7024 59.4336 33.7024 59.8424ZM18.0776 58.968V59.1868C18.3472 59.2956 18.2836 59.0452 18.2892 59.9584C18.2924 60.4932 18.326 60.4864 18.8424 60.498C18.7092 59.9996 18.6704 60.3916 18.6144 59.8424C18.5384 59.0976 18.774 59.2144 18.8424 59.1868V58.968C18.5532 58.8512 18.6388 59.1928 18.624 58.5312H18.296C18.2816 59.1768 18.3736 58.8576 18.0776 58.968ZM28.0208 58.968V60.498H28.3484V59.4052C28.558 59.2944 28.3688 59.364 28.5684 59.2964L28.7024 59.26C28.7168 59.256 28.7508 59.2572 28.7644 59.2532C29.0136 59.1756 28.9128 59.3092 29.004 58.968C28.4448 58.838 28.6928 58.968 28.0208 58.968ZM14.6904 60.498H15.1276C15.0128 60.0048 14.9104 60.1912 14.9044 59.5192C14.9004 59.12 14.9088 58.7132 14.9088 58.3128H14.6904V60.498ZM35.3412 60.498H35.6688V58.968H35.3412V60.498ZM49.8732 60.498H50.2012V58.968H49.8732V60.498ZM19.0608 60.498H19.3888V58.968H19.0608V60.498ZM40.586 60.498H40.9136V58.968H40.586V60.498ZM56.9756 60.498H57.3032V59.0772H56.9756V60.498ZM36.106 58.8588C36.6324 58.8152 36.3104 58.7392 36.572 58.7148C36.8032 58.6932 36.5788 58.8164 37.0896 58.8588C36.9812 58.4536 36.9792 58.7176 36.8708 58.3128C36.3508 58.324 36.2192 58.4348 36.106 58.8588ZM51.9492 59.7328H52.9328V59.5144H51.9492V59.7328ZM54.4624 59.8424H55.3364V59.6236H54.4624V59.8424ZM35.3412 58.6404C35.8232 58.5116 35.8232 58.332 35.3412 58.2032V58.6404ZM49.8732 58.6404C50.3216 58.5208 50.2572 58.5612 50.092 58.2032C49.8124 58.408 49.8732 58.1656 49.8732 58.6404ZM19.3888 58.6404C19.3464 58.1328 19.506 58.4492 19.1704 58.2032C19.0048 58.5612 18.9404 58.5208 19.3888 58.6404ZM40.9136 58.6404C40.8716 58.1328 41.0308 58.4492 40.6952 58.2032C40.5296 58.5612 40.4652 58.5208 40.9136 58.6404ZM57.194 58.8588C57.2768 58.7116 57.2536 58.738 57.3032 58.5312H56.9756C57.0472 58.8308 56.9312 58.7012 57.194 58.8588ZM60.472 62.3552L60.3628 62.4648H60.2532L60.3444 62.592L60.3628 62.4648L60.472 62.3552H60.5812L60.49 62.228L60.472 62.3552Z" fill="white"/>
</svg>
