<svg width="100" height="100" viewBox="0 0 100 100" fill="none" xmlns="http://www.w3.org/2000/svg">
<path fill-rule="evenodd" clip-rule="evenodd" d="M50 0C77.6144 0 100 22.3856 100 50C100 56.3512 98.8144 62.4252 96.654 68.0136H85.2016C84.5712 68.0136 84.0556 68.5292 84.0556 69.1596C84.0556 69.79 84.5712 70.3056 85.2016 70.3056H95.7016C95.5124 70.7308 95.3172 71.1532 95.1164 71.572H78.9516C78.3212 71.572 77.8056 72.0876 77.8056 72.718C77.8056 73.3484 78.3212 73.864 78.9516 73.864H93.944C93.712 74.2896 93.4748 74.712 93.2308 75.1304H72.7016C72.0712 75.1304 71.5556 75.646 71.5556 76.2764C71.5556 76.9068 72.0712 77.4224 72.7016 77.4224H91.8108C91.5304 77.8492 91.244 78.2712 90.9508 78.6888H66.4516C65.8212 78.6888 65.3056 79.2044 65.3056 79.8348C65.3056 80.4652 65.8212 80.9808 66.4516 80.9808H89.2432C88.9052 81.4084 88.56 81.8308 88.2084 82.2472H60.2016C59.5712 82.2472 59.0556 82.7628 59.0556 83.3932C59.0556 84.0236 59.5712 84.5392 60.2016 84.5392H86.1524C77.0488 94.066 64.2176 100 50 100C22.3856 100 0 77.6144 0 50C0 42.7044 1.5636 35.7744 4.3724 29.5252H24.106C24.736 29.5252 25.2516 29.0096 25.2516 28.3792C25.2516 27.7492 24.736 27.2332 24.106 27.2332H5.4724C5.6904 26.8072 5.9156 26.3852 6.146 25.9668H30.356C30.986 25.9668 31.5016 25.4512 31.5016 24.8208C31.5016 24.1904 30.986 23.6748 30.356 23.6748H7.4848C7.7492 23.248 8.0204 22.826 8.2976 22.4084H36.606C37.236 22.4084 37.7516 21.8928 37.7516 21.2624C37.7516 20.632 37.236 20.1164 36.606 20.1164H9.9124C10.2316 19.6888 10.5584 19.2668 10.8908 18.85H42.856C43.486 18.85 44.0016 18.3344 44.0016 17.704C44.0016 17.0736 43.486 16.558 42.856 16.558H12.834C13.2204 16.1288 13.6144 15.7068 14.0152 15.2916H49.106C49.736 15.2916 50.2516 14.776 50.2516 14.1456C50.2516 13.5152 49.736 12.9996 49.106 12.9996H16.3752C25.2548 4.924 37.0516 0 50 0Z" fill="white"/>
<path fill-rule="evenodd" clip-rule="evenodd" d="M38.5113 63.3925C47.0675 62.1425 52.9588 62.25 61.5263 63.4362C62.1467 63.5261 62.7137 63.8376 63.1224 64.3129C63.5311 64.7883 63.7541 65.3955 63.75 66.0225C63.75 66.6225 63.5437 67.205 63.1712 67.66C62.522 68.4533 61.8569 69.2334 61.1763 70H64.4775C64.685 69.7525 64.8937 69.5 65.105 69.2437C65.8464 68.3345 66.2509 67.1969 66.25 66.0237C66.25 63.4925 64.4025 61.3112 61.8687 60.9612C53.0987 59.7475 46.9688 59.6312 38.15 60.92C35.59 61.2937 33.75 63.5087 33.75 66.0575C33.75 67.1887 34.1188 68.3075 34.8175 69.2137C35.0238 69.4812 35.2275 69.7437 35.43 70.0012H38.6512C38.018 69.2431 37.4004 68.4721 36.7988 67.6887C36.4412 67.2197 36.2483 66.6459 36.25 66.0562C36.25 64.71 37.2175 63.5812 38.5113 63.3925Z" fill="#0C7149"/>
<path fill-rule="evenodd" clip-rule="evenodd" d="M50 51.25C50.9849 51.25 51.9602 51.056 52.8701 50.6791C53.7801 50.3022 54.6069 49.7497 55.3033 49.0533C55.9997 48.3569 56.5522 47.5301 56.9291 46.6201C57.306 45.7102 57.5 44.7349 57.5 43.75C57.5 42.7651 57.306 41.7898 56.9291 40.8799C56.5522 39.9699 55.9997 39.1431 55.3033 38.4467C54.6069 37.7503 53.7801 37.1978 52.8701 36.8209C51.9602 36.444 50.9849 36.25 50 36.25C48.0109 36.25 46.1032 37.0402 44.6967 38.4467C43.2902 39.8532 42.5 41.7609 42.5 43.75C42.5 45.7391 43.2902 47.6468 44.6967 49.0533C46.1032 50.4598 48.0109 51.25 50 51.25ZM50 53.75C52.6522 53.75 55.1957 52.6964 57.0711 50.8211C58.9464 48.9457 60 46.4022 60 43.75C60 41.0978 58.9464 38.5543 57.0711 36.6789C55.1957 34.8036 52.6522 33.75 50 33.75C47.3478 33.75 44.8043 34.8036 42.9289 36.6789C41.0536 38.5543 40 41.0978 40 43.75C40 46.4022 41.0536 48.9457 42.9289 50.8211C44.8043 52.6964 47.3478 53.75 50 53.75Z" fill="#0C7149"/>
<path fill-rule="evenodd" clip-rule="evenodd" d="M50 72.5C62.4263 72.5 72.5 62.4263 72.5 50C72.5 37.5737 62.4263 27.5 50 27.5C37.5737 27.5 27.5 37.5737 27.5 50C27.5 62.4263 37.5737 72.5 50 72.5ZM50 75C63.8075 75 75 63.8075 75 50C75 36.1925 63.8075 25 50 25C36.1925 25 25 36.1925 25 50C25 63.8075 36.1925 75 50 75Z" fill="#0C7149"/>
</svg>
