<svg width="100" height="62" viewBox="0 0 100 62" fill="none" xmlns="http://www.w3.org/2000/svg">
<path fill-rule="evenodd" clip-rule="evenodd" d="M14.4773 47.0834C15.4155 47.1173 17.1403 47.0834 18.079 47.0581C19.0173 47.033 19.1694 47.0157 19.3134 46.9738C19.457 46.9314 19.592 46.864 19.922 46.4242C20.2516 45.9846 20.7759 45.1732 21.1226 44.6151C21.4689 44.057 21.6382 43.7523 21.7492 43.4863C21.8602 43.2203 21.9136 42.9927 21.8794 42.8005C21.8446 42.6084 21.7231 42.4518 21.3903 42.3995C21.0573 42.3474 20.5131 42.3995 18.0941 42.4125C15.6746 42.4257 11.3798 42.3995 9.14757 42.4778C6.91537 42.5561 6.74564 42.739 5.54706 44.5837C4.34817 46.4283 2.12 49.935 1.0222 51.7437C-0.0755169 53.5525 -0.043279 53.6636 0.0317794 53.7174C0.106809 53.7708 0.224748 53.7668 0.449051 53.7651C0.673441 53.763 1.0039 53.763 1.86344 53.761C2.72291 53.7587 4.11074 53.7544 4.96338 53.7633C5.81591 53.7719 6.13249 53.7936 6.30585 53.7932C6.47887 53.7923 6.50822 53.7692 6.70078 53.4701C6.89294 53.1712 7.24778 52.5959 8.24562 51.0065C9.24341 49.4173 10.8833 46.813 11.7543 45.4602C12.6253 44.1075 12.7264 44.0059 12.8533 43.9807C12.9801 43.9553 13.1327 44.0059 13.2768 44.0483C13.4203 44.0908 13.5553 44.1243 13.6993 44.1753C13.843 44.2258 13.9951 44.2935 14.0796 44.4628C14.164 44.6316 14.1811 44.9021 14.1134 45.122C14.0457 45.3418 13.8935 45.5108 13.7328 45.6801C13.5721 45.849 13.4032 46.0183 13.3016 46.1537C13.2001 46.2888 13.1666 46.3903 13.1666 46.5004C13.1666 46.6102 13.2001 46.7285 13.293 46.8386C13.386 46.9484 13.5386 47.0495 14.4773 47.0834V47.0834Z" fill="#0C7149"/>
<path fill-rule="evenodd" clip-rule="evenodd" d="M36.5374 42.4647C34.0069 42.3735 28.9721 42.3735 26.3536 42.4681C23.735 42.5628 23.5319 42.7516 22.6781 44.1399C21.8243 45.528 20.319 48.1152 19.2791 49.8232C18.2393 51.5308 17.6641 52.3594 17.3263 52.8554C16.9886 53.3515 16.8874 53.515 16.8744 53.6183C16.8608 53.721 16.9351 53.763 19.4917 53.7778C22.0483 53.7925 27.087 53.7793 29.6938 53.7766C32.3001 53.7734 32.4747 53.7804 32.6489 53.6588C32.8227 53.5367 32.9968 53.2863 33.2612 52.8568C33.5255 52.4273 33.8809 51.8185 34.1008 51.396C34.3202 50.9733 34.4051 50.7363 34.4475 50.5164C34.4895 50.2965 34.4895 50.0938 34.439 49.9922C34.388 49.8906 34.2868 49.8906 33.3147 49.8992C32.3421 49.9078 30.4987 49.9245 29.5094 49.9668C28.5202 50.0094 28.3851 50.0766 28.2582 50.2545C28.1314 50.432 28.0131 50.7192 27.7765 51.0574C27.5399 51.3956 27.1846 51.7847 26.9313 52.1143C26.6775 52.4439 26.5249 52.7147 26.3561 52.8669C26.1867 53.0191 26.0007 53.0529 25.7388 53.0529C25.4765 53.0529 25.1384 53.0191 24.9185 52.9347C24.6985 52.8499 24.5975 52.7147 24.5721 52.5965C24.5464 52.4778 24.5975 52.3765 24.9189 51.8439C25.24 51.3111 25.8318 50.3476 26.2463 49.7727C26.6604 49.1976 26.8974 49.0116 27.0834 48.9184C27.2694 48.8255 27.4045 48.8255 28.7404 48.8173C30.0765 48.8088 32.6126 48.7917 33.9233 48.7835C35.2336 48.7749 35.3184 48.7749 35.4539 48.7073C35.589 48.6395 35.7745 48.5045 36.2396 47.8196C36.7046 47.1345 37.4487 45.9002 37.9754 44.9924C38.5016 44.0844 38.8109 43.5032 38.9524 43.1213C39.0935 42.7391 39.0674 42.5562 36.5374 42.4648V42.4647ZM30.8006 44.0661C31.2284 44.3378 31.3559 44.9096 31.0842 45.3374L29.7671 47.4106C29.4953 47.8385 28.9235 47.966 28.4958 47.6943C28.068 47.4226 27.9404 46.8507 28.2121 46.4228L29.5293 44.3495C29.801 43.9219 30.3729 43.7943 30.8006 44.0661Z" fill="#0C7149"/>
<path fill-rule="evenodd" clip-rule="evenodd" d="M53.4053 42.4183C50.752 42.3833 45.6911 42.3832 43.1456 42.4039C40.6 42.4244 40.5699 42.466 39.2253 44.6387C37.8803 46.8115 35.221 51.116 33.8576 53.3526C32.4943 55.5894 32.4266 55.7583 32.4776 55.97C32.5281 56.1812 32.697 56.4346 33.2131 57.3227C33.7288 58.2104 34.5911 59.7321 35.0733 60.5272C35.5551 61.3217 35.6563 61.389 35.7663 61.4148C35.8761 61.44 35.9949 61.4229 36.8151 60.1804C37.6351 58.9373 39.1568 56.4685 39.9991 55.1876C40.8411 53.9066 41.0035 53.8137 42.4174 53.7688C43.8309 53.7235 46.496 53.726 47.8797 53.7325C49.2634 53.739 49.3659 53.7495 49.4748 53.7426C49.5837 53.7358 49.6987 53.712 50.6014 52.3908C51.5038 51.0694 53.1931 48.4509 54.2154 46.8714C55.2377 45.2914 55.593 44.75 55.8553 44.3445C56.1173 43.9386 56.2861 43.6677 56.3865 43.3985C56.4869 43.129 56.5186 42.8606 56.4113 42.6917C56.304 42.5223 56.0585 42.4529 53.4053 42.4183ZM47.9336 44.066L47.9345 44.0663C48.3624 44.338 48.4896 44.9091 48.218 45.337L46.9003 47.411C45.9209 48.9542 44.8354 50.4574 43.853 52.0039C43.5814 52.4315 43.0098 52.5593 42.5823 52.2876L42.5814 52.287C42.1539 52.0149 42.0263 51.4437 42.2979 51.0158C43.288 49.4576 44.3682 47.9587 45.3452 46.4229L46.6629 44.3488C46.9345 43.9213 47.5061 43.7936 47.9336 44.0658L47.9336 44.066Z" fill="#0C7149"/>
<path fill-rule="evenodd" clip-rule="evenodd" d="M71.2037 42.4077C68.5912 42.3739 63.5376 42.4035 60.986 42.4187C58.434 42.4333 58.383 42.4333 58.3071 42.4758C58.2308 42.5177 58.1297 42.6027 57.0054 44.3865C55.8807 46.1704 53.7329 49.6538 52.6677 51.4717C51.6022 53.2895 51.6193 53.4416 51.6785 53.5518C51.7376 53.6616 51.8388 53.7292 52.363 53.7544C52.8872 53.7798 53.8344 53.763 56.3216 53.7559C58.8084 53.7485 62.8356 53.751 64.9863 53.7676C67.1369 53.784 67.411 53.8143 67.6635 53.6864C67.9156 53.5585 68.1461 53.2717 69.0648 51.8263C69.9831 50.381 71.5895 47.7771 72.5111 46.2383C73.4327 44.6991 73.6697 44.2259 73.8472 43.8712C74.0245 43.5157 74.1433 43.2788 74.1857 43.0932C74.2277 42.9072 74.1938 42.7716 74.0911 42.6553C73.9883 42.5391 73.8161 42.4416 71.2037 42.4079V42.4077ZM65.8829 44.066L65.8838 44.0663C66.3117 44.338 66.439 44.9091 66.1673 45.337L64.8497 47.411C63.8702 48.9542 62.7847 50.4575 61.8024 52.004C61.5307 52.4315 60.9591 52.5593 60.5316 52.2876L60.5308 52.287C60.1033 52.0149 59.9756 51.4437 60.2473 51.0158C61.2374 49.4576 62.3176 47.9587 63.2946 46.4229L64.6122 44.3488C64.884 43.9213 65.4554 43.7936 65.883 44.0658L65.8829 44.066Z" fill="#0C7149"/>
<path fill-rule="evenodd" clip-rule="evenodd" d="M84.6778 46.6779C85.7767 46.6948 87.8063 46.6436 88.931 46.534C90.0552 46.4242 90.2746 46.255 90.6128 45.9253C90.951 45.5957 91.4079 45.105 91.7209 44.5727C92.0337 44.0398 92.2027 43.4647 92.2654 43.0962C92.3278 42.728 92.2842 42.5655 92.1887 42.4851C92.0933 42.4043 91.946 42.4053 89.2446 42.3991C86.5429 42.393 81.2862 42.3799 78.6595 42.4017C76.0323 42.423 76.0344 42.4792 75.7819 42.8708C75.5294 43.262 75.0223 43.9894 74.0583 45.5705C73.0944 47.1513 71.6743 49.5863 70.8882 50.9647C70.1017 52.3427 69.9492 52.6638 69.8647 52.9428C69.7803 53.2219 69.7631 53.4588 69.8423 53.589C69.921 53.7192 70.0952 53.7428 71.1607 53.7514C72.2258 53.7595 74.1823 53.7532 75.2026 53.7497C76.2228 53.7461 76.3077 53.7461 76.4598 53.6617C76.612 53.5772 76.8315 53.4079 77.8293 51.8185C78.8271 50.2292 80.6025 47.2191 81.6256 45.5959C82.6487 43.9726 82.9191 43.7356 83.1476 43.592C83.3757 43.4484 83.5616 43.3975 83.7395 43.406C83.917 43.4145 84.0859 43.4818 84.2213 43.592C84.3567 43.7018 84.4579 43.8539 84.3396 44.1077C84.2213 44.3615 83.8831 44.7163 83.655 45.0378C83.4266 45.3593 83.3079 45.6464 83.2573 45.8835C83.2068 46.12 83.2235 46.3061 83.3164 46.4416C83.4095 46.5765 83.5788 46.6609 84.6778 46.6779Z" fill="#0C7149"/>
<path fill-rule="evenodd" clip-rule="evenodd" d="M10.1461 53.7695C9.80718 53.1524 9.4849 52.6397 9.14917 52.0208C9.90301 50.8529 10.7997 49.4315 11.7865 48.1564C12.7031 49.1228 15.4494 52.5306 16.2975 53.7766C13.9482 53.8019 12.1993 53.7872 10.1461 53.7695Z" fill="#0C7149"/>
<path fill-rule="evenodd" clip-rule="evenodd" d="M45.4248 0C51.8453 0 57.5563 2.9704 61.2044 7.58358C61.1502 7.51487 61.0955 7.44668 61.0403 7.37881C60.4829 7.38532 59.85 7.39102 59.1287 7.39489C54.5528 7.4198 46.4297 7.3704 42.2074 7.51851C37.9857 7.66644 37.6646 8.01215 35.398 11.5016C33.1301 14.9902 28.9161 21.6224 26.8396 25.0433C26.7107 25.2557 26.5901 25.4556 26.4772 25.6441C26.5101 25.7417 26.5437 25.839 26.578 25.936C25.8663 23.9287 25.4783 21.7733 25.4783 19.5288C25.4783 8.7433 34.4088 0 45.4248 0ZM64.1224 12.7146C64.9294 14.8362 65.3714 17.1318 65.3714 19.5288C65.3714 30.3143 56.4408 39.0576 45.4248 39.0576C37.8608 39.0576 31.2804 34.9353 27.8987 28.8601L28.431 28.8589C30.0565 28.8541 32.6813 28.8465 34.2915 28.8505C35.9016 28.8541 36.4963 28.8707 36.8245 28.8699C37.1517 28.8684 37.2113 28.8489 37.5776 28.2965C37.9434 27.7432 38.6144 26.6553 40.5017 23.6492C42.3889 20.6435 45.4909 15.7179 47.1382 13.1592C48.7854 10.6007 48.9768 10.4086 49.2165 10.361C49.4566 10.3132 49.7452 10.4086 50.0175 10.4888C50.2892 10.5695 50.5443 10.6325 50.8166 10.7289C51.0882 10.8244 51.3759 10.9525 51.536 11.2729C51.6955 11.5924 51.7281 12.1036 51.5999 12.5196C51.4719 12.9355 51.1841 13.2552 50.8798 13.5749C50.576 13.8946 50.2566 14.2148 50.0643 14.4707C49.8724 14.7264 49.8093 14.9184 49.8093 15.127C49.8093 15.3344 49.8724 15.5578 50.0483 15.7663C50.2242 15.9738 50.5127 16.1652 52.2882 16.2292C54.0627 16.2934 57.3247 16.2292 59.1 16.1814C60.8746 16.1338 61.1625 16.1011 61.4349 16.0218C61.7065 15.9415 61.9619 15.8142 62.586 14.9825C63.0038 14.425 63.5871 13.5516 64.1238 12.7184L64.1224 12.7146ZM47.4539 18.3396C47.1872 18.1103 46.9992 17.9552 46.6996 17.7671C46.1456 18.4185 45.2494 19.991 44.7485 20.7919C44.3888 21.3681 42.369 24.4761 42.2789 24.8332C42.2325 25.0168 42.2906 24.9914 42.511 25.1717C42.9708 25.539 47.4346 28.7132 47.6683 28.7896C48.2379 28.9007 50.981 28.8518 51.6773 28.8538C52.3644 28.8559 59.4366 28.9278 59.5736 28.8043C59.6598 28.7263 58.6186 27.8951 58.5068 27.8003C54.8091 24.6724 51.1285 21.4967 47.4539 18.3396Z" fill="#0C7149"/>
</svg>
