<svg width="100" height="100" viewBox="0 0 100 100" fill="none" xmlns="http://www.w3.org/2000/svg">
<path fill-rule="evenodd" clip-rule="evenodd" d="M50 0C77.6144 0 100 22.3856 100 50C100 56.3512 98.8144 62.4248 96.654 68.0136H85.2016C84.5712 68.0136 84.0556 68.5292 84.0556 69.1596C84.0556 69.79 84.5712 70.3056 85.2016 70.3056H95.7016C95.5124 70.7308 95.3172 71.1528 95.1164 71.572H78.9516C78.3212 71.572 77.8056 72.0876 77.8056 72.718C77.8056 73.3484 78.3212 73.864 78.9516 73.864H93.944C93.712 74.2896 93.4748 74.712 93.2308 75.1304H72.7016C72.0712 75.1304 71.5556 75.646 71.5556 76.2764C71.5556 76.9068 72.0712 77.4224 72.7016 77.4224H91.8108C91.5304 77.8488 91.244 78.2712 90.9508 78.6888H66.4516C65.8212 78.6888 65.3056 79.2044 65.3056 79.8348C65.3056 80.4652 65.8212 80.9808 66.4516 80.9808H89.2432C88.9048 81.4084 88.56 81.8308 88.2084 82.2472H60.2016C59.5712 82.2472 59.0556 82.7628 59.0556 83.3928V83.3932C59.0556 84.0236 59.5712 84.5392 60.2016 84.5392H86.1524C77.0488 94.066 64.2176 100 50 100C22.3856 100 0 77.6144 0 50C0 42.7044 1.5636 35.7744 4.3724 29.5252H24.106C24.736 29.5252 25.2516 29.0096 25.2516 28.3792V28.3788C25.2516 27.7488 24.736 27.2332 24.106 27.2332H5.4724C5.6904 26.8072 5.9156 26.3852 6.146 25.9668H30.356C30.986 25.9668 31.5016 25.4512 31.5016 24.8208C31.5016 24.1904 30.986 23.6748 30.356 23.6748H7.4848C7.7492 23.248 8.0204 22.826 8.2976 22.4084H36.606C37.236 22.4084 37.7516 21.8928 37.7516 21.2624C37.7516 20.632 37.236 20.1164 36.606 20.1164H9.9124C10.2316 19.6888 10.5584 19.2668 10.8908 18.85H42.856C43.486 18.85 44.0016 18.3344 44.0016 17.704C44.0016 17.0736 43.486 16.558 42.856 16.558H12.834C13.2204 16.1288 13.6144 15.7068 14.0152 15.2916H49.106C49.736 15.2916 50.2516 14.776 50.2516 14.1456C50.2516 13.5152 49.736 12.9996 49.106 12.9996H16.3752C25.2548 4.924 37.0516 0 50 0ZM29.1688 71.5912V71.1888C29.2648 69.426 30.6008 67.7132 32.8732 67.5244C32.8732 64.0668 32.8732 60.6096 32.8732 57.1524C32.8732 53.8732 32.6268 50.3476 33.4456 47.4592C34.2712 44.5492 36.3848 41.4608 38.724 39.72C39.842 38.888 42.506 37.1784 43.774 37.15C43.2836 35.0448 43.6832 35.5868 44.6208 34.1868C44.178 33.5256 42.2924 32.3096 42.2924 29.636V24.556C42.2924 24.1028 42.6188 23.7092 43.0332 23.7092C43.6568 23.7092 45.1364 26.3028 48.6304 25.1788C49.1528 25.0108 54.1456 22.6644 54.1456 24.3444V29.8476C54.1456 32.4328 51.9768 33.6952 51.8172 34.2928C52.3304 34.4296 52.6228 34.9276 52.7872 35.4408C53.0748 36.3404 52.842 36.2852 52.77 37.15C53.2092 37.1868 54.27 37.6736 54.7056 37.8604C56.4156 38.5924 57.8532 39.7464 59.1464 41.0396C62.2208 44.114 63.5648 47.62 63.5648 52.0724V67.4184C64.0196 67.6368 64.614 67.7292 65.0628 67.9312C68.8508 69.6344 67.576 75.0384 63.6708 75.0384C62.712 75.0384 61.9736 74.5092 61.0248 74.5092H35.3072C34.9028 74.5092 34.3632 74.7204 34.0272 74.8168C33.0772 75.0888 32.238 75.1272 31.3176 74.6888C29.9164 74.0212 29.2348 72.8216 29.1688 71.5912ZM53.6164 39.0552C54.4212 39.2424 55.9544 40.1928 56.548 40.6744C58.438 42.2072 59.4824 43.2724 60.672 45.652C62.6868 49.6812 62.0832 53.1132 62.0832 57.8932C62.0832 60.9624 62.0832 64.0316 62.0832 67.1008C61.652 66.894 60.7124 66.6964 60.1784 66.5716C60.0748 67.0144 59.8716 67.5644 59.8608 68.0532L62.8236 68.7948C63.7708 69.0432 64.8604 69.2652 65.3696 69.9528C66.6168 71.6372 65.4164 74.0588 62.8012 73.368C60.8792 72.8604 61.6016 73.0276 59.4372 73.0276H37.2124C35.6528 73.0276 35.0164 72.97 33.8132 73.3324C30.8764 74.2172 30.0096 71.32 31.1008 69.9852C31.8344 69.0876 33.8188 68.7424 35.0532 68.4344C35.5144 68.3192 36.1852 68.086 36.5772 68.0532C36.5328 67.5196 36.3044 67.1052 36.26 66.5716C35.7632 66.81 34.8512 66.8628 34.3548 67.1008C34.3548 64.0316 34.3548 60.9624 34.3548 57.8932C34.3548 51.9 33.6144 47.4176 37.6592 42.7828C38.9156 41.3432 41.1704 39.3832 43.0332 38.9492L42.1252 40.052C41.5096 40.9056 40.1488 43.2928 40.07 44.2408C40.4892 44.2756 40.974 44.5544 41.4456 44.6644C41.7712 43.266 42.9276 41.4268 43.7876 40.3388C46.4188 37.0104 49.9428 37.2212 52.584 40.1932C53.4496 41.1672 54.714 43.3628 54.9924 44.5584C55.6264 44.5444 55.7848 44.2896 56.3684 44.2408C56.3464 43.2672 54.8408 40.6164 54.0548 39.6748C53.8148 39.3876 53.7176 39.4336 53.6164 39.0552ZM51.2884 36.7268C48.6256 36.5052 49.94 36.3032 46.6352 36.5188C46.126 36.5516 45.62 36.6876 45.15 36.7268C45.1424 36.6368 44.6984 35.3508 45.8908 35.3508H50.7588C51.0296 35.3508 51.3096 35.7032 51.3876 35.8924C51.5232 36.2216 51.3824 36.3336 51.2884 36.7268ZM56.8972 49.6384H55.9448V52.7076H57.4264V49.5324C57.1892 49.588 57.1832 49.6384 56.8972 49.6384ZM52.1348 25.3776C52.1348 28.1288 52.5916 30.42 51.2264 32.3252C50.9564 32.7024 50.8544 32.6352 50.7588 33.0672C50.42 33.1616 50.52 33.1456 50.23 33.34C50.4292 32.4848 50.7588 31.6448 50.7588 30.5884C50.2536 30.5464 49.9456 30.4828 49.2772 30.4828C49.2772 31.568 48.8448 33.3444 48.2188 33.7632C47.586 33.3392 47.1608 31.4792 47.1608 30.3768C46.4972 30.3768 46.2144 30.358 45.6788 30.4828C45.6788 31.5248 46.0072 32.4784 46.208 33.34C45.7264 33.0852 45.1676 32.734 44.8288 32.2856C44.448 31.782 44.1908 31.4172 43.9708 30.7092C43.6048 29.5336 43.774 27.5532 43.774 26.0376C46.7544 27.6148 48.318 26.9124 51.1368 25.7804C51.4696 25.6468 51.8704 25.5404 52.1348 25.3776ZM55.6304 46.376C55.6524 46.6576 55.692 46.738 55.7492 47.0824C56.0348 48.802 55.5136 48.1568 57.3208 48.1568C57.3208 47.3508 57.1656 46.8268 57.1088 46.146L55.6304 46.376Z" fill="white"/>
</svg>
