<svg width="100" height="100" viewBox="0 0 100 100" fill="none" xmlns="http://www.w3.org/2000/svg">
<path fill-rule="evenodd" clip-rule="evenodd" d="M50 0C77.6144 0 100 22.3856 100 50C100 56.3512 98.8144 62.4248 96.654 68.0136H85.2016C84.5712 68.0136 84.0556 68.5292 84.0556 69.1596C84.0556 69.79 84.5712 70.3056 85.2016 70.3056H95.7016C95.5124 70.7308 95.3172 71.1528 95.1164 71.572H78.9516C78.3212 71.572 77.8056 72.0876 77.8056 72.718C77.8056 73.3484 78.3212 73.864 78.9516 73.864H93.944C93.712 74.2896 93.4748 74.712 93.2308 75.1304H72.7016C72.0712 75.1304 71.5556 75.646 71.5556 76.2764C71.5556 76.9068 72.0712 77.4224 72.7016 77.4224H91.8108C91.5304 77.8488 91.244 78.2712 90.9508 78.6888H66.4516C65.8212 78.6888 65.3056 79.2044 65.3056 79.8348C65.3056 80.4652 65.8212 80.9808 66.4516 80.9808H89.2432C88.9048 81.4084 88.56 81.8308 88.2084 82.2472H60.2016C59.5712 82.2472 59.0556 82.7628 59.0556 83.3928V83.3932C59.0556 84.0236 59.5712 84.5392 60.2016 84.5392H86.1524C77.0488 94.066 64.2176 100 50 100C22.3856 100 0 77.6144 0 50C0 42.7044 1.5636 35.7744 4.3724 29.5252H24.106C24.736 29.5252 25.2516 29.0096 25.2516 28.3792V28.3788C25.2516 27.7488 24.736 27.2332 24.106 27.2332H5.4724C5.6904 26.8072 5.9156 26.3852 6.146 25.9668H30.356C30.986 25.9668 31.5016 25.4512 31.5016 24.8208C31.5016 24.1904 30.986 23.6748 30.356 23.6748H7.4848C7.7492 23.248 8.0204 22.826 8.2976 22.4084H36.606C37.236 22.4084 37.7516 21.8928 37.7516 21.2624C37.7516 20.632 37.236 20.1164 36.606 20.1164H9.9124C10.2316 19.6888 10.5584 19.2668 10.8908 18.85H42.856C43.486 18.85 44.0016 18.3344 44.0016 17.704C44.0016 17.0736 43.486 16.558 42.856 16.558H12.834C13.2204 16.1288 13.6144 15.7068 14.0152 15.2916H49.106C49.736 15.2916 50.2516 14.776 50.2516 14.1456C50.2516 13.5152 49.736 12.9996 49.106 12.9996H16.3752C25.2548 4.924 37.0516 0 50 0ZM56.972 74.0132C57.3336 73.26 57.4772 71.2804 59.766 70.0984C60.7976 69.5656 61.0528 69.6356 61.4448 69.4476C61.4448 70.1928 61.442 70.9388 61.4448 71.684C61.4488 72.6624 61.4848 72.9144 60.9604 73.436C60.1208 74.27 58.6032 74.0132 56.972 74.0132ZM37.31 69.4476C37.5628 69.5688 38.2988 69.6488 38.9904 70.0036C40.3136 70.6824 41.876 72.52 41.876 74.0132C40.066 74.0132 37.9424 74.3652 37.4184 72.6936C37.1968 71.9848 37.31 70.362 37.31 69.4476ZM37.31 67.3044V55.004C37.31 53.2024 37.5404 51.8492 37.906 50.3812C38.194 49.2248 39.1596 46.6824 39.7368 45.6896C40.1132 45.042 42.9388 40.2808 43.5532 40.2808H55.3876C55.6332 40.2808 55.6836 40.4732 56 40.88L58.8968 45.2516C60.2012 47.8348 61.4448 50.6508 61.4448 53.6992V67.5836C60.532 67.5836 59.6388 68.0216 59.0212 68.3284C58.4968 68.5888 57.5596 69.2468 57.1788 69.654L55.8508 71.4948C55.5848 72.0168 55.1084 73.2468 55.1084 74.0132H43.8328C43.7956 72.3316 42.6848 70.6812 41.62 69.6104C40.6108 68.596 39.2404 67.8436 37.8376 67.6152C37.5324 67.5656 37.31 67.6364 37.31 67.3044ZM44.858 36.5532H54.0832C54.4228 36.5532 54.408 36.9952 54.4936 37.3544C54.5804 37.7176 54.7068 38.0692 54.7356 38.4172H44.2056C44.2344 38.07 44.5084 36.5532 44.858 36.5532ZM47.374 31.0556C47.9192 30.9284 49.074 30.0324 49.504 30.0596C49.8352 30.0808 51.1108 30.9276 51.6604 31.0556C51.5728 31.4312 51.3808 31.5212 51.3808 31.894C51.3808 32.4628 51.7968 32.826 52.406 32.826C52.868 32.826 53.1028 32.4576 53.3612 32.1972C53.63 31.9272 53.7072 31.7408 53.9912 31.6156C54.4272 31.4232 56.5688 30.8692 56.972 30.8692C57.1956 30.8692 57.0436 30.7776 57.3576 31.1356L57.438 31.242C57.2164 31.6604 56.084 32.8984 55.6808 33.3988L54.9036 34.2988C54.7208 34.514 54.7152 34.6896 54.456 34.6896H44.4852C44.1472 34.6896 43.212 33.2912 42.9244 32.9888C42.6004 32.6488 41.6068 31.5368 41.5032 31.1488C41.7324 30.9952 41.7408 30.8576 42.0736 30.83C42.2368 30.8164 42.5444 30.912 42.7884 30.9808C43.2624 31.114 43.8284 31.2844 44.3184 31.4088C45.1084 31.6088 45.152 31.5644 45.5816 32.0092C45.9656 32.4068 46.2016 32.826 46.8148 32.826C47.292 32.826 47.7468 32.336 47.7468 31.894C47.7468 31.6356 47.4788 31.254 47.374 31.0556ZM42.1556 28.9124C41.2624 28.9124 40.8008 29.1792 40.3124 29.678C39.8792 30.1208 39.5464 30.7592 39.5464 31.4284C39.5464 32.2912 40.5428 33.0752 41.184 33.8908L42.3292 35.2616C42.6492 35.6532 42.8884 35.6732 42.7428 36.2912C42.51 37.278 42.3044 38.6168 41.7028 39.362C38.6232 43.1756 35.4464 48.6472 35.4464 53.6992V72.4292C35.4464 74.1276 37.2208 75.8772 38.9872 75.8772H59.9536C61.7192 75.8772 63.4016 74.1128 63.4016 72.336V54.1652C63.4016 50.2636 62.1444 47.4904 60.606 44.3808L59.4328 42.3856C59.2612 42.126 59.102 41.978 59.022 41.6784C59.3216 41.5984 59.4888 41.4156 59.7756 41.314C60.8088 40.9472 61.6212 41.154 62.354 41.8876L63.5628 43.0084C66.5836 45.944 70.1316 40.1876 67.3152 40.1876C66.5012 40.1876 66.5296 41.0636 66.0808 41.5624C65.14 42.6084 64.5108 40.9564 63.0492 39.9808C61.3388 38.8392 59.5448 39.0888 57.9036 40.1876C57.69 40.0308 57.4104 39.586 57.2516 39.3488C57.4752 39.0912 57.5652 38.7476 57.8788 38.392C59.2468 36.8408 61.7336 38.4988 64.3352 36.6484C65.4128 35.8816 66.3376 33.5716 64.52 33.5716C63.0584 33.5716 64.6624 35.606 60.8888 35.7176C59.4868 35.7592 58.4104 35.7012 57.2308 36.4392C56.8428 36.682 56.7368 36.8956 56.4128 37.1124C55.9728 35.2244 55.8148 36.3868 57.7568 33.8904C57.9184 33.6824 57.9964 33.6384 58.1556 33.4504C58.3252 33.2496 58.4008 33.1416 58.5768 32.94C59.4072 31.9876 59.3016 32.2156 59.3016 31.1488C59.3016 30.5388 58.8672 29.8928 58.5372 29.5832C57.2352 28.362 55.692 29.122 54.03 29.6052C53.6428 29.7176 53.424 29.8464 53.1444 29.7528C52.838 29.65 50.604 28.26 50.0764 28.26C47.8312 28.26 48.6408 28.3424 46.5972 29.3468C46.416 29.436 45.9064 29.7488 45.83 29.7708C45.4568 29.8788 43.038 28.9124 42.1556 28.9124ZM41.0372 58.9176C41.0372 61.2724 43.39 60.8744 44.858 60.8744C45.8908 60.8744 46.1224 59.0636 44.77 59.0056C44.2096 58.9816 43.5648 59.0108 42.9944 59.0108C43.3408 58.3556 44.2988 57.2788 44.2988 56.588C44.2988 55.9916 43.8436 55.7492 43.274 55.7492C42.6204 55.7492 42.2192 56.6332 41.93 57.1076C41.6148 57.6248 41.0372 58.2048 41.0372 58.9176ZM55.6672 57.9856C55.6672 58.6648 55.632 58.5404 55.9468 59.0108C55.046 59.0108 54.1452 59.0112 53.2448 59.0108C51.9468 59.01 51.3808 58.936 51.3808 60.0356C51.3808 60.4964 51.7588 60.8744 52.2196 60.8744H56.1332C57.0972 60.8744 57.9036 59.9492 57.9036 59.0108C57.9036 58.0052 56.926 56.7536 55.9848 57.4644C55.8752 57.5472 55.6672 57.8332 55.6672 57.9856ZM52.0332 53.0468C52.6004 53.0468 53.0584 52.6588 53.0584 52.022C53.0584 51.6608 52.6648 51.186 52.4728 50.93C51.3512 49.4352 51.1996 48.7604 49.1444 48.7604C48.2928 48.7604 47.4016 49.4932 47.0944 50.0676C46.584 51.022 47.5284 51.8796 48.3988 51.372C48.6672 51.2156 49.3172 49.8888 50.358 51.2744C50.8008 51.864 51.4516 53.0468 52.0332 53.0468ZM44.858 53.606C44.858 55.0616 46.7216 54.7036 46.7216 53.8856C46.7216 53.3612 46.6316 52.6744 45.79 52.6744C45.3212 52.6744 44.858 53.1376 44.858 53.606ZM53.4308 55.004C53.4308 56.8516 55.2948 56.3476 55.2948 55.1904C55.2948 53.9188 53.4308 54.1404 53.4308 55.004ZM47.5604 59.8492C47.5604 61.196 49.424 61.2832 49.424 59.8492C49.424 58.724 47.5604 58.724 47.5604 59.8492ZM36.484 26.8084C36.7536 26.6168 37.0256 26.4304 37.3016 26.2504C36.9936 26.3828 36.7164 26.5732 36.484 26.8084Z" fill="white"/>
</svg>
