<svg width="100" height="100" viewBox="0 0 100 100" fill="none" xmlns="http://www.w3.org/2000/svg">
<path fill-rule="evenodd" clip-rule="evenodd" d="M50 0C77.6144 0 100 22.3856 100 50C100 56.3512 98.8144 62.4248 96.654 68.0136H85.2016C84.5712 68.0136 84.0556 68.5292 84.0556 69.1596C84.0556 69.79 84.5712 70.3056 85.2016 70.3056H95.7016C95.5124 70.7308 95.3172 71.1528 95.1164 71.572H78.9516C78.3212 71.572 77.8056 72.0876 77.8056 72.718C77.8056 73.3484 78.3212 73.864 78.9516 73.864H93.944C93.712 74.2896 93.4748 74.712 93.2308 75.1304H72.7016C72.0712 75.1304 71.5556 75.646 71.5556 76.2764C71.5556 76.9068 72.0712 77.4224 72.7016 77.4224H91.8108C91.5304 77.8488 91.244 78.2712 90.9508 78.6888H66.4516C65.8212 78.6888 65.3056 79.2044 65.3056 79.8348C65.3056 80.4652 65.8212 80.9808 66.4516 80.9808H89.2432C88.9048 81.4084 88.56 81.8308 88.2084 82.2472H60.2016C59.5712 82.2472 59.0556 82.7628 59.0556 83.3928V83.3932C59.0556 84.0236 59.5712 84.5392 60.2016 84.5392H86.1524C77.0488 94.066 64.2176 100 50 100C22.3856 100 0 77.6144 0 50C0 42.7044 1.5636 35.7744 4.3724 29.5252H24.106C24.736 29.5252 25.2516 29.0096 25.2516 28.3792V28.3788C25.2516 27.7488 24.736 27.2332 24.106 27.2332H5.4724C5.6904 26.8072 5.9156 26.3852 6.146 25.9668H30.356C30.986 25.9668 31.5016 25.4512 31.5016 24.8208C31.5016 24.1904 30.986 23.6748 30.356 23.6748H7.4848C7.7492 23.248 8.0204 22.826 8.2976 22.4084H36.606C37.236 22.4084 37.7516 21.8928 37.7516 21.2624C37.7516 20.632 37.236 20.1164 36.606 20.1164H9.9124C10.2316 19.6888 10.5584 19.2668 10.8908 18.85H42.856C43.486 18.85 44.0016 18.3344 44.0016 17.704C44.0016 17.0736 43.486 16.558 42.856 16.558H12.834C13.2204 16.1288 13.6144 15.7068 14.0152 15.2916H49.106C49.736 15.2916 50.2516 14.776 50.2516 14.1456C50.2516 13.5152 49.736 12.9996 49.106 12.9996H16.3752C25.2548 4.924 37.0516 0 50 0ZM43.0332 56.1828C43.2324 56.4548 43.7708 56.7544 44.0916 56.9236C43.998 57.3256 43.2548 58.4572 42.9884 58.89C42.466 59.7396 40.79 61.9472 40.9676 62.8968C41.1324 63.7764 41.8208 64.2264 42.8216 64.2264H48.1132C48.5452 64.2264 48.4308 63.8944 48.4308 63.062C48.4308 62.5528 47.4332 62.7436 46.9492 62.7448L43.3488 62.7464C42.0548 62.7608 41.8412 63.2036 43.9004 60.0136C44.3728 59.282 44.8536 58.5308 45.2556 57.7704C45.676 57.9928 46.0344 58.2532 46.42 58.5112C46.42 57.8364 46.3632 57.4392 46.3044 56.8276C46.2608 56.3784 46.2004 55.6508 46.1024 55.2304C45.662 55.2672 43.4068 56.0036 43.0332 56.1828ZM55.5216 57.982C55.9492 58.7904 56.4532 59.4724 56.9316 60.2764C57.246 60.8048 58.26 62.1484 58.2732 62.7448H52.1348V61.4748C51.806 61.5624 51.7584 61.6904 51.4992 61.8972L49.5948 63.4856C49.7208 63.6576 49.9512 63.8176 50.1568 63.9816C50.556 64.3 51.7456 65.3924 52.1348 65.4964V64.2264H57.85C58.8076 64.2264 59.4468 63.8196 59.6616 63.0672C59.9416 62.0856 59.0184 61.0888 58.412 60.0656C58.2096 59.7244 58.0492 59.4476 57.85 59.1464C57.6504 58.8448 57.49 58.5684 57.2876 58.2268C57.0608 57.844 56.8824 57.6132 56.6856 57.2412C56.3028 57.4976 55.9024 57.7272 55.5216 57.982ZM46.208 53.7488C46.4108 54.0252 46.4456 53.9604 46.7552 54.154C47.0088 54.3128 47.0772 54.4108 47.3724 54.4896L50.3356 49.7272C50.568 49.8972 52.5028 53.1024 52.804 53.6088C53.0928 54.0944 53.3248 54.4772 53.6164 54.9128C53.3088 55.1192 52.6472 55.4932 52.4524 55.7596C53.2924 55.9552 54.8564 56.6948 55.6272 56.712C55.6272 56.166 55.6932 55.7144 55.7644 55.1556C55.8112 54.7848 55.9448 53.97 55.9448 53.5372C55.5096 53.6384 55.1804 53.9608 54.7808 54.172C54.0992 53.1544 53.526 52.0952 52.8328 51.04C52.476 50.4968 52.1988 50.0312 51.8632 49.4696C51.3804 48.6608 51.2024 48.2456 50.23 48.2456C49.5432 48.2456 49.1984 48.8024 48.926 49.2696C48.612 49.8072 48.3156 50.2612 48.0024 50.7808L46.6656 52.936C46.4812 53.2432 46.2992 53.4084 46.208 53.7488ZM32.3216 25.4012H38.9648V37.3792C38.9648 38.1872 39.7028 39.1828 40.442 38.8508C48.9608 35.0256 51.8452 35.0256 59.034 38.8508C59.7492 39.2316 60.5116 38.1888 60.5116 37.3792V25.4012H67.9044C68.5544 25.4012 69.086 25.9316 69.086 26.5788V73.3096C69.086 73.9572 68.5544 74.4868 67.9044 74.4868H32.3216C31.6716 74.4868 31.14 73.9572 31.14 73.3096V26.5788C31.14 25.9308 31.6716 25.4012 32.3216 25.4012ZM33.4 27.0132H37.732V39.2812C37.732 40.0396 38.4192 40.9716 39.1104 40.66C47.0592 37.076 54.1812 37.076 60.8896 40.66C61.5584 41.0172 62.268 40.0396 62.268 39.2812V27.0132H66.6C67.2068 27.0132 67.7028 27.5092 67.7028 28.116V71.884C67.7028 72.4908 67.2068 72.9868 66.6 72.9868H33.4C32.7932 72.9868 32.2972 72.4908 32.2972 71.884V28.116C32.2972 27.5092 32.7932 27.0132 33.4 27.0132Z" fill="white"/>
</svg>
