<svg width="100" height="100" viewBox="0 0 100 100" fill="none" xmlns="http://www.w3.org/2000/svg">
<path fill-rule="evenodd" clip-rule="evenodd" d="M50 0C77.6144 0 100 22.3856 100 50C100 56.3512 98.8144 62.4248 96.654 68.0136H85.2016C84.5712 68.0136 84.0556 68.5292 84.0556 69.1596C84.0556 69.79 84.5712 70.3056 85.2016 70.3056H95.7016C95.5124 70.7308 95.3172 71.1528 95.1164 71.572H78.9516C78.3212 71.572 77.8056 72.0876 77.8056 72.718C77.8056 73.3484 78.3212 73.864 78.9516 73.864H93.944C93.712 74.2896 93.4748 74.712 93.2308 75.1304H72.7016C72.0712 75.1304 71.5556 75.646 71.5556 76.2764C71.5556 76.9068 72.0712 77.4224 72.7016 77.4224H91.8108C91.5304 77.8488 91.244 78.2712 90.9508 78.6888H66.4516C65.8212 78.6888 65.3056 79.2044 65.3056 79.8348C65.3056 80.4652 65.8212 80.9808 66.4516 80.9808H89.2432C88.9048 81.4084 88.56 81.8308 88.2084 82.2472H60.2016C59.5712 82.2472 59.0556 82.7628 59.0556 83.3928V83.3932C59.0556 84.0236 59.5712 84.5392 60.2016 84.5392H86.1524C77.0488 94.066 64.2176 100 50 100C22.3856 100 0 77.6144 0 50C0 42.7044 1.5636 35.7744 4.3724 29.5252H24.106C24.736 29.5252 25.2516 29.0096 25.2516 28.3792V28.3788C25.2516 27.7488 24.736 27.2332 24.106 27.2332H5.4724C5.6904 26.8072 5.9156 26.3852 6.146 25.9668H30.356C30.986 25.9668 31.5016 25.4512 31.5016 24.8208C31.5016 24.1904 30.986 23.6748 30.356 23.6748H7.4848C7.7492 23.248 8.0204 22.826 8.2976 22.4084H36.606C37.236 22.4084 37.7516 21.8928 37.7516 21.2624C37.7516 20.632 37.236 20.1164 36.606 20.1164H9.9124C10.2316 19.6888 10.5584 19.2668 10.8908 18.85H42.856C43.486 18.85 44.0016 18.3344 44.0016 17.704C44.0016 17.0736 43.486 16.558 42.856 16.558H12.834C13.2204 16.1288 13.6144 15.7068 14.0152 15.2916H49.106C49.736 15.2916 50.2516 14.776 50.2516 14.1456C50.2516 13.5152 49.736 12.9996 49.106 12.9996H16.3752C25.2548 4.924 37.0516 0 50 0ZM14.6248 47.6236C14.6248 48.0476 14.6532 48.486 14.7088 48.854C14.7264 48.97 14.7168 48.9916 14.806 49.0412L22.0516 53.1656C22.4412 53.3904 22.9468 53.5664 22.674 54.136C22.4824 54.5364 22.2348 54.8524 21.8808 55.1168C21.2016 55.6236 20.2896 55.9064 19.442 55.6648C19.358 55.6408 19.3048 55.6124 19.2176 55.582C18.5788 55.3568 18.0388 54.756 17.7952 54.1348C17.6264 53.7044 17.6048 53.096 17.6048 52.5952C17.6048 52.2624 17.6704 52.0084 17.6704 51.6972L16.2684 50.9308C16.1936 51.072 15.8148 52.1108 15.6404 52.4712C15.5116 52.7368 15.394 53.0304 15.2512 53.2868L15.1228 53.5308C15.1044 53.5704 15.1024 53.5864 15.0836 53.6232L14.3988 54.888C14.3004 55.0644 13.7128 56.0448 13.7048 56.1432C13.8068 56.1704 14.2584 56.4544 14.4068 56.536C15.7416 57.272 17.1332 57.7908 18.6368 58.09C18.722 58.1068 18.788 58.1208 18.8732 58.1384C19.2048 58.206 19.6296 58.2496 20.078 58.2676H20.9784C21.428 58.2492 21.8568 58.2036 22.1968 58.1268L22.8332 57.9744C22.952 57.9448 23.0268 57.9064 23.1308 57.878C23.4296 57.7968 23.7128 57.6584 23.9884 57.5304C24.0476 57.5028 24.0656 57.4976 24.1216 57.4664C24.1736 57.4376 24.198 57.426 24.2512 57.3988C24.3068 57.3708 24.3352 57.3528 24.3788 57.3296C24.4364 57.2992 24.462 57.2852 24.5192 57.2508C24.7648 57.102 25 56.9528 25.2228 56.7712C25.7488 56.3432 26.1908 55.8792 26.5708 55.3152L26.8656 54.8C26.9508 54.6304 27.0468 54.4264 27.1112 54.2568C27.132 54.2016 27.1404 54.1648 27.1612 54.1096C27.2576 53.8528 27.3212 53.5844 27.382 53.3228C27.4904 52.854 27.5024 52.1612 27.4468 51.6712C27.4156 51.3984 27.4052 51.164 27.3292 50.9128C27.3032 50.8268 27.2372 50.8132 27.1572 50.778C26.6284 50.5444 26.1264 50.178 25.6096 49.916L24.4588 49.2704C23.8388 48.8944 23.1628 48.564 22.5388 48.1888C22.4072 48.1096 22.2832 48.044 22.1472 47.9672C22.0788 47.9288 22.0284 47.904 21.962 47.8676L19.0748 46.242L19.0332 46.152C18.874 45.2316 19.7192 44.4884 20.5052 44.2156C20.5944 44.1848 20.6256 44.1624 20.7172 44.1428C20.8088 44.1232 20.8768 44.1092 20.9704 44.0888C21.808 43.9068 22.802 44.152 23.4552 44.6232C24.0064 45.0208 24.2436 45.674 24.2436 46.3536C24.2436 46.9088 24.0684 47.5592 24.0684 47.7552L24.434 47.9588C24.6368 48.0716 25.404 48.546 25.5584 48.5872C25.6048 48.4908 25.6292 48.3548 25.66 48.2508C25.8436 47.6288 26.0888 47.046 26.306 46.444L26.4284 46.128C26.658 45.5824 26.88 45.018 27.1628 44.4968L27.3552 44.1196C27.4492 43.9316 27.5448 43.7032 27.662 43.5284C27.4668 43.3976 27.246 43.2988 27.0336 43.1924C26.58 42.9656 25.6664 42.5388 25.1768 42.3984C24.8576 42.3068 24.5568 42.1872 24.2312 42.1172L23.0136 41.8668C22.3184 41.748 21.39 41.7176 20.674 41.8C19.9128 41.8876 19.4424 41.9988 18.7272 42.2192C18.6428 42.2452 18.5368 42.2904 18.4404 42.3268C17.7708 42.5808 16.9688 43.0512 16.4712 43.534C16.4228 43.5816 16.4108 43.5816 16.3624 43.6224C15.9372 43.9776 15.49 44.5772 15.238 45.0612C14.8768 45.7552 14.6248 46.5684 14.6248 47.6236ZM56.8908 48.456C56.8908 48.3032 56.8468 48.1664 56.8192 48.024C56.7988 47.918 56.7784 47.6648 56.7376 47.58C56.6368 47.6032 56.3596 47.8128 56.2488 47.8796L55.5256 48.3396C55.4364 48.392 55.3732 48.4352 55.282 48.4904C55.1036 48.5972 54.9532 48.6868 54.7752 48.794L53.2392 49.646C53.0692 49.7304 52.8712 49.858 52.684 49.9012C53.028 49.2516 53.308 48.5292 53.648 47.8864C53.582 47.8516 53.5516 47.826 53.486 47.786C53.1012 47.5524 52.5124 47.3388 52.0488 47.3388C51.4248 47.3388 50.9328 47.4348 50.4316 47.7372L50.1712 47.8936C49.884 48.0624 49.662 48.308 49.4412 48.456C49.4188 48.1844 49.2936 47.836 49.288 47.58C49.1776 47.5892 48.6536 47.9728 48.528 48.0468C48.4312 48.104 48.3668 48.1524 48.2756 48.2108L46.9728 48.9892C46.7496 49.1112 46.5388 49.2476 46.3104 49.3564C45.9816 49.5128 45.314 49.9296 45.0592 49.9888C45.0592 50.3288 45.1404 50.6384 45.1468 50.9308C45.4304 50.9072 46.0888 50.63 46.0888 51.5876V57.282C46.0888 57.5176 46.062 57.6904 46.0452 57.8952C46.1412 57.8728 47.0572 57.3192 47.2356 57.2232C47.4428 57.112 47.6404 57.0196 47.8404 56.9084C48.042 56.7964 48.2496 56.7016 48.4664 56.5924C48.6784 56.4856 48.8824 56.3924 49.0912 56.2968L50.064 55.8676C50.3068 55.7708 50.8748 55.5636 51.0628 55.464V53.7996C50.9956 53.8448 51.024 53.8252 50.9816 53.894C50.944 53.9548 50.9408 53.952 50.8976 54.0068C50.8468 54.0708 50.7688 54.134 50.6996 54.1816C50.398 54.3892 49.8464 54.4688 49.594 54.1288C49.4668 53.958 49.4192 53.7416 49.4192 53.5148V51.96C49.4192 51.4608 49.524 50.996 49.7132 50.6772C50.3436 49.6164 51.1504 49.8944 51.1504 50.5584C51.1504 50.8168 51.114 51.1468 51.0436 51.3716C50.9908 51.5416 50.8784 51.7452 50.8436 51.8944C50.9076 51.928 50.9428 51.9356 51.0156 51.9632C51.1836 52.0264 51.406 52.164 51.5884 52.1788L52.0548 51.2216C52.0988 51.1184 52.1244 51.08 52.1676 50.984C52.2164 50.8748 52.4628 50.3232 52.5308 50.2736L52.5964 50.9308C53.3788 50.7484 53.5604 50.9852 53.5604 51.8288L53.5608 56.9756C53.5616 57.116 53.5392 57.1544 53.5376 57.2808C53.5364 57.3912 53.5448 57.4948 53.5296 57.6016C53.5168 57.6916 53.4948 57.8108 53.4948 57.8952C53.602 57.87 53.6984 57.788 53.7924 57.7324C54.184 57.5008 54.5828 57.2736 54.992 57.0704C55.0492 57.0416 55.0868 57.0236 55.1368 56.996C55.3868 56.8568 55.6548 56.71 55.9208 56.5968C55.9912 56.5668 56.006 56.5588 56.07 56.5268L56.4576 56.3448C56.4928 56.3264 56.5052 56.3208 56.5464 56.3024C56.7688 56.2028 56.976 56.108 57.1972 56.0108L58.1912 55.6028C58.3096 55.5492 58.4268 55.5208 58.5344 55.464V53.7996C58.4744 53.8212 58.3512 54.0332 58.2832 54.0964C58.042 54.3208 57.6296 54.4364 57.3036 54.3072C57.0644 54.2124 56.8908 53.9836 56.8908 53.6904V51.6752C56.8908 51.2812 57.0752 50.8168 57.2372 50.576C58.0648 49.3432 59.0488 50.0924 58.4308 51.616C58.3868 51.7244 58.3656 51.7988 58.3152 51.8944C58.4528 51.9604 58.9548 52.1704 59.06 52.1788L59.7708 50.7208C59.7964 50.664 59.8072 50.6416 59.8344 50.5876L60.298 49.6492C60.3248 49.596 60.3336 49.5672 60.36 49.5144C60.5348 49.1616 60.7272 48.7996 60.8816 48.4368C60.9588 48.2552 61.0968 48.0796 61.1416 47.8864C61.0644 47.8456 61.0436 47.8164 60.9668 47.7764L60.6924 47.6348C59.9164 47.2468 58.89 47.2096 58.1148 47.6204C57.724 47.8272 57.3528 48.0552 57.0288 48.3528C56.9708 48.406 56.968 48.4352 56.8908 48.456ZM69.5772 48.7624C69.5988 48.8552 69.6456 48.9128 69.686 48.9824C69.7088 49.0224 69.7208 49.0532 69.7456 49.098C69.8708 49.3236 69.9432 49.5292 70.1688 49.5292H71.5276V56.9316C71.5288 57.1328 71.4836 57.5872 71.4836 57.8952L73.2584 56.9096C73.4692 56.8048 73.6696 56.704 73.8864 56.5956C74.4792 56.2992 75.3428 55.9184 75.9628 55.6704L76.4792 55.464V53.7996C76.4052 53.8492 76.3868 53.9292 76.3296 54.0008C76.1104 54.2756 75.6728 54.4692 75.2548 54.3008C74.9748 54.1884 74.858 53.9032 74.858 53.6028V49.5292H77.5528L77.5308 57.3912C77.5312 57.5168 77.5112 57.7924 77.4872 57.8952C77.5828 57.8728 77.7 57.7868 77.7868 57.7348L79.288 56.9136C79.3484 56.8792 79.3788 56.872 79.436 56.8424L82.1548 55.596C82.2624 55.5484 82.402 55.5136 82.5048 55.464V53.7996C82.4168 53.8644 82.3228 54.1644 81.9492 54.2956C81.696 54.3848 81.5028 54.4132 81.2476 54.2896C80.9736 54.1572 80.8832 53.8676 80.8832 53.5368V49.5292L82.3076 49.5072C82.3136 49.4368 82.4192 49.2036 82.4536 49.1272C82.5824 48.8384 82.8364 48.1752 82.9428 47.974C82.8676 47.9804 82.7512 48.044 82.6736 48.0772C82.236 48.266 81.912 48.3976 81.384 48.284C81.0276 48.2072 80.8616 47.7092 80.8616 47.4268C80.8616 46.6072 80.8832 45.8592 80.8832 45.0396C80.7356 45.1176 80.5716 45.2748 80.436 45.3808C80.3792 45.4256 80.3404 45.45 80.2868 45.4944L77.8944 47.308L76.9524 47.9432C76.5516 48.1852 75.7916 48.4424 75.2896 48.2652C74.9136 48.1328 74.8356 47.5504 74.836 47.142C74.8368 46.4412 74.836 45.7404 74.836 45.0396C74.6388 45.1712 74.4088 45.38 74.2128 45.5336C73.6744 45.9568 73.2092 46.352 72.648 46.7728L72.006 47.248C71.1904 47.8508 70.4664 48.2924 69.5772 48.7624ZM37.1056 52.376L37.1576 51.64C37.1708 51.5552 37.1956 51.4728 37.2096 51.4072C37.3784 50.6168 37.7908 50.0296 38.6232 49.8632C38.9072 49.8068 38.7072 49.8136 39.0556 49.8136C39.5648 49.8136 40.0244 50.0892 40.208 50.5452C40.2576 50.6688 40.3264 50.9044 40.3264 51.062V54.0408C40.3264 54.3692 40.1752 54.6952 39.9732 54.936C39.6952 55.2668 39.276 55.3472 38.8152 55.288C38.6312 55.2644 38.3112 55.1444 38.142 55.0416C38.0376 54.9784 37.8732 54.8516 37.8064 54.7632C37.7568 54.6976 37.72 54.6704 37.6652 54.598C37.4408 54.3008 37.3824 54.0624 37.2776 53.7588L37.1676 53.2556C37.1532 53.1712 37.1548 53.0772 37.14 52.9768L37.1056 52.376ZM37.456 57.9828C37.8196 57.9828 38.1192 57.9448 38.4272 57.7708C38.534 57.7108 38.6336 57.6588 38.7312 57.5928L40.3044 56.6688V57.8732L41.5964 57.1276C42.0492 56.8656 42.4852 56.6648 42.9352 56.4292L43.8832 55.9972C44.1548 55.8668 45.07 55.5164 45.1688 55.464V53.9528C45.0828 53.984 45.1388 53.9792 45.0468 54.116C45.0012 54.184 44.96 54.2244 44.8996 54.2752C44.6364 54.4984 44.1992 54.5508 43.9136 54.2656C43.83 54.1816 43.7224 54.0208 43.7224 53.8652V49.3756C43.7224 49.1732 43.8908 48.9708 44.036 48.9004C44.2324 48.8056 44.4744 48.8444 44.6868 48.894C44.7796 48.7184 44.8648 48.6016 44.9884 48.4508C45.0924 48.3236 45.3028 48.1124 45.322 48.04C44.7624 47.744 44.214 47.5236 43.5696 47.492C43.4604 47.4864 43.4032 47.4576 43.2656 47.4736C43.0876 47.4944 42.8536 47.5044 42.6848 47.5504C42.2644 47.6648 41.9144 47.8224 41.5748 48.0832C41.5096 48.1336 41.4472 48.1908 41.378 48.2368C41.2948 48.2176 41.1536 48.1264 41.0716 48.0836C40.9664 48.0288 40.8636 47.9772 40.7504 47.9228C40.2984 47.706 39.8164 47.5752 39.3272 47.462C38.7352 47.3244 38.2032 47.352 37.6112 47.4068C37.3924 47.4268 36.8632 47.5588 36.6608 47.6392C36.3364 47.7676 36.1436 47.8472 35.8436 48.0268C35.5332 48.2128 35.0628 48.586 34.8552 48.8348L34.5856 49.1564C34.4056 49.4076 34.2732 49.6056 34.1328 49.8868C34.0644 50.0236 33.9936 50.158 33.9416 50.3088C33.9136 50.3908 33.8888 50.4524 33.8656 50.5176C33.7388 50.8708 33.6376 51.3544 33.6016 51.7428C33.5732 52.0488 33.544 52.3048 33.5748 52.5764C33.5844 52.6644 33.578 52.7884 33.5776 52.88C33.5752 53.338 33.6636 53.7768 33.7344 54.2124C33.7752 54.4632 33.8028 54.5048 33.8428 54.6956C33.8988 54.964 34.1196 55.5388 34.2504 55.7776C34.2904 55.8508 34.3168 55.9036 34.3592 55.9752C34.5028 56.2176 34.5556 56.2804 34.7296 56.5028C34.8596 56.6696 34.9968 56.82 35.1588 56.95C35.412 57.154 35.3796 57.152 35.6852 57.3432L36.0628 57.5576C36.1996 57.6332 36.3524 57.6792 36.492 57.7416C36.5664 57.7748 36.6284 57.7816 36.708 57.8104C36.8836 57.874 37.2556 57.9828 37.456 57.9828ZM63.3768 52.442C63.0828 51.8868 63.0988 51.2468 63.3076 50.6648C63.3776 50.47 63.5104 50.2864 63.63 50.1328C63.7168 50.0208 63.7428 50.0144 63.8416 49.928C63.932 49.8488 63.9972 49.8072 64.1004 49.7488C64.542 49.4976 65.074 49.538 65.5024 49.7476C65.9428 49.9632 66.2436 50.3824 66.4504 50.8148C66.4888 50.8948 66.6124 51.2388 66.6192 51.3248L63.3768 52.442ZM59.9148 52.7484C59.9148 53.916 60.3464 55.1984 61.1252 56.0716C61.768 56.792 62.4484 57.288 63.3732 57.6356C63.5164 57.6892 63.696 57.7504 63.8604 57.784C63.954 57.8028 64.0136 57.8208 64.1088 57.8424C64.6376 57.9612 65.2424 57.9696 65.7836 57.9136C65.9168 57.9 66.1428 57.8796 66.2712 57.8536C66.7768 57.7508 67.2708 57.6416 67.7372 57.4356L68.6664 56.9848C69.1064 56.7244 69.836 56.2248 70.1844 55.808L70.4448 55.5208C70.6068 55.3132 70.7688 55.106 70.892 54.8728C70.762 54.6788 69.822 53.5012 69.7964 53.4056H69.7308C69.6864 53.5724 69.4212 53.8248 69.2976 53.9584C69.2356 54.0252 69.218 54.0696 69.1448 54.1336C68.61 54.5988 68.1928 54.8828 67.5304 55.148C67.4292 55.1888 67.3988 55.1996 67.2856 55.2324C66.9692 55.3232 66.698 55.4204 66.3348 55.4204C65.5268 55.4204 64.9168 55.1944 64.4448 54.6592C64.328 54.5268 64.116 54.2924 64.0776 54.1284C64.2664 54.0844 64.4688 53.9856 64.6536 53.9152C64.7032 53.8964 64.6996 53.9 64.752 53.8824L67.2192 52.9536C67.2944 52.9272 67.342 52.904 67.408 52.8796C67.7988 52.7372 68.2048 52.5976 68.5848 52.4356C68.9508 52.2792 69.5728 52.0632 69.9744 51.9188C70.0808 51.8808 70.272 51.7944 70.388 51.7848C70.3852 51.6588 70.3104 51.4164 70.2756 51.306L70.0564 50.6272C69.9296 50.2904 69.75 49.93 69.54 49.6324C69.0272 48.9068 68.6096 48.4676 67.8772 47.9872C67.8128 47.9448 67.7536 47.908 67.686 47.872C67.5472 47.7972 67.4128 47.7344 67.2772 47.6672C66.7384 47.3996 65.8844 47.2296 65.3048 47.2296C64.1216 47.2296 63.0628 47.5868 62.212 48.2116C62.0168 48.3548 61.8208 48.51 61.6512 48.6804L61.3992 48.9324C61.3608 48.9764 61.3608 48.9868 61.3224 49.0308C61.2596 49.1012 61.2204 49.142 61.1584 49.2172C61.1048 49.282 61.0728 49.3368 61.0196 49.4072C60.8688 49.6064 60.7388 49.8132 60.6232 50.04L60.512 50.2576C60.4824 50.3188 60.4804 50.3028 60.4496 50.3704C60.118 51.1056 59.9148 51.938 59.9148 52.7484ZM26.5008 48.7624C26.5224 48.8552 26.5684 48.9048 26.61 48.9816L26.8468 49.402C26.8916 49.4592 26.9756 49.5292 27.0704 49.5292H28.4508L28.428 55.6604C28.4248 55.9144 28.444 57.4536 28.4168 57.642C28.4052 57.7208 28.3864 57.83 28.3848 57.8952L29.8824 57.0704C30.7208 56.6552 31.5248 56.2176 32.4036 55.8676L33.4024 55.464V53.7996C33.3072 53.8692 33.3164 53.97 33.1524 54.0972C32.4472 54.6448 31.7592 54.2964 31.7592 53.6244V49.5292L33.1832 49.5072L33.7468 48.1868C33.7804 48.1076 33.8104 48.074 33.8188 47.974C33.6564 48.0176 33.4516 48.2292 32.7484 48.3068C32.2796 48.3588 32.0012 48.2668 31.834 47.8336C31.7028 47.4944 31.7592 46.9288 31.7592 46.4848C31.7592 46.0104 31.7592 45.536 31.7592 45.0612C31.6612 45.0696 31.6696 45.1028 31.5964 45.1616L31.124 45.5432C30.5476 45.992 30.0044 46.45 29.4084 46.8948C29.346 46.9412 29.3076 46.9712 29.2436 47.0148C28.83 47.2952 28.4116 47.6348 27.9288 47.9344C27.812 48.0072 27.708 48.0804 27.5952 48.1484L26.5008 48.7624ZM84.0604 45.8936C83.3608 45.8936 82.7784 45.6384 82.3636 45.0932C81.9752 44.5828 81.8832 43.7796 82.1684 43.192C82.3524 42.8132 82.5028 42.6544 82.8176 42.4172C83.3756 41.9976 84.2256 41.9484 84.842 42.2436L85.1376 42.408C85.6264 42.7448 85.9668 43.3304 85.9668 43.9444C85.9668 44.7892 85.5312 45.324 84.84 45.7092C84.6828 45.7968 84.2988 45.8936 84.0604 45.8936ZM83.8288 41.7324H84.1052C84.202 41.7384 84.2988 41.7508 84.3956 41.77C84.684 41.8268 85.0012 41.9344 85.2348 42.0916C85.3 42.1352 85.3424 42.162 85.4036 42.2076C85.768 42.4792 85.968 42.7676 86.1568 43.1848C86.2412 43.3708 86.2948 43.6724 86.2952 43.898V43.9036C86.2948 44.4868 86.1888 44.8512 85.8636 45.2868C85.7044 45.5 85.518 45.6916 85.2888 45.8292L84.9368 46.0248C84.3472 46.2904 83.6076 46.2908 83.0376 46.018C82.8928 45.9484 82.814 45.9152 82.6708 45.8152C82.6108 45.7732 82.5696 45.7364 82.5116 45.6896C82.4564 45.6448 82.4172 45.6188 82.3672 45.5708C81.8868 45.1092 81.672 44.542 81.672 43.8788C81.672 43.5936 81.7996 43.2088 81.8984 43.0096C82.2628 42.276 83.014 41.7832 83.8288 41.7324ZM84.2796 43.8348H83.4468V43.1124H84.3892C84.726 43.1124 84.7904 43.8348 84.2796 43.8348ZM83.0964 42.8492V45.1268H83.4468V44.1416H84.3232C84.4348 44.1416 84.5416 44.2384 84.5788 44.324C84.6116 44.3992 84.6172 44.624 84.6268 44.7144C84.6804 45.2108 84.5324 45.1268 85.0904 45.1268C85.0784 44.9824 85.0044 45.0996 84.9668 44.8784C84.9236 44.6276 85.0612 44.0856 84.696 43.9884C84.7708 43.8856 85.0028 43.8372 85.0028 43.4408C85.0028 43.1944 84.9212 43.0564 84.7748 42.9456C84.6424 42.8452 84.4164 42.7836 84.192 42.7836H83.162C83.1116 42.7836 83.0964 42.7988 83.0964 42.8492Z" fill="white"/>
</svg>
