<svg width="100" height="100" viewBox="0 0 100 100" fill="none" xmlns="http://www.w3.org/2000/svg">
<path fill-rule="evenodd" clip-rule="evenodd" d="M50 0C77.6144 0 100 22.3856 100 50C100 56.3512 98.8144 62.4248 96.654 68.0136H85.2016C84.5712 68.0136 84.0556 68.5292 84.0556 69.1596C84.0556 69.79 84.5712 70.3056 85.2016 70.3056H95.7016C95.5124 70.7308 95.3172 71.1528 95.1164 71.572H78.9516C78.3212 71.572 77.8056 72.0876 77.8056 72.718C77.8056 73.3484 78.3212 73.864 78.9516 73.864H93.944C93.712 74.2896 93.4748 74.712 93.2308 75.1304H72.7016C72.0712 75.1304 71.5556 75.646 71.5556 76.2764C71.5556 76.9068 72.0712 77.4224 72.7016 77.4224H91.8108C91.5304 77.8488 91.244 78.2712 90.9508 78.6888H66.4516C65.8212 78.6888 65.3056 79.2044 65.3056 79.8348C65.3056 80.4652 65.8212 80.9808 66.4516 80.9808H89.2432C88.9048 81.4084 88.56 81.8308 88.2084 82.2472H60.2016C59.5712 82.2472 59.0556 82.7628 59.0556 83.3928V83.3932C59.0556 84.0236 59.5712 84.5392 60.2016 84.5392H86.1524C77.0488 94.066 64.2176 100 50 100C22.3856 100 0 77.6144 0 50C0 42.7044 1.5636 35.7744 4.3724 29.5252H24.106C24.736 29.5252 25.2516 29.0096 25.2516 28.3792V28.3788C25.2516 27.7488 24.736 27.2332 24.106 27.2332H5.4724C5.6904 26.8072 5.9156 26.3852 6.146 25.9668H30.356C30.986 25.9668 31.5016 25.4512 31.5016 24.8208C31.5016 24.1904 30.986 23.6748 30.356 23.6748H7.4848C7.7492 23.248 8.0204 22.826 8.2976 22.4084H36.606C37.236 22.4084 37.7516 21.8928 37.7516 21.2624C37.7516 20.632 37.236 20.1164 36.606 20.1164H9.9124C10.2316 19.6888 10.5584 19.2668 10.8908 18.85H42.856C43.486 18.85 44.0016 18.3344 44.0016 17.704C44.0016 17.0736 43.486 16.558 42.856 16.558H12.834C13.2204 16.1288 13.6144 15.7068 14.0152 15.2916H49.106C49.736 15.2916 50.2516 14.776 50.2516 14.1456C50.2516 13.5152 49.736 12.9996 49.106 12.9996H16.3752C25.2548 4.924 37.0516 0 50 0ZM69.3072 22.0568C69.1916 23.3652 46.668 25.8704 46.274 21.2624C46.2664 21.172 46.3232 21.08 46.4204 21.08H69.2288C69.338 21.08 69.3948 21.1724 69.3868 21.274C69.3644 21.5352 69.342 21.7844 69.3072 22.0568ZM67.0496 37.8216C66.7608 41.7708 66.4648 45.7196 66.172 49.6688C66.1612 49.822 65.93 50 65.65 50H50C49.7252 50 49.5004 49.822 49.4888 49.668C49.196 45.7192 48.8996 41.7708 48.6116 37.8216C48.2872 33.4096 47.9416 28.6992 47.5728 23.6364H68.0876C67.7196 28.6996 67.3736 33.4208 67.0496 37.8216ZM69.7648 20.7372C69.6272 20.5872 69.4368 20.5044 69.2288 20.5044H66.2688V20.51L49.0236 20.5992V20.5044H46.4204C45.9844 20.5044 45.6632 20.8848 45.7008 21.3128C45.7236 21.5808 45.7472 21.85 45.7812 22.12L45.8488 22.89C45.8844 23.3012 46.2484 23.6364 46.66 23.6364H46.996C47.628 32.328 48.2696 41.0188 48.9148 49.71C48.948 50.1868 49.4352 50.5752 50 50.5752H65.65C66.2204 50.5752 66.7124 50.1868 66.746 49.7104C67.3908 41.0192 68.0336 32.3284 68.6644 23.6364H68.9892C69.408 23.6364 69.7764 23.3012 69.8116 22.8904L69.8792 22.1188C69.914 21.85 69.9372 21.5928 69.9604 21.3228C69.9784 21.1048 69.9068 20.8916 69.7648 20.7372ZM66.19 28.206C66.196 28.2064 66.2024 28.2064 66.2092 28.2064C66.3588 28.2064 66.4856 28.09 66.4956 27.938L66.666 25.3588C66.6772 25.2 66.5568 25.0628 66.398 25.0524C66.2544 25.0444 66.1028 25.1616 66.0924 25.3208L65.9216 27.8996C65.9108 28.0584 66.0312 28.1952 66.19 28.206ZM64.8324 48.6296C64.8388 48.6296 64.8452 48.6304 64.852 48.6304C65.0024 48.6304 65.1284 48.5136 65.1388 48.3616L66.3584 30.056C66.3688 29.8976 66.2496 29.7608 66.0904 29.75C65.9316 29.7404 65.7944 29.8592 65.7848 30.018L64.5648 48.3228C64.554 48.4816 64.6736 48.6188 64.8324 48.6296ZM31.4148 55.4952L33.4552 71.6492L37.2152 71.1756C38.2052 71.0488 38.9104 70.1404 38.7852 69.1488L37.4252 58.4C37.4236 58.3872 37.4224 58.3748 37.4216 58.3624L37.1976 56.5908C37.07 55.5992 36.1628 54.894 35.1728 55.0208L31.4148 55.4952ZM32.8876 73.0388C32.56 73.0388 32.2772 72.7952 32.2376 72.4648L30.0324 55.0088C29.9848 54.6504 30.24 54.3228 30.6 54.2764L35.008 53.7192C36.71 53.5024 38.2828 54.7184 38.4972 56.4276L38.6288 57.4668L47.4576 54.7836C48.8404 54.2888 50.3576 54.206 51.8172 54.5496L60.658 55.7248C63.11 56.198 63.3528 58.5388 63.1424 59.7108C63.1332 59.7524 63.1196 59.8104 63.178 59.858L63.3268 59.8736L63.3304 59.872L73.2008 53.754C74.3004 53.0928 75.5556 53.192 76.5148 53.9864C77.51 54.8112 77.868 56.1216 77.4256 57.3256C77.1576 58.0532 76.7552 58.7424 76.2708 59.3204C75.8056 59.8768 75.2976 60.3288 74.8028 60.7656C74.6428 60.91 74.4804 61.0532 74.3232 61.2C73.8832 61.6052 73.4232 61.9816 72.9576 62.3132L64.348 68.4756C63.2504 69.2616 61.9604 69.6768 60.6104 69.6768L40.0896 69.7224C39.9324 71.1236 38.8364 72.2912 37.3804 72.4748L32.9704 73.0308C32.94 73.036 32.9124 73.0388 32.8876 73.0388ZM38.7956 58.786L40.0128 68.412L60.6104 68.366C61.6828 68.366 62.7104 68.0356 63.5856 67.4112L72.1952 61.2488C72.618 60.946 73.0328 60.6072 73.4332 60.2384C73.5976 60.0844 73.7656 59.9356 73.9356 59.7868C74.4104 59.3624 74.8632 58.9584 75.2708 58.4788C75.6576 58.0144 75.978 57.458 76.1956 56.872C76.498 56.0536 76.1076 55.3508 75.6804 54.9968C75.1504 54.5596 74.4924 54.5036 73.918 54.8504C73.91 54.8552 64.0228 60.9852 64.0228 60.9852C63.8636 61.0836 63.6912 61.1484 63.5148 61.18C63.4952 61.184 63.4756 61.1872 63.456 61.1892C63.2464 61.218 63.0328 61.2004 62.8304 61.1364C60.1908 60.8608 48.968 59.6768 48.968 59.6768C48.608 59.6372 48.3448 59.3156 48.3852 58.9568C48.4228 58.5956 48.7476 58.3388 49.1052 58.3728L61.8248 59.7152C61.828 59.6288 61.8388 59.5416 61.8576 59.4552C61.8876 59.2644 62.1676 57.3504 60.4452 57.0188L51.6128 55.8436C50.3228 55.5392 49.05 55.6072 47.868 56.0296L38.7956 58.786Z" fill="white"/>
</svg>
