<svg width="70" height="43" viewBox="0 0 70 43" fill="none" xmlns="http://www.w3.org/2000/svg">
<path fill-rule="evenodd" clip-rule="evenodd" d="M10.1341 32.9584C10.7909 32.9821 11.9982 32.9584 12.6553 32.9407C13.3121 32.9231 13.4186 32.911 13.5194 32.8816C13.6199 32.852 13.7144 32.8048 13.9454 32.4969C14.1761 32.1892 14.5431 31.6212 14.7858 31.2305C15.0282 30.8399 15.1468 30.6266 15.2245 30.4404C15.3021 30.2542 15.3395 30.0949 15.3155 29.9603C15.2913 29.8259 15.2062 29.7162 14.9732 29.6796C14.7401 29.6432 14.3592 29.6796 12.6658 29.6888C10.9722 29.698 7.96584 29.6796 6.4033 29.7345C4.84076 29.7893 4.72195 29.9173 3.88294 31.2086C3.04372 32.4998 1.484 34.9545 0.715539 36.2206C-0.0528618 37.4868 -0.0302953 37.5645 0.0222456 37.6022C0.0747662 37.6396 0.157324 37.6368 0.314336 37.6355C0.471409 37.6341 0.70273 37.6341 1.30441 37.6327C1.90604 37.6311 2.87752 37.6281 3.47437 37.6343C4.07113 37.6403 4.29274 37.6555 4.4141 37.6552C4.53521 37.6546 4.55575 37.6385 4.69055 37.4291C4.82506 37.2198 5.07345 36.8171 5.77193 35.7045C6.47038 34.5921 7.61832 32.7691 8.22798 31.8221C8.8377 30.8752 8.90847 30.8041 8.9973 30.7865C9.08609 30.7687 9.19288 30.8041 9.29373 30.8338C9.39423 30.8636 9.48874 30.887 9.58952 30.9227C9.69008 30.958 9.79659 31.0055 9.85571 31.1239C9.91481 31.2422 9.92676 31.4315 9.87938 31.5854C9.83199 31.7393 9.72548 31.8576 9.61296 31.976C9.50045 32.0943 9.38223 32.2128 9.31112 32.3076C9.24004 32.4022 9.21661 32.4732 9.21661 32.5503C9.21661 32.6271 9.24005 32.7099 9.30511 32.787C9.37022 32.8639 9.47701 32.9346 10.1341 32.9584V32.9584Z" fill="white"/>
<path fill-rule="evenodd" clip-rule="evenodd" d="M25.5762 29.7253C23.8048 29.6614 20.2805 29.6614 18.4475 29.7277C16.6145 29.794 16.4723 29.9261 15.8746 30.8979C15.277 31.8696 14.2233 33.6806 13.4954 34.8762C12.7675 36.0716 12.3648 36.6516 12.1284 36.9988C11.892 37.346 11.8212 37.4605 11.8121 37.5328C11.8026 37.6047 11.8546 37.6341 13.6442 37.6444C15.4338 37.6547 18.9609 37.6455 20.7857 37.6436C22.6101 37.6414 22.7323 37.6462 22.8543 37.5611C22.9759 37.4757 23.0978 37.3004 23.2829 36.9997C23.4679 36.6991 23.7166 36.2729 23.8705 35.9772C24.0241 35.6813 24.0835 35.5154 24.1133 35.3615C24.1427 35.2075 24.1427 35.0657 24.1073 34.9945C24.0716 34.9234 24.0008 34.9234 23.3203 34.9294C22.6395 34.9354 21.3491 34.9471 20.6566 34.9768C19.9641 35.0066 19.8696 35.0536 19.7808 35.1781C19.692 35.3024 19.6091 35.5034 19.4435 35.7401C19.2779 35.9769 19.0292 36.2492 18.8519 36.48C18.6743 36.7107 18.5675 36.9003 18.4492 37.0068C18.3307 37.1134 18.2005 37.137 18.0172 37.137C17.8336 37.137 17.5969 37.1134 17.4429 37.0542C17.289 36.9949 17.2182 36.9003 17.2005 36.8175C17.1825 36.7344 17.2182 36.6635 17.4433 36.2907C17.668 35.9178 18.0823 35.2433 18.3724 34.8409C18.6623 34.4383 18.8282 34.3081 18.9584 34.2429C19.0886 34.1778 19.1831 34.1778 20.1183 34.1721C21.0535 34.1661 22.8288 34.1542 23.7463 34.1485C24.6635 34.1424 24.7229 34.1424 24.8177 34.0951C24.9123 34.0477 25.0422 33.9531 25.3677 33.4737C25.6933 32.9941 26.2141 32.1301 26.5828 31.4947C26.9511 30.8591 27.1676 30.4522 27.2667 30.1849C27.3655 29.9174 27.3472 29.7893 25.5762 29.7254V29.7253ZM21.5604 30.8463C21.8599 31.0365 21.9492 31.4367 21.759 31.7362L20.8369 33.1874C20.6467 33.487 20.2465 33.5762 19.947 33.386C19.6476 33.1958 19.5583 32.7954 19.7485 32.496L20.6705 31.0447C20.8607 30.7453 21.261 30.656 21.5604 30.8463Z" fill="white"/>
<path fill-rule="evenodd" clip-rule="evenodd" d="M37.3837 29.6928C35.5264 29.6683 31.9838 29.6683 30.2019 29.6828C28.42 29.6971 28.3989 29.7262 27.4577 31.2471C26.5162 32.768 24.6547 35.7812 23.7003 37.3469C22.746 38.9126 22.6986 39.0308 22.7343 39.179C22.7697 39.3269 22.8879 39.5042 23.2492 40.1259C23.6101 40.7473 24.2138 41.8125 24.5513 42.369C24.8885 42.9252 24.9594 42.9723 25.0364 42.9904C25.1133 43.008 25.1964 42.996 25.7706 42.1263C26.3446 41.2561 27.4098 39.5279 27.9994 38.6313C28.5888 37.7347 28.7024 37.6696 29.6922 37.6382C30.6816 37.6064 32.5472 37.6082 33.5158 37.6127C34.4844 37.6173 34.5561 37.6247 34.6324 37.6198C34.7086 37.6151 34.7891 37.5984 35.421 36.6736C36.0527 35.7486 37.2352 33.9156 37.9508 32.81C38.6664 31.704 38.9151 31.325 39.0987 31.0412C39.2821 30.7571 39.4003 30.5674 39.4705 30.379C39.5408 30.1903 39.563 30.0024 39.4879 29.8842C39.4128 29.7656 39.2409 29.7171 37.3837 29.6928ZM33.5535 30.8462L33.5541 30.8464C33.8537 31.0366 33.9427 31.4364 33.7526 31.7359L32.8302 33.1877C32.1446 34.268 31.3847 35.3202 30.6971 36.4028C30.507 36.702 30.1069 36.7915 29.8076 36.6013L29.807 36.6009C29.5077 36.4104 29.4184 36.0106 29.6085 35.711C30.3016 34.6203 31.0578 33.5711 31.7417 32.496L32.664 31.0442C32.8542 30.7449 33.2543 30.6556 33.5535 30.8461L33.5535 30.8462Z" fill="white"/>
<path fill-rule="evenodd" clip-rule="evenodd" d="M49.8425 29.6854C48.0138 29.6617 44.4763 29.6825 42.6902 29.6931C40.9037 29.7033 40.8681 29.7033 40.8149 29.733C40.7615 29.7624 40.6907 29.8219 39.9037 31.0706C39.1164 32.3193 37.613 34.7577 36.8673 36.0302C36.1215 37.3026 36.1335 37.4091 36.1749 37.4863C36.2163 37.5631 36.2871 37.6104 36.654 37.6281C37.021 37.6459 37.6841 37.6341 39.4251 37.6291C41.1659 37.624 43.9849 37.6257 45.4904 37.6374C46.9958 37.6488 47.1877 37.67 47.3644 37.5805C47.5409 37.4909 47.7023 37.2902 48.3453 36.2784C48.9881 35.2667 50.1126 33.444 50.7577 32.3668C51.4028 31.2894 51.5687 30.9581 51.693 30.7098C51.8171 30.461 51.9003 30.2951 51.9299 30.1652C51.9594 30.035 51.9356 29.9401 51.8637 29.8587C51.7917 29.7774 51.6713 29.7091 49.8425 29.6855V29.6854ZM46.118 30.8462L46.1186 30.8464C46.4182 31.0366 46.5072 31.4364 46.3171 31.7359L45.3947 33.1877C44.7091 34.268 43.9493 35.3202 43.2616 36.4028C43.0715 36.702 42.6713 36.7915 42.3721 36.6013L42.3715 36.6009C42.0722 36.4104 41.9829 36.0106 42.173 35.711C42.8661 34.6203 43.6223 33.5711 44.3062 32.496L45.2285 31.0442C45.4187 30.7449 45.8188 30.6555 46.118 30.8461L46.118 30.8462Z" fill="white"/>
<path fill-rule="evenodd" clip-rule="evenodd" d="M59.2745 32.6745C60.0438 32.6863 61.4644 32.6505 62.2517 32.5738C63.0387 32.4969 63.1923 32.3785 63.429 32.1477C63.6658 31.917 63.9856 31.5735 64.2047 31.2008C64.4237 30.8279 64.5419 30.4253 64.5858 30.1674C64.6295 29.9096 64.599 29.7958 64.5322 29.7396C64.4654 29.683 64.3623 29.6837 62.4713 29.6793C60.5801 29.6751 56.9004 29.6659 55.0617 29.6812C53.2227 29.6961 53.2241 29.7354 53.0474 30.0096C52.8706 30.2834 52.5157 30.7926 51.8409 31.8994C51.1661 33.0059 50.1721 34.7104 49.6218 35.6753C49.0713 36.6399 48.9645 36.8647 48.9054 37.06C48.8463 37.2553 48.8342 37.4212 48.8897 37.5123C48.9447 37.6034 49.0667 37.6199 49.8125 37.626C50.5581 37.6316 51.9277 37.6272 52.6419 37.6248C53.356 37.6222 53.4154 37.6222 53.522 37.5632C53.6285 37.504 53.7821 37.3855 54.4806 36.2729C55.179 35.1604 56.4218 33.0533 57.1379 31.9171C57.8542 30.7808 58.0434 30.6149 58.2034 30.5144C58.363 30.4139 58.4932 30.3782 58.6177 30.3842C58.7419 30.3902 58.8602 30.4373 58.9549 30.5144C59.0498 30.5912 59.1206 30.6977 59.0378 30.8754C58.9549 31.053 58.7182 31.3014 58.5586 31.5265C58.3987 31.7515 58.3156 31.9525 58.2802 32.1185C58.2448 32.284 58.2565 32.4142 58.3216 32.5091C58.3867 32.6035 58.5052 32.6626 59.2745 32.6745Z" fill="white"/>
<path fill-rule="evenodd" clip-rule="evenodd" d="M7.10231 37.6387C6.86506 37.2067 6.63946 36.8478 6.40445 36.4146C6.93214 35.597 7.5598 34.6021 8.25055 33.7095C8.8922 34.386 10.8146 36.7715 11.4083 37.6436C9.76375 37.6613 8.53955 37.651 7.10231 37.6387Z" fill="white"/>
<path fill-rule="evenodd" clip-rule="evenodd" d="M31.7973 0C36.2917 0 40.2894 2.07928 42.843 5.30851C42.8051 5.26041 42.7668 5.21267 42.7282 5.16516C42.338 5.16973 41.895 5.17372 41.39 5.17642C38.1869 5.19386 32.5007 5.15928 29.5451 5.26295C26.59 5.36651 26.3652 5.6085 24.7786 8.05111C23.191 10.4932 20.2412 15.1357 18.7877 17.5303C18.6975 17.679 18.613 17.8189 18.534 17.9508C18.557 18.0192 18.5805 18.0873 18.6046 18.1552C18.1063 16.7501 17.8347 15.2413 17.8347 13.6702C17.8347 6.12031 24.0861 0 31.7973 0ZM44.8856 8.90019C45.4505 10.3853 45.7599 11.9923 45.7599 13.6702C45.7599 21.22 39.5085 27.3403 31.7973 27.3403C26.5025 27.3403 21.8962 24.4547 19.529 20.2021L19.9017 20.2012C21.0395 20.1979 22.8769 20.1925 24.004 20.1954C25.1311 20.1979 25.5474 20.2095 25.7771 20.2089C26.0061 20.2079 26.0479 20.1943 26.3043 19.8075C26.5604 19.4203 27.03 18.6587 28.3512 16.5544C29.6722 14.4504 31.8436 11.0025 32.9967 9.21141C34.1498 7.42049 34.2837 7.28604 34.4515 7.25273C34.6196 7.21921 34.8216 7.28605 35.0122 7.34215C35.2024 7.39862 35.381 7.44277 35.5716 7.5102C35.7617 7.5771 35.9631 7.66676 36.0751 7.89102C36.1868 8.11471 36.2096 8.47255 36.1199 8.76373C36.0303 9.05484 35.8289 9.27861 35.6158 9.50246C35.4031 9.72621 35.1795 9.95036 35.0449 10.1295C34.9107 10.3085 34.8664 10.4429 34.8664 10.5889C34.8664 10.7341 34.9107 10.8905 35.0337 11.0364C35.1569 11.1817 35.3589 11.3157 36.6017 11.3605C37.8439 11.4054 40.1273 11.3605 41.37 11.327C42.6122 11.2937 42.8137 11.2707 43.0044 11.2153C43.1945 11.159 43.3733 11.0699 43.8101 10.4877C44.1026 10.0975 44.511 9.48612 44.8866 8.90286L44.8856 8.90019ZM33.2177 12.8378C33.031 12.6772 32.8994 12.5686 32.6897 12.437C32.3019 12.893 31.6746 13.9937 31.3239 14.5544C31.0721 14.9577 29.6583 17.1332 29.5952 17.3833C29.5627 17.5118 29.6034 17.494 29.7576 17.6202C30.0795 17.8773 33.2042 20.0993 33.3678 20.1527C33.7665 20.2305 35.6867 20.1963 36.1741 20.1977C36.655 20.1991 41.6056 20.2494 41.7015 20.163C41.7618 20.1084 41.033 19.5265 40.9548 19.4602C38.3663 17.2707 35.7899 15.0477 33.2177 12.8378Z" fill="white"/>
</svg>
